<?xml version="1.0" encoding="utf-8" standalone="no"?>
<!DOCTYPE svg PUBLIC "-//W3C//DTD SVG 1.1//EN"
  "http://www.w3.org/Graphics/SVG/1.1/DTD/svg11.dtd">
<svg xmlns:xlink="http://www.w3.org/1999/xlink" width="683.443719pt" height="528.227pt" viewBox="0 0 683.443719 528.227" xmlns="http://www.w3.org/2000/svg" version="1.1">
 <metadata>
  <rdf:RDF xmlns:dc="http://purl.org/dc/elements/1.1/" xmlns:cc="http://creativecommons.org/ns#" xmlns:rdf="http://www.w3.org/1999/02/22-rdf-syntax-ns#">
   <cc:Work>
    <dc:type rdf:resource="http://purl.org/dc/dcmitype/StillImage"/>
    <dc:date>2026-07-05T05:41:28.519732</dc:date>
    <dc:format>image/svg+xml</dc:format>
    <dc:creator>
     <cc:Agent>
      <dc:title>Matplotlib v3.10.0, https://matplotlib.org/</dc:title>
     </cc:Agent>
    </dc:creator>
   </cc:Work>
  </rdf:RDF>
 </metadata>
 <defs>
  <style type="text/css">*{stroke-linejoin: round; stroke-linecap: butt}</style>
 </defs>
 <g id="figure_1">
  <g id="patch_1">
   <path d="M 0 528.227 
L 683.443719 528.227 
L 683.443719 0 
L 0 0 
z
" style="fill: #ffffff"/>
  </g>
  <g id="axes_1">
   <g id="patch_2">
    <path d="M 516.844219 284.742 
C 516.844219 253.713338 510.732249 222.986391 498.858094 194.319645 
C 486.983939 165.6529 469.578522 139.603851 447.637945 117.663274 
C 425.697367 95.722697 399.648319 78.317279 370.981574 66.443125 
C 342.314828 54.56897 311.587881 48.457 280.559219 48.457 
C 249.530557 48.457 218.80361 54.56897 190.136864 66.443125 
C 161.470118 78.317279 135.42107 95.722697 113.480493 117.663274 
C 91.539916 139.603851 74.134498 165.6529 62.260343 194.319645 
C 50.386189 222.986391 44.274219 253.713338 44.274219 284.742 
C 44.274219 315.770662 50.386189 346.497609 62.260343 375.164355 
C 74.134498 403.8311 91.539916 429.880149 113.480493 451.820726 
C 135.42107 473.761303 161.470118 491.166721 190.136864 503.040875 
C 218.80361 514.91503 249.530557 521.027 280.559219 521.027 
C 311.587881 521.027 342.314828 514.91503 370.981574 503.040875 
C 399.648319 491.166721 425.697367 473.761303 447.637945 451.820726 
C 469.578522 429.880149 486.983939 403.8311 498.858094 375.164355 
C 510.732249 346.497609 516.844219 315.770662 516.844219 284.742 
M 280.559219 284.742 
C 280.559219 284.742 280.559219 284.742 280.559219 284.742 
C 280.559219 284.742 280.559219 284.742 280.559219 284.742 
C 280.559219 284.742 280.559219 284.742 280.559219 284.742 
C 280.559219 284.742 280.559219 284.742 280.559219 284.742 
C 280.559219 284.742 280.559219 284.742 280.559219 284.742 
C 280.559219 284.742 280.559219 284.742 280.559219 284.742 
C 280.559219 284.742 280.559219 284.742 280.559219 284.742 
C 280.559219 284.742 280.559219 284.742 280.559219 284.742 
C 280.559219 284.742 280.559219 284.742 280.559219 284.742 
C 280.559219 284.742 280.559219 284.742 280.559219 284.742 
C 280.559219 284.742 280.559219 284.742 280.559219 284.742 
C 280.559219 284.742 280.559219 284.742 280.559219 284.742 
C 280.559219 284.742 280.559219 284.742 280.559219 284.742 
C 280.559219 284.742 280.559219 284.742 280.559219 284.742 
C 280.559219 284.742 280.559219 284.742 280.559219 284.742 
C 280.559219 284.742 280.559219 284.742 280.559219 284.742 
z
" style="fill: #ffffff"/>
   </g>
   <g id="patch_3">
    <path d="M 493.215719 284.742 
L 327.816219 202.890475 
L 197.859469 141.501831 
L 67.902719 284.742 
L 162.416719 489.370813 
L 363.258969 427.982169 
z
" clip-path="url(#p05546d41ec)" style="fill: #2e7d32; opacity: 0.25; stroke: #2e7d32; stroke-linejoin: miter"/>
   </g>
   <g id="patch_4">
    <path d="M 469.587219 284.742 
L 375.073219 121.03895 
L 197.859469 141.501831 
L 67.902719 284.742 
L 174.230969 468.907931 
L 351.444719 407.519288 
z
" clip-path="url(#p05546d41ec)" style="fill: #007a87; opacity: 0.25; stroke: #007a87; stroke-linejoin: miter"/>
   </g>
   <g id="patch_5">
    <path d="M 304.187719 284.742 
L 398.701719 80.113187 
L 162.416719 80.113187 
L 44.274219 284.742 
L 162.416719 489.370813 
L 386.887469 468.907931 
z
" clip-path="url(#p05546d41ec)" style="fill: #6a1b9a; opacity: 0.25; stroke: #6a1b9a; stroke-linejoin: miter"/>
   </g>
   <g id="matplotlib.axis_1">
    <g id="xtick_1">
     <g id="line2d_1">
      <path d="M 280.559219 284.742 
L 516.844219 284.742 
" clip-path="url(#p05546d41ec)" style="fill: none; stroke: #b0b0b0; stroke-opacity: 0.3; stroke-width: 0.8; stroke-linecap: square"/>
     </g>
     <g id="text_1">
      <!-- Speed -->
      <g transform="translate(515.098906 287.501375) scale(0.1 -0.1)">
       <defs>
        <path id="DejaVuSerif-53" d="M 594 225 
L 594 1288 
L 953 1284 
Q 969 753 1261 498 
Q 1553 244 2150 244 
Q 2706 244 2998 464 
Q 3291 684 3291 1106 
Q 3291 1444 3114 1625 
Q 2938 1806 2369 1978 
L 1753 2163 
Q 1084 2366 811 2669 
Q 538 2972 538 3500 
Q 538 4094 959 4422 
Q 1381 4750 2144 4750 
Q 2469 4750 2856 4679 
Q 3244 4609 3681 4475 
L 3681 3481 
L 3328 3481 
Q 3275 3975 2998 4195 
Q 2722 4416 2156 4416 
Q 1663 4416 1405 4214 
Q 1147 4013 1147 3628 
Q 1147 3294 1340 3103 
Q 1534 2913 2163 2725 
L 2741 2553 
Q 3375 2363 3645 2067 
Q 3916 1772 3916 1275 
Q 3916 597 3481 253 
Q 3047 -91 2188 -91 
Q 1803 -91 1404 -12 
Q 1006 66 594 225 
z
" transform="scale(0.015625)"/>
        <path id="DejaVuSerif-70" d="M 1313 1825 
L 1313 1497 
Q 1313 897 1542 583 
Q 1772 269 2209 269 
Q 2650 269 2876 622 
Q 3103 975 3103 1663 
Q 3103 2353 2876 2703 
Q 2650 3053 2209 3053 
Q 1772 3053 1542 2737 
Q 1313 2422 1313 1825 
z
M 738 2988 
L 184 2988 
L 184 3322 
L 1313 3322 
L 1313 2803 
Q 1481 3116 1742 3264 
Q 2003 3413 2388 3413 
Q 3000 3413 3387 2928 
Q 3775 2444 3775 1663 
Q 3775 881 3387 395 
Q 3000 -91 2388 -91 
Q 2003 -91 1742 57 
Q 1481 206 1313 519 
L 1313 -997 
L 1856 -997 
L 1856 -1331 
L 184 -1331 
L 184 -997 
L 738 -997 
L 738 2988 
z
" transform="scale(0.015625)"/>
        <path id="DejaVuSerif-65" d="M 3469 1600 
L 991 1600 
L 991 1575 
Q 991 903 1244 561 
Q 1497 219 1991 219 
Q 2369 219 2611 417 
Q 2853 616 2950 1006 
L 3413 1006 
Q 3275 459 2904 184 
Q 2534 -91 1931 -91 
Q 1203 -91 761 389 
Q 319 869 319 1663 
Q 319 2450 753 2931 
Q 1188 3413 1894 3413 
Q 2647 3413 3050 2948 
Q 3453 2484 3469 1600 
z
M 2791 1931 
Q 2772 2513 2545 2808 
Q 2319 3103 1894 3103 
Q 1497 3103 1269 2806 
Q 1041 2509 991 1931 
L 2791 1931 
z
" transform="scale(0.015625)"/>
        <path id="DejaVuSerif-64" d="M 3359 331 
L 3909 331 
L 3909 0 
L 2784 0 
L 2784 519 
Q 2616 206 2355 57 
Q 2094 -91 1709 -91 
Q 1097 -91 708 395 
Q 319 881 319 1663 
Q 319 2444 706 2928 
Q 1094 3413 1709 3413 
Q 2094 3413 2355 3264 
Q 2616 3116 2784 2803 
L 2784 4531 
L 2241 4531 
L 2241 4863 
L 3359 4863 
L 3359 331 
z
M 2784 1497 
L 2784 1825 
Q 2784 2422 2554 2737 
Q 2325 3053 1888 3053 
Q 1444 3053 1217 2703 
Q 991 2353 991 1663 
Q 991 975 1217 622 
Q 1444 269 1888 269 
Q 2325 269 2554 583 
Q 2784 897 2784 1497 
z
" transform="scale(0.015625)"/>
       </defs>
       <use xlink:href="#DejaVuSerif-53"/>
       <use xlink:href="#DejaVuSerif-70" transform="translate(68.505859 0)"/>
       <use xlink:href="#DejaVuSerif-65" transform="translate(132.519531 0)"/>
       <use xlink:href="#DejaVuSerif-65" transform="translate(191.699219 0)"/>
       <use xlink:href="#DejaVuSerif-64" transform="translate(250.878906 0)"/>
      </g>
     </g>
    </g>
    <g id="xtick_2">
     <g id="line2d_2">
      <path d="M 280.559219 284.742 
L 398.701719 80.113187 
" clip-path="url(#p05546d41ec)" style="fill: none; stroke: #b0b0b0; stroke-opacity: 0.3; stroke-width: 0.8; stroke-linecap: square"/>
     </g>
     <g id="text_2">
      <!-- Compactness -->
      <g transform="translate(371.822031 70.748207) scale(0.1 -0.1)">
       <defs>
        <path id="DejaVuSerif-43" d="M 4513 1234 
Q 4306 581 3820 245 
Q 3334 -91 2591 -91 
Q 2134 -91 1743 65 
Q 1353 222 1050 525 
Q 700 875 529 1320 
Q 359 1766 359 2328 
Q 359 3416 987 4083 
Q 1616 4750 2644 4750 
Q 3025 4750 3456 4650 
Q 3888 4550 4384 4347 
L 4384 3272 
L 4031 3272 
Q 3916 3859 3567 4137 
Q 3219 4416 2591 4416 
Q 1844 4416 1459 3886 
Q 1075 3356 1075 2328 
Q 1075 1303 1459 773 
Q 1844 244 2591 244 
Q 3113 244 3450 492 
Q 3788 741 3938 1234 
L 4513 1234 
z
" transform="scale(0.015625)"/>
        <path id="DejaVuSerif-6f" d="M 1925 219 
Q 2388 219 2623 584 
Q 2859 950 2859 1663 
Q 2859 2375 2623 2739 
Q 2388 3103 1925 3103 
Q 1463 3103 1227 2739 
Q 991 2375 991 1663 
Q 991 950 1228 584 
Q 1466 219 1925 219 
z
M 1925 -91 
Q 1200 -91 759 389 
Q 319 869 319 1663 
Q 319 2456 758 2934 
Q 1197 3413 1925 3413 
Q 2653 3413 3092 2934 
Q 3531 2456 3531 1663 
Q 3531 869 3092 389 
Q 2653 -91 1925 -91 
z
" transform="scale(0.015625)"/>
        <path id="DejaVuSerif-6d" d="M 3316 2675 
Q 3481 3041 3739 3227 
Q 3997 3413 4341 3413 
Q 4863 3413 5119 3089 
Q 5375 2766 5375 2113 
L 5375 331 
L 5894 331 
L 5894 0 
L 4300 0 
L 4300 331 
L 4800 331 
L 4800 2047 
Q 4800 2556 4650 2772 
Q 4500 2988 4153 2988 
Q 3769 2988 3567 2697 
Q 3366 2406 3366 1850 
L 3366 331 
L 3866 331 
L 3866 0 
L 2291 0 
L 2291 331 
L 2791 331 
L 2791 2069 
Q 2791 2566 2641 2777 
Q 2491 2988 2144 2988 
Q 1759 2988 1557 2697 
Q 1356 2406 1356 1850 
L 1356 331 
L 1856 331 
L 1856 0 
L 263 0 
L 263 331 
L 781 331 
L 781 2994 
L 231 2994 
L 231 3322 
L 1356 3322 
L 1356 2731 
Q 1516 3063 1762 3238 
Q 2009 3413 2322 3413 
Q 2709 3413 2968 3220 
Q 3228 3028 3316 2675 
z
" transform="scale(0.015625)"/>
        <path id="DejaVuSerif-61" d="M 2547 1044 
L 2547 1747 
L 1806 1747 
Q 1378 1747 1168 1562 
Q 959 1378 959 997 
Q 959 650 1171 447 
Q 1384 244 1747 244 
Q 2106 244 2326 466 
Q 2547 688 2547 1044 
z
M 3122 2075 
L 3122 331 
L 3634 331 
L 3634 0 
L 2547 0 
L 2547 359 
Q 2356 128 2106 18 
Q 1856 -91 1522 -91 
Q 969 -91 644 203 
Q 319 497 319 997 
Q 319 1513 691 1797 
Q 1063 2081 1741 2081 
L 2547 2081 
L 2547 2309 
Q 2547 2688 2317 2895 
Q 2088 3103 1672 3103 
Q 1328 3103 1125 2947 
Q 922 2791 872 2484 
L 575 2484 
L 575 3156 
Q 875 3284 1158 3348 
Q 1441 3413 1709 3413 
Q 2400 3413 2761 3070 
Q 3122 2728 3122 2075 
z
" transform="scale(0.015625)"/>
        <path id="DejaVuSerif-63" d="M 3291 997 
Q 3169 466 2822 187 
Q 2475 -91 1925 -91 
Q 1200 -91 759 389 
Q 319 869 319 1663 
Q 319 2459 759 2936 
Q 1200 3413 1925 3413 
Q 2241 3413 2553 3339 
Q 2866 3266 3181 3116 
L 3181 2266 
L 2847 2266 
Q 2781 2703 2561 2903 
Q 2341 3103 1931 3103 
Q 1466 3103 1228 2742 
Q 991 2381 991 1663 
Q 991 944 1227 581 
Q 1463 219 1931 219 
Q 2303 219 2525 412 
Q 2747 606 2828 997 
L 3291 997 
z
" transform="scale(0.015625)"/>
        <path id="DejaVuSerif-74" d="M 691 2988 
L 184 2988 
L 184 3322 
L 691 3322 
L 691 4353 
L 1269 4353 
L 1269 3322 
L 2350 3322 
L 2350 2988 
L 1269 2988 
L 1269 878 
Q 1269 456 1350 337 
Q 1431 219 1650 219 
Q 1875 219 1978 351 
Q 2081 484 2088 781 
L 2522 781 
Q 2497 328 2275 118 
Q 2053 -91 1600 -91 
Q 1103 -91 897 129 
Q 691 350 691 878 
L 691 2988 
z
" transform="scale(0.015625)"/>
        <path id="DejaVuSerif-6e" d="M 263 0 
L 263 331 
L 781 331 
L 781 2988 
L 231 2988 
L 231 3322 
L 1356 3322 
L 1356 2731 
Q 1516 3069 1770 3241 
Q 2025 3413 2363 3413 
Q 2913 3413 3172 3097 
Q 3431 2781 3431 2113 
L 3431 331 
L 3944 331 
L 3944 0 
L 2356 0 
L 2356 331 
L 2853 331 
L 2853 1931 
Q 2853 2541 2703 2767 
Q 2553 2994 2175 2994 
Q 1775 2994 1565 2701 
Q 1356 2409 1356 1850 
L 1356 331 
L 1856 331 
L 1856 0 
L 263 0 
z
" transform="scale(0.015625)"/>
        <path id="DejaVuSerif-73" d="M 359 184 
L 359 959 
L 691 959 
Q 703 588 923 403 
Q 1144 219 1575 219 
Q 1963 219 2166 364 
Q 2369 509 2369 788 
Q 2369 1006 2220 1140 
Q 2072 1275 1594 1428 
L 1178 1569 
Q 750 1706 558 1912 
Q 366 2119 366 2438 
Q 366 2894 700 3153 
Q 1034 3413 1625 3413 
Q 1888 3413 2178 3344 
Q 2469 3275 2778 3144 
L 2778 2419 
L 2447 2419 
Q 2434 2741 2221 2922 
Q 2009 3103 1644 3103 
Q 1281 3103 1095 2975 
Q 909 2847 909 2591 
Q 909 2381 1050 2254 
Q 1191 2128 1613 1997 
L 2069 1856 
Q 2541 1709 2748 1489 
Q 2956 1269 2956 922 
Q 2956 450 2595 179 
Q 2234 -91 1600 -91 
Q 1278 -91 972 -22 
Q 666 47 359 184 
z
" transform="scale(0.015625)"/>
       </defs>
       <use xlink:href="#DejaVuSerif-43"/>
       <use xlink:href="#DejaVuSerif-6f" transform="translate(76.513672 0)"/>
       <use xlink:href="#DejaVuSerif-6d" transform="translate(136.71875 0)"/>
       <use xlink:href="#DejaVuSerif-70" transform="translate(231.542969 0)"/>
       <use xlink:href="#DejaVuSerif-61" transform="translate(295.556641 0)"/>
       <use xlink:href="#DejaVuSerif-63" transform="translate(355.175781 0)"/>
       <use xlink:href="#DejaVuSerif-74" transform="translate(411.181641 0)"/>
       <use xlink:href="#DejaVuSerif-6e" transform="translate(451.367188 0)"/>
       <use xlink:href="#DejaVuSerif-65" transform="translate(515.771484 0)"/>
       <use xlink:href="#DejaVuSerif-73" transform="translate(574.951172 0)"/>
       <use xlink:href="#DejaVuSerif-73" transform="translate(626.269531 0)"/>
      </g>
     </g>
    </g>
    <g id="xtick_3">
     <g id="line2d_3">
      <path d="M 280.559219 284.742 
L 162.416719 80.113187 
" clip-path="url(#p05546d41ec)" style="fill: none; stroke: #b0b0b0; stroke-opacity: 0.3; stroke-width: 0.8; stroke-linecap: square"/>
     </g>
     <g id="text_3">
      <!-- Security -->
      <g transform="translate(134.188594 64.936019) scale(0.1 -0.1)">
       <defs>
        <path id="DejaVuSerif-75" d="M 2266 3322 
L 3341 3322 
L 3341 331 
L 3884 331 
L 3884 0 
L 2766 0 
L 2766 588 
Q 2606 256 2353 82 
Q 2100 -91 1766 -91 
Q 1213 -91 952 223 
Q 691 538 691 1209 
L 691 2988 
L 172 2988 
L 172 3322 
L 1269 3322 
L 1269 1388 
Q 1269 781 1417 556 
Q 1566 331 1947 331 
Q 2347 331 2556 625 
Q 2766 919 2766 1478 
L 2766 2988 
L 2266 2988 
L 2266 3322 
z
" transform="scale(0.015625)"/>
        <path id="DejaVuSerif-72" d="M 3059 3328 
L 3059 2497 
L 2728 2497 
Q 2713 2744 2591 2866 
Q 2469 2988 2234 2988 
Q 1809 2988 1582 2694 
Q 1356 2400 1356 1850 
L 1356 331 
L 2022 331 
L 2022 0 
L 263 0 
L 263 331 
L 781 331 
L 781 2994 
L 231 2994 
L 231 3322 
L 1356 3322 
L 1356 2731 
Q 1525 3078 1790 3245 
Q 2056 3413 2438 3413 
Q 2578 3413 2733 3391 
Q 2888 3369 3059 3328 
z
" transform="scale(0.015625)"/>
        <path id="DejaVuSerif-69" d="M 622 4353 
Q 622 4497 726 4603 
Q 831 4709 978 4709 
Q 1122 4709 1226 4603 
Q 1331 4497 1331 4353 
Q 1331 4206 1228 4103 
Q 1125 4000 978 4000 
Q 831 4000 726 4103 
Q 622 4206 622 4353 
z
M 1356 331 
L 1900 331 
L 1900 0 
L 231 0 
L 231 331 
L 781 331 
L 781 2988 
L 231 2988 
L 231 3322 
L 1356 3322 
L 1356 331 
z
" transform="scale(0.015625)"/>
        <path id="DejaVuSerif-79" d="M 1381 -609 
L 1600 -56 
L 359 2988 
L -19 2988 
L -19 3322 
L 1509 3322 
L 1509 2988 
L 978 2988 
L 1913 703 
L 2847 2988 
L 2350 2988 
L 2350 3322 
L 3597 3322 
L 3597 2988 
L 3225 2988 
L 1703 -750 
Q 1547 -1138 1356 -1280 
Q 1166 -1422 819 -1422 
Q 672 -1422 517 -1397 
Q 363 -1372 206 -1325 
L 206 -691 
L 500 -691 
Q 519 -903 608 -995 
Q 697 -1088 884 -1088 
Q 1056 -1088 1161 -992 
Q 1266 -897 1381 -609 
z
" transform="scale(0.015625)"/>
       </defs>
       <use xlink:href="#DejaVuSerif-53"/>
       <use xlink:href="#DejaVuSerif-65" transform="translate(68.505859 0)"/>
       <use xlink:href="#DejaVuSerif-63" transform="translate(127.685547 0)"/>
       <use xlink:href="#DejaVuSerif-75" transform="translate(183.691406 0)"/>
       <use xlink:href="#DejaVuSerif-72" transform="translate(248.095703 0)"/>
       <use xlink:href="#DejaVuSerif-69" transform="translate(295.898438 0)"/>
       <use xlink:href="#DejaVuSerif-74" transform="translate(327.880859 0)"/>
       <use xlink:href="#DejaVuSerif-79" transform="translate(368.066406 0)"/>
      </g>
      <!-- Margin -->
      <g transform="translate(136.905781 76.276019) scale(0.1 -0.1)">
       <defs>
        <path id="DejaVuSerif-4d" d="M 353 0 
L 353 331 
L 947 331 
L 947 4331 
L 319 4331 
L 319 4666 
L 1678 4666 
L 3316 1344 
L 4953 4666 
L 6228 4666 
L 6228 4331 
L 5606 4331 
L 5606 331 
L 6203 331 
L 6203 0 
L 4378 0 
L 4378 331 
L 4972 331 
L 4972 3938 
L 3372 684 
L 2931 684 
L 1331 3938 
L 1331 331 
L 1925 331 
L 1925 0 
L 353 0 
z
" transform="scale(0.015625)"/>
        <path id="DejaVuSerif-67" d="M 3359 2988 
L 3359 72 
Q 3359 -644 2965 -1033 
Q 2572 -1422 1844 -1422 
Q 1516 -1422 1216 -1362 
Q 916 -1303 641 -1184 
L 641 -488 
L 941 -488 
Q 997 -813 1206 -963 
Q 1416 -1113 1806 -1113 
Q 2313 -1113 2548 -827 
Q 2784 -541 2784 72 
L 2784 519 
Q 2616 206 2355 57 
Q 2094 -91 1709 -91 
Q 1097 -91 708 395 
Q 319 881 319 1663 
Q 319 2444 706 2928 
Q 1094 3413 1709 3413 
Q 2094 3413 2355 3264 
Q 2616 3116 2784 2803 
L 2784 3322 
L 3909 3322 
L 3909 2988 
L 3359 2988 
z
M 2784 1825 
Q 2784 2422 2554 2737 
Q 2325 3053 1888 3053 
Q 1444 3053 1217 2703 
Q 991 2353 991 1663 
Q 991 975 1217 622 
Q 1444 269 1888 269 
Q 2325 269 2554 583 
Q 2784 897 2784 1497 
L 2784 1825 
z
" transform="scale(0.015625)"/>
       </defs>
       <use xlink:href="#DejaVuSerif-4d"/>
       <use xlink:href="#DejaVuSerif-61" transform="translate(102.392578 0)"/>
       <use xlink:href="#DejaVuSerif-72" transform="translate(162.011719 0)"/>
       <use xlink:href="#DejaVuSerif-67" transform="translate(209.814453 0)"/>
       <use xlink:href="#DejaVuSerif-69" transform="translate(273.828125 0)"/>
       <use xlink:href="#DejaVuSerif-6e" transform="translate(305.810547 0)"/>
      </g>
     </g>
    </g>
    <g id="xtick_4">
     <g id="line2d_4">
      <path d="M 280.559219 284.742 
L 44.274219 284.742 
" clip-path="url(#p05546d41ec)" style="fill: none; stroke: #b0b0b0; stroke-opacity: 0.3; stroke-width: 0.8; stroke-linecap: square"/>
     </g>
     <g id="text_4">
      <!-- Stateless -->
      <g transform="translate(7.2 287.501375) scale(0.1 -0.1)">
       <defs>
        <path id="DejaVuSerif-6c" d="M 1313 331 
L 1856 331 
L 1856 0 
L 184 0 
L 184 331 
L 738 331 
L 738 4531 
L 184 4531 
L 184 4863 
L 1313 4863 
L 1313 331 
z
" transform="scale(0.015625)"/>
       </defs>
       <use xlink:href="#DejaVuSerif-53"/>
       <use xlink:href="#DejaVuSerif-74" transform="translate(68.505859 0)"/>
       <use xlink:href="#DejaVuSerif-61" transform="translate(108.691406 0)"/>
       <use xlink:href="#DejaVuSerif-74" transform="translate(168.310547 0)"/>
       <use xlink:href="#DejaVuSerif-65" transform="translate(208.496094 0)"/>
       <use xlink:href="#DejaVuSerif-6c" transform="translate(267.675781 0)"/>
       <use xlink:href="#DejaVuSerif-65" transform="translate(299.658203 0)"/>
       <use xlink:href="#DejaVuSerif-73" transform="translate(358.837891 0)"/>
       <use xlink:href="#DejaVuSerif-73" transform="translate(410.15625 0)"/>
      </g>
     </g>
    </g>
    <g id="xtick_5">
     <g id="line2d_5">
      <path d="M 280.559219 284.742 
L 162.416719 489.370813 
" clip-path="url(#p05546d41ec)" style="fill: none; stroke: #b0b0b0; stroke-opacity: 0.3; stroke-width: 0.8; stroke-linecap: square"/>
     </g>
     <g id="text_5">
      <!-- NIST -->
      <g transform="translate(142.306562 498.584543) scale(0.1 -0.1)">
       <defs>
        <path id="DejaVuSerif-4e" d="M 313 0 
L 313 331 
L 941 331 
L 941 4331 
L 313 4331 
L 313 4666 
L 1509 4666 
L 4306 984 
L 4306 4331 
L 3681 4331 
L 3681 4666 
L 5319 4666 
L 5319 4331 
L 4691 4331 
L 4691 -91 
L 4313 -91 
L 1325 3841 
L 1325 331 
L 1953 331 
L 1953 0 
L 313 0 
z
" transform="scale(0.015625)"/>
        <path id="DejaVuSerif-49" d="M 1581 331 
L 2175 331 
L 2175 0 
L 353 0 
L 353 331 
L 947 331 
L 947 4331 
L 353 4331 
L 353 4666 
L 2175 4666 
L 2175 4331 
L 1581 4331 
L 1581 331 
z
" transform="scale(0.015625)"/>
        <path id="DejaVuSerif-54" d="M 1222 0 
L 1222 331 
L 1819 331 
L 1819 4294 
L 447 4294 
L 447 3566 
L 63 3566 
L 63 4666 
L 4206 4666 
L 4206 3566 
L 3822 3566 
L 3822 4294 
L 2450 4294 
L 2450 331 
L 3047 331 
L 3047 0 
L 1222 0 
z
" transform="scale(0.015625)"/>
       </defs>
       <use xlink:href="#DejaVuSerif-4e"/>
       <use xlink:href="#DejaVuSerif-49" transform="translate(87.5 0)"/>
       <use xlink:href="#DejaVuSerif-53" transform="translate(127.001953 0)"/>
       <use xlink:href="#DejaVuSerif-54" transform="translate(195.507812 0)"/>
      </g>
      <!-- Maturity -->
      <g transform="translate(133.262812 509.782356) scale(0.1 -0.1)">
       <use xlink:href="#DejaVuSerif-4d"/>
       <use xlink:href="#DejaVuSerif-61" transform="translate(102.392578 0)"/>
       <use xlink:href="#DejaVuSerif-74" transform="translate(162.011719 0)"/>
       <use xlink:href="#DejaVuSerif-75" transform="translate(202.197266 0)"/>
       <use xlink:href="#DejaVuSerif-72" transform="translate(266.601562 0)"/>
       <use xlink:href="#DejaVuSerif-69" transform="translate(314.404297 0)"/>
       <use xlink:href="#DejaVuSerif-74" transform="translate(346.386719 0)"/>
       <use xlink:href="#DejaVuSerif-79" transform="translate(386.572266 0)"/>
      </g>
     </g>
    </g>
    <g id="xtick_6">
     <g id="line2d_6">
      <path d="M 280.559219 284.742 
L 398.701719 489.370813 
" clip-path="url(#p05546d41ec)" style="fill: none; stroke: #b0b0b0; stroke-opacity: 0.3; stroke-width: 0.8; stroke-linecap: square"/>
     </g>
     <g id="text_6">
      <!-- Side-Channel -->
      <g transform="translate(371.800938 498.655637) scale(0.1 -0.1)">
       <defs>
        <path id="DejaVuSerif-2d" d="M 281 1959 
L 1881 1959 
L 1881 1472 
L 281 1472 
L 281 1959 
z
" transform="scale(0.015625)"/>
        <path id="DejaVuSerif-68" d="M 263 0 
L 263 331 
L 781 331 
L 781 4531 
L 231 4531 
L 231 4863 
L 1356 4863 
L 1356 2731 
Q 1516 3069 1770 3241 
Q 2025 3413 2363 3413 
Q 2913 3413 3172 3097 
Q 3431 2781 3431 2113 
L 3431 331 
L 3944 331 
L 3944 0 
L 2356 0 
L 2356 331 
L 2853 331 
L 2853 1931 
Q 2853 2541 2704 2764 
Q 2556 2988 2175 2988 
Q 1775 2988 1565 2697 
Q 1356 2406 1356 1850 
L 1356 331 
L 1856 331 
L 1856 0 
L 263 0 
z
" transform="scale(0.015625)"/>
       </defs>
       <use xlink:href="#DejaVuSerif-53"/>
       <use xlink:href="#DejaVuSerif-69" transform="translate(68.505859 0)"/>
       <use xlink:href="#DejaVuSerif-64" transform="translate(100.488281 0)"/>
       <use xlink:href="#DejaVuSerif-65" transform="translate(164.501953 0)"/>
       <use xlink:href="#DejaVuSerif-2d" transform="translate(223.681641 0)"/>
       <use xlink:href="#DejaVuSerif-43" transform="translate(257.470703 0)"/>
       <use xlink:href="#DejaVuSerif-68" transform="translate(333.984375 0)"/>
       <use xlink:href="#DejaVuSerif-61" transform="translate(398.388672 0)"/>
       <use xlink:href="#DejaVuSerif-6e" transform="translate(458.007812 0)"/>
       <use xlink:href="#DejaVuSerif-6e" transform="translate(522.412109 0)"/>
       <use xlink:href="#DejaVuSerif-65" transform="translate(586.816406 0)"/>
       <use xlink:href="#DejaVuSerif-6c" transform="translate(645.996094 0)"/>
      </g>
      <!-- Resistance -->
      <g transform="translate(378.276719 509.853449) scale(0.1 -0.1)">
       <defs>
        <path id="DejaVuSerif-52" d="M 3066 2316 
Q 3284 2256 3442 2114 
Q 3600 1972 3725 1716 
L 4403 331 
L 4972 331 
L 4972 0 
L 3872 0 
L 3144 1484 
Q 2934 1916 2759 2042 
Q 2584 2169 2278 2169 
L 1581 2169 
L 1581 331 
L 2241 331 
L 2241 0 
L 353 0 
L 353 331 
L 947 331 
L 947 4331 
L 353 4331 
L 353 4666 
L 2719 4666 
Q 3400 4666 3770 4341 
Q 4141 4016 4141 3419 
Q 4141 2938 3870 2661 
Q 3600 2384 3066 2316 
z
M 1581 2503 
L 2503 2503 
Q 2975 2503 3200 2726 
Q 3425 2950 3425 3419 
Q 3425 3888 3200 4109 
Q 2975 4331 2503 4331 
L 1581 4331 
L 1581 2503 
z
" transform="scale(0.015625)"/>
       </defs>
       <use xlink:href="#DejaVuSerif-52"/>
       <use xlink:href="#DejaVuSerif-65" transform="translate(75.292969 0)"/>
       <use xlink:href="#DejaVuSerif-73" transform="translate(134.472656 0)"/>
       <use xlink:href="#DejaVuSerif-69" transform="translate(185.791016 0)"/>
       <use xlink:href="#DejaVuSerif-73" transform="translate(217.773438 0)"/>
       <use xlink:href="#DejaVuSerif-74" transform="translate(269.091797 0)"/>
       <use xlink:href="#DejaVuSerif-61" transform="translate(309.277344 0)"/>
       <use xlink:href="#DejaVuSerif-6e" transform="translate(368.896484 0)"/>
       <use xlink:href="#DejaVuSerif-63" transform="translate(433.300781 0)"/>
       <use xlink:href="#DejaVuSerif-65" transform="translate(489.306641 0)"/>
      </g>
     </g>
    </g>
   </g>
   <g id="matplotlib.axis_2">
    <g id="ytick_1">
     <g id="line2d_7">
      <path d="M 327.816219 284.742 
C 327.816219 278.536268 326.593825 272.390878 324.218994 266.657529 
C 321.844163 260.92418 318.363079 255.71437 313.974964 251.326255 
C 309.586848 246.938139 304.377039 243.457056 298.64369 241.082225 
C 292.910341 238.707394 286.764951 237.485 280.559219 237.485 
C 274.353486 237.485 268.208097 238.707394 262.474748 241.082225 
C 256.741399 243.457056 251.531589 246.938139 247.143474 251.326255 
C 242.755358 255.71437 239.274275 260.92418 236.899444 266.657529 
C 234.524613 272.390878 233.302219 278.536268 233.302219 284.742 
C 233.302219 290.947732 234.524613 297.093122 236.899444 302.826471 
C 239.274275 308.55982 242.755358 313.76963 247.143474 318.157745 
C 251.531589 322.545861 256.741399 326.026944 262.474748 328.401775 
C 268.208097 330.776606 274.353486 331.999 280.559219 331.999 
C 286.764951 331.999 292.910341 330.776606 298.64369 328.401775 
C 304.377039 326.026944 309.586848 322.545861 313.974964 318.157745 
C 318.363079 313.76963 321.844163 308.55982 324.218994 302.826471 
C 326.593825 297.093122 327.816219 290.947732 327.816219 284.742 
" clip-path="url(#p05546d41ec)" style="fill: none; stroke: #b0b0b0; stroke-opacity: 0.3; stroke-width: 0.8; stroke-linecap: square"/>
     </g>
     <g id="text_7">
      <!-- 2 -->
      <g transform="translate(324.218994 264.161904) scale(0.12 -0.12)">
       <defs>
        <path id="DejaVuSerif-32" d="M 819 3553 
L 469 3553 
L 469 4384 
Q 803 4563 1142 4656 
Q 1481 4750 1806 4750 
Q 2534 4750 2956 4397 
Q 3378 4044 3378 3438 
Q 3378 2753 2422 1800 
Q 2347 1728 2309 1691 
L 1131 513 
L 3078 513 
L 3078 1088 
L 3444 1088 
L 3444 0 
L 434 0 
L 434 341 
L 1850 1753 
Q 2319 2222 2519 2614 
Q 2719 3006 2719 3438 
Q 2719 3909 2473 4175 
Q 2228 4441 1797 4441 
Q 1350 4441 1106 4219 
Q 863 3997 819 3553 
z
" transform="scale(0.015625)"/>
       </defs>
       <use xlink:href="#DejaVuSerif-32"/>
      </g>
     </g>
    </g>
    <g id="ytick_2">
     <g id="line2d_8">
      <path d="M 375.073219 284.742 
C 375.073219 272.330535 372.628431 260.039756 367.878769 248.573058 
C 363.129107 237.10636 356.16694 226.686741 347.390709 217.91051 
C 338.614478 209.134279 328.194859 202.172112 316.728161 197.42245 
C 305.261462 192.672788 292.970684 190.228 280.559219 190.228 
C 268.147754 190.228 255.856975 192.672788 244.390277 197.42245 
C 232.923579 202.172112 222.503959 209.134279 213.727728 217.91051 
C 204.951498 226.686741 197.989331 237.10636 193.239669 248.573058 
C 188.490007 260.039756 186.045219 272.330535 186.045219 284.742 
C 186.045219 297.153465 188.490007 309.444244 193.239669 320.910942 
C 197.989331 332.37764 204.951498 342.797259 213.727728 351.57349 
C 222.503959 360.349721 232.923579 367.311888 244.390277 372.06155 
C 255.856975 376.811212 268.147754 379.256 280.559219 379.256 
C 292.970684 379.256 305.261462 376.811212 316.728161 372.06155 
C 328.194859 367.311888 338.614478 360.349721 347.390709 351.57349 
C 356.16694 342.797259 363.129107 332.37764 367.878769 320.910942 
C 372.628431 309.444244 375.073219 297.153465 375.073219 284.742 
" clip-path="url(#p05546d41ec)" style="fill: none; stroke: #b0b0b0; stroke-opacity: 0.3; stroke-width: 0.8; stroke-linecap: square"/>
     </g>
     <g id="text_8">
      <!-- 4 -->
      <g transform="translate(367.878769 246.077433) scale(0.12 -0.12)">
       <defs>
        <path id="DejaVuSerif-34" d="M 2234 1581 
L 2234 4063 
L 641 1581 
L 2234 1581 
z
M 3609 0 
L 1484 0 
L 1484 331 
L 2234 331 
L 2234 1247 
L 197 1247 
L 197 1588 
L 2241 4750 
L 2859 4750 
L 2859 1581 
L 3750 1581 
L 3750 1247 
L 2859 1247 
L 2859 331 
L 3609 331 
L 3609 0 
z
" transform="scale(0.015625)"/>
       </defs>
       <use xlink:href="#DejaVuSerif-34"/>
      </g>
     </g>
    </g>
    <g id="ytick_3">
     <g id="line2d_9">
      <path d="M 422.330219 284.742 
C 422.330219 266.124803 418.663037 247.688635 411.538544 230.488587 
C 404.414051 213.28854 393.970801 197.659111 380.806454 184.494765 
C 367.642108 171.330418 352.012679 160.887168 334.812632 153.762675 
C 317.612584 146.638182 299.176416 142.971 280.559219 142.971 
C 261.942022 142.971 243.505853 146.638182 226.305806 153.762675 
C 209.105758 160.887168 193.47633 171.330418 180.311983 184.494765 
C 167.147637 197.659111 156.704386 213.28854 149.579894 230.488587 
C 142.455401 247.688635 138.788219 266.124803 138.788219 284.742 
C 138.788219 303.359197 142.455401 321.795365 149.579894 338.995413 
C 156.704386 356.19546 167.147637 371.824889 180.311983 384.989235 
C 193.47633 398.153582 209.105758 408.596832 226.305806 415.721325 
C 243.505853 422.845818 261.942022 426.513 280.559219 426.513 
C 299.176416 426.513 317.612584 422.845818 334.812632 415.721325 
C 352.012679 408.596832 367.642108 398.153582 380.806454 384.989235 
C 393.970801 371.824889 404.414051 356.19546 411.538544 338.995413 
C 418.663037 321.795365 422.330219 303.359197 422.330219 284.742 
" clip-path="url(#p05546d41ec)" style="fill: none; stroke: #b0b0b0; stroke-opacity: 0.3; stroke-width: 0.8; stroke-linecap: square"/>
     </g>
     <g id="text_9">
      <!-- 6 -->
      <g transform="translate(411.538544 227.992962) scale(0.12 -0.12)">
       <defs>
        <path id="DejaVuSerif-36" d="M 2094 219 
Q 2534 219 2771 542 
Q 3009 866 3009 1472 
Q 3009 2078 2771 2401 
Q 2534 2725 2094 2725 
Q 1647 2725 1412 2412 
Q 1178 2100 1178 1509 
Q 1178 888 1415 553 
Q 1653 219 2094 219 
z
M 1075 2569 
Q 1288 2803 1556 2918 
Q 1825 3034 2163 3034 
Q 2859 3034 3264 2615 
Q 3669 2197 3669 1472 
Q 3669 763 3233 336 
Q 2797 -91 2069 -91 
Q 1278 -91 853 498 
Q 428 1088 428 2181 
Q 428 3406 931 4078 
Q 1434 4750 2350 4750 
Q 2597 4750 2869 4703 
Q 3141 4656 3425 4563 
L 3425 3794 
L 3072 3794 
Q 3034 4109 2831 4275 
Q 2628 4441 2284 4441 
Q 1678 4441 1381 3981 
Q 1084 3522 1075 2569 
z
" transform="scale(0.015625)"/>
       </defs>
       <use xlink:href="#DejaVuSerif-36"/>
      </g>
     </g>
    </g>
    <g id="ytick_4">
     <g id="line2d_10">
      <path d="M 469.587219 284.742 
C 469.587219 259.91907 464.697643 235.337513 455.198319 212.404116 
C 445.698995 189.47072 431.774661 168.631481 414.222199 151.079019 
C 396.669738 133.526558 375.830499 119.602224 352.897103 110.1029 
C 329.963706 100.603576 305.382148 95.714 280.559219 95.714 
C 255.736289 95.714 231.154731 100.603576 208.221335 110.1029 
C 185.287938 119.602224 164.4487 133.526558 146.896238 151.079019 
C 129.343776 168.631481 115.419442 189.47072 105.920118 212.404116 
C 96.420795 235.337513 91.531219 259.91907 91.531219 284.742 
C 91.531219 309.56493 96.420795 334.146487 105.920118 357.079884 
C 115.419442 380.01328 129.343776 400.852519 146.896238 418.404981 
C 164.4487 435.957442 185.287938 449.881776 208.221335 459.3811 
C 231.154731 468.880424 255.736289 473.77 280.559219 473.77 
C 305.382148 473.77 329.963706 468.880424 352.897103 459.3811 
C 375.830499 449.881776 396.669738 435.957442 414.222199 418.404981 
C 431.774661 400.852519 445.698995 380.01328 455.198319 357.079884 
C 464.697643 334.146487 469.587219 309.56493 469.587219 284.742 
" clip-path="url(#p05546d41ec)" style="fill: none; stroke: #b0b0b0; stroke-opacity: 0.3; stroke-width: 0.8; stroke-linecap: square"/>
     </g>
     <g id="text_10">
      <!-- 8 -->
      <g transform="translate(455.198319 209.908491) scale(0.12 -0.12)">
       <defs>
        <path id="DejaVuSerif-38" d="M 2981 1275 
Q 2981 1775 2732 2051 
Q 2484 2328 2034 2328 
Q 1584 2328 1336 2051 
Q 1088 1775 1088 1275 
Q 1088 772 1336 495 
Q 1584 219 2034 219 
Q 2484 219 2732 495 
Q 2981 772 2981 1275 
z
M 2853 3541 
Q 2853 3966 2637 4203 
Q 2422 4441 2034 4441 
Q 1650 4441 1433 4203 
Q 1216 3966 1216 3541 
Q 1216 3113 1433 2875 
Q 1650 2638 2034 2638 
Q 2422 2638 2637 2875 
Q 2853 3113 2853 3541 
z
M 2516 2484 
Q 3047 2413 3344 2092 
Q 3641 1772 3641 1275 
Q 3641 619 3225 264 
Q 2809 -91 2034 -91 
Q 1263 -91 845 264 
Q 428 619 428 1275 
Q 428 1772 725 2092 
Q 1022 2413 1556 2484 
Q 1084 2569 832 2842 
Q 581 3116 581 3541 
Q 581 4103 968 4426 
Q 1356 4750 2034 4750 
Q 2713 4750 3100 4426 
Q 3488 4103 3488 3541 
Q 3488 3116 3236 2842 
Q 2984 2569 2516 2484 
z
" transform="scale(0.015625)"/>
       </defs>
       <use xlink:href="#DejaVuSerif-38"/>
      </g>
     </g>
    </g>
    <g id="ytick_5">
     <g id="line2d_11">
      <path d="M 516.844219 284.742 
C 516.844219 253.713338 510.732249 222.986391 498.858094 194.319645 
C 486.983939 165.6529 469.578522 139.603851 447.637945 117.663274 
C 425.697367 95.722697 399.648319 78.317279 370.981574 66.443125 
C 342.314828 54.56897 311.587881 48.457 280.559219 48.457 
C 249.530557 48.457 218.80361 54.56897 190.136864 66.443125 
C 161.470118 78.317279 135.42107 95.722697 113.480493 117.663274 
C 91.539916 139.603851 74.134498 165.6529 62.260343 194.319645 
C 50.386189 222.986391 44.274219 253.713338 44.274219 284.742 
C 44.274219 315.770662 50.386189 346.497609 62.260343 375.164355 
C 74.134498 403.8311 91.539916 429.880149 113.480493 451.820726 
C 135.42107 473.761303 161.470118 491.166721 190.136864 503.040875 
C 218.80361 514.91503 249.530557 521.027 280.559219 521.027 
C 311.587881 521.027 342.314828 514.91503 370.981574 503.040875 
C 399.648319 491.166721 425.697367 473.761303 447.637945 451.820726 
C 469.578522 429.880149 486.983939 403.8311 498.858094 375.164355 
C 510.732249 346.497609 516.844219 315.770662 516.844219 284.742 
" clip-path="url(#p05546d41ec)" style="fill: none; stroke: #b0b0b0; stroke-opacity: 0.3; stroke-width: 0.8; stroke-linecap: square"/>
     </g>
     <g id="text_11">
      <!-- 10 -->
      <g transform="translate(498.858094 191.82402) scale(0.12 -0.12)">
       <defs>
        <path id="DejaVuSerif-31" d="M 909 0 
L 909 331 
L 1722 331 
L 1722 4213 
L 781 3603 
L 781 4013 
L 1919 4750 
L 2350 4750 
L 2350 331 
L 3163 331 
L 3163 0 
L 909 0 
z
" transform="scale(0.015625)"/>
        <path id="DejaVuSerif-30" d="M 2034 219 
Q 2513 219 2750 744 
Q 2988 1269 2988 2328 
Q 2988 3391 2750 3916 
Q 2513 4441 2034 4441 
Q 1556 4441 1318 3916 
Q 1081 3391 1081 2328 
Q 1081 1269 1318 744 
Q 1556 219 2034 219 
z
M 2034 -91 
Q 1275 -91 848 546 
Q 422 1184 422 2328 
Q 422 3475 848 4112 
Q 1275 4750 2034 4750 
Q 2797 4750 3222 4112 
Q 3647 3475 3647 2328 
Q 3647 1184 3222 546 
Q 2797 -91 2034 -91 
z
" transform="scale(0.015625)"/>
       </defs>
       <use xlink:href="#DejaVuSerif-31"/>
       <use xlink:href="#DejaVuSerif-30" transform="translate(63.623047 0)"/>
      </g>
     </g>
    </g>
   </g>
   <g id="line2d_12">
    <path d="M 493.215719 284.742 
L 327.816219 202.890475 
L 197.859469 141.501831 
L 67.902719 284.742 
L 162.416719 489.370813 
L 363.258969 427.982169 
L 493.215719 284.742 
" clip-path="url(#p05546d41ec)" style="fill: none; stroke: #2e7d32; stroke-width: 2; stroke-linecap: square"/>
   </g>
   <g id="line2d_13">
    <path d="M 469.587219 284.742 
L 375.073219 121.03895 
L 197.859469 141.501831 
L 67.902719 284.742 
L 174.230969 468.907931 
L 351.444719 407.519288 
L 469.587219 284.742 
" clip-path="url(#p05546d41ec)" style="fill: none; stroke: #007a87; stroke-width: 2; stroke-linecap: square"/>
   </g>
   <g id="line2d_14">
    <path d="M 304.187719 284.742 
L 398.701719 80.113187 
L 162.416719 80.113187 
L 44.274219 284.742 
L 162.416719 489.370813 
L 386.887469 468.907931 
L 304.187719 284.742 
" clip-path="url(#p05546d41ec)" style="fill: none; stroke: #6a1b9a; stroke-width: 2; stroke-linecap: square"/>
   </g>
   <g id="patch_6">
    <path d="M 516.844219 284.742 
C 516.844219 253.713338 510.732249 222.986391 498.858094 194.319645 
C 486.983939 165.6529 469.578522 139.603851 447.637945 117.663274 
C 425.697367 95.722697 399.648319 78.317279 370.981574 66.443125 
C 342.314828 54.56897 311.587881 48.457 280.559219 48.457 
C 249.530557 48.457 218.80361 54.56897 190.136864 66.443125 
C 161.470118 78.317279 135.42107 95.722697 113.480493 117.663274 
C 91.539916 139.603851 74.134498 165.6529 62.260343 194.319645 
C 50.386189 222.986391 44.274219 253.713338 44.274219 284.742 
C 44.274219 315.770662 50.386189 346.497609 62.260343 375.164355 
C 74.134498 403.8311 91.539916 429.880149 113.480493 451.820726 
C 135.42107 473.761303 161.470118 491.166721 190.136864 503.040875 
C 218.80361 514.91503 249.530557 521.027 280.559219 521.027 
C 311.587881 521.027 342.314828 514.91503 370.981574 503.040875 
C 399.648319 491.166721 425.697367 473.761303 447.637945 451.820726 
C 469.578522 429.880149 486.983939 403.8311 498.858094 375.164355 
C 510.732249 346.497609 516.844219 315.770662 516.844219 284.742 
" style="fill: none; stroke: #000000; stroke-width: 0.8; stroke-linejoin: miter; stroke-linecap: square"/>
   </g>
   <g id="text_12">
    <!-- Gulf Algorithm Selection Radar -->
    <g transform="translate(147.763516 23.457) scale(0.15 -0.15)">
     <defs>
      <path id="DejaVuSerif-Bold-47" d="M 4403 3200 
Q 4263 3819 3934 4095 
Q 3606 4372 3009 4372 
Q 2284 4372 1945 3880 
Q 1606 3388 1606 2328 
Q 1606 1278 1931 783 
Q 2256 288 2944 288 
Q 3206 288 3431 347 
Q 3656 406 3841 525 
L 3841 1806 
L 3278 1806 
L 3278 2181 
L 4959 2181 
L 4959 391 
Q 4434 147 3911 28 
Q 3388 -91 2841 -91 
Q 1641 -91 955 556 
Q 269 1203 269 2328 
Q 269 3456 955 4103 
Q 1641 4750 2841 4750 
Q 3341 4750 3825 4650 
Q 4309 4550 4800 4347 
L 4800 3200 
L 4403 3200 
z
" transform="scale(0.015625)"/>
      <path id="DejaVuSerif-Bold-75" d="M 3963 3322 
L 3963 378 
L 4434 378 
L 4434 0 
L 2853 0 
L 2853 469 
Q 2656 172 2400 40 
Q 2144 -91 1753 -91 
Q 1194 -91 908 239 
Q 622 569 622 1209 
L 622 2944 
L 147 2944 
L 147 3322 
L 1728 3322 
L 1728 1381 
Q 1728 763 1831 595 
Q 1934 428 2209 428 
Q 2544 428 2698 675 
Q 2853 922 2853 1459 
L 2853 2944 
L 2450 2944 
L 2450 3322 
L 3963 3322 
z
" transform="scale(0.015625)"/>
      <path id="DejaVuSerif-Bold-6c" d="M 1797 378 
L 2272 378 
L 2272 0 
L 219 0 
L 219 378 
L 691 378 
L 691 4488 
L 219 4488 
L 219 4863 
L 1797 4863 
L 1797 378 
z
" transform="scale(0.015625)"/>
      <path id="DejaVuSerif-Bold-66" d="M 3097 4031 
L 2747 4031 
Q 2722 4275 2605 4394 
Q 2488 4513 2272 4513 
Q 2022 4513 1909 4333 
Q 1797 4153 1797 3750 
L 1797 3322 
L 2631 3322 
L 2631 2944 
L 1797 2944 
L 1797 378 
L 2438 378 
L 2438 0 
L 219 0 
L 219 378 
L 691 378 
L 691 2944 
L 197 2944 
L 197 3322 
L 691 3322 
L 691 3738 
Q 691 4291 1044 4577 
Q 1397 4863 2081 4863 
Q 2347 4863 2600 4833 
Q 2853 4803 3097 4744 
L 3097 4031 
z
" transform="scale(0.015625)"/>
      <path id="DejaVuSerif-Bold-20" transform="scale(0.015625)"/>
      <path id="DejaVuSerif-Bold-41" d="M -50 0 
L -50 378 
L 331 378 
L 2088 4666 
L 2834 4666 
L 4594 378 
L 5038 378 
L 5038 0 
L 2853 0 
L 2853 378 
L 3309 378 
L 2925 1331 
L 1172 1331 
L 781 378 
L 1338 378 
L 1338 0 
L -50 0 
z
M 1325 1709 
L 2772 1709 
L 2053 3494 
L 1325 1709 
z
" transform="scale(0.015625)"/>
      <path id="DejaVuSerif-Bold-67" d="M 3853 2944 
L 3853 44 
Q 3853 -656 3354 -1039 
Q 2856 -1422 1947 -1422 
Q 1616 -1422 1275 -1370 
Q 934 -1319 575 -1216 
L 575 -422 
L 928 -422 
Q 975 -750 1192 -909 
Q 1409 -1069 1813 -1069 
Q 2325 -1069 2536 -823 
Q 2747 -578 2747 44 
L 2747 422 
Q 2606 163 2367 36 
Q 2128 -91 1778 -91 
Q 1072 -91 667 378 
Q 263 847 263 1663 
Q 263 2481 667 2947 
Q 1072 3413 1778 3413 
Q 2128 3413 2367 3286 
Q 2606 3159 2747 2900 
L 2747 3322 
L 4325 3322 
L 4325 2944 
L 3853 2944 
z
M 2747 1825 
Q 2747 2406 2597 2665 
Q 2447 2925 2119 2925 
Q 1775 2925 1636 2651 
Q 1497 2378 1497 1663 
Q 1497 947 1637 672 
Q 1778 397 2119 397 
Q 2447 397 2597 656 
Q 2747 916 2747 1497 
L 2747 1825 
z
" transform="scale(0.015625)"/>
      <path id="DejaVuSerif-Bold-6f" d="M 2138 263 
Q 2488 263 2630 563 
Q 2772 863 2772 1663 
Q 2772 2463 2631 2761 
Q 2491 3059 2138 3059 
Q 1784 3059 1640 2757 
Q 1497 2456 1497 1663 
Q 1497 869 1640 566 
Q 1784 263 2138 263 
z
M 2138 -91 
Q 1259 -91 761 376 
Q 263 844 263 1663 
Q 263 2484 761 2948 
Q 1259 3413 2138 3413 
Q 3019 3413 3516 2948 
Q 4013 2484 4013 1663 
Q 4013 844 3514 376 
Q 3016 -91 2138 -91 
z
" transform="scale(0.015625)"/>
      <path id="DejaVuSerif-Bold-72" d="M 3438 3359 
L 3438 2369 
L 3084 2369 
Q 3066 2634 2941 2764 
Q 2816 2894 2578 2894 
Q 2216 2894 2006 2575 
Q 1797 2256 1797 1691 
L 1797 378 
L 2400 378 
L 2400 0 
L 219 0 
L 219 378 
L 691 378 
L 691 2944 
L 184 2944 
L 184 3322 
L 1797 3322 
L 1797 2731 
Q 1959 3078 2226 3245 
Q 2494 3413 2881 3413 
Q 2978 3413 3117 3398 
Q 3256 3384 3438 3359 
z
" transform="scale(0.015625)"/>
      <path id="DejaVuSerif-Bold-69" d="M 588 4263 
Q 588 4516 763 4689 
Q 938 4863 1191 4863 
Q 1438 4863 1611 4689 
Q 1784 4516 1784 4263 
Q 1784 4016 1611 3842 
Q 1438 3669 1191 3669 
Q 938 3669 763 3841 
Q 588 4013 588 4263 
z
M 1797 378 
L 2272 378 
L 2272 0 
L 219 0 
L 219 378 
L 691 378 
L 691 2944 
L 219 2944 
L 219 3322 
L 1797 3322 
L 1797 378 
z
" transform="scale(0.015625)"/>
      <path id="DejaVuSerif-Bold-74" d="M 634 2944 
L 153 2944 
L 153 3322 
L 634 3322 
L 634 4353 
L 1741 4353 
L 1741 3322 
L 2663 3322 
L 2663 2944 
L 1741 2944 
L 1741 909 
Q 1741 475 1809 369 
Q 1878 263 2059 263 
Q 2259 263 2356 397 
Q 2453 531 2459 813 
L 2925 813 
Q 2897 313 2651 111 
Q 2406 -91 1806 -91 
Q 1122 -91 878 123 
Q 634 338 634 909 
L 634 2944 
z
" transform="scale(0.015625)"/>
      <path id="DejaVuSerif-Bold-68" d="M 219 0 
L 219 378 
L 691 378 
L 691 4488 
L 197 4488 
L 197 4863 
L 1797 4863 
L 1797 2853 
Q 1997 3150 2253 3281 
Q 2509 3413 2900 3413 
Q 3459 3413 3745 3083 
Q 4031 2753 4031 2113 
L 4031 378 
L 4506 378 
L 4506 0 
L 2522 0 
L 2522 378 
L 2925 378 
L 2925 2144 
Q 2925 2566 2817 2730 
Q 2709 2894 2444 2894 
Q 2109 2894 1953 2648 
Q 1797 2403 1797 1869 
L 1797 378 
L 2203 378 
L 2203 0 
L 219 0 
z
" transform="scale(0.015625)"/>
      <path id="DejaVuSerif-Bold-6d" d="M 3884 2778 
Q 4116 3109 4384 3261 
Q 4653 3413 5013 3413 
Q 5584 3413 5867 3089 
Q 6150 2766 6150 2113 
L 6150 378 
L 6625 378 
L 6625 0 
L 4647 0 
L 4647 378 
L 5044 378 
L 5044 1947 
Q 5044 2569 4948 2731 
Q 4853 2894 4594 2894 
Q 4300 2894 4137 2667 
Q 3975 2441 3975 2022 
L 3975 378 
L 4372 378 
L 4372 0 
L 2472 0 
L 2472 378 
L 2869 378 
L 2869 1947 
Q 2869 2569 2772 2731 
Q 2675 2894 2419 2894 
Q 2122 2894 1959 2667 
Q 1797 2441 1797 2022 
L 1797 378 
L 2194 378 
L 2194 0 
L 219 0 
L 219 378 
L 691 378 
L 691 2944 
L 219 2944 
L 219 3322 
L 1797 3322 
L 1797 2853 
Q 1991 3144 2241 3278 
Q 2491 3413 2834 3413 
Q 3241 3413 3494 3258 
Q 3747 3103 3884 2778 
z
" transform="scale(0.015625)"/>
      <path id="DejaVuSerif-Bold-53" d="M 494 225 
L 494 1331 
L 891 1331 
Q 981 806 1318 547 
Q 1656 288 2253 288 
Q 2738 288 2991 472 
Q 3244 656 3244 1013 
Q 3244 1294 3072 1450 
Q 2900 1606 2363 1741 
L 1663 1913 
Q 978 2088 700 2398 
Q 422 2709 422 3284 
Q 422 3978 883 4364 
Q 1344 4750 2175 4750 
Q 2584 4750 3026 4681 
Q 3469 4613 3944 4475 
L 3944 3444 
L 3547 3444 
Q 3456 3925 3150 4148 
Q 2844 4372 2278 4372 
Q 1816 4372 1580 4211 
Q 1344 4050 1344 3731 
Q 1344 3441 1506 3289 
Q 1669 3138 2303 2975 
L 3003 2803 
Q 3653 2641 3945 2297 
Q 4238 1953 4238 1350 
Q 4238 644 3750 276 
Q 3263 -91 2316 -91 
Q 1859 -91 1409 -12 
Q 959 66 494 225 
z
" transform="scale(0.015625)"/>
      <path id="DejaVuSerif-Bold-65" d="M 2566 1875 
Q 2566 2531 2444 2795 
Q 2322 3059 2028 3059 
Q 1744 3059 1620 2800 
Q 1497 2541 1497 1931 
L 1497 1875 
L 2566 1875 
z
M 3781 1503 
L 1497 1503 
L 1497 1478 
Q 1497 834 1690 548 
Q 1884 263 2316 263 
Q 2675 263 2897 453 
Q 3119 644 3181 1006 
L 3700 1006 
Q 3566 441 3166 175 
Q 2766 -91 2047 -91 
Q 1184 -91 723 364 
Q 263 819 263 1663 
Q 263 2488 734 2950 
Q 1206 3413 2047 3413 
Q 2872 3413 3312 2927 
Q 3753 2441 3781 1503 
z
" transform="scale(0.015625)"/>
      <path id="DejaVuSerif-Bold-63" d="M 3609 1038 
Q 3491 469 3123 189 
Q 2756 -91 2125 -91 
Q 1238 -91 750 368 
Q 263 828 263 1663 
Q 263 2488 744 2950 
Q 1225 3413 2081 3413 
Q 2428 3413 2781 3347 
Q 3134 3281 3500 3150 
L 3500 2228 
L 3150 2228 
Q 3100 2650 2903 2854 
Q 2706 3059 2350 3059 
Q 1888 3059 1692 2746 
Q 1497 2434 1497 1663 
Q 1497 909 1687 586 
Q 1878 263 2309 263 
Q 2644 263 2845 463 
Q 3047 663 3091 1038 
L 3609 1038 
z
" transform="scale(0.015625)"/>
      <path id="DejaVuSerif-Bold-6e" d="M 219 0 
L 219 378 
L 691 378 
L 691 2944 
L 219 2944 
L 219 3322 
L 1797 3322 
L 1797 2853 
Q 1997 3150 2253 3281 
Q 2509 3413 2900 3413 
Q 3459 3413 3745 3083 
Q 4031 2753 4031 2113 
L 4031 378 
L 4506 378 
L 4506 0 
L 2522 0 
L 2522 378 
L 2925 378 
L 2925 2144 
Q 2925 2566 2817 2730 
Q 2709 2894 2444 2894 
Q 2109 2894 1953 2648 
Q 1797 2403 1797 1869 
L 1797 378 
L 2203 378 
L 2203 0 
L 219 0 
z
" transform="scale(0.015625)"/>
      <path id="DejaVuSerif-Bold-52" d="M 3397 2278 
Q 3675 2238 3865 2094 
Q 4056 1950 4197 1678 
L 4878 378 
L 5356 378 
L 5356 0 
L 3822 0 
L 3078 1409 
Q 2863 1847 2711 1967 
Q 2559 2088 2291 2088 
L 2100 2088 
L 2100 378 
L 2700 378 
L 2700 0 
L 300 0 
L 300 378 
L 897 378 
L 897 4288 
L 300 4288 
L 300 4666 
L 2963 4666 
Q 3775 4666 4217 4339 
Q 4659 4013 4659 3413 
Q 4659 2925 4345 2642 
Q 4031 2359 3397 2278 
z
M 2100 2463 
L 2509 2463 
Q 2947 2463 3183 2700 
Q 3419 2938 3419 3378 
Q 3419 3819 3183 4053 
Q 2947 4288 2509 4288 
L 2100 4288 
L 2100 2463 
z
" transform="scale(0.015625)"/>
      <path id="DejaVuSerif-Bold-61" d="M 3525 2041 
L 3525 378 
L 4000 378 
L 4000 0 
L 2419 0 
L 2419 422 
Q 2200 159 1931 34 
Q 1663 -91 1319 -91 
Q 809 -91 536 182 
Q 263 456 263 966 
Q 263 1525 655 1803 
Q 1047 2081 1838 2081 
L 2419 2081 
L 2419 2278 
Q 2419 2681 2228 2873 
Q 2038 3066 1638 3066 
Q 1306 3066 1126 2930 
Q 947 2794 872 2484 
L 519 2484 
L 519 3200 
Q 816 3306 1134 3359 
Q 1453 3413 1806 3413 
Q 2697 3413 3111 3081 
Q 3525 2750 3525 2041 
z
M 2419 1044 
L 2419 1709 
L 2003 1709 
Q 1694 1709 1528 1540 
Q 1363 1372 1363 1056 
Q 1363 741 1483 584 
Q 1603 428 1850 428 
Q 2106 428 2262 597 
Q 2419 766 2419 1044 
z
" transform="scale(0.015625)"/>
      <path id="DejaVuSerif-Bold-64" d="M 2747 1497 
L 2747 1825 
Q 2747 2406 2597 2665 
Q 2447 2925 2119 2925 
Q 1775 2925 1636 2651 
Q 1497 2378 1497 1663 
Q 1497 947 1637 672 
Q 1778 397 2119 397 
Q 2447 397 2597 656 
Q 2747 916 2747 1497 
z
M 3853 378 
L 4325 378 
L 4325 0 
L 2747 0 
L 2747 422 
Q 2606 163 2367 36 
Q 2128 -91 1778 -91 
Q 1072 -91 667 378 
Q 263 847 263 1663 
Q 263 2481 667 2947 
Q 1072 3413 1778 3413 
Q 2128 3413 2367 3286 
Q 2606 3159 2747 2900 
L 2747 4488 
L 2272 4488 
L 2272 4863 
L 3853 4863 
L 3853 378 
z
" transform="scale(0.015625)"/>
     </defs>
     <use xlink:href="#DejaVuSerif-Bold-47"/>
     <use xlink:href="#DejaVuSerif-Bold-75" transform="translate(85.400391 0)"/>
     <use xlink:href="#DejaVuSerif-Bold-6c" transform="translate(158.105469 0)"/>
     <use xlink:href="#DejaVuSerif-Bold-66" transform="translate(196.09375 0)"/>
     <use xlink:href="#DejaVuSerif-Bold-20" transform="translate(239.111328 0)"/>
     <use xlink:href="#DejaVuSerif-Bold-41" transform="translate(273.925781 0)"/>
     <use xlink:href="#DejaVuSerif-Bold-6c" transform="translate(351.513672 0)"/>
     <use xlink:href="#DejaVuSerif-Bold-67" transform="translate(389.501953 0)"/>
     <use xlink:href="#DejaVuSerif-Bold-6f" transform="translate(459.423828 0)"/>
     <use xlink:href="#DejaVuSerif-Bold-72" transform="translate(526.123047 0)"/>
     <use xlink:href="#DejaVuSerif-Bold-69" transform="translate(578.808594 0)"/>
     <use xlink:href="#DejaVuSerif-Bold-74" transform="translate(616.796875 0)"/>
     <use xlink:href="#DejaVuSerif-Bold-68" transform="translate(662.988281 0)"/>
     <use xlink:href="#DejaVuSerif-Bold-6d" transform="translate(735.693359 0)"/>
     <use xlink:href="#DejaVuSerif-Bold-20" transform="translate(841.503906 0)"/>
     <use xlink:href="#DejaVuSerif-Bold-53" transform="translate(876.318359 0)"/>
     <use xlink:href="#DejaVuSerif-Bold-65" transform="translate(948.535156 0)"/>
     <use xlink:href="#DejaVuSerif-Bold-6c" transform="translate(1012.158203 0)"/>
     <use xlink:href="#DejaVuSerif-Bold-65" transform="translate(1050.146484 0)"/>
     <use xlink:href="#DejaVuSerif-Bold-63" transform="translate(1113.769531 0)"/>
     <use xlink:href="#DejaVuSerif-Bold-74" transform="translate(1174.658203 0)"/>
     <use xlink:href="#DejaVuSerif-Bold-69" transform="translate(1220.849609 0)"/>
     <use xlink:href="#DejaVuSerif-Bold-6f" transform="translate(1258.837891 0)"/>
     <use xlink:href="#DejaVuSerif-Bold-6e" transform="translate(1325.537109 0)"/>
     <use xlink:href="#DejaVuSerif-Bold-20" transform="translate(1398.242188 0)"/>
     <use xlink:href="#DejaVuSerif-Bold-52" transform="translate(1433.056641 0)"/>
     <use xlink:href="#DejaVuSerif-Bold-61" transform="translate(1518.412109 0)"/>
     <use xlink:href="#DejaVuSerif-Bold-64" transform="translate(1583.207031 0)"/>
     <use xlink:href="#DejaVuSerif-Bold-61" transform="translate(1653.128906 0)"/>
     <use xlink:href="#DejaVuSerif-Bold-72" transform="translate(1717.923828 0)"/>
    </g>
   </g>
   <g id="legend_1">
    <g id="patch_7">
     <path d="M 532.869969 63.64125 
L 673.843719 63.64125 
Q 676.243719 63.64125 676.243719 61.24125 
L 676.243719 9.6 
Q 676.243719 7.2 673.843719 7.2 
L 532.869969 7.2 
Q 530.469969 7.2 530.469969 9.6 
L 530.469969 61.24125 
Q 530.469969 63.64125 532.869969 63.64125 
z
" style="fill: #ffffff; opacity: 0.8; stroke: #cccccc; stroke-linejoin: miter"/>
    </g>
    <g id="line2d_15">
     <path d="M 535.269969 16.918125 
L 547.269969 16.918125 
L 559.269969 16.918125 
" style="fill: none; stroke: #2e7d32; stroke-width: 2; stroke-linecap: square"/>
    </g>
    <g id="text_13">
     <!-- ML-DSA-44 -->
     <g transform="translate(568.869969 21.118125) scale(0.12 -0.12)">
      <defs>
       <path id="DejaVuSerif-4c" d="M 353 0 
L 353 331 
L 947 331 
L 947 4331 
L 353 4331 
L 353 4666 
L 2175 4666 
L 2175 4331 
L 1581 4331 
L 1581 384 
L 3713 384 
L 3713 1166 
L 4097 1166 
L 4097 0 
L 353 0 
z
" transform="scale(0.015625)"/>
       <path id="DejaVuSerif-44" d="M 1581 331 
L 2163 331 
Q 3072 331 3558 850 
Q 4044 1369 4044 2338 
Q 4044 3306 3559 3818 
Q 3075 4331 2163 4331 
L 1581 4331 
L 1581 331 
z
M 353 0 
L 353 331 
L 947 331 
L 947 4331 
L 353 4331 
L 353 4666 
L 2209 4666 
Q 3416 4666 4089 4050 
Q 4763 3434 4763 2338 
Q 4763 1238 4088 619 
Q 3413 0 2209 0 
L 353 0 
z
" transform="scale(0.015625)"/>
       <path id="DejaVuSerif-41" d="M 1281 1691 
L 2994 1691 
L 2138 3909 
L 1281 1691 
z
M -38 0 
L -38 331 
L 372 331 
L 2034 4666 
L 2559 4666 
L 4225 331 
L 4684 331 
L 4684 0 
L 2988 0 
L 2988 331 
L 3506 331 
L 3116 1356 
L 1153 1356 
L 763 331 
L 1275 331 
L 1275 0 
L -38 0 
z
" transform="scale(0.015625)"/>
      </defs>
      <use xlink:href="#DejaVuSerif-4d"/>
      <use xlink:href="#DejaVuSerif-4c" transform="translate(102.392578 0)"/>
      <use xlink:href="#DejaVuSerif-2d" transform="translate(168.798828 0)"/>
      <use xlink:href="#DejaVuSerif-44" transform="translate(202.587891 0)"/>
      <use xlink:href="#DejaVuSerif-53" transform="translate(282.763672 0)"/>
      <use xlink:href="#DejaVuSerif-41" transform="translate(351.269531 0)"/>
      <use xlink:href="#DejaVuSerif-2d" transform="translate(423.486328 0)"/>
      <use xlink:href="#DejaVuSerif-34" transform="translate(457.275391 0)"/>
      <use xlink:href="#DejaVuSerif-34" transform="translate(520.898438 0)"/>
     </g>
    </g>
    <g id="line2d_16">
     <path d="M 535.269969 34.531875 
L 547.269969 34.531875 
L 559.269969 34.531875 
" style="fill: none; stroke: #007a87; stroke-width: 2; stroke-linecap: square"/>
    </g>
    <g id="text_14">
     <!-- Falcon-512 -->
     <g transform="translate(568.869969 38.731875) scale(0.12 -0.12)">
      <defs>
       <path id="DejaVuSerif-46" d="M 353 0 
L 353 331 
L 947 331 
L 947 4331 
L 353 4331 
L 353 4666 
L 4172 4666 
L 4172 3628 
L 3788 3628 
L 3788 4281 
L 1581 4281 
L 1581 2719 
L 3175 2719 
L 3175 3303 
L 3559 3303 
L 3559 1753 
L 3175 1753 
L 3175 2338 
L 1581 2338 
L 1581 331 
L 2328 331 
L 2328 0 
L 353 0 
z
" transform="scale(0.015625)"/>
       <path id="DejaVuSerif-35" d="M 3219 4666 
L 3219 4153 
L 1081 4153 
L 1081 2816 
Q 1244 2928 1461 2984 
Q 1678 3041 1947 3041 
Q 2703 3041 3140 2622 
Q 3578 2203 3578 1478 
Q 3578 738 3136 323 
Q 2694 -91 1894 -91 
Q 1572 -91 1234 -12 
Q 897 66 544 225 
L 544 1131 
L 897 1131 
Q 925 688 1179 453 
Q 1434 219 1894 219 
Q 2388 219 2653 544 
Q 2919 869 2919 1478 
Q 2919 2084 2655 2407 
Q 2391 2731 1894 2731 
Q 1613 2731 1398 2631 
Q 1184 2531 1019 2322 
L 750 2322 
L 750 4666 
L 3219 4666 
z
" transform="scale(0.015625)"/>
      </defs>
      <use xlink:href="#DejaVuSerif-46"/>
      <use xlink:href="#DejaVuSerif-61" transform="translate(62.634766 0)"/>
      <use xlink:href="#DejaVuSerif-6c" transform="translate(122.253906 0)"/>
      <use xlink:href="#DejaVuSerif-63" transform="translate(154.236328 0)"/>
      <use xlink:href="#DejaVuSerif-6f" transform="translate(210.242188 0)"/>
      <use xlink:href="#DejaVuSerif-6e" transform="translate(270.447266 0)"/>
      <use xlink:href="#DejaVuSerif-2d" transform="translate(334.851562 0)"/>
      <use xlink:href="#DejaVuSerif-35" transform="translate(368.640625 0)"/>
      <use xlink:href="#DejaVuSerif-31" transform="translate(432.263672 0)"/>
      <use xlink:href="#DejaVuSerif-32" transform="translate(495.886719 0)"/>
     </g>
    </g>
    <g id="line2d_17">
     <path d="M 535.269969 52.145625 
L 547.269969 52.145625 
L 559.269969 52.145625 
" style="fill: none; stroke: #6a1b9a; stroke-width: 2; stroke-linecap: square"/>
    </g>
    <g id="text_15">
     <!-- SPHINCS+-256s -->
     <g transform="translate(568.869969 56.345625) scale(0.12 -0.12)">
      <defs>
       <path id="DejaVuSerif-50" d="M 1581 2375 
L 2406 2375 
Q 2872 2375 3115 2626 
Q 3359 2878 3359 3353 
Q 3359 3831 3115 4081 
Q 2872 4331 2406 4331 
L 1581 4331 
L 1581 2375 
z
M 353 0 
L 353 331 
L 947 331 
L 947 4331 
L 353 4331 
L 353 4666 
L 2559 4666 
Q 3259 4666 3668 4311 
Q 4078 3956 4078 3353 
Q 4078 2753 3668 2397 
Q 3259 2041 2559 2041 
L 1581 2041 
L 1581 331 
L 2303 331 
L 2303 0 
L 353 0 
z
" transform="scale(0.015625)"/>
       <path id="DejaVuSerif-48" d="M 353 0 
L 353 331 
L 947 331 
L 947 4331 
L 353 4331 
L 353 4666 
L 2175 4666 
L 2175 4331 
L 1581 4331 
L 1581 2719 
L 4000 2719 
L 4000 4331 
L 3406 4331 
L 3406 4666 
L 5228 4666 
L 5228 4331 
L 4634 4331 
L 4634 331 
L 5228 331 
L 5228 0 
L 3406 0 
L 3406 331 
L 4000 331 
L 4000 2338 
L 1581 2338 
L 1581 331 
L 2175 331 
L 2175 0 
L 353 0 
z
" transform="scale(0.015625)"/>
       <path id="DejaVuSerif-2b" d="M 2931 4013 
L 2931 2259 
L 4684 2259 
L 4684 1753 
L 2931 1753 
L 2931 0 
L 2431 0 
L 2431 1753 
L 678 1753 
L 678 2259 
L 2431 2259 
L 2431 4013 
L 2931 4013 
z
" transform="scale(0.015625)"/>
      </defs>
      <use xlink:href="#DejaVuSerif-53"/>
      <use xlink:href="#DejaVuSerif-50" transform="translate(68.505859 0)"/>
      <use xlink:href="#DejaVuSerif-48" transform="translate(135.791016 0)"/>
      <use xlink:href="#DejaVuSerif-49" transform="translate(222.998047 0)"/>
      <use xlink:href="#DejaVuSerif-4e" transform="translate(262.5 0)"/>
      <use xlink:href="#DejaVuSerif-43" transform="translate(350 0)"/>
      <use xlink:href="#DejaVuSerif-53" transform="translate(426.513672 0)"/>
      <use xlink:href="#DejaVuSerif-2b" transform="translate(495.019531 0)"/>
      <use xlink:href="#DejaVuSerif-2d" transform="translate(578.808594 0)"/>
      <use xlink:href="#DejaVuSerif-32" transform="translate(612.597656 0)"/>
      <use xlink:href="#DejaVuSerif-35" transform="translate(676.220703 0)"/>
      <use xlink:href="#DejaVuSerif-36" transform="translate(739.84375 0)"/>
      <use xlink:href="#DejaVuSerif-73" transform="translate(803.466797 0)"/>
     </g>
    </g>
   </g>
  </g>
 </g>
 <defs>
  <clipPath id="p05546d41ec">
   <path d="M 516.844219 284.742 
C 516.844219 253.713338 510.732249 222.986391 498.858094 194.319645 
C 486.983939 165.6529 469.578522 139.603851 447.637945 117.663274 
C 425.697367 95.722697 399.648319 78.317279 370.981574 66.443125 
C 342.314828 54.56897 311.587881 48.457 280.559219 48.457 
C 249.530557 48.457 218.80361 54.56897 190.136864 66.443125 
C 161.470118 78.317279 135.42107 95.722697 113.480493 117.663274 
C 91.539916 139.603851 74.134498 165.6529 62.260343 194.319645 
C 50.386189 222.986391 44.274219 253.713338 44.274219 284.742 
C 44.274219 315.770662 50.386189 346.497609 62.260343 375.164355 
C 74.134498 403.8311 91.539916 429.880149 113.480493 451.820726 
C 135.42107 473.761303 161.470118 491.166721 190.136864 503.040875 
C 218.80361 514.91503 249.530557 521.027 280.559219 521.027 
C 311.587881 521.027 342.314828 514.91503 370.981574 503.040875 
C 399.648319 491.166721 425.697367 473.761303 447.637945 451.820726 
C 469.578522 429.880149 486.983939 403.8311 498.858094 375.164355 
C 510.732249 346.497609 516.844219 315.770662 516.844219 284.742 
M 280.559219 284.742 
C 280.559219 284.742 280.559219 284.742 280.559219 284.742 
C 280.559219 284.742 280.559219 284.742 280.559219 284.742 
C 280.559219 284.742 280.559219 284.742 280.559219 284.742 
C 280.559219 284.742 280.559219 284.742 280.559219 284.742 
C 280.559219 284.742 280.559219 284.742 280.559219 284.742 
C 280.559219 284.742 280.559219 284.742 280.559219 284.742 
C 280.559219 284.742 280.559219 284.742 280.559219 284.742 
C 280.559219 284.742 280.559219 284.742 280.559219 284.742 
C 280.559219 284.742 280.559219 284.742 280.559219 284.742 
C 280.559219 284.742 280.559219 284.742 280.559219 284.742 
C 280.559219 284.742 280.559219 284.742 280.559219 284.742 
C 280.559219 284.742 280.559219 284.742 280.559219 284.742 
C 280.559219 284.742 280.559219 284.742 280.559219 284.742 
C 280.559219 284.742 280.559219 284.742 280.559219 284.742 
C 280.559219 284.742 280.559219 284.742 280.559219 284.742 
C 280.559219 284.742 280.559219 284.742 280.559219 284.742 
z
"/>
  </clipPath>
 </defs>
</svg>
