<?xml version="1.0" encoding="utf-8" standalone="no"?>
<!DOCTYPE svg PUBLIC "-//W3C//DTD SVG 1.1//EN"
  "http://www.w3.org/Graphics/SVG/1.1/DTD/svg11.dtd">
<svg xmlns:xlink="http://www.w3.org/1999/xlink" width="1140.48pt" height="420.357656pt" viewBox="0 0 1140.48 420.357656" xmlns="http://www.w3.org/2000/svg" version="1.1">
 <metadata>
  <rdf:RDF xmlns:dc="http://purl.org/dc/elements/1.1/" xmlns:cc="http://creativecommons.org/ns#" xmlns:rdf="http://www.w3.org/1999/02/22-rdf-syntax-ns#">
   <cc:Work>
    <dc:type rdf:resource="http://purl.org/dc/dcmitype/StillImage"/>
    <dc:date>2026-07-05T05:41:31.139984</dc:date>
    <dc:format>image/svg+xml</dc:format>
    <dc:creator>
     <cc:Agent>
      <dc:title>Matplotlib v3.10.0, https://matplotlib.org/</dc:title>
     </cc:Agent>
    </dc:creator>
   </cc:Work>
  </rdf:RDF>
 </metadata>
 <defs>
  <style type="text/css">*{stroke-linejoin: round; stroke-linecap: butt}</style>
 </defs>
 <g id="figure_1">
  <g id="patch_1">
   <path d="M 0 420.357656 
L 1140.48 420.357656 
L 1140.48 0 
L 0 0 
z
" style="fill: #ffffff"/>
  </g>
  <g id="axes_1">
   <g id="patch_2">
    <path d="M 7.2 396.132202 
L 1079.657143 396.132202 
L 1079.657143 371.559381 
L 7.2 371.559381 
z
" clip-path="url(#p95f8a8391d)" style="fill: #2e7d32; stroke: #ffffff; stroke-linejoin: miter"/>
   </g>
   <g id="patch_3">
    <path d="M 7.2 361.028172 
L 1079.657143 361.028172 
L 1079.657143 336.455351 
L 7.2 336.455351 
z
" clip-path="url(#p95f8a8391d)" style="fill: #007a87; stroke: #ffffff; stroke-linejoin: miter"/>
   </g>
   <g id="patch_4">
    <path d="M 7.2 325.924142 
L 1079.657143 325.924142 
L 1079.657143 301.351321 
L 7.2 301.351321 
z
" clip-path="url(#p95f8a8391d)" style="fill: #c8963e; stroke: #ffffff; stroke-linejoin: miter"/>
   </g>
   <g id="patch_5">
    <path d="M 7.2 290.820112 
L 1079.657143 290.820112 
L 1079.657143 266.247291 
L 7.2 266.247291 
z
" clip-path="url(#p95f8a8391d)" style="fill: #2e7d32; stroke: #ffffff; stroke-linejoin: miter"/>
   </g>
   <g id="patch_6">
    <path d="M 7.2 255.716082 
L 1079.657143 255.716082 
L 1079.657143 231.143261 
L 7.2 231.143261 
z
" clip-path="url(#p95f8a8391d)" style="fill: #007a87; stroke: #ffffff; stroke-linejoin: miter"/>
   </g>
   <g id="patch_7">
    <path d="M 7.2 220.612052 
L 1079.657143 220.612052 
L 1079.657143 196.039231 
L 7.2 196.039231 
z
" clip-path="url(#p95f8a8391d)" style="fill: #6a1b9a; stroke: #ffffff; stroke-linejoin: miter"/>
   </g>
   <g id="patch_8">
    <path d="M 7.2 185.508022 
L 1079.657143 185.508022 
L 1079.657143 160.935201 
L 7.2 160.935201 
z
" clip-path="url(#p95f8a8391d)" style="fill: #6a1b9a; stroke: #ffffff; stroke-linejoin: miter"/>
   </g>
   <g id="patch_9">
    <path d="M 7.2 150.403992 
L 1079.657143 150.403992 
L 1079.657143 125.831171 
L 7.2 125.831171 
z
" clip-path="url(#p95f8a8391d)" style="fill: #007a87; stroke: #ffffff; stroke-linejoin: miter"/>
   </g>
   <g id="patch_10">
    <path d="M 7.2 115.299962 
L 1079.657143 115.299962 
L 1079.657143 90.727141 
L 7.2 90.727141 
z
" clip-path="url(#p95f8a8391d)" style="fill: #2e7d32; stroke: #ffffff; stroke-linejoin: miter"/>
   </g>
   <g id="patch_11">
    <path d="M 7.2 80.195932 
L 1079.657143 80.195932 
L 1079.657143 55.623111 
L 7.2 55.623111 
z
" clip-path="url(#p95f8a8391d)" style="fill: #1b365d; stroke: #ffffff; stroke-linejoin: miter"/>
   </g>
   <g id="text_1">
    <!-- Drones          → ML-DSA-44 -->
    <g style="fill: #ffffff" transform="translate(475.69654 386.329229) scale(0.09 -0.09)">
     <defs>
      <path id="DejaVuSerif-Bold-44" d="M 2100 378 
L 2534 378 
Q 3266 378 3605 847 
Q 3944 1316 3944 2338 
Q 3944 3353 3606 3820 
Q 3269 4288 2534 4288 
L 2100 4288 
L 2100 378 
z
M 300 0 
L 300 378 
L 897 378 
L 897 4288 
L 300 4288 
L 300 4666 
L 2694 4666 
Q 3950 4666 4615 4066 
Q 5281 3466 5281 2338 
Q 5281 1203 4614 601 
Q 3947 0 2694 0 
L 300 0 
z
" transform="scale(0.015625)"/>
      <path id="DejaVuSerif-Bold-72" d="M 3438 3359 
L 3438 2369 
L 3084 2369 
Q 3066 2634 2941 2764 
Q 2816 2894 2578 2894 
Q 2216 2894 2006 2575 
Q 1797 2256 1797 1691 
L 1797 378 
L 2400 378 
L 2400 0 
L 219 0 
L 219 378 
L 691 378 
L 691 2944 
L 184 2944 
L 184 3322 
L 1797 3322 
L 1797 2731 
Q 1959 3078 2226 3245 
Q 2494 3413 2881 3413 
Q 2978 3413 3117 3398 
Q 3256 3384 3438 3359 
z
" transform="scale(0.015625)"/>
      <path id="DejaVuSerif-Bold-6f" d="M 2138 263 
Q 2488 263 2630 563 
Q 2772 863 2772 1663 
Q 2772 2463 2631 2761 
Q 2491 3059 2138 3059 
Q 1784 3059 1640 2757 
Q 1497 2456 1497 1663 
Q 1497 869 1640 566 
Q 1784 263 2138 263 
z
M 2138 -91 
Q 1259 -91 761 376 
Q 263 844 263 1663 
Q 263 2484 761 2948 
Q 1259 3413 2138 3413 
Q 3019 3413 3516 2948 
Q 4013 2484 4013 1663 
Q 4013 844 3514 376 
Q 3016 -91 2138 -91 
z
" transform="scale(0.015625)"/>
      <path id="DejaVuSerif-Bold-6e" d="M 219 0 
L 219 378 
L 691 378 
L 691 2944 
L 219 2944 
L 219 3322 
L 1797 3322 
L 1797 2853 
Q 1997 3150 2253 3281 
Q 2509 3413 2900 3413 
Q 3459 3413 3745 3083 
Q 4031 2753 4031 2113 
L 4031 378 
L 4506 378 
L 4506 0 
L 2522 0 
L 2522 378 
L 2925 378 
L 2925 2144 
Q 2925 2566 2817 2730 
Q 2709 2894 2444 2894 
Q 2109 2894 1953 2648 
Q 1797 2403 1797 1869 
L 1797 378 
L 2203 378 
L 2203 0 
L 219 0 
z
" transform="scale(0.015625)"/>
      <path id="DejaVuSerif-Bold-65" d="M 2566 1875 
Q 2566 2531 2444 2795 
Q 2322 3059 2028 3059 
Q 1744 3059 1620 2800 
Q 1497 2541 1497 1931 
L 1497 1875 
L 2566 1875 
z
M 3781 1503 
L 1497 1503 
L 1497 1478 
Q 1497 834 1690 548 
Q 1884 263 2316 263 
Q 2675 263 2897 453 
Q 3119 644 3181 1006 
L 3700 1006 
Q 3566 441 3166 175 
Q 2766 -91 2047 -91 
Q 1184 -91 723 364 
Q 263 819 263 1663 
Q 263 2488 734 2950 
Q 1206 3413 2047 3413 
Q 2872 3413 3312 2927 
Q 3753 2441 3781 1503 
z
" transform="scale(0.015625)"/>
      <path id="DejaVuSerif-Bold-73" d="M 300 97 
L 300 1025 
L 653 1025 
Q 697 653 931 458 
Q 1166 263 1569 263 
Q 1906 263 2086 380 
Q 2266 497 2266 716 
Q 2266 916 2152 1025 
Q 2038 1134 1709 1216 
L 1253 1331 
Q 738 1459 506 1698 
Q 275 1938 275 2344 
Q 275 2884 650 3148 
Q 1025 3413 1806 3413 
Q 2100 3413 2433 3364 
Q 2766 3316 3169 3213 
L 3169 2375 
L 2816 2375 
Q 2788 2716 2573 2887 
Q 2359 3059 1959 3059 
Q 1622 3059 1448 2951 
Q 1275 2844 1275 2638 
Q 1275 2469 1375 2372 
Q 1475 2275 1734 2209 
L 2188 2094 
Q 2841 1928 3091 1684 
Q 3341 1441 3341 1006 
Q 3341 444 2939 176 
Q 2538 -91 1691 -91 
Q 1381 -91 1034 -44 
Q 688 3 300 97 
z
" transform="scale(0.015625)"/>
      <path id="DejaVuSerif-Bold-20" transform="scale(0.015625)"/>
      <path id="DejaVuSerif-Bold-2192" d="M 366 1725 
L 366 2413 
L 4066 2413 
L 3659 3375 
L 3822 3375 
L 5125 2084 
L 5125 2053 
L 3822 763 
L 3659 763 
L 4066 1725 
L 366 1725 
z
" transform="scale(0.015625)"/>
      <path id="DejaVuSerif-Bold-4d" d="M 269 0 
L 269 378 
L 863 378 
L 863 4288 
L 269 4288 
L 269 4666 
L 2194 4666 
L 3525 1672 
L 4863 4666 
L 6784 4666 
L 6784 4288 
L 6188 4288 
L 6188 378 
L 6784 378 
L 6784 0 
L 4384 0 
L 4384 378 
L 4978 378 
L 4978 3938 
L 3531 684 
L 2741 684 
L 1300 3938 
L 1300 378 
L 1894 378 
L 1894 0 
L 269 0 
z
" transform="scale(0.015625)"/>
      <path id="DejaVuSerif-Bold-4c" d="M 300 0 
L 300 378 
L 897 378 
L 897 4288 
L 300 4288 
L 300 4666 
L 2700 4666 
L 2700 4288 
L 2100 4288 
L 2100 428 
L 3938 428 
L 3938 1166 
L 4359 1166 
L 4359 0 
L 300 0 
z
" transform="scale(0.015625)"/>
      <path id="DejaVuSerif-Bold-2d" d="M 347 2138 
L 2309 2138 
L 2309 1294 
L 347 1294 
L 347 2138 
z
" transform="scale(0.015625)"/>
      <path id="DejaVuSerif-Bold-53" d="M 494 225 
L 494 1331 
L 891 1331 
Q 981 806 1318 547 
Q 1656 288 2253 288 
Q 2738 288 2991 472 
Q 3244 656 3244 1013 
Q 3244 1294 3072 1450 
Q 2900 1606 2363 1741 
L 1663 1913 
Q 978 2088 700 2398 
Q 422 2709 422 3284 
Q 422 3978 883 4364 
Q 1344 4750 2175 4750 
Q 2584 4750 3026 4681 
Q 3469 4613 3944 4475 
L 3944 3444 
L 3547 3444 
Q 3456 3925 3150 4148 
Q 2844 4372 2278 4372 
Q 1816 4372 1580 4211 
Q 1344 4050 1344 3731 
Q 1344 3441 1506 3289 
Q 1669 3138 2303 2975 
L 3003 2803 
Q 3653 2641 3945 2297 
Q 4238 1953 4238 1350 
Q 4238 644 3750 276 
Q 3263 -91 2316 -91 
Q 1859 -91 1409 -12 
Q 959 66 494 225 
z
" transform="scale(0.015625)"/>
      <path id="DejaVuSerif-Bold-41" d="M -50 0 
L -50 378 
L 331 378 
L 2088 4666 
L 2834 4666 
L 4594 378 
L 5038 378 
L 5038 0 
L 2853 0 
L 2853 378 
L 3309 378 
L 2925 1331 
L 1172 1331 
L 781 378 
L 1338 378 
L 1338 0 
L -50 0 
z
M 1325 1709 
L 2772 1709 
L 2053 3494 
L 1325 1709 
z
" transform="scale(0.015625)"/>
      <path id="DejaVuSerif-Bold-34" d="M 4084 0 
L 1516 0 
L 1516 378 
L 2209 378 
L 2209 1228 
L 263 1228 
L 263 1588 
L 2216 4750 
L 3391 4750 
L 3391 1631 
L 4191 1631 
L 4191 1228 
L 3391 1228 
L 3391 378 
L 4084 378 
L 4084 0 
z
M 2209 1631 
L 2209 3897 
L 819 1631 
L 2209 1631 
z
" transform="scale(0.015625)"/>
     </defs>
     <use xlink:href="#DejaVuSerif-Bold-44"/>
     <use xlink:href="#DejaVuSerif-Bold-72" transform="translate(86.71875 0)"/>
     <use xlink:href="#DejaVuSerif-Bold-6f" transform="translate(139.404297 0)"/>
     <use xlink:href="#DejaVuSerif-Bold-6e" transform="translate(206.103516 0)"/>
     <use xlink:href="#DejaVuSerif-Bold-65" transform="translate(278.808594 0)"/>
     <use xlink:href="#DejaVuSerif-Bold-73" transform="translate(342.431641 0)"/>
     <use xlink:href="#DejaVuSerif-Bold-20" transform="translate(398.730469 0)"/>
     <use xlink:href="#DejaVuSerif-Bold-20" transform="translate(433.544922 0)"/>
     <use xlink:href="#DejaVuSerif-Bold-20" transform="translate(468.359375 0)"/>
     <use xlink:href="#DejaVuSerif-Bold-20" transform="translate(503.173828 0)"/>
     <use xlink:href="#DejaVuSerif-Bold-20" transform="translate(537.988281 0)"/>
     <use xlink:href="#DejaVuSerif-Bold-20" transform="translate(572.802734 0)"/>
     <use xlink:href="#DejaVuSerif-Bold-20" transform="translate(607.617188 0)"/>
     <use xlink:href="#DejaVuSerif-Bold-20" transform="translate(642.431641 0)"/>
     <use xlink:href="#DejaVuSerif-Bold-20" transform="translate(677.246094 0)"/>
     <use xlink:href="#DejaVuSerif-Bold-20" transform="translate(712.060547 0)"/>
     <use xlink:href="#DejaVuSerif-Bold-2192" transform="translate(746.875 0)"/>
     <use xlink:href="#DejaVuSerif-Bold-20" transform="translate(830.664062 0)"/>
     <use xlink:href="#DejaVuSerif-Bold-4d" transform="translate(865.478516 0)"/>
     <use xlink:href="#DejaVuSerif-Bold-4c" transform="translate(976.171875 0)"/>
     <use xlink:href="#DejaVuSerif-Bold-2d" transform="translate(1046.484375 0)"/>
     <use xlink:href="#DejaVuSerif-Bold-44" transform="translate(1087.988281 0)"/>
     <use xlink:href="#DejaVuSerif-Bold-53" transform="translate(1174.707031 0)"/>
     <use xlink:href="#DejaVuSerif-Bold-41" transform="translate(1246.923828 0)"/>
     <use xlink:href="#DejaVuSerif-Bold-2d" transform="translate(1324.511719 0)"/>
     <use xlink:href="#DejaVuSerif-Bold-34" transform="translate(1366.015625 0)"/>
     <use xlink:href="#DejaVuSerif-Bold-34" transform="translate(1435.595703 0)"/>
    </g>
   </g>
   <g id="text_2">
    <!-- Oil -->
    <g style="fill: #ffffff" transform="translate(536.090056 346.186183) scale(0.09 -0.09)">
     <defs>
      <path id="DejaVuSerif-Bold-4f" d="M 2784 288 
Q 3381 288 3672 791 
Q 3963 1294 3963 2328 
Q 3963 3366 3672 3869 
Q 3381 4372 2784 4372 
Q 2191 4372 1898 3864 
Q 1606 3356 1606 2328 
Q 1606 1303 1898 795 
Q 2191 288 2784 288 
z
M 2784 -91 
Q 1606 -91 937 553 
Q 269 1197 269 2328 
Q 269 3459 939 4104 
Q 1609 4750 2784 4750 
Q 3963 4750 4631 4106 
Q 5300 3463 5300 2328 
Q 5300 1197 4629 553 
Q 3959 -91 2784 -91 
z
" transform="scale(0.015625)"/>
      <path id="DejaVuSerif-Bold-69" d="M 588 4263 
Q 588 4516 763 4689 
Q 938 4863 1191 4863 
Q 1438 4863 1611 4689 
Q 1784 4516 1784 4263 
Q 1784 4016 1611 3842 
Q 1438 3669 1191 3669 
Q 938 3669 763 3841 
Q 588 4013 588 4263 
z
M 1797 378 
L 2272 378 
L 2272 0 
L 219 0 
L 219 378 
L 691 378 
L 691 2944 
L 219 2944 
L 219 3322 
L 1797 3322 
L 1797 378 
z
" transform="scale(0.015625)"/>
      <path id="DejaVuSerif-Bold-6c" d="M 1797 378 
L 2272 378 
L 2272 0 
L 219 0 
L 219 378 
L 691 378 
L 691 4488 
L 219 4488 
L 219 4863 
L 1797 4863 
L 1797 378 
z
" transform="scale(0.015625)"/>
     </defs>
     <use xlink:href="#DejaVuSerif-Bold-4f"/>
     <use xlink:href="#DejaVuSerif-Bold-69" transform="translate(87.109375 0)"/>
     <use xlink:href="#DejaVuSerif-Bold-6c" transform="translate(125.097656 0)"/>
    </g>
    <!-- Sensors     → Falcon-512 -->
    <g style="fill: #ffffff" transform="translate(482.587868 356.264214) scale(0.09 -0.09)">
     <defs>
      <path id="DejaVuSerif-Bold-46" d="M 300 0 
L 300 378 
L 897 378 
L 897 4288 
L 300 4288 
L 300 4666 
L 4459 4666 
L 4459 3566 
L 4031 3566 
L 4031 4238 
L 2106 4238 
L 2106 2741 
L 3291 2741 
L 3291 3334 
L 3719 3334 
L 3719 1722 
L 3291 1722 
L 3291 2316 
L 2106 2316 
L 2106 378 
L 2841 378 
L 2841 0 
L 300 0 
z
" transform="scale(0.015625)"/>
      <path id="DejaVuSerif-Bold-61" d="M 3525 2041 
L 3525 378 
L 4000 378 
L 4000 0 
L 2419 0 
L 2419 422 
Q 2200 159 1931 34 
Q 1663 -91 1319 -91 
Q 809 -91 536 182 
Q 263 456 263 966 
Q 263 1525 655 1803 
Q 1047 2081 1838 2081 
L 2419 2081 
L 2419 2278 
Q 2419 2681 2228 2873 
Q 2038 3066 1638 3066 
Q 1306 3066 1126 2930 
Q 947 2794 872 2484 
L 519 2484 
L 519 3200 
Q 816 3306 1134 3359 
Q 1453 3413 1806 3413 
Q 2697 3413 3111 3081 
Q 3525 2750 3525 2041 
z
M 2419 1044 
L 2419 1709 
L 2003 1709 
Q 1694 1709 1528 1540 
Q 1363 1372 1363 1056 
Q 1363 741 1483 584 
Q 1603 428 1850 428 
Q 2106 428 2262 597 
Q 2419 766 2419 1044 
z
" transform="scale(0.015625)"/>
      <path id="DejaVuSerif-Bold-63" d="M 3609 1038 
Q 3491 469 3123 189 
Q 2756 -91 2125 -91 
Q 1238 -91 750 368 
Q 263 828 263 1663 
Q 263 2488 744 2950 
Q 1225 3413 2081 3413 
Q 2428 3413 2781 3347 
Q 3134 3281 3500 3150 
L 3500 2228 
L 3150 2228 
Q 3100 2650 2903 2854 
Q 2706 3059 2350 3059 
Q 1888 3059 1692 2746 
Q 1497 2434 1497 1663 
Q 1497 909 1687 586 
Q 1878 263 2309 263 
Q 2644 263 2845 463 
Q 3047 663 3091 1038 
L 3609 1038 
z
" transform="scale(0.015625)"/>
      <path id="DejaVuSerif-Bold-35" d="M 3609 4666 
L 3609 3847 
L 1113 3847 
L 1113 2822 
Q 1319 2981 1572 3062 
Q 1825 3144 2106 3144 
Q 2969 3144 3469 2708 
Q 3969 2272 3969 1522 
Q 3969 759 3469 334 
Q 2969 -91 2069 -91 
Q 1688 -91 1311 -28 
Q 934 34 525 166 
L 525 1184 
L 900 1184 
Q 919 725 1139 500 
Q 1359 275 1791 275 
Q 2250 275 2472 583 
Q 2694 891 2694 1522 
Q 2694 2144 2476 2451 
Q 2259 2759 1819 2759 
Q 1581 2759 1395 2661 
Q 1209 2563 1050 2356 
L 738 2356 
L 738 4666 
L 3609 4666 
z
" transform="scale(0.015625)"/>
      <path id="DejaVuSerif-Bold-31" d="M 878 0 
L 878 378 
L 1753 378 
L 1753 4153 
L 781 3578 
L 781 4044 
L 1953 4750 
L 2938 4750 
L 2938 378 
L 3816 378 
L 3816 0 
L 878 0 
z
" transform="scale(0.015625)"/>
      <path id="DejaVuSerif-Bold-32" d="M 844 3513 
L 469 3513 
L 469 4519 
Q 850 4634 1223 4692 
Q 1597 4750 1978 4750 
Q 2869 4750 3367 4386 
Q 3866 4022 3866 3372 
Q 3866 2909 3591 2542 
Q 3316 2175 2541 1672 
L 1241 819 
L 3450 819 
L 3450 1369 
L 3878 1369 
L 3878 0 
L 428 0 
L 428 763 
L 1119 1241 
Q 2003 1850 2297 2278 
Q 2591 2706 2591 3278 
Q 2591 3819 2367 4101 
Q 2144 4384 1716 4384 
Q 1347 4384 1125 4161 
Q 903 3938 844 3513 
z
" transform="scale(0.015625)"/>
     </defs>
     <use xlink:href="#DejaVuSerif-Bold-53"/>
     <use xlink:href="#DejaVuSerif-Bold-65" transform="translate(72.216797 0)"/>
     <use xlink:href="#DejaVuSerif-Bold-6e" transform="translate(135.839844 0)"/>
     <use xlink:href="#DejaVuSerif-Bold-73" transform="translate(208.544922 0)"/>
     <use xlink:href="#DejaVuSerif-Bold-6f" transform="translate(264.84375 0)"/>
     <use xlink:href="#DejaVuSerif-Bold-72" transform="translate(331.542969 0)"/>
     <use xlink:href="#DejaVuSerif-Bold-73" transform="translate(384.228516 0)"/>
     <use xlink:href="#DejaVuSerif-Bold-20" transform="translate(440.527344 0)"/>
     <use xlink:href="#DejaVuSerif-Bold-20" transform="translate(475.341797 0)"/>
     <use xlink:href="#DejaVuSerif-Bold-20" transform="translate(510.15625 0)"/>
     <use xlink:href="#DejaVuSerif-Bold-20" transform="translate(544.970703 0)"/>
     <use xlink:href="#DejaVuSerif-Bold-20" transform="translate(579.785156 0)"/>
     <use xlink:href="#DejaVuSerif-Bold-2192" transform="translate(614.599609 0)"/>
     <use xlink:href="#DejaVuSerif-Bold-20" transform="translate(698.388672 0)"/>
     <use xlink:href="#DejaVuSerif-Bold-46" transform="translate(733.203125 0)"/>
     <use xlink:href="#DejaVuSerif-Bold-61" transform="translate(798.699219 0)"/>
     <use xlink:href="#DejaVuSerif-Bold-6c" transform="translate(863.494141 0)"/>
     <use xlink:href="#DejaVuSerif-Bold-63" transform="translate(901.482422 0)"/>
     <use xlink:href="#DejaVuSerif-Bold-6f" transform="translate(962.371094 0)"/>
     <use xlink:href="#DejaVuSerif-Bold-6e" transform="translate(1029.070312 0)"/>
     <use xlink:href="#DejaVuSerif-Bold-2d" transform="translate(1101.775391 0)"/>
     <use xlink:href="#DejaVuSerif-Bold-35" transform="translate(1143.279297 0)"/>
     <use xlink:href="#DejaVuSerif-Bold-31" transform="translate(1212.859375 0)"/>
     <use xlink:href="#DejaVuSerif-Bold-32" transform="translate(1282.439453 0)"/>
    </g>
   </g>
   <g id="text_3">
    <!-- SCADA           → Hybrid -->
    <g style="fill: #ffffff" transform="translate(485.901696 316.057184) scale(0.09 -0.09)">
     <defs>
      <path id="DejaVuSerif-Bold-43" d="M 4769 1331 
Q 4584 609 4106 259 
Q 3628 -91 2822 -91 
Q 1641 -91 955 561 
Q 269 1213 269 2328 
Q 269 3447 955 4098 
Q 1641 4750 2822 4750 
Q 3238 4750 3688 4650 
Q 4138 4550 4641 4347 
L 4641 3200 
L 4244 3200 
Q 4122 3788 3800 4080 
Q 3478 4372 2950 4372 
Q 2269 4372 1937 3870 
Q 1606 3369 1606 2328 
Q 1606 1288 1937 788 
Q 2269 288 2956 288 
Q 3422 288 3717 547 
Q 4013 806 4147 1331 
L 4769 1331 
z
" transform="scale(0.015625)"/>
      <path id="DejaVuSerif-Bold-48" d="M 300 0 
L 300 378 
L 897 378 
L 897 4288 
L 300 4288 
L 300 4666 
L 2700 4666 
L 2700 4288 
L 2100 4288 
L 2100 2719 
L 3956 2719 
L 3956 4288 
L 3359 4288 
L 3359 4666 
L 5759 4666 
L 5759 4288 
L 5159 4288 
L 5159 378 
L 5759 378 
L 5759 0 
L 3359 0 
L 3359 378 
L 3956 378 
L 3956 2291 
L 2100 2291 
L 2100 378 
L 2700 378 
L 2700 0 
L 300 0 
z
" transform="scale(0.015625)"/>
      <path id="DejaVuSerif-Bold-79" d="M 1997 -750 
Q 1847 -1116 1634 -1269 
Q 1422 -1422 1063 -1422 
Q 909 -1422 721 -1387 
Q 534 -1353 313 -1288 
L 313 -594 
L 666 -597 
Q 675 -838 779 -953 
Q 884 -1069 1094 -1069 
Q 1297 -1069 1422 -958 
Q 1547 -847 1672 -538 
L 1722 -422 
L 275 2944 
L -84 2944 
L -84 3322 
L 1831 3322 
L 1831 2944 
L 1434 2944 
L 2278 978 
L 3066 2944 
L 2625 2944 
L 2625 3322 
L 3872 3322 
L 3872 2944 
L 3469 2944 
L 1997 -750 
z
" transform="scale(0.015625)"/>
      <path id="DejaVuSerif-Bold-62" d="M 622 378 
L 622 4488 
L 147 4488 
L 147 4863 
L 1728 4863 
L 1728 2900 
Q 1869 3159 2106 3286 
Q 2344 3413 2694 3413 
Q 3403 3413 3811 2945 
Q 4219 2478 4219 1663 
Q 4219 847 3811 378 
Q 3403 -91 2694 -91 
Q 2344 -91 2106 36 
Q 1869 163 1728 422 
L 1728 0 
L 147 0 
L 147 378 
L 622 378 
z
M 1728 1497 
Q 1728 916 1876 656 
Q 2025 397 2356 397 
Q 2697 397 2836 672 
Q 2975 947 2975 1663 
Q 2975 2378 2836 2651 
Q 2697 2925 2356 2925 
Q 2025 2925 1876 2665 
Q 1728 2406 1728 1825 
L 1728 1497 
z
" transform="scale(0.015625)"/>
      <path id="DejaVuSerif-Bold-64" d="M 2747 1497 
L 2747 1825 
Q 2747 2406 2597 2665 
Q 2447 2925 2119 2925 
Q 1775 2925 1636 2651 
Q 1497 2378 1497 1663 
Q 1497 947 1637 672 
Q 1778 397 2119 397 
Q 2447 397 2597 656 
Q 2747 916 2747 1497 
z
M 3853 378 
L 4325 378 
L 4325 0 
L 2747 0 
L 2747 422 
Q 2606 163 2367 36 
Q 2128 -91 1778 -91 
Q 1072 -91 667 378 
Q 263 847 263 1663 
Q 263 2481 667 2947 
Q 1072 3413 1778 3413 
Q 2128 3413 2367 3286 
Q 2606 3159 2747 2900 
L 2747 4488 
L 2272 4488 
L 2272 4863 
L 3853 4863 
L 3853 378 
z
" transform="scale(0.015625)"/>
     </defs>
     <use xlink:href="#DejaVuSerif-Bold-53"/>
     <use xlink:href="#DejaVuSerif-Bold-43" transform="translate(72.216797 0)"/>
     <use xlink:href="#DejaVuSerif-Bold-41" transform="translate(151.806641 0)"/>
     <use xlink:href="#DejaVuSerif-Bold-44" transform="translate(229.394531 0)"/>
     <use xlink:href="#DejaVuSerif-Bold-41" transform="translate(316.113281 0)"/>
     <use xlink:href="#DejaVuSerif-Bold-20" transform="translate(393.701172 0)"/>
     <use xlink:href="#DejaVuSerif-Bold-20" transform="translate(428.515625 0)"/>
     <use xlink:href="#DejaVuSerif-Bold-20" transform="translate(463.330078 0)"/>
     <use xlink:href="#DejaVuSerif-Bold-20" transform="translate(498.144531 0)"/>
     <use xlink:href="#DejaVuSerif-Bold-20" transform="translate(532.958984 0)"/>
     <use xlink:href="#DejaVuSerif-Bold-20" transform="translate(567.773438 0)"/>
     <use xlink:href="#DejaVuSerif-Bold-20" transform="translate(602.587891 0)"/>
     <use xlink:href="#DejaVuSerif-Bold-20" transform="translate(637.402344 0)"/>
     <use xlink:href="#DejaVuSerif-Bold-20" transform="translate(672.216797 0)"/>
     <use xlink:href="#DejaVuSerif-Bold-20" transform="translate(707.03125 0)"/>
     <use xlink:href="#DejaVuSerif-Bold-20" transform="translate(741.845703 0)"/>
     <use xlink:href="#DejaVuSerif-Bold-2192" transform="translate(776.660156 0)"/>
     <use xlink:href="#DejaVuSerif-Bold-20" transform="translate(860.449219 0)"/>
     <use xlink:href="#DejaVuSerif-Bold-48" transform="translate(895.263672 0)"/>
     <use xlink:href="#DejaVuSerif-Bold-79" transform="translate(989.746094 0)"/>
     <use xlink:href="#DejaVuSerif-Bold-62" transform="translate(1047.851562 0)"/>
     <use xlink:href="#DejaVuSerif-Bold-72" transform="translate(1117.773438 0)"/>
     <use xlink:href="#DejaVuSerif-Bold-69" transform="translate(1170.458984 0)"/>
     <use xlink:href="#DejaVuSerif-Bold-64" transform="translate(1208.447266 0)"/>
    </g>
   </g>
   <g id="text_4">
    <!-- Smart -->
    <g style="fill: #ffffff" transform="translate(528.051931 275.978123) scale(0.09 -0.09)">
     <defs>
      <path id="DejaVuSerif-Bold-6d" d="M 3884 2778 
Q 4116 3109 4384 3261 
Q 4653 3413 5013 3413 
Q 5584 3413 5867 3089 
Q 6150 2766 6150 2113 
L 6150 378 
L 6625 378 
L 6625 0 
L 4647 0 
L 4647 378 
L 5044 378 
L 5044 1947 
Q 5044 2569 4948 2731 
Q 4853 2894 4594 2894 
Q 4300 2894 4137 2667 
Q 3975 2441 3975 2022 
L 3975 378 
L 4372 378 
L 4372 0 
L 2472 0 
L 2472 378 
L 2869 378 
L 2869 1947 
Q 2869 2569 2772 2731 
Q 2675 2894 2419 2894 
Q 2122 2894 1959 2667 
Q 1797 2441 1797 2022 
L 1797 378 
L 2194 378 
L 2194 0 
L 219 0 
L 219 378 
L 691 378 
L 691 2944 
L 219 2944 
L 219 3322 
L 1797 3322 
L 1797 2853 
Q 1991 3144 2241 3278 
Q 2491 3413 2834 3413 
Q 3241 3413 3494 3258 
Q 3747 3103 3884 2778 
z
" transform="scale(0.015625)"/>
      <path id="DejaVuSerif-Bold-74" d="M 634 2944 
L 153 2944 
L 153 3322 
L 634 3322 
L 634 4353 
L 1741 4353 
L 1741 3322 
L 2663 3322 
L 2663 2944 
L 1741 2944 
L 1741 909 
Q 1741 475 1809 369 
Q 1878 263 2059 263 
Q 2259 263 2356 397 
Q 2453 531 2459 813 
L 2925 813 
Q 2897 313 2651 111 
Q 2406 -91 1806 -91 
Q 1122 -91 878 123 
Q 634 338 634 909 
L 634 2944 
z
" transform="scale(0.015625)"/>
     </defs>
     <use xlink:href="#DejaVuSerif-Bold-53"/>
     <use xlink:href="#DejaVuSerif-Bold-6d" transform="translate(72.216797 0)"/>
     <use xlink:href="#DejaVuSerif-Bold-61" transform="translate(178.027344 0)"/>
     <use xlink:href="#DejaVuSerif-Bold-72" transform="translate(242.822266 0)"/>
     <use xlink:href="#DejaVuSerif-Bold-74" transform="translate(295.507812 0)"/>
    </g>
    <!-- Grid      → ML-DSA-65 -->
    <g style="fill: #ffffff" transform="translate(488.835837 286.056154) scale(0.09 -0.09)">
     <defs>
      <path id="DejaVuSerif-Bold-47" d="M 4403 3200 
Q 4263 3819 3934 4095 
Q 3606 4372 3009 4372 
Q 2284 4372 1945 3880 
Q 1606 3388 1606 2328 
Q 1606 1278 1931 783 
Q 2256 288 2944 288 
Q 3206 288 3431 347 
Q 3656 406 3841 525 
L 3841 1806 
L 3278 1806 
L 3278 2181 
L 4959 2181 
L 4959 391 
Q 4434 147 3911 28 
Q 3388 -91 2841 -91 
Q 1641 -91 955 556 
Q 269 1203 269 2328 
Q 269 3456 955 4103 
Q 1641 4750 2841 4750 
Q 3341 4750 3825 4650 
Q 4309 4550 4800 4347 
L 4800 3200 
L 4403 3200 
z
" transform="scale(0.015625)"/>
      <path id="DejaVuSerif-Bold-36" d="M 1575 2766 
Q 1778 2928 2029 3009 
Q 2281 3091 2578 3091 
Q 3294 3091 3701 2672 
Q 4109 2253 4109 1522 
Q 4109 750 3650 329 
Q 3191 -91 2344 -91 
Q 1388 -91 895 486 
Q 403 1063 403 2181 
Q 403 3453 950 4101 
Q 1497 4750 2572 4750 
Q 2853 4750 3175 4703 
Q 3497 4656 3866 4563 
L 3866 3738 
L 3488 3738 
Q 3409 4056 3192 4220 
Q 2975 4384 2631 4384 
Q 2075 4384 1826 4003 
Q 1578 3622 1575 2766 
z
M 2272 275 
Q 2594 275 2731 548 
Q 2869 822 2869 1497 
Q 2869 2172 2731 2445 
Q 2594 2719 2272 2719 
Q 1950 2719 1814 2445 
Q 1678 2172 1678 1497 
Q 1678 822 1814 548 
Q 1950 275 2272 275 
z
" transform="scale(0.015625)"/>
     </defs>
     <use xlink:href="#DejaVuSerif-Bold-47"/>
     <use xlink:href="#DejaVuSerif-Bold-72" transform="translate(85.400391 0)"/>
     <use xlink:href="#DejaVuSerif-Bold-69" transform="translate(138.085938 0)"/>
     <use xlink:href="#DejaVuSerif-Bold-64" transform="translate(176.074219 0)"/>
     <use xlink:href="#DejaVuSerif-Bold-20" transform="translate(245.996094 0)"/>
     <use xlink:href="#DejaVuSerif-Bold-20" transform="translate(280.810547 0)"/>
     <use xlink:href="#DejaVuSerif-Bold-20" transform="translate(315.625 0)"/>
     <use xlink:href="#DejaVuSerif-Bold-20" transform="translate(350.439453 0)"/>
     <use xlink:href="#DejaVuSerif-Bold-20" transform="translate(385.253906 0)"/>
     <use xlink:href="#DejaVuSerif-Bold-20" transform="translate(420.068359 0)"/>
     <use xlink:href="#DejaVuSerif-Bold-2192" transform="translate(454.882812 0)"/>
     <use xlink:href="#DejaVuSerif-Bold-20" transform="translate(538.671875 0)"/>
     <use xlink:href="#DejaVuSerif-Bold-4d" transform="translate(573.486328 0)"/>
     <use xlink:href="#DejaVuSerif-Bold-4c" transform="translate(684.179688 0)"/>
     <use xlink:href="#DejaVuSerif-Bold-2d" transform="translate(754.492188 0)"/>
     <use xlink:href="#DejaVuSerif-Bold-44" transform="translate(795.996094 0)"/>
     <use xlink:href="#DejaVuSerif-Bold-53" transform="translate(882.714844 0)"/>
     <use xlink:href="#DejaVuSerif-Bold-41" transform="translate(954.931641 0)"/>
     <use xlink:href="#DejaVuSerif-Bold-2d" transform="translate(1032.519531 0)"/>
     <use xlink:href="#DejaVuSerif-Bold-36" transform="translate(1074.023438 0)"/>
     <use xlink:href="#DejaVuSerif-Bold-35" transform="translate(1143.603516 0)"/>
    </g>
   </g>
   <g id="text_5">
    <!-- Border -->
    <g style="fill: #ffffff" transform="translate(525.872243 235.835077) scale(0.09 -0.09)">
     <defs>
      <path id="DejaVuSerif-Bold-42" d="M 300 0 
L 300 378 
L 897 378 
L 897 4288 
L 300 4288 
L 300 4666 
L 3066 4666 
Q 3919 4666 4347 4378 
Q 4775 4091 4775 3513 
Q 4775 3097 4479 2853 
Q 4184 2609 3603 2547 
Q 4306 2481 4681 2172 
Q 5056 1863 5056 1350 
Q 5056 656 4532 328 
Q 4009 0 2894 0 
L 300 0 
z
M 2100 2719 
L 2509 2719 
Q 3047 2719 3306 2914 
Q 3566 3109 3566 3513 
Q 3566 3919 3314 4103 
Q 3063 4288 2509 4288 
L 2100 4288 
L 2100 2719 
z
M 2100 378 
L 2547 378 
Q 3144 378 3431 615 
Q 3719 853 3719 1350 
Q 3719 1850 3428 2097 
Q 3138 2344 2547 2344 
L 2100 2344 
L 2100 378 
z
" transform="scale(0.015625)"/>
     </defs>
     <use xlink:href="#DejaVuSerif-Bold-42"/>
     <use xlink:href="#DejaVuSerif-Bold-6f" transform="translate(84.521484 0)"/>
     <use xlink:href="#DejaVuSerif-Bold-72" transform="translate(151.220703 0)"/>
     <use xlink:href="#DejaVuSerif-Bold-64" transform="translate(203.90625 0)"/>
     <use xlink:href="#DejaVuSerif-Bold-65" transform="translate(273.828125 0)"/>
     <use xlink:href="#DejaVuSerif-Bold-72" transform="translate(337.451172 0)"/>
    </g>
    <!-- Surv.    → ML-KEM+ -->
    <g style="fill: #ffffff" transform="translate(493.095368 245.913109) scale(0.09 -0.09)">
     <defs>
      <path id="DejaVuSerif-Bold-75" d="M 3963 3322 
L 3963 378 
L 4434 378 
L 4434 0 
L 2853 0 
L 2853 469 
Q 2656 172 2400 40 
Q 2144 -91 1753 -91 
Q 1194 -91 908 239 
Q 622 569 622 1209 
L 622 2944 
L 147 2944 
L 147 3322 
L 1728 3322 
L 1728 1381 
Q 1728 763 1831 595 
Q 1934 428 2209 428 
Q 2544 428 2698 675 
Q 2853 922 2853 1459 
L 2853 2944 
L 2450 2944 
L 2450 3322 
L 3963 3322 
z
" transform="scale(0.015625)"/>
      <path id="DejaVuSerif-Bold-76" d="M 1428 0 
L 250 2944 
L -116 2944 
L -116 3322 
L 1791 3322 
L 1791 2944 
L 1388 2944 
L 2228 844 
L 3066 2944 
L 2631 2944 
L 2631 3322 
L 3878 3322 
L 3878 2944 
L 3494 2944 
L 2316 0 
L 1428 0 
z
" transform="scale(0.015625)"/>
      <path id="DejaVuSerif-Bold-2e" d="M 519 506 
Q 519 750 694 925 
Q 869 1100 1113 1100 
Q 1359 1100 1534 925 
Q 1709 750 1709 506 
Q 1709 259 1534 84 
Q 1359 -91 1113 -91 
Q 869 -91 694 84 
Q 519 259 519 506 
z
" transform="scale(0.015625)"/>
      <path id="DejaVuSerif-Bold-4b" d="M 300 0 
L 300 378 
L 897 378 
L 897 4288 
L 300 4288 
L 300 4666 
L 2700 4666 
L 2700 4288 
L 2100 4288 
L 2100 2584 
L 4078 4288 
L 3578 4288 
L 3578 4666 
L 5319 4666 
L 5319 4288 
L 4697 4288 
L 3022 2847 
L 5300 378 
L 5759 378 
L 5759 0 
L 4178 0 
L 2100 2266 
L 2100 378 
L 2700 378 
L 2700 0 
L 300 0 
z
" transform="scale(0.015625)"/>
      <path id="DejaVuSerif-Bold-45" d="M 300 0 
L 300 378 
L 897 378 
L 897 4288 
L 300 4288 
L 300 4666 
L 4494 4666 
L 4494 3566 
L 4063 3566 
L 4063 4238 
L 2100 4238 
L 2100 2741 
L 3322 2741 
L 3322 3334 
L 3750 3334 
L 3750 1722 
L 3322 1722 
L 3322 2316 
L 2100 2316 
L 2100 428 
L 4122 428 
L 4122 1100 
L 4550 1100 
L 4550 0 
L 300 0 
z
" transform="scale(0.015625)"/>
      <path id="DejaVuSerif-Bold-2b" d="M 3041 4013 
L 3041 2369 
L 4684 2369 
L 4684 1650 
L 3041 1650 
L 3041 6 
L 2322 6 
L 2322 1650 
L 678 1650 
L 678 2369 
L 2322 2369 
L 2322 4013 
L 3041 4013 
z
" transform="scale(0.015625)"/>
     </defs>
     <use xlink:href="#DejaVuSerif-Bold-53"/>
     <use xlink:href="#DejaVuSerif-Bold-75" transform="translate(72.216797 0)"/>
     <use xlink:href="#DejaVuSerif-Bold-72" transform="translate(144.921875 0)"/>
     <use xlink:href="#DejaVuSerif-Bold-76" transform="translate(197.607422 0)"/>
     <use xlink:href="#DejaVuSerif-Bold-2e" transform="translate(245.712891 0)"/>
     <use xlink:href="#DejaVuSerif-Bold-20" transform="translate(280.527344 0)"/>
     <use xlink:href="#DejaVuSerif-Bold-20" transform="translate(315.341797 0)"/>
     <use xlink:href="#DejaVuSerif-Bold-20" transform="translate(350.15625 0)"/>
     <use xlink:href="#DejaVuSerif-Bold-20" transform="translate(384.970703 0)"/>
     <use xlink:href="#DejaVuSerif-Bold-2192" transform="translate(419.785156 0)"/>
     <use xlink:href="#DejaVuSerif-Bold-20" transform="translate(503.574219 0)"/>
     <use xlink:href="#DejaVuSerif-Bold-4d" transform="translate(538.388672 0)"/>
     <use xlink:href="#DejaVuSerif-Bold-4c" transform="translate(649.082031 0)"/>
     <use xlink:href="#DejaVuSerif-Bold-2d" transform="translate(719.394531 0)"/>
     <use xlink:href="#DejaVuSerif-Bold-4b" transform="translate(760.898438 0)"/>
     <use xlink:href="#DejaVuSerif-Bold-45" transform="translate(847.8125 0)"/>
     <use xlink:href="#DejaVuSerif-Bold-4d" transform="translate(924.033203 0)"/>
     <use xlink:href="#DejaVuSerif-Bold-2b" transform="translate(1034.726562 0)"/>
    </g>
    <!-- ML-DSA -->
    <g style="fill: #ffffff" transform="translate(522.772165 255.99114) scale(0.09 -0.09)">
     <use xlink:href="#DejaVuSerif-Bold-4d"/>
     <use xlink:href="#DejaVuSerif-Bold-4c" transform="translate(110.693359 0)"/>
     <use xlink:href="#DejaVuSerif-Bold-2d" transform="translate(181.005859 0)"/>
     <use xlink:href="#DejaVuSerif-Bold-44" transform="translate(222.509766 0)"/>
     <use xlink:href="#DejaVuSerif-Bold-53" transform="translate(309.228516 0)"/>
     <use xlink:href="#DejaVuSerif-Bold-41" transform="translate(381.445312 0)"/>
    </g>
   </g>
   <g id="text_6">
    <!-- CBDC            → SPHINCS+ -->
    <g style="fill: #ffffff" transform="translate(476.716775 205.770063) scale(0.09 -0.09)">
     <defs>
      <path id="DejaVuSerif-Bold-50" d="M 300 0 
L 300 378 
L 897 378 
L 897 4288 
L 300 4288 
L 300 4666 
L 2956 4666 
Q 3734 4666 4193 4295 
Q 4653 3925 4653 3303 
Q 4653 2678 4192 2304 
Q 3731 1931 2956 1931 
L 2100 1931 
L 2100 378 
L 2853 378 
L 2853 0 
L 300 0 
z
M 2100 2309 
L 2450 2309 
Q 2856 2309 3098 2579 
Q 3341 2850 3341 3303 
Q 3341 3753 3100 4020 
Q 2859 4288 2450 4288 
L 2100 4288 
L 2100 2309 
z
" transform="scale(0.015625)"/>
      <path id="DejaVuSerif-Bold-49" d="M 300 0 
L 300 378 
L 897 378 
L 897 4288 
L 300 4288 
L 300 4666 
L 2700 4666 
L 2700 4288 
L 2100 4288 
L 2100 378 
L 2700 378 
L 2700 0 
L 300 0 
z
" transform="scale(0.015625)"/>
      <path id="DejaVuSerif-Bold-4e" d="M 281 0 
L 281 378 
L 878 378 
L 878 4288 
L 281 4288 
L 281 4666 
L 1741 4666 
L 4556 1363 
L 4556 4288 
L 3963 4288 
L 3963 4666 
L 5594 4666 
L 5594 4288 
L 4997 4288 
L 4997 0 
L 4178 0 
L 1319 3372 
L 1319 378 
L 1913 378 
L 1913 0 
L 281 0 
z
" transform="scale(0.015625)"/>
     </defs>
     <use xlink:href="#DejaVuSerif-Bold-43"/>
     <use xlink:href="#DejaVuSerif-Bold-42" transform="translate(79.589844 0)"/>
     <use xlink:href="#DejaVuSerif-Bold-44" transform="translate(164.111328 0)"/>
     <use xlink:href="#DejaVuSerif-Bold-43" transform="translate(250.830078 0)"/>
     <use xlink:href="#DejaVuSerif-Bold-20" transform="translate(330.419922 0)"/>
     <use xlink:href="#DejaVuSerif-Bold-20" transform="translate(365.234375 0)"/>
     <use xlink:href="#DejaVuSerif-Bold-20" transform="translate(400.048828 0)"/>
     <use xlink:href="#DejaVuSerif-Bold-20" transform="translate(434.863281 0)"/>
     <use xlink:href="#DejaVuSerif-Bold-20" transform="translate(469.677734 0)"/>
     <use xlink:href="#DejaVuSerif-Bold-20" transform="translate(504.492188 0)"/>
     <use xlink:href="#DejaVuSerif-Bold-20" transform="translate(539.306641 0)"/>
     <use xlink:href="#DejaVuSerif-Bold-20" transform="translate(574.121094 0)"/>
     <use xlink:href="#DejaVuSerif-Bold-20" transform="translate(608.935547 0)"/>
     <use xlink:href="#DejaVuSerif-Bold-20" transform="translate(643.75 0)"/>
     <use xlink:href="#DejaVuSerif-Bold-20" transform="translate(678.564453 0)"/>
     <use xlink:href="#DejaVuSerif-Bold-20" transform="translate(713.378906 0)"/>
     <use xlink:href="#DejaVuSerif-Bold-2192" transform="translate(748.193359 0)"/>
     <use xlink:href="#DejaVuSerif-Bold-20" transform="translate(831.982422 0)"/>
     <use xlink:href="#DejaVuSerif-Bold-53" transform="translate(866.796875 0)"/>
     <use xlink:href="#DejaVuSerif-Bold-50" transform="translate(939.013672 0)"/>
     <use xlink:href="#DejaVuSerif-Bold-48" transform="translate(1014.208984 0)"/>
     <use xlink:href="#DejaVuSerif-Bold-49" transform="translate(1108.691406 0)"/>
     <use xlink:href="#DejaVuSerif-Bold-4e" transform="translate(1155.46875 0)"/>
     <use xlink:href="#DejaVuSerif-Bold-43" transform="translate(1246.875 0)"/>
     <use xlink:href="#DejaVuSerif-Bold-53" transform="translate(1326.464844 0)"/>
     <use xlink:href="#DejaVuSerif-Bold-2b" transform="translate(1398.681641 0)"/>
    </g>
    <!-- 256s -->
    <g style="fill: #ffffff" transform="translate(531.502165 215.848094) scale(0.09 -0.09)">
     <use xlink:href="#DejaVuSerif-Bold-32"/>
     <use xlink:href="#DejaVuSerif-Bold-35" transform="translate(69.580078 0)"/>
     <use xlink:href="#DejaVuSerif-Bold-36" transform="translate(139.160156 0)"/>
     <use xlink:href="#DejaVuSerif-Bold-73" transform="translate(208.740234 0)"/>
    </g>
   </g>
   <g id="text_7">
    <!-- Diplomatic      → SPHINCS+ -->
    <g style="fill: #ffffff" transform="translate(473.310837 170.666033) scale(0.09 -0.09)">
     <defs>
      <path id="DejaVuSerif-Bold-70" d="M 1728 1825 
L 1728 1497 
Q 1728 916 1876 656 
Q 2025 397 2356 397 
Q 2697 397 2836 672 
Q 2975 947 2975 1663 
Q 2975 2378 2836 2651 
Q 2697 2925 2356 2925 
Q 2025 2925 1876 2665 
Q 1728 2406 1728 1825 
z
M 622 2944 
L 147 2944 
L 147 3322 
L 1728 3322 
L 1728 2900 
Q 1869 3159 2106 3286 
Q 2344 3413 2694 3413 
Q 3403 3413 3811 2945 
Q 4219 2478 4219 1663 
Q 4219 847 3811 378 
Q 3403 -91 2694 -91 
Q 2344 -91 2106 36 
Q 1869 163 1728 422 
L 1728 -953 
L 2241 -953 
L 2241 -1331 
L 147 -1331 
L 147 -953 
L 622 -953 
L 622 2944 
z
" transform="scale(0.015625)"/>
     </defs>
     <use xlink:href="#DejaVuSerif-Bold-44"/>
     <use xlink:href="#DejaVuSerif-Bold-69" transform="translate(86.71875 0)"/>
     <use xlink:href="#DejaVuSerif-Bold-70" transform="translate(124.707031 0)"/>
     <use xlink:href="#DejaVuSerif-Bold-6c" transform="translate(194.628906 0)"/>
     <use xlink:href="#DejaVuSerif-Bold-6f" transform="translate(232.617188 0)"/>
     <use xlink:href="#DejaVuSerif-Bold-6d" transform="translate(299.316406 0)"/>
     <use xlink:href="#DejaVuSerif-Bold-61" transform="translate(405.126953 0)"/>
     <use xlink:href="#DejaVuSerif-Bold-74" transform="translate(469.921875 0)"/>
     <use xlink:href="#DejaVuSerif-Bold-69" transform="translate(516.113281 0)"/>
     <use xlink:href="#DejaVuSerif-Bold-63" transform="translate(554.101562 0)"/>
     <use xlink:href="#DejaVuSerif-Bold-20" transform="translate(614.990234 0)"/>
     <use xlink:href="#DejaVuSerif-Bold-20" transform="translate(649.804688 0)"/>
     <use xlink:href="#DejaVuSerif-Bold-20" transform="translate(684.619141 0)"/>
     <use xlink:href="#DejaVuSerif-Bold-20" transform="translate(719.433594 0)"/>
     <use xlink:href="#DejaVuSerif-Bold-20" transform="translate(754.248047 0)"/>
     <use xlink:href="#DejaVuSerif-Bold-20" transform="translate(789.0625 0)"/>
     <use xlink:href="#DejaVuSerif-Bold-2192" transform="translate(823.876953 0)"/>
     <use xlink:href="#DejaVuSerif-Bold-20" transform="translate(907.666016 0)"/>
     <use xlink:href="#DejaVuSerif-Bold-53" transform="translate(942.480469 0)"/>
     <use xlink:href="#DejaVuSerif-Bold-50" transform="translate(1014.697266 0)"/>
     <use xlink:href="#DejaVuSerif-Bold-48" transform="translate(1089.892578 0)"/>
     <use xlink:href="#DejaVuSerif-Bold-49" transform="translate(1184.375 0)"/>
     <use xlink:href="#DejaVuSerif-Bold-4e" transform="translate(1231.152344 0)"/>
     <use xlink:href="#DejaVuSerif-Bold-43" transform="translate(1322.558594 0)"/>
     <use xlink:href="#DejaVuSerif-Bold-53" transform="translate(1402.148438 0)"/>
     <use xlink:href="#DejaVuSerif-Bold-2b" transform="translate(1474.365234 0)"/>
    </g>
    <!-- AES -->
    <g style="fill: #ffffff" transform="translate(533.257165 180.744064) scale(0.09 -0.09)">
     <use xlink:href="#DejaVuSerif-Bold-41"/>
     <use xlink:href="#DejaVuSerif-Bold-45" transform="translate(77.587891 0)"/>
     <use xlink:href="#DejaVuSerif-Bold-53" transform="translate(153.808594 0)"/>
    </g>
   </g>
   <g id="text_8">
    <!-- Oil -->
    <g style="fill: #ffffff" transform="translate(536.090056 130.459003) scale(0.09 -0.09)">
     <use xlink:href="#DejaVuSerif-Bold-4f"/>
     <use xlink:href="#DejaVuSerif-Bold-69" transform="translate(87.109375 0)"/>
     <use xlink:href="#DejaVuSerif-Bold-6c" transform="translate(125.097656 0)"/>
    </g>
    <!-- Rig         → Falcon -->
    <g style="fill: #ffffff" transform="translate(498.810368 140.537034) scale(0.09 -0.09)">
     <defs>
      <path id="DejaVuSerif-Bold-52" d="M 3397 2278 
Q 3675 2238 3865 2094 
Q 4056 1950 4197 1678 
L 4878 378 
L 5356 378 
L 5356 0 
L 3822 0 
L 3078 1409 
Q 2863 1847 2711 1967 
Q 2559 2088 2291 2088 
L 2100 2088 
L 2100 378 
L 2700 378 
L 2700 0 
L 300 0 
L 300 378 
L 897 378 
L 897 4288 
L 300 4288 
L 300 4666 
L 2963 4666 
Q 3775 4666 4217 4339 
Q 4659 4013 4659 3413 
Q 4659 2925 4345 2642 
Q 4031 2359 3397 2278 
z
M 2100 2463 
L 2509 2463 
Q 2947 2463 3183 2700 
Q 3419 2938 3419 3378 
Q 3419 3819 3183 4053 
Q 2947 4288 2509 4288 
L 2100 4288 
L 2100 2463 
z
" transform="scale(0.015625)"/>
      <path id="DejaVuSerif-Bold-67" d="M 3853 2944 
L 3853 44 
Q 3853 -656 3354 -1039 
Q 2856 -1422 1947 -1422 
Q 1616 -1422 1275 -1370 
Q 934 -1319 575 -1216 
L 575 -422 
L 928 -422 
Q 975 -750 1192 -909 
Q 1409 -1069 1813 -1069 
Q 2325 -1069 2536 -823 
Q 2747 -578 2747 44 
L 2747 422 
Q 2606 163 2367 36 
Q 2128 -91 1778 -91 
Q 1072 -91 667 378 
Q 263 847 263 1663 
Q 263 2481 667 2947 
Q 1072 3413 1778 3413 
Q 2128 3413 2367 3286 
Q 2606 3159 2747 2900 
L 2747 3322 
L 4325 3322 
L 4325 2944 
L 3853 2944 
z
M 2747 1825 
Q 2747 2406 2597 2665 
Q 2447 2925 2119 2925 
Q 1775 2925 1636 2651 
Q 1497 2378 1497 1663 
Q 1497 947 1637 672 
Q 1778 397 2119 397 
Q 2447 397 2597 656 
Q 2747 916 2747 1497 
L 2747 1825 
z
" transform="scale(0.015625)"/>
     </defs>
     <use xlink:href="#DejaVuSerif-Bold-52"/>
     <use xlink:href="#DejaVuSerif-Bold-69" transform="translate(83.105469 0)"/>
     <use xlink:href="#DejaVuSerif-Bold-67" transform="translate(121.09375 0)"/>
     <use xlink:href="#DejaVuSerif-Bold-20" transform="translate(191.015625 0)"/>
     <use xlink:href="#DejaVuSerif-Bold-20" transform="translate(225.830078 0)"/>
     <use xlink:href="#DejaVuSerif-Bold-20" transform="translate(260.644531 0)"/>
     <use xlink:href="#DejaVuSerif-Bold-20" transform="translate(295.458984 0)"/>
     <use xlink:href="#DejaVuSerif-Bold-20" transform="translate(330.273438 0)"/>
     <use xlink:href="#DejaVuSerif-Bold-20" transform="translate(365.087891 0)"/>
     <use xlink:href="#DejaVuSerif-Bold-20" transform="translate(399.902344 0)"/>
     <use xlink:href="#DejaVuSerif-Bold-20" transform="translate(434.716797 0)"/>
     <use xlink:href="#DejaVuSerif-Bold-20" transform="translate(469.53125 0)"/>
     <use xlink:href="#DejaVuSerif-Bold-2192" transform="translate(504.345703 0)"/>
     <use xlink:href="#DejaVuSerif-Bold-20" transform="translate(588.134766 0)"/>
     <use xlink:href="#DejaVuSerif-Bold-46" transform="translate(622.949219 0)"/>
     <use xlink:href="#DejaVuSerif-Bold-61" transform="translate(688.445312 0)"/>
     <use xlink:href="#DejaVuSerif-Bold-6c" transform="translate(753.240234 0)"/>
     <use xlink:href="#DejaVuSerif-Bold-63" transform="translate(791.228516 0)"/>
     <use xlink:href="#DejaVuSerif-Bold-6f" transform="translate(852.117188 0)"/>
     <use xlink:href="#DejaVuSerif-Bold-6e" transform="translate(918.816406 0)"/>
    </g>
    <!-- 1024 -->
    <g style="fill: #ffffff" transform="translate(530.904509 150.743034) scale(0.09 -0.09)">
     <defs>
      <path id="DejaVuSerif-Bold-30" d="M 2228 275 
Q 2603 275 2742 615 
Q 2881 956 2881 2328 
Q 2881 3691 2742 4037 
Q 2603 4384 2228 4384 
Q 1853 4384 1714 4043 
Q 1575 3703 1575 2328 
Q 1575 956 1714 615 
Q 1853 275 2228 275 
z
M 2228 -91 
Q 1294 -91 797 532 
Q 300 1156 300 2328 
Q 300 3500 797 4125 
Q 1294 4750 2228 4750 
Q 3159 4750 3656 4125 
Q 4153 3500 4153 2328 
Q 4153 1156 3656 532 
Q 3159 -91 2228 -91 
z
" transform="scale(0.015625)"/>
     </defs>
     <use xlink:href="#DejaVuSerif-Bold-31"/>
     <use xlink:href="#DejaVuSerif-Bold-30" transform="translate(69.580078 0)"/>
     <use xlink:href="#DejaVuSerif-Bold-32" transform="translate(139.160156 0)"/>
     <use xlink:href="#DejaVuSerif-Bold-34" transform="translate(208.740234 0)"/>
    </g>
   </g>
   <g id="text_9">
    <!-- Hajj            → ML-DSA-44 -->
    <g style="fill: #ffffff" transform="translate(480.081931 100.393989) scale(0.09 -0.09)">
     <defs>
      <path id="DejaVuSerif-Bold-6a" d="M 556 4263 
Q 556 4516 729 4689 
Q 903 4863 1159 4863 
Q 1403 4863 1578 4688 
Q 1753 4513 1753 4263 
Q 1753 4016 1579 3842 
Q 1406 3669 1159 3669 
Q 906 3669 731 3841 
Q 556 4013 556 4263 
z
M 684 2944 
L 213 2944 
L 213 3322 
L 1791 3322 
L 1791 -391 
Q 1791 -900 1430 -1161 
Q 1069 -1422 366 -1422 
Q 178 -1422 -34 -1390 
Q -247 -1359 -475 -1300 
L -475 -594 
L -122 -597 
Q -116 -847 -23 -958 
Q 69 -1069 275 -1069 
Q 503 -1069 593 -922 
Q 684 -775 684 -391 
L 684 2944 
z
" transform="scale(0.015625)"/>
     </defs>
     <use xlink:href="#DejaVuSerif-Bold-48"/>
     <use xlink:href="#DejaVuSerif-Bold-61" transform="translate(94.482422 0)"/>
     <use xlink:href="#DejaVuSerif-Bold-6a" transform="translate(159.277344 0)"/>
     <use xlink:href="#DejaVuSerif-Bold-6a" transform="translate(195.458984 0)"/>
     <use xlink:href="#DejaVuSerif-Bold-20" transform="translate(231.640625 0)"/>
     <use xlink:href="#DejaVuSerif-Bold-20" transform="translate(266.455078 0)"/>
     <use xlink:href="#DejaVuSerif-Bold-20" transform="translate(301.269531 0)"/>
     <use xlink:href="#DejaVuSerif-Bold-20" transform="translate(336.083984 0)"/>
     <use xlink:href="#DejaVuSerif-Bold-20" transform="translate(370.898438 0)"/>
     <use xlink:href="#DejaVuSerif-Bold-20" transform="translate(405.712891 0)"/>
     <use xlink:href="#DejaVuSerif-Bold-20" transform="translate(440.527344 0)"/>
     <use xlink:href="#DejaVuSerif-Bold-20" transform="translate(475.341797 0)"/>
     <use xlink:href="#DejaVuSerif-Bold-20" transform="translate(510.15625 0)"/>
     <use xlink:href="#DejaVuSerif-Bold-20" transform="translate(544.970703 0)"/>
     <use xlink:href="#DejaVuSerif-Bold-20" transform="translate(579.785156 0)"/>
     <use xlink:href="#DejaVuSerif-Bold-20" transform="translate(614.599609 0)"/>
     <use xlink:href="#DejaVuSerif-Bold-2192" transform="translate(649.414062 0)"/>
     <use xlink:href="#DejaVuSerif-Bold-20" transform="translate(733.203125 0)"/>
     <use xlink:href="#DejaVuSerif-Bold-4d" transform="translate(768.017578 0)"/>
     <use xlink:href="#DejaVuSerif-Bold-4c" transform="translate(878.710938 0)"/>
     <use xlink:href="#DejaVuSerif-Bold-2d" transform="translate(949.023438 0)"/>
     <use xlink:href="#DejaVuSerif-Bold-44" transform="translate(990.527344 0)"/>
     <use xlink:href="#DejaVuSerif-Bold-53" transform="translate(1077.246094 0)"/>
     <use xlink:href="#DejaVuSerif-Bold-41" transform="translate(1149.462891 0)"/>
     <use xlink:href="#DejaVuSerif-Bold-2d" transform="translate(1227.050781 0)"/>
     <use xlink:href="#DejaVuSerif-Bold-34" transform="translate(1268.554688 0)"/>
     <use xlink:href="#DejaVuSerif-Bold-34" transform="translate(1338.134766 0)"/>
    </g>
    <!-- Batch -->
    <g style="fill: #ffffff" transform="translate(528.619353 110.599989) scale(0.09 -0.09)">
     <defs>
      <path id="DejaVuSerif-Bold-68" d="M 219 0 
L 219 378 
L 691 378 
L 691 4488 
L 197 4488 
L 197 4863 
L 1797 4863 
L 1797 2853 
Q 1997 3150 2253 3281 
Q 2509 3413 2900 3413 
Q 3459 3413 3745 3083 
Q 4031 2753 4031 2113 
L 4031 378 
L 4506 378 
L 4506 0 
L 2522 0 
L 2522 378 
L 2925 378 
L 2925 2144 
Q 2925 2566 2817 2730 
Q 2709 2894 2444 2894 
Q 2109 2894 1953 2648 
Q 1797 2403 1797 1869 
L 1797 378 
L 2203 378 
L 2203 0 
L 219 0 
z
" transform="scale(0.015625)"/>
     </defs>
     <use xlink:href="#DejaVuSerif-Bold-42"/>
     <use xlink:href="#DejaVuSerif-Bold-61" transform="translate(84.521484 0)"/>
     <use xlink:href="#DejaVuSerif-Bold-74" transform="translate(149.316406 0)"/>
     <use xlink:href="#DejaVuSerif-Bold-63" transform="translate(195.507812 0)"/>
     <use xlink:href="#DejaVuSerif-Bold-68" transform="translate(256.396484 0)"/>
    </g>
   </g>
   <g id="text_10">
    <!-- Sov. -->
    <g style="fill: #ffffff" transform="translate(533.445603 60.314928) scale(0.09 -0.09)">
     <use xlink:href="#DejaVuSerif-Bold-53"/>
     <use xlink:href="#DejaVuSerif-Bold-6f" transform="translate(72.216797 0)"/>
     <use xlink:href="#DejaVuSerif-Bold-76" transform="translate(138.916016 0)"/>
     <use xlink:href="#DejaVuSerif-Bold-2e" transform="translate(187.021484 0)"/>
    </g>
    <!-- Cloud      → ML-KEM+ -->
    <g style="fill: #ffffff" transform="translate(487.875368 70.392959) scale(0.09 -0.09)">
     <use xlink:href="#DejaVuSerif-Bold-43"/>
     <use xlink:href="#DejaVuSerif-Bold-6c" transform="translate(79.589844 0)"/>
     <use xlink:href="#DejaVuSerif-Bold-6f" transform="translate(117.578125 0)"/>
     <use xlink:href="#DejaVuSerif-Bold-75" transform="translate(184.277344 0)"/>
     <use xlink:href="#DejaVuSerif-Bold-64" transform="translate(256.982422 0)"/>
     <use xlink:href="#DejaVuSerif-Bold-20" transform="translate(326.904297 0)"/>
     <use xlink:href="#DejaVuSerif-Bold-20" transform="translate(361.71875 0)"/>
     <use xlink:href="#DejaVuSerif-Bold-20" transform="translate(396.533203 0)"/>
     <use xlink:href="#DejaVuSerif-Bold-20" transform="translate(431.347656 0)"/>
     <use xlink:href="#DejaVuSerif-Bold-20" transform="translate(466.162109 0)"/>
     <use xlink:href="#DejaVuSerif-Bold-20" transform="translate(500.976562 0)"/>
     <use xlink:href="#DejaVuSerif-Bold-2192" transform="translate(535.791016 0)"/>
     <use xlink:href="#DejaVuSerif-Bold-20" transform="translate(619.580078 0)"/>
     <use xlink:href="#DejaVuSerif-Bold-4d" transform="translate(654.394531 0)"/>
     <use xlink:href="#DejaVuSerif-Bold-4c" transform="translate(765.087891 0)"/>
     <use xlink:href="#DejaVuSerif-Bold-2d" transform="translate(835.400391 0)"/>
     <use xlink:href="#DejaVuSerif-Bold-4b" transform="translate(876.904297 0)"/>
     <use xlink:href="#DejaVuSerif-Bold-45" transform="translate(963.818359 0)"/>
     <use xlink:href="#DejaVuSerif-Bold-4d" transform="translate(1040.039062 0)"/>
     <use xlink:href="#DejaVuSerif-Bold-2b" transform="translate(1150.732422 0)"/>
    </g>
    <!-- Falcon -->
    <g style="fill: #ffffff" transform="translate(526.842556 80.47099) scale(0.09 -0.09)">
     <use xlink:href="#DejaVuSerif-Bold-46"/>
     <use xlink:href="#DejaVuSerif-Bold-61" transform="translate(65.496094 0)"/>
     <use xlink:href="#DejaVuSerif-Bold-6c" transform="translate(130.291016 0)"/>
     <use xlink:href="#DejaVuSerif-Bold-63" transform="translate(168.279297 0)"/>
     <use xlink:href="#DejaVuSerif-Bold-6f" transform="translate(229.167969 0)"/>
     <use xlink:href="#DejaVuSerif-Bold-6e" transform="translate(295.867188 0)"/>
    </g>
   </g>
   <g id="text_11">
    <!-- Gulf Infrastructure — Per-Sector PQC Recommendations -->
    <g transform="translate(331.094297 18.597656) scale(0.15 -0.15)">
     <defs>
      <path id="DejaVuSerif-Bold-66" d="M 3097 4031 
L 2747 4031 
Q 2722 4275 2605 4394 
Q 2488 4513 2272 4513 
Q 2022 4513 1909 4333 
Q 1797 4153 1797 3750 
L 1797 3322 
L 2631 3322 
L 2631 2944 
L 1797 2944 
L 1797 378 
L 2438 378 
L 2438 0 
L 219 0 
L 219 378 
L 691 378 
L 691 2944 
L 197 2944 
L 197 3322 
L 691 3322 
L 691 3738 
Q 691 4291 1044 4577 
Q 1397 4863 2081 4863 
Q 2347 4863 2600 4833 
Q 2853 4803 3097 4744 
L 3097 4031 
z
" transform="scale(0.015625)"/>
      <path id="DejaVuSerif-Bold-2014" d="M 344 2075 
L 6056 2075 
L 6056 1325 
L 344 1325 
L 344 2075 
z
" transform="scale(0.015625)"/>
      <path id="DejaVuSerif-Bold-51" d="M 2766 -91 
Q 1584 -72 926 565 
Q 269 1203 269 2328 
Q 269 3459 939 4104 
Q 1609 4750 2784 4750 
Q 3963 4750 4631 4106 
Q 5300 3463 5300 2328 
Q 5300 1334 4786 715 
Q 4272 97 3322 -50 
Q 3488 -228 3725 -306 
Q 3963 -384 4341 -384 
L 4500 -384 
L 4500 -1153 
L 4409 -1153 
Q 3816 -1153 3419 -897 
Q 3022 -641 2766 -91 
z
M 2784 288 
Q 3381 288 3672 791 
Q 3963 1294 3963 2328 
Q 3963 3366 3672 3869 
Q 3381 4372 2784 4372 
Q 2191 4372 1898 3864 
Q 1606 3356 1606 2328 
Q 1606 1303 1898 795 
Q 2191 288 2784 288 
z
" transform="scale(0.015625)"/>
     </defs>
     <use xlink:href="#DejaVuSerif-Bold-47"/>
     <use xlink:href="#DejaVuSerif-Bold-75" transform="translate(85.400391 0)"/>
     <use xlink:href="#DejaVuSerif-Bold-6c" transform="translate(158.105469 0)"/>
     <use xlink:href="#DejaVuSerif-Bold-66" transform="translate(196.09375 0)"/>
     <use xlink:href="#DejaVuSerif-Bold-20" transform="translate(239.111328 0)"/>
     <use xlink:href="#DejaVuSerif-Bold-49" transform="translate(273.925781 0)"/>
     <use xlink:href="#DejaVuSerif-Bold-6e" transform="translate(320.703125 0)"/>
     <use xlink:href="#DejaVuSerif-Bold-66" transform="translate(393.408203 0)"/>
     <use xlink:href="#DejaVuSerif-Bold-72" transform="translate(436.425781 0)"/>
     <use xlink:href="#DejaVuSerif-Bold-61" transform="translate(489.111328 0)"/>
     <use xlink:href="#DejaVuSerif-Bold-73" transform="translate(553.90625 0)"/>
     <use xlink:href="#DejaVuSerif-Bold-74" transform="translate(610.205078 0)"/>
     <use xlink:href="#DejaVuSerif-Bold-72" transform="translate(656.396484 0)"/>
     <use xlink:href="#DejaVuSerif-Bold-75" transform="translate(709.082031 0)"/>
     <use xlink:href="#DejaVuSerif-Bold-63" transform="translate(781.787109 0)"/>
     <use xlink:href="#DejaVuSerif-Bold-74" transform="translate(842.675781 0)"/>
     <use xlink:href="#DejaVuSerif-Bold-75" transform="translate(888.867188 0)"/>
     <use xlink:href="#DejaVuSerif-Bold-72" transform="translate(961.572266 0)"/>
     <use xlink:href="#DejaVuSerif-Bold-65" transform="translate(1014.257812 0)"/>
     <use xlink:href="#DejaVuSerif-Bold-20" transform="translate(1077.880859 0)"/>
     <use xlink:href="#DejaVuSerif-Bold-2014" transform="translate(1112.695312 0)"/>
     <use xlink:href="#DejaVuSerif-Bold-20" transform="translate(1212.695312 0)"/>
     <use xlink:href="#DejaVuSerif-Bold-50" transform="translate(1247.509766 0)"/>
     <use xlink:href="#DejaVuSerif-Bold-65" transform="translate(1320.080078 0)"/>
     <use xlink:href="#DejaVuSerif-Bold-72" transform="translate(1383.703125 0)"/>
     <use xlink:href="#DejaVuSerif-Bold-2d" transform="translate(1436.388672 0)"/>
     <use xlink:href="#DejaVuSerif-Bold-53" transform="translate(1477.892578 0)"/>
     <use xlink:href="#DejaVuSerif-Bold-65" transform="translate(1550.109375 0)"/>
     <use xlink:href="#DejaVuSerif-Bold-63" transform="translate(1613.732422 0)"/>
     <use xlink:href="#DejaVuSerif-Bold-74" transform="translate(1674.621094 0)"/>
     <use xlink:href="#DejaVuSerif-Bold-6f" transform="translate(1720.8125 0)"/>
     <use xlink:href="#DejaVuSerif-Bold-72" transform="translate(1787.511719 0)"/>
     <use xlink:href="#DejaVuSerif-Bold-20" transform="translate(1840.197266 0)"/>
     <use xlink:href="#DejaVuSerif-Bold-50" transform="translate(1875.011719 0)"/>
     <use xlink:href="#DejaVuSerif-Bold-51" transform="translate(1950.207031 0)"/>
     <use xlink:href="#DejaVuSerif-Bold-43" transform="translate(2037.316406 0)"/>
     <use xlink:href="#DejaVuSerif-Bold-20" transform="translate(2116.90625 0)"/>
     <use xlink:href="#DejaVuSerif-Bold-52" transform="translate(2151.720703 0)"/>
     <use xlink:href="#DejaVuSerif-Bold-65" transform="translate(2234.826172 0)"/>
     <use xlink:href="#DejaVuSerif-Bold-63" transform="translate(2298.449219 0)"/>
     <use xlink:href="#DejaVuSerif-Bold-6f" transform="translate(2359.337891 0)"/>
     <use xlink:href="#DejaVuSerif-Bold-6d" transform="translate(2426.037109 0)"/>
     <use xlink:href="#DejaVuSerif-Bold-6d" transform="translate(2531.847656 0)"/>
     <use xlink:href="#DejaVuSerif-Bold-65" transform="translate(2637.658203 0)"/>
     <use xlink:href="#DejaVuSerif-Bold-6e" transform="translate(2701.28125 0)"/>
     <use xlink:href="#DejaVuSerif-Bold-64" transform="translate(2773.986328 0)"/>
     <use xlink:href="#DejaVuSerif-Bold-61" transform="translate(2843.908203 0)"/>
     <use xlink:href="#DejaVuSerif-Bold-74" transform="translate(2908.703125 0)"/>
     <use xlink:href="#DejaVuSerif-Bold-69" transform="translate(2954.894531 0)"/>
     <use xlink:href="#DejaVuSerif-Bold-6f" transform="translate(2992.882812 0)"/>
     <use xlink:href="#DejaVuSerif-Bold-6e" transform="translate(3059.582031 0)"/>
     <use xlink:href="#DejaVuSerif-Bold-73" transform="translate(3132.287109 0)"/>
    </g>
   </g>
  </g>
 </g>
 <defs>
  <clipPath id="p95f8a8391d">
   <rect x="7.2" y="38.597656" width="1126.08" height="374.56"/>
  </clipPath>
 </defs>
</svg>
