<?xml version="1.0" encoding="utf-8" standalone="no"?>
<!DOCTYPE svg PUBLIC "-//W3C//DTD SVG 1.1//EN"
  "http://www.w3.org/Graphics/SVG/1.1/DTD/svg11.dtd">
<svg xmlns:xlink="http://www.w3.org/1999/xlink" width="563.801344pt" height="350.5pt" viewBox="0 0 563.801344 350.5" xmlns="http://www.w3.org/2000/svg" version="1.1">
 <metadata>
  <rdf:RDF xmlns:dc="http://purl.org/dc/elements/1.1/" xmlns:cc="http://creativecommons.org/ns#" xmlns:rdf="http://www.w3.org/1999/02/22-rdf-syntax-ns#">
   <cc:Work>
    <dc:type rdf:resource="http://purl.org/dc/dcmitype/StillImage"/>
    <dc:date>2026-07-03T10:28:30.912448</dc:date>
    <dc:format>image/svg+xml</dc:format>
    <dc:creator>
     <cc:Agent>
      <dc:title>Matplotlib v3.10.0, https://matplotlib.org/</dc:title>
     </cc:Agent>
    </dc:creator>
   </cc:Work>
  </rdf:RDF>
 </metadata>
 <defs>
  <style type="text/css">*{stroke-linejoin: round; stroke-linecap: butt}</style>
 </defs>
 <g id="figure_1">
  <g id="patch_1">
   <path d="M 0 350.5 
L 563.801344 350.5 
L 563.801344 0 
L 0 0 
z
" style="fill: #ffffff"/>
  </g>
  <g id="axes_1">
   <g id="patch_2">
    <path d="M 64.978125 325.654063 
L 545.737211 325.654063 
L 545.737211 23.837812 
L 64.978125 23.837812 
z
" style="fill: #ffffff"/>
   </g>
   <g id="patch_3">
    <path d="M 86.830811 325.654063 
L 101.12696 325.654063 
L 101.12696 325.431883 
L 86.830811 325.431883 
z
" clip-path="url(#p13dd82e396)" style="fill: #2196f3; stroke: #000000; stroke-width: 0.5; stroke-linejoin: miter"/>
   </g>
   <g id="patch_4">
    <path d="M 127.676952 325.654063 
L 141.973102 325.654063 
L 141.973102 325.301835 
L 127.676952 325.301835 
z
" clip-path="url(#p13dd82e396)" style="fill: #999999; stroke: #000000; stroke-width: 0.5; stroke-linejoin: miter"/>
   </g>
   <g id="patch_5">
    <path d="M 168.523094 325.654063 
L 182.819243 325.654063 
L 182.819243 325.285454 
L 168.523094 325.285454 
z
" clip-path="url(#p13dd82e396)" style="fill: #ff5722; stroke: #000000; stroke-width: 0.5; stroke-linejoin: miter"/>
   </g>
   <g id="patch_6">
    <path d="M 209.369235 325.654063 
L 223.665385 325.654063 
L 223.665385 325.314151 
L 209.369235 325.314151 
z
" clip-path="url(#p13dd82e396)" style="fill: #999999; stroke: #000000; stroke-width: 0.5; stroke-linejoin: miter"/>
   </g>
   <g id="patch_7">
    <path d="M 250.215377 325.654063 
L 264.511526 325.654063 
L 264.511526 325.142082 
L 250.215377 325.142082 
z
" clip-path="url(#p13dd82e396)" style="fill: #999999; stroke: #000000; stroke-width: 0.5; stroke-linejoin: miter"/>
   </g>
   <g id="patch_8">
    <path d="M 291.061518 325.654063 
L 305.357668 325.654063 
L 305.357668 274.372592 
L 291.061518 274.372592 
z
" clip-path="url(#p13dd82e396)" style="fill: #999999; stroke: #000000; stroke-width: 0.5; stroke-linejoin: miter"/>
   </g>
   <g id="patch_9">
    <path d="M 331.90766 325.654063 
L 346.203809 325.654063 
L 346.203809 171.359882 
L 331.90766 171.359882 
z
" clip-path="url(#p13dd82e396)" style="fill: #999999; stroke: #000000; stroke-width: 0.5; stroke-linejoin: miter"/>
   </g>
   <g id="patch_10">
    <path d="M 372.753801 325.654063 
L 387.049951 325.654063 
L 387.049951 179.355455 
L 372.753801 179.355455 
z
" clip-path="url(#p13dd82e396)" style="fill: #999999; stroke: #000000; stroke-width: 0.5; stroke-linejoin: miter"/>
   </g>
   <g id="patch_11">
    <path d="M 413.599943 325.654063 
L 427.896092 325.654063 
L 427.896092 323.090265 
L 413.599943 323.090265 
z
" clip-path="url(#p13dd82e396)" style="fill: #999999; stroke: #000000; stroke-width: 0.5; stroke-linejoin: miter"/>
   </g>
   <g id="patch_12">
    <path d="M 454.446084 325.654063 
L 468.742234 325.654063 
L 468.742234 107.099551 
L 454.446084 107.099551 
z
" clip-path="url(#p13dd82e396)" style="fill: #999999; stroke: #000000; stroke-width: 0.5; stroke-linejoin: miter"/>
   </g>
   <g id="patch_13">
    <path d="M 495.292226 325.654063 
L 509.588375 325.654063 
L 509.588375 114.07022 
L 495.292226 114.07022 
z
" clip-path="url(#p13dd82e396)" style="fill: #999999; stroke: #000000; stroke-width: 0.5; stroke-linejoin: miter"/>
   </g>
   <g id="patch_14">
    <path d="M 101.12696 325.654063 
L 115.42311 325.654063 
L 115.42311 325.229314 
L 101.12696 325.229314 
z
" clip-path="url(#p13dd82e396)" style="fill: #2196f3; opacity: 0.5; stroke: #000000; stroke-width: 0.5; stroke-linejoin: miter"/>
   </g>
   <g id="patch_15">
    <path d="M 141.973102 325.654063 
L 156.269251 325.654063 
L 156.269251 325.120427 
L 141.973102 325.120427 
z
" clip-path="url(#p13dd82e396)" style="fill: #999999; opacity: 0.5; stroke: #000000; stroke-width: 0.5; stroke-linejoin: miter"/>
   </g>
   <g id="patch_16">
    <path d="M 182.819243 325.654063 
L 197.115393 325.654063 
L 197.115393 321.9943 
L 182.819243 321.9943 
z
" clip-path="url(#p13dd82e396)" style="fill: #ff5722; opacity: 0.5; stroke: #000000; stroke-width: 0.5; stroke-linejoin: miter"/>
   </g>
   <g id="patch_17">
    <path d="M 223.665385 325.654063 
L 237.961534 325.654063 
L 237.961534 325.159233 
L 223.665385 325.159233 
z
" clip-path="url(#p13dd82e396)" style="fill: #999999; opacity: 0.5; stroke: #000000; stroke-width: 0.5; stroke-linejoin: miter"/>
   </g>
   <g id="patch_18">
    <path d="M 264.511526 325.654063 
L 278.807676 325.654063 
L 278.807676 325.042682 
L 264.511526 325.042682 
z
" clip-path="url(#p13dd82e396)" style="fill: #999999; opacity: 0.5; stroke: #000000; stroke-width: 0.5; stroke-linejoin: miter"/>
   </g>
   <g id="patch_19">
    <path d="M 305.357668 325.654063 
L 319.653817 325.654063 
L 319.653817 244.640689 
L 305.357668 244.640689 
z
" clip-path="url(#p13dd82e396)" style="fill: #999999; opacity: 0.5; stroke: #000000; stroke-width: 0.5; stroke-linejoin: miter"/>
   </g>
   <g id="patch_20">
    <path d="M 346.203809 325.654063 
L 360.499959 325.654063 
L 360.499959 53.687941 
L 346.203809 53.687941 
z
" clip-path="url(#p13dd82e396)" style="fill: #999999; opacity: 0.5; stroke: #000000; stroke-width: 0.5; stroke-linejoin: miter"/>
   </g>
   <g id="patch_21">
    <path d="M 387.049951 325.654063 
L 401.3461 325.654063 
L 401.3461 116.089836 
L 387.049951 116.089836 
z
" clip-path="url(#p13dd82e396)" style="fill: #999999; opacity: 0.5; stroke: #000000; stroke-width: 0.5; stroke-linejoin: miter"/>
   </g>
   <g id="patch_22">
    <path d="M 427.896092 325.654063 
L 442.192242 325.654063 
L 442.192242 321.833713 
L 427.896092 321.833713 
z
" clip-path="url(#p13dd82e396)" style="fill: #999999; opacity: 0.5; stroke: #000000; stroke-width: 0.5; stroke-linejoin: miter"/>
   </g>
   <g id="patch_23">
    <path d="M 468.742234 325.654063 
L 483.038383 325.654063 
L 483.038383 38.210015 
L 468.742234 38.210015 
z
" clip-path="url(#p13dd82e396)" style="fill: #999999; opacity: 0.5; stroke: #000000; stroke-width: 0.5; stroke-linejoin: miter"/>
   </g>
   <g id="patch_24">
    <path d="M 509.588375 325.654063 
L 523.884525 325.654063 
L 523.884525 58.100191 
L 509.588375 58.100191 
z
" clip-path="url(#p13dd82e396)" style="fill: #999999; opacity: 0.5; stroke: #000000; stroke-width: 0.5; stroke-linejoin: miter"/>
   </g>
   <g id="matplotlib.axis_1">
    <g id="xtick_1">
     <g id="line2d_1">
      <defs>
       <path id="m2d5a59eb25" d="M 0 0 
L 0 3.5 
" style="stroke: #000000; stroke-width: 0.8"/>
      </defs>
      <g>
       <use xlink:href="#m2d5a59eb25" x="101.12696" y="325.654063" style="stroke: #000000; stroke-width: 0.8"/>
      </g>
     </g>
     <g id="text_1">
      <!-- ECDSA-P256 -->
      <g transform="translate(64.697195 341.012344) scale(0.11 -0.11)">
       <defs>
        <path id="DejaVuSerif-45" d="M 353 0 
L 353 331 
L 947 331 
L 947 4331 
L 353 4331 
L 353 4666 
L 4109 4666 
L 4109 3628 
L 3725 3628 
L 3725 4281 
L 1581 4281 
L 1581 2719 
L 3109 2719 
L 3109 3303 
L 3494 3303 
L 3494 1753 
L 3109 1753 
L 3109 2338 
L 1581 2338 
L 1581 384 
L 3775 384 
L 3775 1038 
L 4159 1038 
L 4159 0 
L 353 0 
z
" transform="scale(0.015625)"/>
        <path id="DejaVuSerif-43" d="M 4513 1234 
Q 4306 581 3820 245 
Q 3334 -91 2591 -91 
Q 2134 -91 1743 65 
Q 1353 222 1050 525 
Q 700 875 529 1320 
Q 359 1766 359 2328 
Q 359 3416 987 4083 
Q 1616 4750 2644 4750 
Q 3025 4750 3456 4650 
Q 3888 4550 4384 4347 
L 4384 3272 
L 4031 3272 
Q 3916 3859 3567 4137 
Q 3219 4416 2591 4416 
Q 1844 4416 1459 3886 
Q 1075 3356 1075 2328 
Q 1075 1303 1459 773 
Q 1844 244 2591 244 
Q 3113 244 3450 492 
Q 3788 741 3938 1234 
L 4513 1234 
z
" transform="scale(0.015625)"/>
        <path id="DejaVuSerif-44" d="M 1581 331 
L 2163 331 
Q 3072 331 3558 850 
Q 4044 1369 4044 2338 
Q 4044 3306 3559 3818 
Q 3075 4331 2163 4331 
L 1581 4331 
L 1581 331 
z
M 353 0 
L 353 331 
L 947 331 
L 947 4331 
L 353 4331 
L 353 4666 
L 2209 4666 
Q 3416 4666 4089 4050 
Q 4763 3434 4763 2338 
Q 4763 1238 4088 619 
Q 3413 0 2209 0 
L 353 0 
z
" transform="scale(0.015625)"/>
        <path id="DejaVuSerif-53" d="M 594 225 
L 594 1288 
L 953 1284 
Q 969 753 1261 498 
Q 1553 244 2150 244 
Q 2706 244 2998 464 
Q 3291 684 3291 1106 
Q 3291 1444 3114 1625 
Q 2938 1806 2369 1978 
L 1753 2163 
Q 1084 2366 811 2669 
Q 538 2972 538 3500 
Q 538 4094 959 4422 
Q 1381 4750 2144 4750 
Q 2469 4750 2856 4679 
Q 3244 4609 3681 4475 
L 3681 3481 
L 3328 3481 
Q 3275 3975 2998 4195 
Q 2722 4416 2156 4416 
Q 1663 4416 1405 4214 
Q 1147 4013 1147 3628 
Q 1147 3294 1340 3103 
Q 1534 2913 2163 2725 
L 2741 2553 
Q 3375 2363 3645 2067 
Q 3916 1772 3916 1275 
Q 3916 597 3481 253 
Q 3047 -91 2188 -91 
Q 1803 -91 1404 -12 
Q 1006 66 594 225 
z
" transform="scale(0.015625)"/>
        <path id="DejaVuSerif-41" d="M 1281 1691 
L 2994 1691 
L 2138 3909 
L 1281 1691 
z
M -38 0 
L -38 331 
L 372 331 
L 2034 4666 
L 2559 4666 
L 4225 331 
L 4684 331 
L 4684 0 
L 2988 0 
L 2988 331 
L 3506 331 
L 3116 1356 
L 1153 1356 
L 763 331 
L 1275 331 
L 1275 0 
L -38 0 
z
" transform="scale(0.015625)"/>
        <path id="DejaVuSerif-2d" d="M 281 1959 
L 1881 1959 
L 1881 1472 
L 281 1472 
L 281 1959 
z
" transform="scale(0.015625)"/>
        <path id="DejaVuSerif-50" d="M 1581 2375 
L 2406 2375 
Q 2872 2375 3115 2626 
Q 3359 2878 3359 3353 
Q 3359 3831 3115 4081 
Q 2872 4331 2406 4331 
L 1581 4331 
L 1581 2375 
z
M 353 0 
L 353 331 
L 947 331 
L 947 4331 
L 353 4331 
L 353 4666 
L 2559 4666 
Q 3259 4666 3668 4311 
Q 4078 3956 4078 3353 
Q 4078 2753 3668 2397 
Q 3259 2041 2559 2041 
L 1581 2041 
L 1581 331 
L 2303 331 
L 2303 0 
L 353 0 
z
" transform="scale(0.015625)"/>
        <path id="DejaVuSerif-32" d="M 819 3553 
L 469 3553 
L 469 4384 
Q 803 4563 1142 4656 
Q 1481 4750 1806 4750 
Q 2534 4750 2956 4397 
Q 3378 4044 3378 3438 
Q 3378 2753 2422 1800 
Q 2347 1728 2309 1691 
L 1131 513 
L 3078 513 
L 3078 1088 
L 3444 1088 
L 3444 0 
L 434 0 
L 434 341 
L 1850 1753 
Q 2319 2222 2519 2614 
Q 2719 3006 2719 3438 
Q 2719 3909 2473 4175 
Q 2228 4441 1797 4441 
Q 1350 4441 1106 4219 
Q 863 3997 819 3553 
z
" transform="scale(0.015625)"/>
        <path id="DejaVuSerif-35" d="M 3219 4666 
L 3219 4153 
L 1081 4153 
L 1081 2816 
Q 1244 2928 1461 2984 
Q 1678 3041 1947 3041 
Q 2703 3041 3140 2622 
Q 3578 2203 3578 1478 
Q 3578 738 3136 323 
Q 2694 -91 1894 -91 
Q 1572 -91 1234 -12 
Q 897 66 544 225 
L 544 1131 
L 897 1131 
Q 925 688 1179 453 
Q 1434 219 1894 219 
Q 2388 219 2653 544 
Q 2919 869 2919 1478 
Q 2919 2084 2655 2407 
Q 2391 2731 1894 2731 
Q 1613 2731 1398 2631 
Q 1184 2531 1019 2322 
L 750 2322 
L 750 4666 
L 3219 4666 
z
" transform="scale(0.015625)"/>
        <path id="DejaVuSerif-36" d="M 2094 219 
Q 2534 219 2771 542 
Q 3009 866 3009 1472 
Q 3009 2078 2771 2401 
Q 2534 2725 2094 2725 
Q 1647 2725 1412 2412 
Q 1178 2100 1178 1509 
Q 1178 888 1415 553 
Q 1653 219 2094 219 
z
M 1075 2569 
Q 1288 2803 1556 2918 
Q 1825 3034 2163 3034 
Q 2859 3034 3264 2615 
Q 3669 2197 3669 1472 
Q 3669 763 3233 336 
Q 2797 -91 2069 -91 
Q 1278 -91 853 498 
Q 428 1088 428 2181 
Q 428 3406 931 4078 
Q 1434 4750 2350 4750 
Q 2597 4750 2869 4703 
Q 3141 4656 3425 4563 
L 3425 3794 
L 3072 3794 
Q 3034 4109 2831 4275 
Q 2628 4441 2284 4441 
Q 1678 4441 1381 3981 
Q 1084 3522 1075 2569 
z
" transform="scale(0.015625)"/>
       </defs>
       <use xlink:href="#DejaVuSerif-45"/>
       <use xlink:href="#DejaVuSerif-43" transform="translate(72.998047 0)"/>
       <use xlink:href="#DejaVuSerif-44" transform="translate(149.511719 0)"/>
       <use xlink:href="#DejaVuSerif-53" transform="translate(229.6875 0)"/>
       <use xlink:href="#DejaVuSerif-41" transform="translate(298.193359 0)"/>
       <use xlink:href="#DejaVuSerif-2d" transform="translate(370.410156 0)"/>
       <use xlink:href="#DejaVuSerif-50" transform="translate(404.199219 0)"/>
       <use xlink:href="#DejaVuSerif-32" transform="translate(471.484375 0)"/>
       <use xlink:href="#DejaVuSerif-35" transform="translate(535.107422 0)"/>
       <use xlink:href="#DejaVuSerif-36" transform="translate(598.730469 0)"/>
      </g>
     </g>
    </g>
    <g id="xtick_2">
     <g id="line2d_2">
      <g>
       <use xlink:href="#m2d5a59eb25" x="141.973102" y="325.654063" style="stroke: #000000; stroke-width: 0.8"/>
      </g>
     </g>
     <g id="text_2">
      <!-- Ed25519 -->
      <g transform="translate(116.940367 341.012344) scale(0.11 -0.11)">
       <defs>
        <path id="DejaVuSerif-64" d="M 3359 331 
L 3909 331 
L 3909 0 
L 2784 0 
L 2784 519 
Q 2616 206 2355 57 
Q 2094 -91 1709 -91 
Q 1097 -91 708 395 
Q 319 881 319 1663 
Q 319 2444 706 2928 
Q 1094 3413 1709 3413 
Q 2094 3413 2355 3264 
Q 2616 3116 2784 2803 
L 2784 4531 
L 2241 4531 
L 2241 4863 
L 3359 4863 
L 3359 331 
z
M 2784 1497 
L 2784 1825 
Q 2784 2422 2554 2737 
Q 2325 3053 1888 3053 
Q 1444 3053 1217 2703 
Q 991 2353 991 1663 
Q 991 975 1217 622 
Q 1444 269 1888 269 
Q 2325 269 2554 583 
Q 2784 897 2784 1497 
z
" transform="scale(0.015625)"/>
        <path id="DejaVuSerif-31" d="M 909 0 
L 909 331 
L 1722 331 
L 1722 4213 
L 781 3603 
L 781 4013 
L 1919 4750 
L 2350 4750 
L 2350 331 
L 3163 331 
L 3163 0 
L 909 0 
z
" transform="scale(0.015625)"/>
        <path id="DejaVuSerif-39" d="M 2994 2091 
Q 2784 1856 2512 1740 
Q 2241 1625 1900 1625 
Q 1206 1625 804 2044 
Q 403 2463 403 3188 
Q 403 3897 839 4323 
Q 1275 4750 2003 4750 
Q 2794 4750 3217 4161 
Q 3641 3572 3641 2478 
Q 3641 1253 3137 581 
Q 2634 -91 1722 -91 
Q 1475 -91 1203 -44 
Q 931 3 647 97 
L 647 872 
L 997 872 
Q 1038 556 1241 387 
Q 1444 219 1784 219 
Q 2391 219 2687 676 
Q 2984 1134 2994 2091 
z
M 1978 4441 
Q 1534 4441 1298 4117 
Q 1063 3794 1063 3188 
Q 1063 2581 1298 2256 
Q 1534 1931 1978 1931 
Q 2422 1931 2658 2245 
Q 2894 2559 2894 3150 
Q 2894 3772 2656 4106 
Q 2419 4441 1978 4441 
z
" transform="scale(0.015625)"/>
       </defs>
       <use xlink:href="#DejaVuSerif-45"/>
       <use xlink:href="#DejaVuSerif-64" transform="translate(72.998047 0)"/>
       <use xlink:href="#DejaVuSerif-32" transform="translate(137.011719 0)"/>
       <use xlink:href="#DejaVuSerif-35" transform="translate(200.634766 0)"/>
       <use xlink:href="#DejaVuSerif-35" transform="translate(264.257812 0)"/>
       <use xlink:href="#DejaVuSerif-31" transform="translate(327.880859 0)"/>
       <use xlink:href="#DejaVuSerif-39" transform="translate(391.503906 0)"/>
      </g>
     </g>
    </g>
    <g id="xtick_3">
     <g id="line2d_3">
      <g>
       <use xlink:href="#m2d5a59eb25" x="182.819243" y="325.654063" style="stroke: #000000; stroke-width: 0.8"/>
      </g>
     </g>
     <g id="text_3">
      <!-- ML-DSA-44 -->
      <g transform="translate(150.670025 341.012344) scale(0.11 -0.11)">
       <defs>
        <path id="DejaVuSerif-4d" d="M 353 0 
L 353 331 
L 947 331 
L 947 4331 
L 319 4331 
L 319 4666 
L 1678 4666 
L 3316 1344 
L 4953 4666 
L 6228 4666 
L 6228 4331 
L 5606 4331 
L 5606 331 
L 6203 331 
L 6203 0 
L 4378 0 
L 4378 331 
L 4972 331 
L 4972 3938 
L 3372 684 
L 2931 684 
L 1331 3938 
L 1331 331 
L 1925 331 
L 1925 0 
L 353 0 
z
" transform="scale(0.015625)"/>
        <path id="DejaVuSerif-4c" d="M 353 0 
L 353 331 
L 947 331 
L 947 4331 
L 353 4331 
L 353 4666 
L 2175 4666 
L 2175 4331 
L 1581 4331 
L 1581 384 
L 3713 384 
L 3713 1166 
L 4097 1166 
L 4097 0 
L 353 0 
z
" transform="scale(0.015625)"/>
        <path id="DejaVuSerif-34" d="M 2234 1581 
L 2234 4063 
L 641 1581 
L 2234 1581 
z
M 3609 0 
L 1484 0 
L 1484 331 
L 2234 331 
L 2234 1247 
L 197 1247 
L 197 1588 
L 2241 4750 
L 2859 4750 
L 2859 1581 
L 3750 1581 
L 3750 1247 
L 2859 1247 
L 2859 331 
L 3609 331 
L 3609 0 
z
" transform="scale(0.015625)"/>
       </defs>
       <use xlink:href="#DejaVuSerif-4d"/>
       <use xlink:href="#DejaVuSerif-4c" transform="translate(102.392578 0)"/>
       <use xlink:href="#DejaVuSerif-2d" transform="translate(168.798828 0)"/>
       <use xlink:href="#DejaVuSerif-44" transform="translate(202.587891 0)"/>
       <use xlink:href="#DejaVuSerif-53" transform="translate(282.763672 0)"/>
       <use xlink:href="#DejaVuSerif-41" transform="translate(351.269531 0)"/>
       <use xlink:href="#DejaVuSerif-2d" transform="translate(423.486328 0)"/>
       <use xlink:href="#DejaVuSerif-34" transform="translate(457.275391 0)"/>
       <use xlink:href="#DejaVuSerif-34" transform="translate(520.898438 0)"/>
      </g>
     </g>
    </g>
    <g id="xtick_4">
     <g id="line2d_4">
      <g>
       <use xlink:href="#m2d5a59eb25" x="223.665385" y="325.654063" style="stroke: #000000; stroke-width: 0.8"/>
      </g>
     </g>
     <g id="text_4">
      <!-- ML-DSA-65 -->
      <g transform="translate(191.516166 341.012344) scale(0.11 -0.11)">
       <use xlink:href="#DejaVuSerif-4d"/>
       <use xlink:href="#DejaVuSerif-4c" transform="translate(102.392578 0)"/>
       <use xlink:href="#DejaVuSerif-2d" transform="translate(168.798828 0)"/>
       <use xlink:href="#DejaVuSerif-44" transform="translate(202.587891 0)"/>
       <use xlink:href="#DejaVuSerif-53" transform="translate(282.763672 0)"/>
       <use xlink:href="#DejaVuSerif-41" transform="translate(351.269531 0)"/>
       <use xlink:href="#DejaVuSerif-2d" transform="translate(423.486328 0)"/>
       <use xlink:href="#DejaVuSerif-36" transform="translate(457.275391 0)"/>
       <use xlink:href="#DejaVuSerif-35" transform="translate(520.898438 0)"/>
      </g>
     </g>
    </g>
    <g id="xtick_5">
     <g id="line2d_5">
      <g>
       <use xlink:href="#m2d5a59eb25" x="264.511526" y="325.654063" style="stroke: #000000; stroke-width: 0.8"/>
      </g>
     </g>
     <g id="text_5">
      <!-- ML-DSA-87 -->
      <g transform="translate(232.362308 341.012344) scale(0.11 -0.11)">
       <defs>
        <path id="DejaVuSerif-38" d="M 2981 1275 
Q 2981 1775 2732 2051 
Q 2484 2328 2034 2328 
Q 1584 2328 1336 2051 
Q 1088 1775 1088 1275 
Q 1088 772 1336 495 
Q 1584 219 2034 219 
Q 2484 219 2732 495 
Q 2981 772 2981 1275 
z
M 2853 3541 
Q 2853 3966 2637 4203 
Q 2422 4441 2034 4441 
Q 1650 4441 1433 4203 
Q 1216 3966 1216 3541 
Q 1216 3113 1433 2875 
Q 1650 2638 2034 2638 
Q 2422 2638 2637 2875 
Q 2853 3113 2853 3541 
z
M 2516 2484 
Q 3047 2413 3344 2092 
Q 3641 1772 3641 1275 
Q 3641 619 3225 264 
Q 2809 -91 2034 -91 
Q 1263 -91 845 264 
Q 428 619 428 1275 
Q 428 1772 725 2092 
Q 1022 2413 1556 2484 
Q 1084 2569 832 2842 
Q 581 3116 581 3541 
Q 581 4103 968 4426 
Q 1356 4750 2034 4750 
Q 2713 4750 3100 4426 
Q 3488 4103 3488 3541 
Q 3488 3116 3236 2842 
Q 2984 2569 2516 2484 
z
" transform="scale(0.015625)"/>
        <path id="DejaVuSerif-37" d="M 3609 4347 
L 1784 0 
L 1319 0 
L 3059 4153 
L 903 4153 
L 903 3578 
L 538 3578 
L 538 4666 
L 3609 4666 
L 3609 4347 
z
" transform="scale(0.015625)"/>
       </defs>
       <use xlink:href="#DejaVuSerif-4d"/>
       <use xlink:href="#DejaVuSerif-4c" transform="translate(102.392578 0)"/>
       <use xlink:href="#DejaVuSerif-2d" transform="translate(168.798828 0)"/>
       <use xlink:href="#DejaVuSerif-44" transform="translate(202.587891 0)"/>
       <use xlink:href="#DejaVuSerif-53" transform="translate(282.763672 0)"/>
       <use xlink:href="#DejaVuSerif-41" transform="translate(351.269531 0)"/>
       <use xlink:href="#DejaVuSerif-2d" transform="translate(423.486328 0)"/>
       <use xlink:href="#DejaVuSerif-38" transform="translate(457.275391 0)"/>
       <use xlink:href="#DejaVuSerif-37" transform="translate(520.898438 0)"/>
      </g>
     </g>
    </g>
    <g id="xtick_6">
     <g id="line2d_6">
      <g>
       <use xlink:href="#m2d5a59eb25" x="305.357668" y="325.654063" style="stroke: #000000; stroke-width: 0.8"/>
      </g>
     </g>
     <g id="text_6">
      <!-- Falcon-512 -->
      <g transform="translate(274.583449 341.012344) scale(0.11 -0.11)">
       <defs>
        <path id="DejaVuSerif-46" d="M 353 0 
L 353 331 
L 947 331 
L 947 4331 
L 353 4331 
L 353 4666 
L 4172 4666 
L 4172 3628 
L 3788 3628 
L 3788 4281 
L 1581 4281 
L 1581 2719 
L 3175 2719 
L 3175 3303 
L 3559 3303 
L 3559 1753 
L 3175 1753 
L 3175 2338 
L 1581 2338 
L 1581 331 
L 2328 331 
L 2328 0 
L 353 0 
z
" transform="scale(0.015625)"/>
        <path id="DejaVuSerif-61" d="M 2547 1044 
L 2547 1747 
L 1806 1747 
Q 1378 1747 1168 1562 
Q 959 1378 959 997 
Q 959 650 1171 447 
Q 1384 244 1747 244 
Q 2106 244 2326 466 
Q 2547 688 2547 1044 
z
M 3122 2075 
L 3122 331 
L 3634 331 
L 3634 0 
L 2547 0 
L 2547 359 
Q 2356 128 2106 18 
Q 1856 -91 1522 -91 
Q 969 -91 644 203 
Q 319 497 319 997 
Q 319 1513 691 1797 
Q 1063 2081 1741 2081 
L 2547 2081 
L 2547 2309 
Q 2547 2688 2317 2895 
Q 2088 3103 1672 3103 
Q 1328 3103 1125 2947 
Q 922 2791 872 2484 
L 575 2484 
L 575 3156 
Q 875 3284 1158 3348 
Q 1441 3413 1709 3413 
Q 2400 3413 2761 3070 
Q 3122 2728 3122 2075 
z
" transform="scale(0.015625)"/>
        <path id="DejaVuSerif-6c" d="M 1313 331 
L 1856 331 
L 1856 0 
L 184 0 
L 184 331 
L 738 331 
L 738 4531 
L 184 4531 
L 184 4863 
L 1313 4863 
L 1313 331 
z
" transform="scale(0.015625)"/>
        <path id="DejaVuSerif-63" d="M 3291 997 
Q 3169 466 2822 187 
Q 2475 -91 1925 -91 
Q 1200 -91 759 389 
Q 319 869 319 1663 
Q 319 2459 759 2936 
Q 1200 3413 1925 3413 
Q 2241 3413 2553 3339 
Q 2866 3266 3181 3116 
L 3181 2266 
L 2847 2266 
Q 2781 2703 2561 2903 
Q 2341 3103 1931 3103 
Q 1466 3103 1228 2742 
Q 991 2381 991 1663 
Q 991 944 1227 581 
Q 1463 219 1931 219 
Q 2303 219 2525 412 
Q 2747 606 2828 997 
L 3291 997 
z
" transform="scale(0.015625)"/>
        <path id="DejaVuSerif-6f" d="M 1925 219 
Q 2388 219 2623 584 
Q 2859 950 2859 1663 
Q 2859 2375 2623 2739 
Q 2388 3103 1925 3103 
Q 1463 3103 1227 2739 
Q 991 2375 991 1663 
Q 991 950 1228 584 
Q 1466 219 1925 219 
z
M 1925 -91 
Q 1200 -91 759 389 
Q 319 869 319 1663 
Q 319 2456 758 2934 
Q 1197 3413 1925 3413 
Q 2653 3413 3092 2934 
Q 3531 2456 3531 1663 
Q 3531 869 3092 389 
Q 2653 -91 1925 -91 
z
" transform="scale(0.015625)"/>
        <path id="DejaVuSerif-6e" d="M 263 0 
L 263 331 
L 781 331 
L 781 2988 
L 231 2988 
L 231 3322 
L 1356 3322 
L 1356 2731 
Q 1516 3069 1770 3241 
Q 2025 3413 2363 3413 
Q 2913 3413 3172 3097 
Q 3431 2781 3431 2113 
L 3431 331 
L 3944 331 
L 3944 0 
L 2356 0 
L 2356 331 
L 2853 331 
L 2853 1931 
Q 2853 2541 2703 2767 
Q 2553 2994 2175 2994 
Q 1775 2994 1565 2701 
Q 1356 2409 1356 1850 
L 1356 331 
L 1856 331 
L 1856 0 
L 263 0 
z
" transform="scale(0.015625)"/>
       </defs>
       <use xlink:href="#DejaVuSerif-46"/>
       <use xlink:href="#DejaVuSerif-61" transform="translate(62.634766 0)"/>
       <use xlink:href="#DejaVuSerif-6c" transform="translate(122.253906 0)"/>
       <use xlink:href="#DejaVuSerif-63" transform="translate(154.236328 0)"/>
       <use xlink:href="#DejaVuSerif-6f" transform="translate(210.242188 0)"/>
       <use xlink:href="#DejaVuSerif-6e" transform="translate(270.447266 0)"/>
       <use xlink:href="#DejaVuSerif-2d" transform="translate(334.851562 0)"/>
       <use xlink:href="#DejaVuSerif-35" transform="translate(368.640625 0)"/>
       <use xlink:href="#DejaVuSerif-31" transform="translate(432.263672 0)"/>
       <use xlink:href="#DejaVuSerif-32" transform="translate(495.886719 0)"/>
      </g>
     </g>
    </g>
    <g id="xtick_7">
     <g id="line2d_7">
      <g>
       <use xlink:href="#m2d5a59eb25" x="346.203809" y="325.654063" style="stroke: #000000; stroke-width: 0.8"/>
      </g>
     </g>
     <g id="text_7">
      <!-- Falcon-1024 -->
      <g transform="translate(311.930216 341.012344) scale(0.11 -0.11)">
       <defs>
        <path id="DejaVuSerif-30" d="M 2034 219 
Q 2513 219 2750 744 
Q 2988 1269 2988 2328 
Q 2988 3391 2750 3916 
Q 2513 4441 2034 4441 
Q 1556 4441 1318 3916 
Q 1081 3391 1081 2328 
Q 1081 1269 1318 744 
Q 1556 219 2034 219 
z
M 2034 -91 
Q 1275 -91 848 546 
Q 422 1184 422 2328 
Q 422 3475 848 4112 
Q 1275 4750 2034 4750 
Q 2797 4750 3222 4112 
Q 3647 3475 3647 2328 
Q 3647 1184 3222 546 
Q 2797 -91 2034 -91 
z
" transform="scale(0.015625)"/>
       </defs>
       <use xlink:href="#DejaVuSerif-46"/>
       <use xlink:href="#DejaVuSerif-61" transform="translate(62.634766 0)"/>
       <use xlink:href="#DejaVuSerif-6c" transform="translate(122.253906 0)"/>
       <use xlink:href="#DejaVuSerif-63" transform="translate(154.236328 0)"/>
       <use xlink:href="#DejaVuSerif-6f" transform="translate(210.242188 0)"/>
       <use xlink:href="#DejaVuSerif-6e" transform="translate(270.447266 0)"/>
       <use xlink:href="#DejaVuSerif-2d" transform="translate(334.851562 0)"/>
       <use xlink:href="#DejaVuSerif-31" transform="translate(368.640625 0)"/>
       <use xlink:href="#DejaVuSerif-30" transform="translate(432.263672 0)"/>
       <use xlink:href="#DejaVuSerif-32" transform="translate(495.886719 0)"/>
       <use xlink:href="#DejaVuSerif-34" transform="translate(559.509766 0)"/>
      </g>
     </g>
    </g>
    <g id="xtick_8">
     <g id="line2d_8">
      <g>
       <use xlink:href="#m2d5a59eb25" x="387.049951" y="325.654063" style="stroke: #000000; stroke-width: 0.8"/>
      </g>
     </g>
     <g id="text_8">
      <!-- SPHINCS+-128s -->
      <g transform="translate(340.036982 341.012344) scale(0.11 -0.11)">
       <defs>
        <path id="DejaVuSerif-48" d="M 353 0 
L 353 331 
L 947 331 
L 947 4331 
L 353 4331 
L 353 4666 
L 2175 4666 
L 2175 4331 
L 1581 4331 
L 1581 2719 
L 4000 2719 
L 4000 4331 
L 3406 4331 
L 3406 4666 
L 5228 4666 
L 5228 4331 
L 4634 4331 
L 4634 331 
L 5228 331 
L 5228 0 
L 3406 0 
L 3406 331 
L 4000 331 
L 4000 2338 
L 1581 2338 
L 1581 331 
L 2175 331 
L 2175 0 
L 353 0 
z
" transform="scale(0.015625)"/>
        <path id="DejaVuSerif-49" d="M 1581 331 
L 2175 331 
L 2175 0 
L 353 0 
L 353 331 
L 947 331 
L 947 4331 
L 353 4331 
L 353 4666 
L 2175 4666 
L 2175 4331 
L 1581 4331 
L 1581 331 
z
" transform="scale(0.015625)"/>
        <path id="DejaVuSerif-4e" d="M 313 0 
L 313 331 
L 941 331 
L 941 4331 
L 313 4331 
L 313 4666 
L 1509 4666 
L 4306 984 
L 4306 4331 
L 3681 4331 
L 3681 4666 
L 5319 4666 
L 5319 4331 
L 4691 4331 
L 4691 -91 
L 4313 -91 
L 1325 3841 
L 1325 331 
L 1953 331 
L 1953 0 
L 313 0 
z
" transform="scale(0.015625)"/>
        <path id="DejaVuSerif-2b" d="M 2931 4013 
L 2931 2259 
L 4684 2259 
L 4684 1753 
L 2931 1753 
L 2931 0 
L 2431 0 
L 2431 1753 
L 678 1753 
L 678 2259 
L 2431 2259 
L 2431 4013 
L 2931 4013 
z
" transform="scale(0.015625)"/>
        <path id="DejaVuSerif-73" d="M 359 184 
L 359 959 
L 691 959 
Q 703 588 923 403 
Q 1144 219 1575 219 
Q 1963 219 2166 364 
Q 2369 509 2369 788 
Q 2369 1006 2220 1140 
Q 2072 1275 1594 1428 
L 1178 1569 
Q 750 1706 558 1912 
Q 366 2119 366 2438 
Q 366 2894 700 3153 
Q 1034 3413 1625 3413 
Q 1888 3413 2178 3344 
Q 2469 3275 2778 3144 
L 2778 2419 
L 2447 2419 
Q 2434 2741 2221 2922 
Q 2009 3103 1644 3103 
Q 1281 3103 1095 2975 
Q 909 2847 909 2591 
Q 909 2381 1050 2254 
Q 1191 2128 1613 1997 
L 2069 1856 
Q 2541 1709 2748 1489 
Q 2956 1269 2956 922 
Q 2956 450 2595 179 
Q 2234 -91 1600 -91 
Q 1278 -91 972 -22 
Q 666 47 359 184 
z
" transform="scale(0.015625)"/>
       </defs>
       <use xlink:href="#DejaVuSerif-53"/>
       <use xlink:href="#DejaVuSerif-50" transform="translate(68.505859 0)"/>
       <use xlink:href="#DejaVuSerif-48" transform="translate(135.791016 0)"/>
       <use xlink:href="#DejaVuSerif-49" transform="translate(222.998047 0)"/>
       <use xlink:href="#DejaVuSerif-4e" transform="translate(262.5 0)"/>
       <use xlink:href="#DejaVuSerif-43" transform="translate(350 0)"/>
       <use xlink:href="#DejaVuSerif-53" transform="translate(426.513672 0)"/>
       <use xlink:href="#DejaVuSerif-2b" transform="translate(495.019531 0)"/>
       <use xlink:href="#DejaVuSerif-2d" transform="translate(578.808594 0)"/>
       <use xlink:href="#DejaVuSerif-31" transform="translate(612.597656 0)"/>
       <use xlink:href="#DejaVuSerif-32" transform="translate(676.220703 0)"/>
       <use xlink:href="#DejaVuSerif-38" transform="translate(739.84375 0)"/>
       <use xlink:href="#DejaVuSerif-73" transform="translate(803.466797 0)"/>
      </g>
     </g>
    </g>
    <g id="xtick_9">
     <g id="line2d_9">
      <g>
       <use xlink:href="#m2d5a59eb25" x="427.896092" y="325.654063" style="stroke: #000000; stroke-width: 0.8"/>
      </g>
     </g>
     <g id="text_9">
      <!-- SPHINCS+-128f -->
      <g transform="translate(381.669452 341.012344) scale(0.11 -0.11)">
       <defs>
        <path id="DejaVuSerif-66" d="M 2753 4078 
L 2450 4078 
Q 2447 4313 2317 4434 
Q 2188 4556 1941 4556 
Q 1619 4556 1487 4379 
Q 1356 4203 1356 3750 
L 1356 3322 
L 2284 3322 
L 2284 2988 
L 1356 2988 
L 1356 331 
L 2094 331 
L 2094 0 
L 231 0 
L 231 331 
L 781 331 
L 781 2988 
L 231 2988 
L 231 3322 
L 781 3322 
L 781 3738 
Q 781 4294 1070 4578 
Q 1359 4863 1919 4863 
Q 2128 4863 2337 4825 
Q 2547 4788 2753 4709 
L 2753 4078 
z
" transform="scale(0.015625)"/>
       </defs>
       <use xlink:href="#DejaVuSerif-53"/>
       <use xlink:href="#DejaVuSerif-50" transform="translate(68.505859 0)"/>
       <use xlink:href="#DejaVuSerif-48" transform="translate(135.791016 0)"/>
       <use xlink:href="#DejaVuSerif-49" transform="translate(222.998047 0)"/>
       <use xlink:href="#DejaVuSerif-4e" transform="translate(262.5 0)"/>
       <use xlink:href="#DejaVuSerif-43" transform="translate(350 0)"/>
       <use xlink:href="#DejaVuSerif-53" transform="translate(426.513672 0)"/>
       <use xlink:href="#DejaVuSerif-2b" transform="translate(495.019531 0)"/>
       <use xlink:href="#DejaVuSerif-2d" transform="translate(578.808594 0)"/>
       <use xlink:href="#DejaVuSerif-31" transform="translate(612.597656 0)"/>
       <use xlink:href="#DejaVuSerif-32" transform="translate(676.220703 0)"/>
       <use xlink:href="#DejaVuSerif-38" transform="translate(739.84375 0)"/>
       <use xlink:href="#DejaVuSerif-66" transform="translate(803.466797 0)"/>
      </g>
     </g>
    </g>
    <g id="xtick_10">
     <g id="line2d_10">
      <g>
       <use xlink:href="#m2d5a59eb25" x="468.742234" y="325.654063" style="stroke: #000000; stroke-width: 0.8"/>
      </g>
     </g>
     <g id="text_10">
      <!-- SPHINCS+-192s -->
      <g transform="translate(421.729265 341.012344) scale(0.11 -0.11)">
       <use xlink:href="#DejaVuSerif-53"/>
       <use xlink:href="#DejaVuSerif-50" transform="translate(68.505859 0)"/>
       <use xlink:href="#DejaVuSerif-48" transform="translate(135.791016 0)"/>
       <use xlink:href="#DejaVuSerif-49" transform="translate(222.998047 0)"/>
       <use xlink:href="#DejaVuSerif-4e" transform="translate(262.5 0)"/>
       <use xlink:href="#DejaVuSerif-43" transform="translate(350 0)"/>
       <use xlink:href="#DejaVuSerif-53" transform="translate(426.513672 0)"/>
       <use xlink:href="#DejaVuSerif-2b" transform="translate(495.019531 0)"/>
       <use xlink:href="#DejaVuSerif-2d" transform="translate(578.808594 0)"/>
       <use xlink:href="#DejaVuSerif-31" transform="translate(612.597656 0)"/>
       <use xlink:href="#DejaVuSerif-39" transform="translate(676.220703 0)"/>
       <use xlink:href="#DejaVuSerif-32" transform="translate(739.84375 0)"/>
       <use xlink:href="#DejaVuSerif-73" transform="translate(803.466797 0)"/>
      </g>
     </g>
    </g>
    <g id="xtick_11">
     <g id="line2d_11">
      <g>
       <use xlink:href="#m2d5a59eb25" x="509.588375" y="325.654063" style="stroke: #000000; stroke-width: 0.8"/>
      </g>
     </g>
     <g id="text_11">
      <!-- SPHINCS+-256s -->
      <g transform="translate(462.575407 341.012344) scale(0.11 -0.11)">
       <use xlink:href="#DejaVuSerif-53"/>
       <use xlink:href="#DejaVuSerif-50" transform="translate(68.505859 0)"/>
       <use xlink:href="#DejaVuSerif-48" transform="translate(135.791016 0)"/>
       <use xlink:href="#DejaVuSerif-49" transform="translate(222.998047 0)"/>
       <use xlink:href="#DejaVuSerif-4e" transform="translate(262.5 0)"/>
       <use xlink:href="#DejaVuSerif-43" transform="translate(350 0)"/>
       <use xlink:href="#DejaVuSerif-53" transform="translate(426.513672 0)"/>
       <use xlink:href="#DejaVuSerif-2b" transform="translate(495.019531 0)"/>
       <use xlink:href="#DejaVuSerif-2d" transform="translate(578.808594 0)"/>
       <use xlink:href="#DejaVuSerif-32" transform="translate(612.597656 0)"/>
       <use xlink:href="#DejaVuSerif-35" transform="translate(676.220703 0)"/>
       <use xlink:href="#DejaVuSerif-36" transform="translate(739.84375 0)"/>
       <use xlink:href="#DejaVuSerif-73" transform="translate(803.466797 0)"/>
      </g>
     </g>
    </g>
   </g>
   <g id="matplotlib.axis_2">
    <g id="ytick_1">
     <g id="line2d_12">
      <path d="M 64.978125 325.654063 
L 545.737211 325.654063 
" clip-path="url(#p13dd82e396)" style="fill: none; stroke: #b0b0b0; stroke-opacity: 0.3; stroke-width: 0.8; stroke-linecap: square"/>
     </g>
     <g id="line2d_13">
      <defs>
       <path id="m3cb7629bb3" d="M 0 0 
L -3.5 0 
" style="stroke: #000000; stroke-width: 0.8"/>
      </defs>
      <g>
       <use xlink:href="#m3cb7629bb3" x="64.978125" y="325.654063" style="stroke: #000000; stroke-width: 0.8"/>
      </g>
     </g>
     <g id="text_12">
      <!-- 0 -->
      <g transform="translate(50.979375 329.833203) scale(0.11 -0.11)">
       <use xlink:href="#DejaVuSerif-30"/>
      </g>
     </g>
    </g>
    <g id="ytick_2">
     <g id="line2d_14">
      <path d="M 64.978125 274.485675 
L 545.737211 274.485675 
" clip-path="url(#p13dd82e396)" style="fill: none; stroke: #b0b0b0; stroke-opacity: 0.3; stroke-width: 0.8; stroke-linecap: square"/>
     </g>
     <g id="line2d_15">
      <g>
       <use xlink:href="#m3cb7629bb3" x="64.978125" y="274.485675" style="stroke: #000000; stroke-width: 0.8"/>
      </g>
     </g>
     <g id="text_13">
      <!-- 10000 -->
      <g transform="translate(22.984375 278.664815) scale(0.11 -0.11)">
       <use xlink:href="#DejaVuSerif-31"/>
       <use xlink:href="#DejaVuSerif-30" transform="translate(63.623047 0)"/>
       <use xlink:href="#DejaVuSerif-30" transform="translate(127.246094 0)"/>
       <use xlink:href="#DejaVuSerif-30" transform="translate(190.869141 0)"/>
       <use xlink:href="#DejaVuSerif-30" transform="translate(254.492188 0)"/>
      </g>
     </g>
    </g>
    <g id="ytick_3">
     <g id="line2d_16">
      <path d="M 64.978125 223.317287 
L 545.737211 223.317287 
" clip-path="url(#p13dd82e396)" style="fill: none; stroke: #b0b0b0; stroke-opacity: 0.3; stroke-width: 0.8; stroke-linecap: square"/>
     </g>
     <g id="line2d_17">
      <g>
       <use xlink:href="#m3cb7629bb3" x="64.978125" y="223.317287" style="stroke: #000000; stroke-width: 0.8"/>
      </g>
     </g>
     <g id="text_14">
      <!-- 20000 -->
      <g transform="translate(22.984375 227.496427) scale(0.11 -0.11)">
       <use xlink:href="#DejaVuSerif-32"/>
       <use xlink:href="#DejaVuSerif-30" transform="translate(63.623047 0)"/>
       <use xlink:href="#DejaVuSerif-30" transform="translate(127.246094 0)"/>
       <use xlink:href="#DejaVuSerif-30" transform="translate(190.869141 0)"/>
       <use xlink:href="#DejaVuSerif-30" transform="translate(254.492188 0)"/>
      </g>
     </g>
    </g>
    <g id="ytick_4">
     <g id="line2d_18">
      <path d="M 64.978125 172.148899 
L 545.737211 172.148899 
" clip-path="url(#p13dd82e396)" style="fill: none; stroke: #b0b0b0; stroke-opacity: 0.3; stroke-width: 0.8; stroke-linecap: square"/>
     </g>
     <g id="line2d_19">
      <g>
       <use xlink:href="#m3cb7629bb3" x="64.978125" y="172.148899" style="stroke: #000000; stroke-width: 0.8"/>
      </g>
     </g>
     <g id="text_15">
      <!-- 30000 -->
      <g transform="translate(22.984375 176.328039) scale(0.11 -0.11)">
       <defs>
        <path id="DejaVuSerif-33" d="M 622 4469 
Q 988 4606 1323 4678 
Q 1659 4750 1953 4750 
Q 2638 4750 3022 4454 
Q 3406 4159 3406 3634 
Q 3406 3213 3140 2930 
Q 2875 2647 2388 2547 
Q 2963 2466 3280 2130 
Q 3597 1794 3597 1259 
Q 3597 606 3158 257 
Q 2719 -91 1894 -91 
Q 1528 -91 1179 -12 
Q 831 66 488 225 
L 488 1131 
L 838 1131 
Q 869 681 1141 450 
Q 1413 219 1906 219 
Q 2384 219 2661 495 
Q 2938 772 2938 1253 
Q 2938 1803 2653 2086 
Q 2369 2369 1819 2369 
L 1522 2369 
L 1522 2688 
L 1678 2688 
Q 2225 2688 2498 2914 
Q 2772 3141 2772 3597 
Q 2772 4006 2547 4223 
Q 2322 4441 1900 4441 
Q 1478 4441 1245 4241 
Q 1013 4041 972 3647 
L 622 3647 
L 622 4469 
z
" transform="scale(0.015625)"/>
       </defs>
       <use xlink:href="#DejaVuSerif-33"/>
       <use xlink:href="#DejaVuSerif-30" transform="translate(63.623047 0)"/>
       <use xlink:href="#DejaVuSerif-30" transform="translate(127.246094 0)"/>
       <use xlink:href="#DejaVuSerif-30" transform="translate(190.869141 0)"/>
       <use xlink:href="#DejaVuSerif-30" transform="translate(254.492188 0)"/>
      </g>
     </g>
    </g>
    <g id="ytick_5">
     <g id="line2d_20">
      <path d="M 64.978125 120.980511 
L 545.737211 120.980511 
" clip-path="url(#p13dd82e396)" style="fill: none; stroke: #b0b0b0; stroke-opacity: 0.3; stroke-width: 0.8; stroke-linecap: square"/>
     </g>
     <g id="line2d_21">
      <g>
       <use xlink:href="#m3cb7629bb3" x="64.978125" y="120.980511" style="stroke: #000000; stroke-width: 0.8"/>
      </g>
     </g>
     <g id="text_16">
      <!-- 40000 -->
      <g transform="translate(22.984375 125.159651) scale(0.11 -0.11)">
       <use xlink:href="#DejaVuSerif-34"/>
       <use xlink:href="#DejaVuSerif-30" transform="translate(63.623047 0)"/>
       <use xlink:href="#DejaVuSerif-30" transform="translate(127.246094 0)"/>
       <use xlink:href="#DejaVuSerif-30" transform="translate(190.869141 0)"/>
       <use xlink:href="#DejaVuSerif-30" transform="translate(254.492188 0)"/>
      </g>
     </g>
    </g>
    <g id="ytick_6">
     <g id="line2d_22">
      <path d="M 64.978125 69.812123 
L 545.737211 69.812123 
" clip-path="url(#p13dd82e396)" style="fill: none; stroke: #b0b0b0; stroke-opacity: 0.3; stroke-width: 0.8; stroke-linecap: square"/>
     </g>
     <g id="line2d_23">
      <g>
       <use xlink:href="#m3cb7629bb3" x="64.978125" y="69.812123" style="stroke: #000000; stroke-width: 0.8"/>
      </g>
     </g>
     <g id="text_17">
      <!-- 50000 -->
      <g transform="translate(22.984375 73.991264) scale(0.11 -0.11)">
       <use xlink:href="#DejaVuSerif-35"/>
       <use xlink:href="#DejaVuSerif-30" transform="translate(63.623047 0)"/>
       <use xlink:href="#DejaVuSerif-30" transform="translate(127.246094 0)"/>
       <use xlink:href="#DejaVuSerif-30" transform="translate(190.869141 0)"/>
       <use xlink:href="#DejaVuSerif-30" transform="translate(254.492188 0)"/>
      </g>
     </g>
    </g>
    <g id="text_18">
     <!-- Latency (microseconds) -->
     <g transform="translate(16.318125 247.308437) rotate(-90) scale(0.12 -0.12)">
      <defs>
       <path id="DejaVuSerif-74" d="M 691 2988 
L 184 2988 
L 184 3322 
L 691 3322 
L 691 4353 
L 1269 4353 
L 1269 3322 
L 2350 3322 
L 2350 2988 
L 1269 2988 
L 1269 878 
Q 1269 456 1350 337 
Q 1431 219 1650 219 
Q 1875 219 1978 351 
Q 2081 484 2088 781 
L 2522 781 
Q 2497 328 2275 118 
Q 2053 -91 1600 -91 
Q 1103 -91 897 129 
Q 691 350 691 878 
L 691 2988 
z
" transform="scale(0.015625)"/>
       <path id="DejaVuSerif-65" d="M 3469 1600 
L 991 1600 
L 991 1575 
Q 991 903 1244 561 
Q 1497 219 1991 219 
Q 2369 219 2611 417 
Q 2853 616 2950 1006 
L 3413 1006 
Q 3275 459 2904 184 
Q 2534 -91 1931 -91 
Q 1203 -91 761 389 
Q 319 869 319 1663 
Q 319 2450 753 2931 
Q 1188 3413 1894 3413 
Q 2647 3413 3050 2948 
Q 3453 2484 3469 1600 
z
M 2791 1931 
Q 2772 2513 2545 2808 
Q 2319 3103 1894 3103 
Q 1497 3103 1269 2806 
Q 1041 2509 991 1931 
L 2791 1931 
z
" transform="scale(0.015625)"/>
       <path id="DejaVuSerif-79" d="M 1381 -609 
L 1600 -56 
L 359 2988 
L -19 2988 
L -19 3322 
L 1509 3322 
L 1509 2988 
L 978 2988 
L 1913 703 
L 2847 2988 
L 2350 2988 
L 2350 3322 
L 3597 3322 
L 3597 2988 
L 3225 2988 
L 1703 -750 
Q 1547 -1138 1356 -1280 
Q 1166 -1422 819 -1422 
Q 672 -1422 517 -1397 
Q 363 -1372 206 -1325 
L 206 -691 
L 500 -691 
Q 519 -903 608 -995 
Q 697 -1088 884 -1088 
Q 1056 -1088 1161 -992 
Q 1266 -897 1381 -609 
z
" transform="scale(0.015625)"/>
       <path id="DejaVuSerif-20" transform="scale(0.015625)"/>
       <path id="DejaVuSerif-28" d="M 2041 -997 
Q 1281 -656 893 83 
Q 506 822 506 1931 
Q 506 3044 893 3783 
Q 1281 4522 2041 4863 
L 2041 4556 
Q 1559 4225 1350 3623 
Q 1141 3022 1141 1931 
Q 1141 844 1350 242 
Q 1559 -359 2041 -691 
L 2041 -997 
z
" transform="scale(0.015625)"/>
       <path id="DejaVuSerif-6d" d="M 3316 2675 
Q 3481 3041 3739 3227 
Q 3997 3413 4341 3413 
Q 4863 3413 5119 3089 
Q 5375 2766 5375 2113 
L 5375 331 
L 5894 331 
L 5894 0 
L 4300 0 
L 4300 331 
L 4800 331 
L 4800 2047 
Q 4800 2556 4650 2772 
Q 4500 2988 4153 2988 
Q 3769 2988 3567 2697 
Q 3366 2406 3366 1850 
L 3366 331 
L 3866 331 
L 3866 0 
L 2291 0 
L 2291 331 
L 2791 331 
L 2791 2069 
Q 2791 2566 2641 2777 
Q 2491 2988 2144 2988 
Q 1759 2988 1557 2697 
Q 1356 2406 1356 1850 
L 1356 331 
L 1856 331 
L 1856 0 
L 263 0 
L 263 331 
L 781 331 
L 781 2994 
L 231 2994 
L 231 3322 
L 1356 3322 
L 1356 2731 
Q 1516 3063 1762 3238 
Q 2009 3413 2322 3413 
Q 2709 3413 2968 3220 
Q 3228 3028 3316 2675 
z
" transform="scale(0.015625)"/>
       <path id="DejaVuSerif-69" d="M 622 4353 
Q 622 4497 726 4603 
Q 831 4709 978 4709 
Q 1122 4709 1226 4603 
Q 1331 4497 1331 4353 
Q 1331 4206 1228 4103 
Q 1125 4000 978 4000 
Q 831 4000 726 4103 
Q 622 4206 622 4353 
z
M 1356 331 
L 1900 331 
L 1900 0 
L 231 0 
L 231 331 
L 781 331 
L 781 2988 
L 231 2988 
L 231 3322 
L 1356 3322 
L 1356 331 
z
" transform="scale(0.015625)"/>
       <path id="DejaVuSerif-72" d="M 3059 3328 
L 3059 2497 
L 2728 2497 
Q 2713 2744 2591 2866 
Q 2469 2988 2234 2988 
Q 1809 2988 1582 2694 
Q 1356 2400 1356 1850 
L 1356 331 
L 2022 331 
L 2022 0 
L 263 0 
L 263 331 
L 781 331 
L 781 2994 
L 231 2994 
L 231 3322 
L 1356 3322 
L 1356 2731 
Q 1525 3078 1790 3245 
Q 2056 3413 2438 3413 
Q 2578 3413 2733 3391 
Q 2888 3369 3059 3328 
z
" transform="scale(0.015625)"/>
       <path id="DejaVuSerif-29" d="M 453 -997 
L 453 -691 
Q 934 -359 1145 242 
Q 1356 844 1356 1931 
Q 1356 3022 1145 3623 
Q 934 4225 453 4556 
L 453 4863 
Q 1216 4522 1603 3783 
Q 1991 3044 1991 1931 
Q 1991 822 1603 83 
Q 1216 -656 453 -997 
z
" transform="scale(0.015625)"/>
      </defs>
      <use xlink:href="#DejaVuSerif-4c"/>
      <use xlink:href="#DejaVuSerif-61" transform="translate(66.40625 0)"/>
      <use xlink:href="#DejaVuSerif-74" transform="translate(126.025391 0)"/>
      <use xlink:href="#DejaVuSerif-65" transform="translate(166.210938 0)"/>
      <use xlink:href="#DejaVuSerif-6e" transform="translate(225.390625 0)"/>
      <use xlink:href="#DejaVuSerif-63" transform="translate(289.794922 0)"/>
      <use xlink:href="#DejaVuSerif-79" transform="translate(345.800781 0)"/>
      <use xlink:href="#DejaVuSerif-20" transform="translate(402.294922 0)"/>
      <use xlink:href="#DejaVuSerif-28" transform="translate(434.082031 0)"/>
      <use xlink:href="#DejaVuSerif-6d" transform="translate(473.095703 0)"/>
      <use xlink:href="#DejaVuSerif-69" transform="translate(567.919922 0)"/>
      <use xlink:href="#DejaVuSerif-63" transform="translate(599.902344 0)"/>
      <use xlink:href="#DejaVuSerif-72" transform="translate(655.908203 0)"/>
      <use xlink:href="#DejaVuSerif-6f" transform="translate(703.710938 0)"/>
      <use xlink:href="#DejaVuSerif-73" transform="translate(763.916016 0)"/>
      <use xlink:href="#DejaVuSerif-65" transform="translate(815.234375 0)"/>
      <use xlink:href="#DejaVuSerif-63" transform="translate(874.414062 0)"/>
      <use xlink:href="#DejaVuSerif-6f" transform="translate(930.419922 0)"/>
      <use xlink:href="#DejaVuSerif-6e" transform="translate(990.625 0)"/>
      <use xlink:href="#DejaVuSerif-64" transform="translate(1055.029297 0)"/>
      <use xlink:href="#DejaVuSerif-73" transform="translate(1119.042969 0)"/>
      <use xlink:href="#DejaVuSerif-29" transform="translate(1170.361328 0)"/>
     </g>
    </g>
   </g>
   <g id="patch_25">
    <path d="M 64.978125 325.654063 
L 64.978125 23.837812 
" style="fill: none; stroke: #000000; stroke-width: 0.8; stroke-linejoin: miter; stroke-linecap: square"/>
   </g>
   <g id="patch_26">
    <path d="M 545.737211 325.654063 
L 545.737211 23.837812 
" style="fill: none; stroke: #000000; stroke-width: 0.8; stroke-linejoin: miter; stroke-linecap: square"/>
   </g>
   <g id="patch_27">
    <path d="M 64.978125 325.654063 
L 545.737211 325.654063 
" style="fill: none; stroke: #000000; stroke-width: 0.8; stroke-linejoin: miter; stroke-linecap: square"/>
   </g>
   <g id="patch_28">
    <path d="M 64.978125 23.837812 
L 545.737211 23.837812 
" style="fill: none; stroke: #000000; stroke-width: 0.8; stroke-linejoin: miter; stroke-linecap: square"/>
   </g>
   <g id="text_19">
    <!-- 43.4 -->
    <g transform="translate(85.072635 323.742549) scale(0.08 -0.08)">
     <defs>
      <path id="DejaVuSerif-2e" d="M 603 325 
Q 603 500 722 622 
Q 841 744 1019 744 
Q 1191 744 1312 622 
Q 1434 500 1434 325 
Q 1434 153 1312 31 
Q 1191 -91 1019 -91 
Q 841 -91 722 29 
Q 603 150 603 325 
z
" transform="scale(0.015625)"/>
     </defs>
     <use xlink:href="#DejaVuSerif-34"/>
     <use xlink:href="#DejaVuSerif-33" transform="translate(63.623047 0)"/>
     <use xlink:href="#DejaVuSerif-2e" transform="translate(127.246094 0)"/>
     <use xlink:href="#DejaVuSerif-34" transform="translate(159.033203 0)"/>
    </g>
   </g>
   <g id="text_20">
    <!-- 68.8 -->
    <g transform="translate(125.918777 323.612501) scale(0.08 -0.08)">
     <use xlink:href="#DejaVuSerif-36"/>
     <use xlink:href="#DejaVuSerif-38" transform="translate(63.623047 0)"/>
     <use xlink:href="#DejaVuSerif-2e" transform="translate(127.246094 0)"/>
     <use xlink:href="#DejaVuSerif-38" transform="translate(159.033203 0)"/>
    </g>
   </g>
   <g id="text_21">
    <!-- 72.0 -->
    <g transform="translate(166.764918 323.596119) scale(0.08 -0.08)">
     <use xlink:href="#DejaVuSerif-37"/>
     <use xlink:href="#DejaVuSerif-32" transform="translate(63.623047 0)"/>
     <use xlink:href="#DejaVuSerif-2e" transform="translate(127.246094 0)"/>
     <use xlink:href="#DejaVuSerif-30" transform="translate(159.033203 0)"/>
    </g>
   </g>
   <g id="text_22">
    <!-- 66.4 -->
    <g transform="translate(207.61106 323.624817) scale(0.08 -0.08)">
     <use xlink:href="#DejaVuSerif-36"/>
     <use xlink:href="#DejaVuSerif-36" transform="translate(63.623047 0)"/>
     <use xlink:href="#DejaVuSerif-2e" transform="translate(127.246094 0)"/>
     <use xlink:href="#DejaVuSerif-34" transform="translate(159.033203 0)"/>
    </g>
   </g>
   <g id="text_23">
    <!-- 100.1 -->
    <g transform="translate(245.912202 323.452748) scale(0.08 -0.08)">
     <use xlink:href="#DejaVuSerif-31"/>
     <use xlink:href="#DejaVuSerif-30" transform="translate(63.623047 0)"/>
     <use xlink:href="#DejaVuSerif-30" transform="translate(127.246094 0)"/>
     <use xlink:href="#DejaVuSerif-2e" transform="translate(190.869141 0)"/>
     <use xlink:href="#DejaVuSerif-31" transform="translate(222.65625 0)"/>
    </g>
   </g>
   <g id="text_24">
    <!-- 10022.1 -->
    <g transform="translate(281.668343 272.683258) scale(0.08 -0.08)">
     <use xlink:href="#DejaVuSerif-31"/>
     <use xlink:href="#DejaVuSerif-30" transform="translate(63.623047 0)"/>
     <use xlink:href="#DejaVuSerif-30" transform="translate(127.246094 0)"/>
     <use xlink:href="#DejaVuSerif-32" transform="translate(190.869141 0)"/>
     <use xlink:href="#DejaVuSerif-32" transform="translate(254.492188 0)"/>
     <use xlink:href="#DejaVuSerif-2e" transform="translate(318.115234 0)"/>
     <use xlink:href="#DejaVuSerif-31" transform="translate(349.902344 0)"/>
    </g>
   </g>
   <g id="text_25">
    <!-- 30154.2 -->
    <g transform="translate(322.514485 169.670548) scale(0.08 -0.08)">
     <use xlink:href="#DejaVuSerif-33"/>
     <use xlink:href="#DejaVuSerif-30" transform="translate(63.623047 0)"/>
     <use xlink:href="#DejaVuSerif-31" transform="translate(127.246094 0)"/>
     <use xlink:href="#DejaVuSerif-35" transform="translate(190.869141 0)"/>
     <use xlink:href="#DejaVuSerif-34" transform="translate(254.492188 0)"/>
     <use xlink:href="#DejaVuSerif-2e" transform="translate(318.115234 0)"/>
     <use xlink:href="#DejaVuSerif-32" transform="translate(349.902344 0)"/>
    </g>
   </g>
   <g id="text_26">
    <!-- 28591.6 -->
    <g transform="translate(363.360626 177.66612) scale(0.08 -0.08)">
     <use xlink:href="#DejaVuSerif-32"/>
     <use xlink:href="#DejaVuSerif-38" transform="translate(63.623047 0)"/>
     <use xlink:href="#DejaVuSerif-35" transform="translate(127.246094 0)"/>
     <use xlink:href="#DejaVuSerif-39" transform="translate(190.869141 0)"/>
     <use xlink:href="#DejaVuSerif-31" transform="translate(254.492188 0)"/>
     <use xlink:href="#DejaVuSerif-2e" transform="translate(318.115234 0)"/>
     <use xlink:href="#DejaVuSerif-36" transform="translate(349.902344 0)"/>
    </g>
   </g>
   <g id="text_27">
    <!-- 501.1 -->
    <g transform="translate(409.296768 321.400931) scale(0.08 -0.08)">
     <use xlink:href="#DejaVuSerif-35"/>
     <use xlink:href="#DejaVuSerif-30" transform="translate(63.623047 0)"/>
     <use xlink:href="#DejaVuSerif-31" transform="translate(127.246094 0)"/>
     <use xlink:href="#DejaVuSerif-2e" transform="translate(190.869141 0)"/>
     <use xlink:href="#DejaVuSerif-31" transform="translate(222.65625 0)"/>
    </g>
   </g>
   <g id="text_28">
    <!-- 42712.8 -->
    <g transform="translate(445.052909 105.410216) scale(0.08 -0.08)">
     <use xlink:href="#DejaVuSerif-34"/>
     <use xlink:href="#DejaVuSerif-32" transform="translate(63.623047 0)"/>
     <use xlink:href="#DejaVuSerif-37" transform="translate(127.246094 0)"/>
     <use xlink:href="#DejaVuSerif-31" transform="translate(190.869141 0)"/>
     <use xlink:href="#DejaVuSerif-32" transform="translate(254.492188 0)"/>
     <use xlink:href="#DejaVuSerif-2e" transform="translate(318.115234 0)"/>
     <use xlink:href="#DejaVuSerif-38" transform="translate(349.902344 0)"/>
    </g>
   </g>
   <g id="text_29">
    <!-- 41350.5 -->
    <g transform="translate(485.899051 112.380886) scale(0.08 -0.08)">
     <use xlink:href="#DejaVuSerif-34"/>
     <use xlink:href="#DejaVuSerif-31" transform="translate(63.623047 0)"/>
     <use xlink:href="#DejaVuSerif-33" transform="translate(127.246094 0)"/>
     <use xlink:href="#DejaVuSerif-35" transform="translate(190.869141 0)"/>
     <use xlink:href="#DejaVuSerif-30" transform="translate(254.492188 0)"/>
     <use xlink:href="#DejaVuSerif-2e" transform="translate(318.115234 0)"/>
     <use xlink:href="#DejaVuSerif-35" transform="translate(349.902344 0)"/>
    </g>
   </g>
   <g id="text_30">
    <!-- Key Generation Performance: Classical vs Post-Quantum -->
    <g transform="translate(104.258605 17.837812) scale(0.14 -0.14)">
     <defs>
      <path id="DejaVuSerif-4b" d="M 353 0 
L 353 331 
L 947 331 
L 947 4331 
L 353 4331 
L 353 4666 
L 2175 4666 
L 2175 4331 
L 1581 4331 
L 1581 2566 
L 3591 4331 
L 3084 4331 
L 3084 4666 
L 4634 4666 
L 4634 4331 
L 4109 4331 
L 2106 2572 
L 4347 331 
L 4878 331 
L 4878 0 
L 3794 0 
L 1581 2216 
L 1581 331 
L 2175 331 
L 2175 0 
L 353 0 
z
" transform="scale(0.015625)"/>
      <path id="DejaVuSerif-47" d="M 4097 3272 
Q 3988 3856 3641 4136 
Q 3294 4416 2675 4416 
Q 1869 4416 1472 3897 
Q 1075 3378 1075 2328 
Q 1075 1300 1484 772 
Q 1894 244 2688 244 
Q 3041 244 3362 331 
Q 3684 419 3975 594 
L 3975 1797 
L 3097 1797 
L 3097 2131 
L 4609 2131 
L 4609 391 
Q 4194 150 3714 29 
Q 3234 -91 2688 -91 
Q 1631 -91 995 570 
Q 359 1231 359 2328 
Q 359 3434 996 4092 
Q 1634 4750 2713 4750 
Q 3113 4750 3539 4658 
Q 3966 4566 4447 4378 
L 4447 3272 
L 4097 3272 
z
" transform="scale(0.015625)"/>
      <path id="DejaVuSerif-3a" d="M 666 325 
Q 666 500 786 622 
Q 906 744 1081 744 
Q 1256 744 1376 622 
Q 1497 500 1497 325 
Q 1497 150 1378 29 
Q 1259 -91 1081 -91 
Q 903 -91 784 29 
Q 666 150 666 325 
z
M 666 2363 
Q 666 2538 786 2658 
Q 906 2778 1081 2778 
Q 1259 2778 1378 2659 
Q 1497 2541 1497 2363 
Q 1497 2184 1378 2065 
Q 1259 1947 1081 1947 
Q 906 1947 786 2067 
Q 666 2188 666 2363 
z
" transform="scale(0.015625)"/>
      <path id="DejaVuSerif-76" d="M 1581 0 
L 359 2988 
L -19 2988 
L -19 3322 
L 1509 3322 
L 1509 2988 
L 978 2988 
L 1913 703 
L 2847 2988 
L 2350 2988 
L 2350 3322 
L 3597 3322 
L 3597 2988 
L 3225 2988 
L 2003 0 
L 1581 0 
z
" transform="scale(0.015625)"/>
      <path id="DejaVuSerif-51" d="M 2700 -91 
Q 1628 -91 993 567 
Q 359 1225 359 2328 
Q 359 2894 529 3339 
Q 700 3784 1050 4134 
Q 1356 4441 1750 4595 
Q 2144 4750 2625 4750 
Q 3641 4750 4266 4084 
Q 4891 3419 4891 2328 
Q 4891 1403 4422 773 
Q 3953 144 3128 -38 
Q 3297 -247 3539 -347 
Q 3781 -447 4122 -447 
L 4219 -447 
L 4219 -1025 
Q 3691 -1000 3314 -767 
Q 2938 -534 2700 -91 
z
M 2625 244 
Q 3391 244 3781 770 
Q 4172 1297 4172 2328 
Q 4172 3363 3781 3889 
Q 3391 4416 2625 4416 
Q 1856 4416 1465 3889 
Q 1075 3363 1075 2328 
Q 1075 1297 1465 770 
Q 1856 244 2625 244 
z
" transform="scale(0.015625)"/>
      <path id="DejaVuSerif-75" d="M 2266 3322 
L 3341 3322 
L 3341 331 
L 3884 331 
L 3884 0 
L 2766 0 
L 2766 588 
Q 2606 256 2353 82 
Q 2100 -91 1766 -91 
Q 1213 -91 952 223 
Q 691 538 691 1209 
L 691 2988 
L 172 2988 
L 172 3322 
L 1269 3322 
L 1269 1388 
Q 1269 781 1417 556 
Q 1566 331 1947 331 
Q 2347 331 2556 625 
Q 2766 919 2766 1478 
L 2766 2988 
L 2266 2988 
L 2266 3322 
z
" transform="scale(0.015625)"/>
     </defs>
     <use xlink:href="#DejaVuSerif-4b"/>
     <use xlink:href="#DejaVuSerif-65" transform="translate(72.082031 0)"/>
     <use xlink:href="#DejaVuSerif-79" transform="translate(131.261719 0)"/>
     <use xlink:href="#DejaVuSerif-20" transform="translate(187.755859 0)"/>
     <use xlink:href="#DejaVuSerif-47" transform="translate(219.542969 0)"/>
     <use xlink:href="#DejaVuSerif-65" transform="translate(299.425781 0)"/>
     <use xlink:href="#DejaVuSerif-6e" transform="translate(358.605469 0)"/>
     <use xlink:href="#DejaVuSerif-65" transform="translate(423.009766 0)"/>
     <use xlink:href="#DejaVuSerif-72" transform="translate(482.189453 0)"/>
     <use xlink:href="#DejaVuSerif-61" transform="translate(529.992188 0)"/>
     <use xlink:href="#DejaVuSerif-74" transform="translate(589.611328 0)"/>
     <use xlink:href="#DejaVuSerif-69" transform="translate(629.796875 0)"/>
     <use xlink:href="#DejaVuSerif-6f" transform="translate(661.779297 0)"/>
     <use xlink:href="#DejaVuSerif-6e" transform="translate(721.984375 0)"/>
     <use xlink:href="#DejaVuSerif-20" transform="translate(786.388672 0)"/>
     <use xlink:href="#DejaVuSerif-50" transform="translate(818.175781 0)"/>
     <use xlink:href="#DejaVuSerif-65" transform="translate(880.960938 0)"/>
     <use xlink:href="#DejaVuSerif-72" transform="translate(940.140625 0)"/>
     <use xlink:href="#DejaVuSerif-66" transform="translate(987.943359 0)"/>
     <use xlink:href="#DejaVuSerif-6f" transform="translate(1024.955078 0)"/>
     <use xlink:href="#DejaVuSerif-72" transform="translate(1085.160156 0)"/>
     <use xlink:href="#DejaVuSerif-6d" transform="translate(1132.962891 0)"/>
     <use xlink:href="#DejaVuSerif-61" transform="translate(1227.787109 0)"/>
     <use xlink:href="#DejaVuSerif-6e" transform="translate(1287.40625 0)"/>
     <use xlink:href="#DejaVuSerif-63" transform="translate(1351.810547 0)"/>
     <use xlink:href="#DejaVuSerif-65" transform="translate(1407.816406 0)"/>
     <use xlink:href="#DejaVuSerif-3a" transform="translate(1466.996094 0)"/>
     <use xlink:href="#DejaVuSerif-20" transform="translate(1500.6875 0)"/>
     <use xlink:href="#DejaVuSerif-43" transform="translate(1532.474609 0)"/>
     <use xlink:href="#DejaVuSerif-6c" transform="translate(1608.988281 0)"/>
     <use xlink:href="#DejaVuSerif-61" transform="translate(1640.970703 0)"/>
     <use xlink:href="#DejaVuSerif-73" transform="translate(1700.589844 0)"/>
     <use xlink:href="#DejaVuSerif-73" transform="translate(1751.908203 0)"/>
     <use xlink:href="#DejaVuSerif-69" transform="translate(1803.226562 0)"/>
     <use xlink:href="#DejaVuSerif-63" transform="translate(1835.208984 0)"/>
     <use xlink:href="#DejaVuSerif-61" transform="translate(1891.214844 0)"/>
     <use xlink:href="#DejaVuSerif-6c" transform="translate(1950.833984 0)"/>
     <use xlink:href="#DejaVuSerif-20" transform="translate(1982.816406 0)"/>
     <use xlink:href="#DejaVuSerif-76" transform="translate(2014.603516 0)"/>
     <use xlink:href="#DejaVuSerif-73" transform="translate(2071.097656 0)"/>
     <use xlink:href="#DejaVuSerif-20" transform="translate(2122.416016 0)"/>
     <use xlink:href="#DejaVuSerif-50" transform="translate(2154.203125 0)"/>
     <use xlink:href="#DejaVuSerif-6f" transform="translate(2217.488281 0)"/>
     <use xlink:href="#DejaVuSerif-73" transform="translate(2277.693359 0)"/>
     <use xlink:href="#DejaVuSerif-74" transform="translate(2329.011719 0)"/>
     <use xlink:href="#DejaVuSerif-2d" transform="translate(2369.197266 0)"/>
     <use xlink:href="#DejaVuSerif-51" transform="translate(2402.986328 0)"/>
     <use xlink:href="#DejaVuSerif-75" transform="translate(2484.96875 0)"/>
     <use xlink:href="#DejaVuSerif-61" transform="translate(2549.373047 0)"/>
     <use xlink:href="#DejaVuSerif-6e" transform="translate(2608.992188 0)"/>
     <use xlink:href="#DejaVuSerif-74" transform="translate(2673.396484 0)"/>
     <use xlink:href="#DejaVuSerif-75" transform="translate(2713.582031 0)"/>
     <use xlink:href="#DejaVuSerif-6d" transform="translate(2777.986328 0)"/>
    </g>
   </g>
   <g id="legend_1">
    <g id="patch_29">
     <path d="M 72.678125 64.929688 
L 139.295156 64.929688 
Q 141.495156 64.929688 141.495156 62.729688 
L 141.495156 31.537813 
Q 141.495156 29.337813 139.295156 29.337813 
L 72.678125 29.337813 
Q 70.478125 29.337813 70.478125 31.537813 
L 70.478125 62.729688 
Q 70.478125 64.929688 72.678125 64.929688 
z
" style="fill: #ffffff; opacity: 0.8; stroke: #cccccc; stroke-linejoin: miter"/>
    </g>
    <g id="patch_30">
     <path d="M 74.878125 42.096094 
L 96.878125 42.096094 
L 96.878125 34.396094 
L 74.878125 34.396094 
z
" style="fill: #2196f3; stroke: #000000; stroke-width: 0.5; stroke-linejoin: miter"/>
    </g>
    <g id="text_31">
     <!-- Mean -->
     <g transform="translate(105.678125 42.096094) scale(0.11 -0.11)">
      <use xlink:href="#DejaVuSerif-4d"/>
      <use xlink:href="#DejaVuSerif-65" transform="translate(102.392578 0)"/>
      <use xlink:href="#DejaVuSerif-61" transform="translate(161.572266 0)"/>
      <use xlink:href="#DejaVuSerif-6e" transform="translate(221.191406 0)"/>
     </g>
    </g>
    <g id="patch_31">
     <path d="M 74.878125 58.242031 
L 96.878125 58.242031 
L 96.878125 50.542031 
L 74.878125 50.542031 
z
" style="fill: #2196f3; opacity: 0.5; stroke: #000000; stroke-width: 0.5; stroke-linejoin: miter"/>
    </g>
    <g id="text_32">
     <!-- P99 -->
     <g transform="translate(105.678125 58.242031) scale(0.11 -0.11)">
      <use xlink:href="#DejaVuSerif-50"/>
      <use xlink:href="#DejaVuSerif-39" transform="translate(67.285156 0)"/>
      <use xlink:href="#DejaVuSerif-39" transform="translate(130.908203 0)"/>
     </g>
    </g>
   </g>
  </g>
 </g>
 <defs>
  <clipPath id="p13dd82e396">
   <rect x="64.978125" y="23.837812" width="480.759086" height="301.81625"/>
  </clipPath>
 </defs>
</svg>
