<?xml version="1.0" encoding="utf-8" standalone="no"?>
<!DOCTYPE svg PUBLIC "-//W3C//DTD SVG 1.1//EN"
  "http://www.w3.org/Graphics/SVG/1.1/DTD/svg11.dtd">
<svg xmlns:xlink="http://www.w3.org/1999/xlink" width="714.155313pt" height="689.741719pt" viewBox="0 0 714.155313 689.741719" xmlns="http://www.w3.org/2000/svg" version="1.1">
 <metadata>
  <rdf:RDF xmlns:dc="http://purl.org/dc/elements/1.1/" xmlns:cc="http://creativecommons.org/ns#" xmlns:rdf="http://www.w3.org/1999/02/22-rdf-syntax-ns#">
   <cc:Work>
    <dc:type rdf:resource="http://purl.org/dc/dcmitype/StillImage"/>
    <dc:date>2026-07-05T17:48:48.738292</dc:date>
    <dc:format>image/svg+xml</dc:format>
    <dc:creator>
     <cc:Agent>
      <dc:title>Matplotlib v3.10.0, https://matplotlib.org/</dc:title>
     </cc:Agent>
    </dc:creator>
   </cc:Work>
  </rdf:RDF>
 </metadata>
 <defs>
  <style type="text/css">*{stroke-linejoin: round; stroke-linecap: butt}</style>
 </defs>
 <g id="figure_1">
  <g id="patch_1">
   <path d="M -0 689.741719 
L 714.155313 689.741719 
L 714.155313 0 
L -0 0 
z
" style="fill: #ffffff"/>
  </g>
  <g id="axes_1">
   <g id="patch_2">
    <path d="M 667.574063 350.815156 
C 667.574063 310.471724 659.627286 270.52058 644.188523 233.248109 
C 628.74976 195.975637 606.119255 162.106693 577.59214 133.579579 
C 549.065025 105.052464 515.196081 82.421959 477.92361 66.983196 
C 440.651138 51.544433 400.699995 43.597656 360.356562 43.597656 
C 320.01313 43.597656 280.061987 51.544433 242.789515 66.983196 
C 205.517044 82.421959 171.6481 105.052464 143.120985 133.579579 
C 114.59387 162.106693 91.963365 195.975637 76.524602 233.248109 
C 61.085839 270.52058 53.139062 310.471724 53.139062 350.815156 
C 53.139062 391.158589 61.085839 431.109732 76.524602 468.382204 
C 91.963365 505.654675 114.59387 539.523619 143.120985 568.050734 
C 171.6481 596.577848 205.517044 619.208353 242.789515 634.647117 
C 280.061987 650.08588 320.01313 658.032656 360.356562 658.032656 
C 400.699995 658.032656 440.651138 650.08588 477.92361 634.647117 
C 515.196081 619.208353 549.065025 596.577848 577.59214 568.050734 
C 606.119255 539.523619 628.74976 505.654675 644.188523 468.382204 
C 659.627286 431.109732 667.574063 391.158589 667.574063 350.815156 
M 360.356562 350.815156 
C 360.356562 350.815156 360.356562 350.815156 360.356562 350.815156 
C 360.356562 350.815156 360.356562 350.815156 360.356562 350.815156 
C 360.356562 350.815156 360.356562 350.815156 360.356562 350.815156 
C 360.356562 350.815156 360.356562 350.815156 360.356562 350.815156 
C 360.356562 350.815156 360.356562 350.815156 360.356562 350.815156 
C 360.356562 350.815156 360.356562 350.815156 360.356562 350.815156 
C 360.356562 350.815156 360.356562 350.815156 360.356562 350.815156 
C 360.356562 350.815156 360.356562 350.815156 360.356562 350.815156 
C 360.356562 350.815156 360.356562 350.815156 360.356562 350.815156 
C 360.356562 350.815156 360.356562 350.815156 360.356562 350.815156 
C 360.356562 350.815156 360.356562 350.815156 360.356562 350.815156 
C 360.356562 350.815156 360.356562 350.815156 360.356562 350.815156 
C 360.356562 350.815156 360.356562 350.815156 360.356562 350.815156 
C 360.356562 350.815156 360.356562 350.815156 360.356562 350.815156 
C 360.356562 350.815156 360.356562 350.815156 360.356562 350.815156 
C 360.356562 350.815156 360.356562 350.815156 360.356562 350.815156 
z
" style="fill: #ffffff"/>
   </g>
   <g id="patch_3">
    <path d="M 652.213188 350.815156 
L 577.59214 133.579579 
L 360.356562 135.762906 
L 230.015216 220.47381 
L 114.582562 350.815156 
L 251.738774 459.432945 
L 360.356562 565.867406 
L 490.697909 481.156503 
z
" clip-path="url(#p2d7246a87d)" style="fill: #c8963e; opacity: 0.25; stroke: #c8963e; stroke-linejoin: miter"/>
   </g>
   <g id="matplotlib.axis_1">
    <g id="xtick_1">
     <g id="line2d_1">
      <path d="M 360.356562 350.815156 
L 667.574063 350.815156 
" clip-path="url(#p2d7246a87d)" style="fill: none; stroke: #b0b0b0; stroke-opacity: 0.3; stroke-width: 0.8; stroke-linecap: square"/>
     </g>
     <g id="text_1">
      <!-- Algorithm -->
      <g transform="translate(656.192813 347.833437) scale(0.1 -0.1)">
       <defs>
        <path id="DejaVuSerif-41" d="M 1281 1691 
L 2994 1691 
L 2138 3909 
L 1281 1691 
z
M -38 0 
L -38 331 
L 372 331 
L 2034 4666 
L 2559 4666 
L 4225 331 
L 4684 331 
L 4684 0 
L 2988 0 
L 2988 331 
L 3506 331 
L 3116 1356 
L 1153 1356 
L 763 331 
L 1275 331 
L 1275 0 
L -38 0 
z
" transform="scale(0.015625)"/>
        <path id="DejaVuSerif-6c" d="M 1313 331 
L 1856 331 
L 1856 0 
L 184 0 
L 184 331 
L 738 331 
L 738 4531 
L 184 4531 
L 184 4863 
L 1313 4863 
L 1313 331 
z
" transform="scale(0.015625)"/>
        <path id="DejaVuSerif-67" d="M 3359 2988 
L 3359 72 
Q 3359 -644 2965 -1033 
Q 2572 -1422 1844 -1422 
Q 1516 -1422 1216 -1362 
Q 916 -1303 641 -1184 
L 641 -488 
L 941 -488 
Q 997 -813 1206 -963 
Q 1416 -1113 1806 -1113 
Q 2313 -1113 2548 -827 
Q 2784 -541 2784 72 
L 2784 519 
Q 2616 206 2355 57 
Q 2094 -91 1709 -91 
Q 1097 -91 708 395 
Q 319 881 319 1663 
Q 319 2444 706 2928 
Q 1094 3413 1709 3413 
Q 2094 3413 2355 3264 
Q 2616 3116 2784 2803 
L 2784 3322 
L 3909 3322 
L 3909 2988 
L 3359 2988 
z
M 2784 1825 
Q 2784 2422 2554 2737 
Q 2325 3053 1888 3053 
Q 1444 3053 1217 2703 
Q 991 2353 991 1663 
Q 991 975 1217 622 
Q 1444 269 1888 269 
Q 2325 269 2554 583 
Q 2784 897 2784 1497 
L 2784 1825 
z
" transform="scale(0.015625)"/>
        <path id="DejaVuSerif-6f" d="M 1925 219 
Q 2388 219 2623 584 
Q 2859 950 2859 1663 
Q 2859 2375 2623 2739 
Q 2388 3103 1925 3103 
Q 1463 3103 1227 2739 
Q 991 2375 991 1663 
Q 991 950 1228 584 
Q 1466 219 1925 219 
z
M 1925 -91 
Q 1200 -91 759 389 
Q 319 869 319 1663 
Q 319 2456 758 2934 
Q 1197 3413 1925 3413 
Q 2653 3413 3092 2934 
Q 3531 2456 3531 1663 
Q 3531 869 3092 389 
Q 2653 -91 1925 -91 
z
" transform="scale(0.015625)"/>
        <path id="DejaVuSerif-72" d="M 3059 3328 
L 3059 2497 
L 2728 2497 
Q 2713 2744 2591 2866 
Q 2469 2988 2234 2988 
Q 1809 2988 1582 2694 
Q 1356 2400 1356 1850 
L 1356 331 
L 2022 331 
L 2022 0 
L 263 0 
L 263 331 
L 781 331 
L 781 2994 
L 231 2994 
L 231 3322 
L 1356 3322 
L 1356 2731 
Q 1525 3078 1790 3245 
Q 2056 3413 2438 3413 
Q 2578 3413 2733 3391 
Q 2888 3369 3059 3328 
z
" transform="scale(0.015625)"/>
        <path id="DejaVuSerif-69" d="M 622 4353 
Q 622 4497 726 4603 
Q 831 4709 978 4709 
Q 1122 4709 1226 4603 
Q 1331 4497 1331 4353 
Q 1331 4206 1228 4103 
Q 1125 4000 978 4000 
Q 831 4000 726 4103 
Q 622 4206 622 4353 
z
M 1356 331 
L 1900 331 
L 1900 0 
L 231 0 
L 231 331 
L 781 331 
L 781 2988 
L 231 2988 
L 231 3322 
L 1356 3322 
L 1356 331 
z
" transform="scale(0.015625)"/>
        <path id="DejaVuSerif-74" d="M 691 2988 
L 184 2988 
L 184 3322 
L 691 3322 
L 691 4353 
L 1269 4353 
L 1269 3322 
L 2350 3322 
L 2350 2988 
L 1269 2988 
L 1269 878 
Q 1269 456 1350 337 
Q 1431 219 1650 219 
Q 1875 219 1978 351 
Q 2081 484 2088 781 
L 2522 781 
Q 2497 328 2275 118 
Q 2053 -91 1600 -91 
Q 1103 -91 897 129 
Q 691 350 691 878 
L 691 2988 
z
" transform="scale(0.015625)"/>
        <path id="DejaVuSerif-68" d="M 263 0 
L 263 331 
L 781 331 
L 781 4531 
L 231 4531 
L 231 4863 
L 1356 4863 
L 1356 2731 
Q 1516 3069 1770 3241 
Q 2025 3413 2363 3413 
Q 2913 3413 3172 3097 
Q 3431 2781 3431 2113 
L 3431 331 
L 3944 331 
L 3944 0 
L 2356 0 
L 2356 331 
L 2853 331 
L 2853 1931 
Q 2853 2541 2704 2764 
Q 2556 2988 2175 2988 
Q 1775 2988 1565 2697 
Q 1356 2406 1356 1850 
L 1356 331 
L 1856 331 
L 1856 0 
L 263 0 
z
" transform="scale(0.015625)"/>
        <path id="DejaVuSerif-6d" d="M 3316 2675 
Q 3481 3041 3739 3227 
Q 3997 3413 4341 3413 
Q 4863 3413 5119 3089 
Q 5375 2766 5375 2113 
L 5375 331 
L 5894 331 
L 5894 0 
L 4300 0 
L 4300 331 
L 4800 331 
L 4800 2047 
Q 4800 2556 4650 2772 
Q 4500 2988 4153 2988 
Q 3769 2988 3567 2697 
Q 3366 2406 3366 1850 
L 3366 331 
L 3866 331 
L 3866 0 
L 2291 0 
L 2291 331 
L 2791 331 
L 2791 2069 
Q 2791 2566 2641 2777 
Q 2491 2988 2144 2988 
Q 1759 2988 1557 2697 
Q 1356 2406 1356 1850 
L 1356 331 
L 1856 331 
L 1856 0 
L 263 0 
L 263 331 
L 781 331 
L 781 2994 
L 231 2994 
L 231 3322 
L 1356 3322 
L 1356 2731 
Q 1516 3063 1762 3238 
Q 2009 3413 2322 3413 
Q 2709 3413 2968 3220 
Q 3228 3028 3316 2675 
z
" transform="scale(0.015625)"/>
       </defs>
       <use xlink:href="#DejaVuSerif-41"/>
       <use xlink:href="#DejaVuSerif-6c" transform="translate(72.216797 0)"/>
       <use xlink:href="#DejaVuSerif-67" transform="translate(104.199219 0)"/>
       <use xlink:href="#DejaVuSerif-6f" transform="translate(168.212891 0)"/>
       <use xlink:href="#DejaVuSerif-72" transform="translate(228.417969 0)"/>
       <use xlink:href="#DejaVuSerif-69" transform="translate(276.220703 0)"/>
       <use xlink:href="#DejaVuSerif-74" transform="translate(308.203125 0)"/>
       <use xlink:href="#DejaVuSerif-68" transform="translate(348.388672 0)"/>
       <use xlink:href="#DejaVuSerif-6d" transform="translate(412.792969 0)"/>
      </g>
      <!-- Maturity -->
      <g transform="translate(659.420156 359.173437) scale(0.1 -0.1)">
       <defs>
        <path id="DejaVuSerif-4d" d="M 353 0 
L 353 331 
L 947 331 
L 947 4331 
L 319 4331 
L 319 4666 
L 1678 4666 
L 3316 1344 
L 4953 4666 
L 6228 4666 
L 6228 4331 
L 5606 4331 
L 5606 331 
L 6203 331 
L 6203 0 
L 4378 0 
L 4378 331 
L 4972 331 
L 4972 3938 
L 3372 684 
L 2931 684 
L 1331 3938 
L 1331 331 
L 1925 331 
L 1925 0 
L 353 0 
z
" transform="scale(0.015625)"/>
        <path id="DejaVuSerif-61" d="M 2547 1044 
L 2547 1747 
L 1806 1747 
Q 1378 1747 1168 1562 
Q 959 1378 959 997 
Q 959 650 1171 447 
Q 1384 244 1747 244 
Q 2106 244 2326 466 
Q 2547 688 2547 1044 
z
M 3122 2075 
L 3122 331 
L 3634 331 
L 3634 0 
L 2547 0 
L 2547 359 
Q 2356 128 2106 18 
Q 1856 -91 1522 -91 
Q 969 -91 644 203 
Q 319 497 319 997 
Q 319 1513 691 1797 
Q 1063 2081 1741 2081 
L 2547 2081 
L 2547 2309 
Q 2547 2688 2317 2895 
Q 2088 3103 1672 3103 
Q 1328 3103 1125 2947 
Q 922 2791 872 2484 
L 575 2484 
L 575 3156 
Q 875 3284 1158 3348 
Q 1441 3413 1709 3413 
Q 2400 3413 2761 3070 
Q 3122 2728 3122 2075 
z
" transform="scale(0.015625)"/>
        <path id="DejaVuSerif-75" d="M 2266 3322 
L 3341 3322 
L 3341 331 
L 3884 331 
L 3884 0 
L 2766 0 
L 2766 588 
Q 2606 256 2353 82 
Q 2100 -91 1766 -91 
Q 1213 -91 952 223 
Q 691 538 691 1209 
L 691 2988 
L 172 2988 
L 172 3322 
L 1269 3322 
L 1269 1388 
Q 1269 781 1417 556 
Q 1566 331 1947 331 
Q 2347 331 2556 625 
Q 2766 919 2766 1478 
L 2766 2988 
L 2266 2988 
L 2266 3322 
z
" transform="scale(0.015625)"/>
        <path id="DejaVuSerif-79" d="M 1381 -609 
L 1600 -56 
L 359 2988 
L -19 2988 
L -19 3322 
L 1509 3322 
L 1509 2988 
L 978 2988 
L 1913 703 
L 2847 2988 
L 2350 2988 
L 2350 3322 
L 3597 3322 
L 3597 2988 
L 3225 2988 
L 1703 -750 
Q 1547 -1138 1356 -1280 
Q 1166 -1422 819 -1422 
Q 672 -1422 517 -1397 
Q 363 -1372 206 -1325 
L 206 -691 
L 500 -691 
Q 519 -903 608 -995 
Q 697 -1088 884 -1088 
Q 1056 -1088 1161 -992 
Q 1266 -897 1381 -609 
z
" transform="scale(0.015625)"/>
       </defs>
       <use xlink:href="#DejaVuSerif-4d"/>
       <use xlink:href="#DejaVuSerif-61" transform="translate(102.392578 0)"/>
       <use xlink:href="#DejaVuSerif-74" transform="translate(162.011719 0)"/>
       <use xlink:href="#DejaVuSerif-75" transform="translate(202.197266 0)"/>
       <use xlink:href="#DejaVuSerif-72" transform="translate(266.601562 0)"/>
       <use xlink:href="#DejaVuSerif-69" transform="translate(314.404297 0)"/>
       <use xlink:href="#DejaVuSerif-74" transform="translate(346.386719 0)"/>
       <use xlink:href="#DejaVuSerif-79" transform="translate(386.572266 0)"/>
      </g>
     </g>
    </g>
    <g id="xtick_2">
     <g id="line2d_2">
      <path d="M 360.356562 350.815156 
L 577.59214 133.579579 
" clip-path="url(#p2d7246a87d)" style="fill: none; stroke: #b0b0b0; stroke-opacity: 0.3; stroke-width: 0.8; stroke-linecap: square"/>
     </g>
     <g id="text_2">
      <!-- NIST -->
      <g transform="translate(574.381479 120.840553) scale(0.1 -0.1)">
       <defs>
        <path id="DejaVuSerif-4e" d="M 313 0 
L 313 331 
L 941 331 
L 941 4331 
L 313 4331 
L 313 4666 
L 1509 4666 
L 4306 984 
L 4306 4331 
L 3681 4331 
L 3681 4666 
L 5319 4666 
L 5319 4331 
L 4691 4331 
L 4691 -91 
L 4313 -91 
L 1325 3841 
L 1325 331 
L 1953 331 
L 1953 0 
L 313 0 
z
" transform="scale(0.015625)"/>
        <path id="DejaVuSerif-49" d="M 1581 331 
L 2175 331 
L 2175 0 
L 353 0 
L 353 331 
L 947 331 
L 947 4331 
L 353 4331 
L 353 4666 
L 2175 4666 
L 2175 4331 
L 1581 4331 
L 1581 331 
z
" transform="scale(0.015625)"/>
        <path id="DejaVuSerif-53" d="M 594 225 
L 594 1288 
L 953 1284 
Q 969 753 1261 498 
Q 1553 244 2150 244 
Q 2706 244 2998 464 
Q 3291 684 3291 1106 
Q 3291 1444 3114 1625 
Q 2938 1806 2369 1978 
L 1753 2163 
Q 1084 2366 811 2669 
Q 538 2972 538 3500 
Q 538 4094 959 4422 
Q 1381 4750 2144 4750 
Q 2469 4750 2856 4679 
Q 3244 4609 3681 4475 
L 3681 3481 
L 3328 3481 
Q 3275 3975 2998 4195 
Q 2722 4416 2156 4416 
Q 1663 4416 1405 4214 
Q 1147 4013 1147 3628 
Q 1147 3294 1340 3103 
Q 1534 2913 2163 2725 
L 2741 2553 
Q 3375 2363 3645 2067 
Q 3916 1772 3916 1275 
Q 3916 597 3481 253 
Q 3047 -91 2188 -91 
Q 1803 -91 1404 -12 
Q 1006 66 594 225 
z
" transform="scale(0.015625)"/>
        <path id="DejaVuSerif-54" d="M 1222 0 
L 1222 331 
L 1819 331 
L 1819 4294 
L 447 4294 
L 447 3566 
L 63 3566 
L 63 4666 
L 4206 4666 
L 4206 3566 
L 3822 3566 
L 3822 4294 
L 2450 4294 
L 2450 331 
L 3047 331 
L 3047 0 
L 1222 0 
z
" transform="scale(0.015625)"/>
       </defs>
       <use xlink:href="#DejaVuSerif-4e"/>
       <use xlink:href="#DejaVuSerif-49" transform="translate(87.5 0)"/>
       <use xlink:href="#DejaVuSerif-53" transform="translate(127.001953 0)"/>
       <use xlink:href="#DejaVuSerif-54" transform="translate(195.507812 0)"/>
      </g>
      <!-- Standardization -->
      <g transform="translate(547.029135 132.038365) scale(0.1 -0.1)">
       <defs>
        <path id="DejaVuSerif-6e" d="M 263 0 
L 263 331 
L 781 331 
L 781 2988 
L 231 2988 
L 231 3322 
L 1356 3322 
L 1356 2731 
Q 1516 3069 1770 3241 
Q 2025 3413 2363 3413 
Q 2913 3413 3172 3097 
Q 3431 2781 3431 2113 
L 3431 331 
L 3944 331 
L 3944 0 
L 2356 0 
L 2356 331 
L 2853 331 
L 2853 1931 
Q 2853 2541 2703 2767 
Q 2553 2994 2175 2994 
Q 1775 2994 1565 2701 
Q 1356 2409 1356 1850 
L 1356 331 
L 1856 331 
L 1856 0 
L 263 0 
z
" transform="scale(0.015625)"/>
        <path id="DejaVuSerif-64" d="M 3359 331 
L 3909 331 
L 3909 0 
L 2784 0 
L 2784 519 
Q 2616 206 2355 57 
Q 2094 -91 1709 -91 
Q 1097 -91 708 395 
Q 319 881 319 1663 
Q 319 2444 706 2928 
Q 1094 3413 1709 3413 
Q 2094 3413 2355 3264 
Q 2616 3116 2784 2803 
L 2784 4531 
L 2241 4531 
L 2241 4863 
L 3359 4863 
L 3359 331 
z
M 2784 1497 
L 2784 1825 
Q 2784 2422 2554 2737 
Q 2325 3053 1888 3053 
Q 1444 3053 1217 2703 
Q 991 2353 991 1663 
Q 991 975 1217 622 
Q 1444 269 1888 269 
Q 2325 269 2554 583 
Q 2784 897 2784 1497 
z
" transform="scale(0.015625)"/>
        <path id="DejaVuSerif-7a" d="M 256 0 
L 256 269 
L 2338 2988 
L 691 2988 
L 691 2413 
L 359 2413 
L 359 3322 
L 3078 3322 
L 3078 3053 
L 997 331 
L 2803 331 
L 2803 934 
L 3138 934 
L 3138 0 
L 256 0 
z
" transform="scale(0.015625)"/>
       </defs>
       <use xlink:href="#DejaVuSerif-53"/>
       <use xlink:href="#DejaVuSerif-74" transform="translate(68.505859 0)"/>
       <use xlink:href="#DejaVuSerif-61" transform="translate(108.691406 0)"/>
       <use xlink:href="#DejaVuSerif-6e" transform="translate(168.310547 0)"/>
       <use xlink:href="#DejaVuSerif-64" transform="translate(232.714844 0)"/>
       <use xlink:href="#DejaVuSerif-61" transform="translate(296.728516 0)"/>
       <use xlink:href="#DejaVuSerif-72" transform="translate(356.347656 0)"/>
       <use xlink:href="#DejaVuSerif-64" transform="translate(404.150391 0)"/>
       <use xlink:href="#DejaVuSerif-69" transform="translate(468.164062 0)"/>
       <use xlink:href="#DejaVuSerif-7a" transform="translate(500.146484 0)"/>
       <use xlink:href="#DejaVuSerif-61" transform="translate(552.832031 0)"/>
       <use xlink:href="#DejaVuSerif-74" transform="translate(612.451172 0)"/>
       <use xlink:href="#DejaVuSerif-69" transform="translate(652.636719 0)"/>
       <use xlink:href="#DejaVuSerif-6f" transform="translate(684.619141 0)"/>
       <use xlink:href="#DejaVuSerif-6e" transform="translate(744.824219 0)"/>
      </g>
     </g>
    </g>
    <g id="xtick_3">
     <g id="line2d_3">
      <path d="M 360.356562 350.815156 
L 360.356562 43.597656 
" clip-path="url(#p2d7246a87d)" style="fill: none; stroke: #b0b0b0; stroke-opacity: 0.3; stroke-width: 0.8; stroke-linecap: square"/>
     </g>
     <g id="text_3">
      <!-- Implementation -->
      <g transform="translate(320.13 26.687031) scale(0.1 -0.1)">
       <defs>
        <path id="DejaVuSerif-70" d="M 1313 1825 
L 1313 1497 
Q 1313 897 1542 583 
Q 1772 269 2209 269 
Q 2650 269 2876 622 
Q 3103 975 3103 1663 
Q 3103 2353 2876 2703 
Q 2650 3053 2209 3053 
Q 1772 3053 1542 2737 
Q 1313 2422 1313 1825 
z
M 738 2988 
L 184 2988 
L 184 3322 
L 1313 3322 
L 1313 2803 
Q 1481 3116 1742 3264 
Q 2003 3413 2388 3413 
Q 3000 3413 3387 2928 
Q 3775 2444 3775 1663 
Q 3775 881 3387 395 
Q 3000 -91 2388 -91 
Q 2003 -91 1742 57 
Q 1481 206 1313 519 
L 1313 -997 
L 1856 -997 
L 1856 -1331 
L 184 -1331 
L 184 -997 
L 738 -997 
L 738 2988 
z
" transform="scale(0.015625)"/>
        <path id="DejaVuSerif-65" d="M 3469 1600 
L 991 1600 
L 991 1575 
Q 991 903 1244 561 
Q 1497 219 1991 219 
Q 2369 219 2611 417 
Q 2853 616 2950 1006 
L 3413 1006 
Q 3275 459 2904 184 
Q 2534 -91 1931 -91 
Q 1203 -91 761 389 
Q 319 869 319 1663 
Q 319 2450 753 2931 
Q 1188 3413 1894 3413 
Q 2647 3413 3050 2948 
Q 3453 2484 3469 1600 
z
M 2791 1931 
Q 2772 2513 2545 2808 
Q 2319 3103 1894 3103 
Q 1497 3103 1269 2806 
Q 1041 2509 991 1931 
L 2791 1931 
z
" transform="scale(0.015625)"/>
       </defs>
       <use xlink:href="#DejaVuSerif-49"/>
       <use xlink:href="#DejaVuSerif-6d" transform="translate(39.501953 0)"/>
       <use xlink:href="#DejaVuSerif-70" transform="translate(134.326172 0)"/>
       <use xlink:href="#DejaVuSerif-6c" transform="translate(198.339844 0)"/>
       <use xlink:href="#DejaVuSerif-65" transform="translate(230.322266 0)"/>
       <use xlink:href="#DejaVuSerif-6d" transform="translate(289.501953 0)"/>
       <use xlink:href="#DejaVuSerif-65" transform="translate(384.326172 0)"/>
       <use xlink:href="#DejaVuSerif-6e" transform="translate(443.505859 0)"/>
       <use xlink:href="#DejaVuSerif-74" transform="translate(507.910156 0)"/>
       <use xlink:href="#DejaVuSerif-61" transform="translate(548.095703 0)"/>
       <use xlink:href="#DejaVuSerif-74" transform="translate(607.714844 0)"/>
       <use xlink:href="#DejaVuSerif-69" transform="translate(647.900391 0)"/>
       <use xlink:href="#DejaVuSerif-6f" transform="translate(679.882812 0)"/>
       <use xlink:href="#DejaVuSerif-6e" transform="translate(740.087891 0)"/>
      </g>
      <!-- Security -->
      <g transform="translate(339.128438 37.884844) scale(0.1 -0.1)">
       <defs>
        <path id="DejaVuSerif-63" d="M 3291 997 
Q 3169 466 2822 187 
Q 2475 -91 1925 -91 
Q 1200 -91 759 389 
Q 319 869 319 1663 
Q 319 2459 759 2936 
Q 1200 3413 1925 3413 
Q 2241 3413 2553 3339 
Q 2866 3266 3181 3116 
L 3181 2266 
L 2847 2266 
Q 2781 2703 2561 2903 
Q 2341 3103 1931 3103 
Q 1466 3103 1228 2742 
Q 991 2381 991 1663 
Q 991 944 1227 581 
Q 1463 219 1931 219 
Q 2303 219 2525 412 
Q 2747 606 2828 997 
L 3291 997 
z
" transform="scale(0.015625)"/>
       </defs>
       <use xlink:href="#DejaVuSerif-53"/>
       <use xlink:href="#DejaVuSerif-65" transform="translate(68.505859 0)"/>
       <use xlink:href="#DejaVuSerif-63" transform="translate(127.685547 0)"/>
       <use xlink:href="#DejaVuSerif-75" transform="translate(183.691406 0)"/>
       <use xlink:href="#DejaVuSerif-72" transform="translate(248.095703 0)"/>
       <use xlink:href="#DejaVuSerif-69" transform="translate(295.898438 0)"/>
       <use xlink:href="#DejaVuSerif-74" transform="translate(327.880859 0)"/>
       <use xlink:href="#DejaVuSerif-79" transform="translate(368.066406 0)"/>
      </g>
     </g>
    </g>
    <g id="xtick_4">
     <g id="line2d_4">
      <path d="M 360.356562 350.815156 
L 143.120985 133.579579 
" clip-path="url(#p2d7246a87d)" style="fill: none; stroke: #b0b0b0; stroke-opacity: 0.3; stroke-width: 0.8; stroke-linecap: square"/>
     </g>
     <g id="text_4">
      <!-- Side-Channel -->
      <g transform="translate(99.320709 120.840553) scale(0.1 -0.1)">
       <defs>
        <path id="DejaVuSerif-2d" d="M 281 1959 
L 1881 1959 
L 1881 1472 
L 281 1472 
L 281 1959 
z
" transform="scale(0.015625)"/>
        <path id="DejaVuSerif-43" d="M 4513 1234 
Q 4306 581 3820 245 
Q 3334 -91 2591 -91 
Q 2134 -91 1743 65 
Q 1353 222 1050 525 
Q 700 875 529 1320 
Q 359 1766 359 2328 
Q 359 3416 987 4083 
Q 1616 4750 2644 4750 
Q 3025 4750 3456 4650 
Q 3888 4550 4384 4347 
L 4384 3272 
L 4031 3272 
Q 3916 3859 3567 4137 
Q 3219 4416 2591 4416 
Q 1844 4416 1459 3886 
Q 1075 3356 1075 2328 
Q 1075 1303 1459 773 
Q 1844 244 2591 244 
Q 3113 244 3450 492 
Q 3788 741 3938 1234 
L 4513 1234 
z
" transform="scale(0.015625)"/>
       </defs>
       <use xlink:href="#DejaVuSerif-53"/>
       <use xlink:href="#DejaVuSerif-69" transform="translate(68.505859 0)"/>
       <use xlink:href="#DejaVuSerif-64" transform="translate(100.488281 0)"/>
       <use xlink:href="#DejaVuSerif-65" transform="translate(164.501953 0)"/>
       <use xlink:href="#DejaVuSerif-2d" transform="translate(223.681641 0)"/>
       <use xlink:href="#DejaVuSerif-43" transform="translate(257.470703 0)"/>
       <use xlink:href="#DejaVuSerif-68" transform="translate(333.984375 0)"/>
       <use xlink:href="#DejaVuSerif-61" transform="translate(398.388672 0)"/>
       <use xlink:href="#DejaVuSerif-6e" transform="translate(458.007812 0)"/>
       <use xlink:href="#DejaVuSerif-6e" transform="translate(522.412109 0)"/>
       <use xlink:href="#DejaVuSerif-65" transform="translate(586.816406 0)"/>
       <use xlink:href="#DejaVuSerif-6c" transform="translate(645.996094 0)"/>
      </g>
      <!-- Resistance -->
      <g transform="translate(105.79649 132.038365) scale(0.1 -0.1)">
       <defs>
        <path id="DejaVuSerif-52" d="M 3066 2316 
Q 3284 2256 3442 2114 
Q 3600 1972 3725 1716 
L 4403 331 
L 4972 331 
L 4972 0 
L 3872 0 
L 3144 1484 
Q 2934 1916 2759 2042 
Q 2584 2169 2278 2169 
L 1581 2169 
L 1581 331 
L 2241 331 
L 2241 0 
L 353 0 
L 353 331 
L 947 331 
L 947 4331 
L 353 4331 
L 353 4666 
L 2719 4666 
Q 3400 4666 3770 4341 
Q 4141 4016 4141 3419 
Q 4141 2938 3870 2661 
Q 3600 2384 3066 2316 
z
M 1581 2503 
L 2503 2503 
Q 2975 2503 3200 2726 
Q 3425 2950 3425 3419 
Q 3425 3888 3200 4109 
Q 2975 4331 2503 4331 
L 1581 4331 
L 1581 2503 
z
" transform="scale(0.015625)"/>
        <path id="DejaVuSerif-73" d="M 359 184 
L 359 959 
L 691 959 
Q 703 588 923 403 
Q 1144 219 1575 219 
Q 1963 219 2166 364 
Q 2369 509 2369 788 
Q 2369 1006 2220 1140 
Q 2072 1275 1594 1428 
L 1178 1569 
Q 750 1706 558 1912 
Q 366 2119 366 2438 
Q 366 2894 700 3153 
Q 1034 3413 1625 3413 
Q 1888 3413 2178 3344 
Q 2469 3275 2778 3144 
L 2778 2419 
L 2447 2419 
Q 2434 2741 2221 2922 
Q 2009 3103 1644 3103 
Q 1281 3103 1095 2975 
Q 909 2847 909 2591 
Q 909 2381 1050 2254 
Q 1191 2128 1613 1997 
L 2069 1856 
Q 2541 1709 2748 1489 
Q 2956 1269 2956 922 
Q 2956 450 2595 179 
Q 2234 -91 1600 -91 
Q 1278 -91 972 -22 
Q 666 47 359 184 
z
" transform="scale(0.015625)"/>
       </defs>
       <use xlink:href="#DejaVuSerif-52"/>
       <use xlink:href="#DejaVuSerif-65" transform="translate(75.292969 0)"/>
       <use xlink:href="#DejaVuSerif-73" transform="translate(134.472656 0)"/>
       <use xlink:href="#DejaVuSerif-69" transform="translate(185.791016 0)"/>
       <use xlink:href="#DejaVuSerif-73" transform="translate(217.773438 0)"/>
       <use xlink:href="#DejaVuSerif-74" transform="translate(269.091797 0)"/>
       <use xlink:href="#DejaVuSerif-61" transform="translate(309.277344 0)"/>
       <use xlink:href="#DejaVuSerif-6e" transform="translate(368.896484 0)"/>
       <use xlink:href="#DejaVuSerif-63" transform="translate(433.300781 0)"/>
       <use xlink:href="#DejaVuSerif-65" transform="translate(489.306641 0)"/>
      </g>
     </g>
    </g>
    <g id="xtick_5">
     <g id="line2d_5">
      <path d="M 360.356562 350.815156 
L 53.139062 350.815156 
" clip-path="url(#p2d7246a87d)" style="fill: none; stroke: #b0b0b0; stroke-opacity: 0.3; stroke-width: 0.8; stroke-linecap: square"/>
     </g>
     <g id="text_5">
      <!-- Hardware -->
      <g transform="translate(13.596875 347.975625) scale(0.1 -0.1)">
       <defs>
        <path id="DejaVuSerif-48" d="M 353 0 
L 353 331 
L 947 331 
L 947 4331 
L 353 4331 
L 353 4666 
L 2175 4666 
L 2175 4331 
L 1581 4331 
L 1581 2719 
L 4000 2719 
L 4000 4331 
L 3406 4331 
L 3406 4666 
L 5228 4666 
L 5228 4331 
L 4634 4331 
L 4634 331 
L 5228 331 
L 5228 0 
L 3406 0 
L 3406 331 
L 4000 331 
L 4000 2338 
L 1581 2338 
L 1581 331 
L 2175 331 
L 2175 0 
L 353 0 
z
" transform="scale(0.015625)"/>
        <path id="DejaVuSerif-77" d="M 3072 3322 
L 3922 728 
L 4672 2988 
L 4191 2988 
L 4191 3322 
L 5394 3322 
L 5394 2988 
L 5025 2988 
L 4038 0 
L 3559 0 
L 2741 2484 
L 1919 0 
L 1459 0 
L 475 2988 
L 103 2988 
L 103 3322 
L 1606 3322 
L 1606 2988 
L 1069 2988 
L 1813 728 
L 2669 3322 
L 3072 3322 
z
" transform="scale(0.015625)"/>
       </defs>
       <use xlink:href="#DejaVuSerif-48"/>
       <use xlink:href="#DejaVuSerif-61" transform="translate(87.207031 0)"/>
       <use xlink:href="#DejaVuSerif-72" transform="translate(146.826172 0)"/>
       <use xlink:href="#DejaVuSerif-64" transform="translate(194.628906 0)"/>
       <use xlink:href="#DejaVuSerif-77" transform="translate(258.642578 0)"/>
       <use xlink:href="#DejaVuSerif-61" transform="translate(344.238281 0)"/>
       <use xlink:href="#DejaVuSerif-72" transform="translate(403.857422 0)"/>
       <use xlink:href="#DejaVuSerif-65" transform="translate(451.660156 0)"/>
      </g>
      <!-- Acceleration -->
      <g transform="translate(7.2 359.173437) scale(0.1 -0.1)">
       <use xlink:href="#DejaVuSerif-41"/>
       <use xlink:href="#DejaVuSerif-63" transform="translate(72.216797 0)"/>
       <use xlink:href="#DejaVuSerif-63" transform="translate(128.222656 0)"/>
       <use xlink:href="#DejaVuSerif-65" transform="translate(184.228516 0)"/>
       <use xlink:href="#DejaVuSerif-6c" transform="translate(243.408203 0)"/>
       <use xlink:href="#DejaVuSerif-65" transform="translate(275.390625 0)"/>
       <use xlink:href="#DejaVuSerif-72" transform="translate(334.570312 0)"/>
       <use xlink:href="#DejaVuSerif-61" transform="translate(382.373047 0)"/>
       <use xlink:href="#DejaVuSerif-74" transform="translate(441.992188 0)"/>
       <use xlink:href="#DejaVuSerif-69" transform="translate(482.177734 0)"/>
       <use xlink:href="#DejaVuSerif-6f" transform="translate(514.160156 0)"/>
       <use xlink:href="#DejaVuSerif-6e" transform="translate(574.365234 0)"/>
      </g>
     </g>
    </g>
    <g id="xtick_6">
     <g id="line2d_6">
      <path d="M 360.356562 350.815156 
L 143.120985 568.050734 
" clip-path="url(#p2d7246a87d)" style="fill: none; stroke: #b0b0b0; stroke-opacity: 0.3; stroke-width: 0.8; stroke-linecap: square"/>
     </g>
     <g id="text_6">
      <!-- Network -->
      <g transform="translate(111.168365 575.039604) scale(0.1 -0.1)">
       <defs>
        <path id="DejaVuSerif-6b" d="M 1831 0 
L 219 0 
L 219 331 
L 738 331 
L 738 4531 
L 184 4531 
L 184 4863 
L 1313 4863 
L 1313 1697 
L 2713 2988 
L 2234 2988 
L 2234 3322 
L 3738 3322 
L 3738 2988 
L 3169 2988 
L 2181 2075 
L 3444 331 
L 3922 331 
L 3922 0 
L 2284 0 
L 2284 331 
L 2759 331 
L 1766 1697 
L 1313 1275 
L 1313 331 
L 1831 331 
L 1831 0 
z
" transform="scale(0.015625)"/>
       </defs>
       <use xlink:href="#DejaVuSerif-4e"/>
       <use xlink:href="#DejaVuSerif-65" transform="translate(87.5 0)"/>
       <use xlink:href="#DejaVuSerif-74" transform="translate(146.679688 0)"/>
       <use xlink:href="#DejaVuSerif-77" transform="translate(186.865234 0)"/>
       <use xlink:href="#DejaVuSerif-6f" transform="translate(272.460938 0)"/>
       <use xlink:href="#DejaVuSerif-72" transform="translate(332.666016 0)"/>
       <use xlink:href="#DejaVuSerif-6b" transform="translate(380.46875 0)"/>
      </g>
      <!-- Compatibility -->
      <g transform="translate(99.020709 586.237416) scale(0.1 -0.1)">
       <defs>
        <path id="DejaVuSerif-62" d="M 738 331 
L 738 4531 
L 184 4531 
L 184 4863 
L 1313 4863 
L 1313 2803 
Q 1481 3116 1742 3264 
Q 2003 3413 2388 3413 
Q 3000 3413 3387 2928 
Q 3775 2444 3775 1663 
Q 3775 881 3387 395 
Q 3000 -91 2388 -91 
Q 2003 -91 1742 57 
Q 1481 206 1313 519 
L 1313 0 
L 184 0 
L 184 331 
L 738 331 
z
M 1313 1497 
Q 1313 897 1542 583 
Q 1772 269 2209 269 
Q 2650 269 2876 622 
Q 3103 975 3103 1663 
Q 3103 2353 2876 2703 
Q 2650 3053 2209 3053 
Q 1772 3053 1542 2737 
Q 1313 2422 1313 1825 
L 1313 1497 
z
" transform="scale(0.015625)"/>
       </defs>
       <use xlink:href="#DejaVuSerif-43"/>
       <use xlink:href="#DejaVuSerif-6f" transform="translate(76.513672 0)"/>
       <use xlink:href="#DejaVuSerif-6d" transform="translate(136.71875 0)"/>
       <use xlink:href="#DejaVuSerif-70" transform="translate(231.542969 0)"/>
       <use xlink:href="#DejaVuSerif-61" transform="translate(295.556641 0)"/>
       <use xlink:href="#DejaVuSerif-74" transform="translate(355.175781 0)"/>
       <use xlink:href="#DejaVuSerif-69" transform="translate(395.361328 0)"/>
       <use xlink:href="#DejaVuSerif-62" transform="translate(427.34375 0)"/>
       <use xlink:href="#DejaVuSerif-69" transform="translate(491.357422 0)"/>
       <use xlink:href="#DejaVuSerif-6c" transform="translate(523.339844 0)"/>
       <use xlink:href="#DejaVuSerif-69" transform="translate(555.322266 0)"/>
       <use xlink:href="#DejaVuSerif-74" transform="translate(587.304688 0)"/>
       <use xlink:href="#DejaVuSerif-79" transform="translate(627.490234 0)"/>
      </g>
     </g>
    </g>
    <g id="xtick_7">
     <g id="line2d_7">
      <path d="M 360.356562 350.815156 
L 360.356562 658.032656 
" clip-path="url(#p2d7246a87d)" style="fill: none; stroke: #b0b0b0; stroke-opacity: 0.3; stroke-width: 0.8; stroke-linecap: square"/>
     </g>
     <g id="text_7">
      <!-- Legacy -->
      <g transform="translate(342.269844 668.979844) scale(0.1 -0.1)">
       <defs>
        <path id="DejaVuSerif-4c" d="M 353 0 
L 353 331 
L 947 331 
L 947 4331 
L 353 4331 
L 353 4666 
L 2175 4666 
L 2175 4331 
L 1581 4331 
L 1581 384 
L 3713 384 
L 3713 1166 
L 4097 1166 
L 4097 0 
L 353 0 
z
" transform="scale(0.015625)"/>
       </defs>
       <use xlink:href="#DejaVuSerif-4c"/>
       <use xlink:href="#DejaVuSerif-65" transform="translate(66.40625 0)"/>
       <use xlink:href="#DejaVuSerif-67" transform="translate(125.585938 0)"/>
       <use xlink:href="#DejaVuSerif-61" transform="translate(189.599609 0)"/>
       <use xlink:href="#DejaVuSerif-63" transform="translate(249.21875 0)"/>
       <use xlink:href="#DejaVuSerif-79" transform="translate(305.224609 0)"/>
      </g>
      <!-- Integration -->
      <g transform="translate(331.781562 680.319844) scale(0.1 -0.1)">
       <use xlink:href="#DejaVuSerif-49"/>
       <use xlink:href="#DejaVuSerif-6e" transform="translate(39.501953 0)"/>
       <use xlink:href="#DejaVuSerif-74" transform="translate(103.90625 0)"/>
       <use xlink:href="#DejaVuSerif-65" transform="translate(144.091797 0)"/>
       <use xlink:href="#DejaVuSerif-67" transform="translate(203.271484 0)"/>
       <use xlink:href="#DejaVuSerif-72" transform="translate(267.285156 0)"/>
       <use xlink:href="#DejaVuSerif-61" transform="translate(315.087891 0)"/>
       <use xlink:href="#DejaVuSerif-74" transform="translate(374.707031 0)"/>
       <use xlink:href="#DejaVuSerif-69" transform="translate(414.892578 0)"/>
       <use xlink:href="#DejaVuSerif-6f" transform="translate(446.875 0)"/>
       <use xlink:href="#DejaVuSerif-6e" transform="translate(507.080078 0)"/>
      </g>
     </g>
    </g>
    <g id="xtick_8">
     <g id="line2d_8">
      <path d="M 360.356562 350.815156 
L 577.59214 568.050734 
" clip-path="url(#p2d7246a87d)" style="fill: none; stroke: #b0b0b0; stroke-opacity: 0.3; stroke-width: 0.8; stroke-linecap: square"/>
     </g>
     <g id="text_8">
      <!-- Crypto-Agility -->
      <g transform="translate(552.097104 575.039604) scale(0.1 -0.1)">
       <use xlink:href="#DejaVuSerif-43"/>
       <use xlink:href="#DejaVuSerif-72" transform="translate(76.513672 0)"/>
       <use xlink:href="#DejaVuSerif-79" transform="translate(124.316406 0)"/>
       <use xlink:href="#DejaVuSerif-70" transform="translate(180.810547 0)"/>
       <use xlink:href="#DejaVuSerif-74" transform="translate(244.824219 0)"/>
       <use xlink:href="#DejaVuSerif-6f" transform="translate(285.009766 0)"/>
       <use xlink:href="#DejaVuSerif-2d" transform="translate(345.214844 0)"/>
       <use xlink:href="#DejaVuSerif-41" transform="translate(379.003906 0)"/>
       <use xlink:href="#DejaVuSerif-67" transform="translate(451.220703 0)"/>
       <use xlink:href="#DejaVuSerif-69" transform="translate(515.234375 0)"/>
       <use xlink:href="#DejaVuSerif-6c" transform="translate(547.216797 0)"/>
       <use xlink:href="#DejaVuSerif-69" transform="translate(579.199219 0)"/>
       <use xlink:href="#DejaVuSerif-74" transform="translate(611.181641 0)"/>
       <use xlink:href="#DejaVuSerif-79" transform="translate(651.367188 0)"/>
      </g>
      <!-- Support -->
      <g transform="translate(567.035385 586.379604) scale(0.1 -0.1)">
       <use xlink:href="#DejaVuSerif-53"/>
       <use xlink:href="#DejaVuSerif-75" transform="translate(68.505859 0)"/>
       <use xlink:href="#DejaVuSerif-70" transform="translate(132.910156 0)"/>
       <use xlink:href="#DejaVuSerif-70" transform="translate(196.923828 0)"/>
       <use xlink:href="#DejaVuSerif-6f" transform="translate(260.9375 0)"/>
       <use xlink:href="#DejaVuSerif-72" transform="translate(321.142578 0)"/>
       <use xlink:href="#DejaVuSerif-74" transform="translate(368.945312 0)"/>
      </g>
     </g>
    </g>
   </g>
   <g id="matplotlib.axis_2">
    <g id="ytick_1">
     <g id="line2d_9">
      <path d="M 421.800063 350.815156 
C 421.800063 342.74647 420.210707 334.756241 417.122955 327.301747 
C 414.035202 319.847252 409.509101 313.073464 403.803678 307.368041 
C 398.098255 301.662618 391.324466 297.136517 383.869972 294.048764 
C 376.415478 290.961012 368.425249 289.371656 360.356562 289.371656 
C 352.287876 289.371656 344.297647 290.961012 336.843153 294.048764 
C 329.388659 297.136517 322.61487 301.662618 316.909447 307.368041 
C 311.204024 313.073464 306.677923 319.847252 303.59017 327.301747 
C 300.502418 334.756241 298.913062 342.74647 298.913062 350.815156 
C 298.913062 358.883843 300.502418 366.874071 303.59017 374.328566 
C 306.677923 381.78306 311.204024 388.556849 316.909447 394.262272 
C 322.61487 399.967695 329.388659 404.493796 336.843153 407.581548 
C 344.297647 410.669301 352.287876 412.258656 360.356562 412.258656 
C 368.425249 412.258656 376.415478 410.669301 383.869972 407.581548 
C 391.324466 404.493796 398.098255 399.967695 403.803678 394.262272 
C 409.509101 388.556849 414.035202 381.78306 417.122955 374.328566 
C 420.210707 366.874071 421.800063 358.883843 421.800063 350.815156 
" clip-path="url(#p2d7246a87d)" style="fill: none; stroke: #b0b0b0; stroke-opacity: 0.3; stroke-width: 0.8; stroke-linecap: square"/>
     </g>
     <g id="text_9">
      <!-- 2 -->
      <g transform="translate(417.122955 325.014091) scale(0.11 -0.11)">
       <defs>
        <path id="DejaVuSerif-32" d="M 819 3553 
L 469 3553 
L 469 4384 
Q 803 4563 1142 4656 
Q 1481 4750 1806 4750 
Q 2534 4750 2956 4397 
Q 3378 4044 3378 3438 
Q 3378 2753 2422 1800 
Q 2347 1728 2309 1691 
L 1131 513 
L 3078 513 
L 3078 1088 
L 3444 1088 
L 3444 0 
L 434 0 
L 434 341 
L 1850 1753 
Q 2319 2222 2519 2614 
Q 2719 3006 2719 3438 
Q 2719 3909 2473 4175 
Q 2228 4441 1797 4441 
Q 1350 4441 1106 4219 
Q 863 3997 819 3553 
z
" transform="scale(0.015625)"/>
       </defs>
       <use xlink:href="#DejaVuSerif-32"/>
      </g>
     </g>
    </g>
    <g id="ytick_2">
     <g id="line2d_10">
      <path d="M 483.243562 350.815156 
C 483.243562 334.677783 480.064852 318.697326 473.889347 303.788337 
C 467.713841 288.879349 458.661639 275.331771 447.250794 263.920925 
C 435.839948 252.510079 422.29237 243.457877 407.383381 237.282372 
C 392.474393 231.106867 376.493935 227.928156 360.356562 227.928156 
C 344.21919 227.928156 328.238732 231.106867 313.329744 237.282372 
C 298.420755 243.457877 284.873177 252.510079 273.462331 263.920925 
C 262.051486 275.331771 252.999284 288.879349 246.823778 303.788337 
C 240.648273 318.697326 237.469562 334.677783 237.469562 350.815156 
C 237.469562 366.952529 240.648273 382.932987 246.823778 397.841975 
C 252.999284 412.750964 262.051486 426.298541 273.462331 437.709387 
C 284.873177 449.120233 298.420755 458.172435 313.329744 464.34794 
C 328.238732 470.523446 344.21919 473.702156 360.356562 473.702156 
C 376.493935 473.702156 392.474393 470.523446 407.383381 464.34794 
C 422.29237 458.172435 435.839948 449.120233 447.250794 437.709387 
C 458.661639 426.298541 467.713841 412.750964 473.889347 397.841975 
C 480.064852 382.932987 483.243562 366.952529 483.243562 350.815156 
" clip-path="url(#p2d7246a87d)" style="fill: none; stroke: #b0b0b0; stroke-opacity: 0.3; stroke-width: 0.8; stroke-linecap: square"/>
     </g>
     <g id="text_10">
      <!-- 4 -->
      <g transform="translate(473.889347 301.500681) scale(0.11 -0.11)">
       <defs>
        <path id="DejaVuSerif-34" d="M 2234 1581 
L 2234 4063 
L 641 1581 
L 2234 1581 
z
M 3609 0 
L 1484 0 
L 1484 331 
L 2234 331 
L 2234 1247 
L 197 1247 
L 197 1588 
L 2241 4750 
L 2859 4750 
L 2859 1581 
L 3750 1581 
L 3750 1247 
L 2859 1247 
L 2859 331 
L 3609 331 
L 3609 0 
z
" transform="scale(0.015625)"/>
       </defs>
       <use xlink:href="#DejaVuSerif-34"/>
      </g>
     </g>
    </g>
    <g id="ytick_3">
     <g id="line2d_11">
      <path d="M 544.687063 350.815156 
C 544.687063 326.609097 539.918997 302.638411 530.655739 280.274928 
C 521.392481 257.911445 507.814178 237.590079 490.697909 220.47381 
C 473.58164 203.357541 453.260274 189.779238 430.896791 180.51598 
C 408.533308 171.252722 384.562622 166.484656 360.356562 166.484656 
C 336.150503 166.484656 312.179817 171.252722 289.816334 180.51598 
C 267.452851 189.779238 247.131485 203.357541 230.015216 220.47381 
C 212.898947 237.590079 199.320644 257.911445 190.057386 280.274928 
C 180.794128 302.638411 176.026062 326.609097 176.026062 350.815156 
C 176.026062 375.021216 180.794128 398.991902 190.057386 421.355385 
C 199.320644 443.718868 212.898947 464.040234 230.015216 481.156503 
C 247.131485 498.272772 267.452851 511.851074 289.816334 521.114332 
C 312.179817 530.37759 336.150503 535.145656 360.356562 535.145656 
C 384.562622 535.145656 408.533308 530.37759 430.896791 521.114332 
C 453.260274 511.851074 473.58164 498.272772 490.697909 481.156503 
C 507.814178 464.040234 521.392481 443.718868 530.655739 421.355385 
C 539.918997 398.991902 544.687063 375.021216 544.687063 350.815156 
" clip-path="url(#p2d7246a87d)" style="fill: none; stroke: #b0b0b0; stroke-opacity: 0.3; stroke-width: 0.8; stroke-linecap: square"/>
     </g>
     <g id="text_11">
      <!-- 6 -->
      <g transform="translate(530.655739 277.987272) scale(0.11 -0.11)">
       <defs>
        <path id="DejaVuSerif-36" d="M 2094 219 
Q 2534 219 2771 542 
Q 3009 866 3009 1472 
Q 3009 2078 2771 2401 
Q 2534 2725 2094 2725 
Q 1647 2725 1412 2412 
Q 1178 2100 1178 1509 
Q 1178 888 1415 553 
Q 1653 219 2094 219 
z
M 1075 2569 
Q 1288 2803 1556 2918 
Q 1825 3034 2163 3034 
Q 2859 3034 3264 2615 
Q 3669 2197 3669 1472 
Q 3669 763 3233 336 
Q 2797 -91 2069 -91 
Q 1278 -91 853 498 
Q 428 1088 428 2181 
Q 428 3406 931 4078 
Q 1434 4750 2350 4750 
Q 2597 4750 2869 4703 
Q 3141 4656 3425 4563 
L 3425 3794 
L 3072 3794 
Q 3034 4109 2831 4275 
Q 2628 4441 2284 4441 
Q 1678 4441 1381 3981 
Q 1084 3522 1075 2569 
z
" transform="scale(0.015625)"/>
       </defs>
       <use xlink:href="#DejaVuSerif-36"/>
      </g>
     </g>
    </g>
    <g id="ytick_4">
     <g id="line2d_12">
      <path d="M 606.130562 350.815156 
C 606.130562 318.54041 599.773141 286.579496 587.422131 256.761518 
C 575.07112 226.943541 556.966716 199.848386 534.145025 177.026694 
C 511.323333 154.205002 484.228178 136.100599 454.4102 123.749588 
C 424.592223 111.398577 392.631308 105.041156 360.356562 105.041156 
C 328.081817 105.041156 296.120902 111.398577 266.302925 123.749588 
C 236.484947 136.100599 209.389792 154.205002 186.5681 177.026694 
C 163.746409 199.848386 145.642005 226.943541 133.290994 256.761518 
C 120.939984 286.579496 114.582562 318.54041 114.582562 350.815156 
C 114.582562 383.089902 120.939984 415.050817 133.290994 444.868794 
C 145.642005 474.686771 163.746409 501.781927 186.5681 524.603618 
C 209.389792 547.42531 236.484947 565.529714 266.302925 577.880724 
C 296.120902 590.231735 328.081817 596.589156 360.356562 596.589156 
C 392.631308 596.589156 424.592223 590.231735 454.4102 577.880724 
C 484.228178 565.529714 511.323333 547.42531 534.145025 524.603618 
C 556.966716 501.781927 575.07112 474.686771 587.422131 444.868794 
C 599.773141 415.050817 606.130562 383.089902 606.130562 350.815156 
" clip-path="url(#p2d7246a87d)" style="fill: none; stroke: #b0b0b0; stroke-opacity: 0.3; stroke-width: 0.8; stroke-linecap: square"/>
     </g>
     <g id="text_12">
      <!-- 8 -->
      <g transform="translate(587.422131 254.473862) scale(0.11 -0.11)">
       <defs>
        <path id="DejaVuSerif-38" d="M 2981 1275 
Q 2981 1775 2732 2051 
Q 2484 2328 2034 2328 
Q 1584 2328 1336 2051 
Q 1088 1775 1088 1275 
Q 1088 772 1336 495 
Q 1584 219 2034 219 
Q 2484 219 2732 495 
Q 2981 772 2981 1275 
z
M 2853 3541 
Q 2853 3966 2637 4203 
Q 2422 4441 2034 4441 
Q 1650 4441 1433 4203 
Q 1216 3966 1216 3541 
Q 1216 3113 1433 2875 
Q 1650 2638 2034 2638 
Q 2422 2638 2637 2875 
Q 2853 3113 2853 3541 
z
M 2516 2484 
Q 3047 2413 3344 2092 
Q 3641 1772 3641 1275 
Q 3641 619 3225 264 
Q 2809 -91 2034 -91 
Q 1263 -91 845 264 
Q 428 619 428 1275 
Q 428 1772 725 2092 
Q 1022 2413 1556 2484 
Q 1084 2569 832 2842 
Q 581 3116 581 3541 
Q 581 4103 968 4426 
Q 1356 4750 2034 4750 
Q 2713 4750 3100 4426 
Q 3488 4103 3488 3541 
Q 3488 3116 3236 2842 
Q 2984 2569 2516 2484 
z
" transform="scale(0.015625)"/>
       </defs>
       <use xlink:href="#DejaVuSerif-38"/>
      </g>
     </g>
    </g>
    <g id="ytick_5">
     <g id="line2d_13">
      <path d="M 667.574063 350.815156 
C 667.574063 310.471724 659.627286 270.52058 644.188523 233.248109 
C 628.74976 195.975637 606.119255 162.106693 577.59214 133.579579 
C 549.065025 105.052464 515.196081 82.421959 477.92361 66.983196 
C 440.651138 51.544433 400.699995 43.597656 360.356562 43.597656 
C 320.01313 43.597656 280.061987 51.544433 242.789515 66.983196 
C 205.517044 82.421959 171.6481 105.052464 143.120985 133.579579 
C 114.59387 162.106693 91.963365 195.975637 76.524602 233.248109 
C 61.085839 270.52058 53.139062 310.471724 53.139062 350.815156 
C 53.139062 391.158589 61.085839 431.109732 76.524602 468.382204 
C 91.963365 505.654675 114.59387 539.523619 143.120985 568.050734 
C 171.6481 596.577848 205.517044 619.208353 242.789515 634.647117 
C 280.061987 650.08588 320.01313 658.032656 360.356562 658.032656 
C 400.699995 658.032656 440.651138 650.08588 477.92361 634.647117 
C 515.196081 619.208353 549.065025 596.577848 577.59214 568.050734 
C 606.119255 539.523619 628.74976 505.654675 644.188523 468.382204 
C 659.627286 431.109732 667.574063 391.158589 667.574063 350.815156 
" clip-path="url(#p2d7246a87d)" style="fill: none; stroke: #b0b0b0; stroke-opacity: 0.3; stroke-width: 0.8; stroke-linecap: square"/>
     </g>
     <g id="text_13">
      <!-- 10 -->
      <g transform="translate(644.188523 230.960453) scale(0.11 -0.11)">
       <defs>
        <path id="DejaVuSerif-31" d="M 909 0 
L 909 331 
L 1722 331 
L 1722 4213 
L 781 3603 
L 781 4013 
L 1919 4750 
L 2350 4750 
L 2350 331 
L 3163 331 
L 3163 0 
L 909 0 
z
" transform="scale(0.015625)"/>
        <path id="DejaVuSerif-30" d="M 2034 219 
Q 2513 219 2750 744 
Q 2988 1269 2988 2328 
Q 2988 3391 2750 3916 
Q 2513 4441 2034 4441 
Q 1556 4441 1318 3916 
Q 1081 3391 1081 2328 
Q 1081 1269 1318 744 
Q 1556 219 2034 219 
z
M 2034 -91 
Q 1275 -91 848 546 
Q 422 1184 422 2328 
Q 422 3475 848 4112 
Q 1275 4750 2034 4750 
Q 2797 4750 3222 4112 
Q 3647 3475 3647 2328 
Q 3647 1184 3222 546 
Q 2797 -91 2034 -91 
z
" transform="scale(0.015625)"/>
       </defs>
       <use xlink:href="#DejaVuSerif-31"/>
       <use xlink:href="#DejaVuSerif-30" transform="translate(63.623047 0)"/>
      </g>
     </g>
    </g>
   </g>
   <g id="line2d_14">
    <path d="M 652.213188 350.815156 
L 577.59214 133.579579 
L 360.356562 135.762906 
L 230.015216 220.47381 
L 114.582562 350.815156 
L 251.738774 459.432945 
L 360.356562 565.867406 
L 490.697909 481.156503 
L 652.213188 350.815156 
" clip-path="url(#p2d7246a87d)" style="fill: none; stroke: #c8963e; stroke-width: 2; stroke-linecap: square"/>
   </g>
   <g id="patch_4">
    <path d="M 667.574063 350.815156 
C 667.574063 310.471724 659.627286 270.52058 644.188523 233.248109 
C 628.74976 195.975637 606.119255 162.106693 577.59214 133.579579 
C 549.065025 105.052464 515.196081 82.421959 477.92361 66.983196 
C 440.651138 51.544433 400.699995 43.597656 360.356562 43.597656 
C 320.01313 43.597656 280.061987 51.544433 242.789515 66.983196 
C 205.517044 82.421959 171.6481 105.052464 143.120985 133.579579 
C 114.59387 162.106693 91.963365 195.975637 76.524602 233.248109 
C 61.085839 270.52058 53.139062 310.471724 53.139062 350.815156 
C 53.139062 391.158589 61.085839 431.109732 76.524602 468.382204 
C 91.963365 505.654675 114.59387 539.523619 143.120985 568.050734 
C 171.6481 596.577848 205.517044 619.208353 242.789515 634.647117 
C 280.061987 650.08588 320.01313 658.032656 360.356562 658.032656 
C 400.699995 658.032656 440.651138 650.08588 477.92361 634.647117 
C 515.196081 619.208353 549.065025 596.577848 577.59214 568.050734 
C 606.119255 539.523619 628.74976 505.654675 644.188523 468.382204 
C 659.627286 431.109732 667.574063 391.158589 667.574063 350.815156 
" style="fill: none; stroke: #000000; stroke-width: 0.8; stroke-linejoin: miter; stroke-linecap: square"/>
   </g>
   <g id="text_14">
    <!-- 9.5 -->
    <g transform="translate(658.005781 350.815156) scale(0.11 -0.11)">
     <defs>
      <path id="DejaVuSerif-Bold-39" d="M 2181 4384 
Q 1859 4384 1723 4111 
Q 1588 3838 1588 3163 
Q 1588 2488 1723 2214 
Q 1859 1941 2181 1941 
Q 2503 1941 2640 2214 
Q 2778 2488 2778 3163 
Q 2778 3838 2640 4111 
Q 2503 4384 2181 4384 
z
M 2878 1900 
Q 2672 1734 2420 1651 
Q 2169 1569 1875 1569 
Q 1163 1569 755 1986 
Q 347 2403 347 3138 
Q 347 3913 803 4331 
Q 1259 4750 2106 4750 
Q 3063 4750 3556 4172 
Q 4050 3594 4050 2478 
Q 4050 1206 3503 557 
Q 2956 -91 1881 -91 
Q 1600 -91 1278 -44 
Q 956 3 588 97 
L 588 922 
L 966 922 
Q 1044 603 1261 439 
Q 1478 275 1825 275 
Q 2375 275 2625 658 
Q 2875 1041 2878 1900 
z
" transform="scale(0.015625)"/>
      <path id="DejaVuSerif-Bold-2e" d="M 519 506 
Q 519 750 694 925 
Q 869 1100 1113 1100 
Q 1359 1100 1534 925 
Q 1709 750 1709 506 
Q 1709 259 1534 84 
Q 1359 -91 1113 -91 
Q 869 -91 694 84 
Q 519 259 519 506 
z
" transform="scale(0.015625)"/>
      <path id="DejaVuSerif-Bold-35" d="M 3609 4666 
L 3609 3847 
L 1113 3847 
L 1113 2822 
Q 1319 2981 1572 3062 
Q 1825 3144 2106 3144 
Q 2969 3144 3469 2708 
Q 3969 2272 3969 1522 
Q 3969 759 3469 334 
Q 2969 -91 2069 -91 
Q 1688 -91 1311 -28 
Q 934 34 525 166 
L 525 1184 
L 900 1184 
Q 919 725 1139 500 
Q 1359 275 1791 275 
Q 2250 275 2472 583 
Q 2694 891 2694 1522 
Q 2694 2144 2476 2451 
Q 2259 2759 1819 2759 
Q 1581 2759 1395 2661 
Q 1209 2563 1050 2356 
L 738 2356 
L 738 4666 
L 3609 4666 
z
" transform="scale(0.015625)"/>
     </defs>
     <use xlink:href="#DejaVuSerif-Bold-39"/>
     <use xlink:href="#DejaVuSerif-Bold-2e" transform="translate(69.580078 0)"/>
     <use xlink:href="#DejaVuSerif-Bold-35" transform="translate(104.394531 0)"/>
    </g>
   </g>
   <g id="text_15">
    <!-- 10.0 -->
    <g transform="translate(575.058841 122.7178) scale(0.11 -0.11)">
     <defs>
      <path id="DejaVuSerif-Bold-31" d="M 878 0 
L 878 378 
L 1753 378 
L 1753 4153 
L 781 3578 
L 781 4044 
L 1953 4750 
L 2938 4750 
L 2938 378 
L 3816 378 
L 3816 0 
L 878 0 
z
" transform="scale(0.015625)"/>
      <path id="DejaVuSerif-Bold-30" d="M 2228 275 
Q 2603 275 2742 615 
Q 2881 956 2881 2328 
Q 2881 3691 2742 4037 
Q 2603 4384 2228 4384 
Q 1853 4384 1714 4043 
Q 1575 3703 1575 2328 
Q 1575 956 1714 615 
Q 1853 275 2228 275 
z
M 2228 -91 
Q 1294 -91 797 532 
Q 300 1156 300 2328 
Q 300 3500 797 4125 
Q 1294 4750 2228 4750 
Q 3159 4750 3656 4125 
Q 4153 3500 4153 2328 
Q 4153 1156 3656 532 
Q 3159 -91 2228 -91 
z
" transform="scale(0.015625)"/>
     </defs>
     <use xlink:href="#DejaVuSerif-Bold-31"/>
     <use xlink:href="#DejaVuSerif-Bold-30" transform="translate(69.580078 0)"/>
     <use xlink:href="#DejaVuSerif-Bold-2e" transform="translate(139.160156 0)"/>
     <use xlink:href="#DejaVuSerif-Bold-30" transform="translate(173.974609 0)"/>
    </g>
   </g>
   <g id="text_16">
    <!-- 7.0 -->
    <g transform="translate(350.788281 120.402031) scale(0.11 -0.11)">
     <defs>
      <path id="DejaVuSerif-Bold-37" d="M 3922 3872 
L 1997 0 
L 1363 0 
L 3238 3781 
L 934 3781 
L 934 3150 
L 506 3150 
L 506 4666 
L 3922 4666 
L 3922 3872 
z
" transform="scale(0.015625)"/>
     </defs>
     <use xlink:href="#DejaVuSerif-Bold-37"/>
     <use xlink:href="#DejaVuSerif-Bold-2e" transform="translate(69.580078 0)"/>
     <use xlink:href="#DejaVuSerif-Bold-30" transform="translate(104.394531 0)"/>
    </g>
   </g>
   <g id="text_17">
    <!-- 6.0 -->
    <g transform="translate(209.585156 209.612031) scale(0.11 -0.11)">
     <defs>
      <path id="DejaVuSerif-Bold-36" d="M 1575 2766 
Q 1778 2928 2029 3009 
Q 2281 3091 2578 3091 
Q 3294 3091 3701 2672 
Q 4109 2253 4109 1522 
Q 4109 750 3650 329 
Q 3191 -91 2344 -91 
Q 1388 -91 895 486 
Q 403 1063 403 2181 
Q 403 3453 950 4101 
Q 1497 4750 2572 4750 
Q 2853 4750 3175 4703 
Q 3497 4656 3866 4563 
L 3866 3738 
L 3488 3738 
Q 3409 4056 3192 4220 
Q 2975 4384 2631 4384 
Q 2075 4384 1826 4003 
Q 1578 3622 1575 2766 
z
M 2272 275 
Q 2594 275 2731 548 
Q 2869 822 2869 1497 
Q 2869 2172 2731 2445 
Q 2594 2719 2272 2719 
Q 1950 2719 1814 2445 
Q 1678 2172 1678 1497 
Q 1678 822 1814 548 
Q 1950 275 2272 275 
z
" transform="scale(0.015625)"/>
     </defs>
     <use xlink:href="#DejaVuSerif-Bold-36"/>
     <use xlink:href="#DejaVuSerif-Bold-2e" transform="translate(69.580078 0)"/>
     <use xlink:href="#DejaVuSerif-Bold-30" transform="translate(104.394531 0)"/>
    </g>
   </g>
   <g id="text_18">
    <!-- 8.0 -->
    <g transform="translate(89.653406 350.815156) scale(0.11 -0.11)">
     <defs>
      <path id="DejaVuSerif-Bold-38" d="M 2975 2484 
Q 3531 2394 3820 2075 
Q 4109 1756 4109 1241 
Q 4109 597 3623 253 
Q 3138 -91 2222 -91 
Q 1306 -91 818 253 
Q 331 597 331 1241 
Q 331 1756 622 2075 
Q 913 2394 1466 2484 
Q 975 2597 731 2861 
Q 488 3125 488 3531 
Q 488 4125 931 4437 
Q 1375 4750 2222 4750 
Q 3066 4750 3511 4437 
Q 3956 4125 3956 3531 
Q 3956 3125 3711 2861 
Q 3466 2597 2975 2484 
z
M 2747 3519 
Q 2747 4013 2628 4198 
Q 2509 4384 2222 4384 
Q 1931 4384 1814 4198 
Q 1697 4013 1697 3519 
Q 1697 3028 1814 2845 
Q 1931 2663 2222 2663 
Q 2513 2663 2630 2845 
Q 2747 3028 2747 3519 
z
M 2869 1294 
Q 2869 1866 2723 2081 
Q 2578 2297 2222 2297 
Q 1863 2297 1719 2081 
Q 1575 1866 1575 1294 
Q 1575 716 1720 495 
Q 1866 275 2222 275 
Q 2575 275 2722 495 
Q 2869 716 2869 1294 
z
" transform="scale(0.015625)"/>
     </defs>
     <use xlink:href="#DejaVuSerif-Bold-38"/>
     <use xlink:href="#DejaVuSerif-Bold-2e" transform="translate(69.580078 0)"/>
     <use xlink:href="#DejaVuSerif-Bold-30" transform="translate(104.394531 0)"/>
    </g>
   </g>
   <g id="text_19">
    <!-- 5.0 -->
    <g transform="translate(231.308714 470.294724) scale(0.11 -0.11)">
     <use xlink:href="#DejaVuSerif-Bold-35"/>
     <use xlink:href="#DejaVuSerif-Bold-2e" transform="translate(69.580078 0)"/>
     <use xlink:href="#DejaVuSerif-Bold-30" transform="translate(104.394531 0)"/>
    </g>
   </g>
   <g id="text_20">
    <!-- 7.0 -->
    <g transform="translate(350.788281 581.228281) scale(0.11 -0.11)">
     <use xlink:href="#DejaVuSerif-Bold-37"/>
     <use xlink:href="#DejaVuSerif-Bold-2e" transform="translate(69.580078 0)"/>
     <use xlink:href="#DejaVuSerif-Bold-30" transform="translate(104.394531 0)"/>
    </g>
   </g>
   <g id="text_21">
    <!-- 6.0 -->
    <g transform="translate(491.991407 492.018282) scale(0.11 -0.11)">
     <use xlink:href="#DejaVuSerif-Bold-36"/>
     <use xlink:href="#DejaVuSerif-Bold-2e" transform="translate(69.580078 0)"/>
     <use xlink:href="#DejaVuSerif-Bold-30" transform="translate(104.394531 0)"/>
    </g>
   </g>
   <g id="text_22">
    <!-- Gulf PQC Deployment Readiness Scorecard -->
    <g transform="translate(178.52375 18.597656) scale(0.15 -0.15)">
     <defs>
      <path id="DejaVuSerif-Bold-47" d="M 4403 3200 
Q 4263 3819 3934 4095 
Q 3606 4372 3009 4372 
Q 2284 4372 1945 3880 
Q 1606 3388 1606 2328 
Q 1606 1278 1931 783 
Q 2256 288 2944 288 
Q 3206 288 3431 347 
Q 3656 406 3841 525 
L 3841 1806 
L 3278 1806 
L 3278 2181 
L 4959 2181 
L 4959 391 
Q 4434 147 3911 28 
Q 3388 -91 2841 -91 
Q 1641 -91 955 556 
Q 269 1203 269 2328 
Q 269 3456 955 4103 
Q 1641 4750 2841 4750 
Q 3341 4750 3825 4650 
Q 4309 4550 4800 4347 
L 4800 3200 
L 4403 3200 
z
" transform="scale(0.015625)"/>
      <path id="DejaVuSerif-Bold-75" d="M 3963 3322 
L 3963 378 
L 4434 378 
L 4434 0 
L 2853 0 
L 2853 469 
Q 2656 172 2400 40 
Q 2144 -91 1753 -91 
Q 1194 -91 908 239 
Q 622 569 622 1209 
L 622 2944 
L 147 2944 
L 147 3322 
L 1728 3322 
L 1728 1381 
Q 1728 763 1831 595 
Q 1934 428 2209 428 
Q 2544 428 2698 675 
Q 2853 922 2853 1459 
L 2853 2944 
L 2450 2944 
L 2450 3322 
L 3963 3322 
z
" transform="scale(0.015625)"/>
      <path id="DejaVuSerif-Bold-6c" d="M 1797 378 
L 2272 378 
L 2272 0 
L 219 0 
L 219 378 
L 691 378 
L 691 4488 
L 219 4488 
L 219 4863 
L 1797 4863 
L 1797 378 
z
" transform="scale(0.015625)"/>
      <path id="DejaVuSerif-Bold-66" d="M 3097 4031 
L 2747 4031 
Q 2722 4275 2605 4394 
Q 2488 4513 2272 4513 
Q 2022 4513 1909 4333 
Q 1797 4153 1797 3750 
L 1797 3322 
L 2631 3322 
L 2631 2944 
L 1797 2944 
L 1797 378 
L 2438 378 
L 2438 0 
L 219 0 
L 219 378 
L 691 378 
L 691 2944 
L 197 2944 
L 197 3322 
L 691 3322 
L 691 3738 
Q 691 4291 1044 4577 
Q 1397 4863 2081 4863 
Q 2347 4863 2600 4833 
Q 2853 4803 3097 4744 
L 3097 4031 
z
" transform="scale(0.015625)"/>
      <path id="DejaVuSerif-Bold-20" transform="scale(0.015625)"/>
      <path id="DejaVuSerif-Bold-50" d="M 300 0 
L 300 378 
L 897 378 
L 897 4288 
L 300 4288 
L 300 4666 
L 2956 4666 
Q 3734 4666 4193 4295 
Q 4653 3925 4653 3303 
Q 4653 2678 4192 2304 
Q 3731 1931 2956 1931 
L 2100 1931 
L 2100 378 
L 2853 378 
L 2853 0 
L 300 0 
z
M 2100 2309 
L 2450 2309 
Q 2856 2309 3098 2579 
Q 3341 2850 3341 3303 
Q 3341 3753 3100 4020 
Q 2859 4288 2450 4288 
L 2100 4288 
L 2100 2309 
z
" transform="scale(0.015625)"/>
      <path id="DejaVuSerif-Bold-51" d="M 2766 -91 
Q 1584 -72 926 565 
Q 269 1203 269 2328 
Q 269 3459 939 4104 
Q 1609 4750 2784 4750 
Q 3963 4750 4631 4106 
Q 5300 3463 5300 2328 
Q 5300 1334 4786 715 
Q 4272 97 3322 -50 
Q 3488 -228 3725 -306 
Q 3963 -384 4341 -384 
L 4500 -384 
L 4500 -1153 
L 4409 -1153 
Q 3816 -1153 3419 -897 
Q 3022 -641 2766 -91 
z
M 2784 288 
Q 3381 288 3672 791 
Q 3963 1294 3963 2328 
Q 3963 3366 3672 3869 
Q 3381 4372 2784 4372 
Q 2191 4372 1898 3864 
Q 1606 3356 1606 2328 
Q 1606 1303 1898 795 
Q 2191 288 2784 288 
z
" transform="scale(0.015625)"/>
      <path id="DejaVuSerif-Bold-43" d="M 4769 1331 
Q 4584 609 4106 259 
Q 3628 -91 2822 -91 
Q 1641 -91 955 561 
Q 269 1213 269 2328 
Q 269 3447 955 4098 
Q 1641 4750 2822 4750 
Q 3238 4750 3688 4650 
Q 4138 4550 4641 4347 
L 4641 3200 
L 4244 3200 
Q 4122 3788 3800 4080 
Q 3478 4372 2950 4372 
Q 2269 4372 1937 3870 
Q 1606 3369 1606 2328 
Q 1606 1288 1937 788 
Q 2269 288 2956 288 
Q 3422 288 3717 547 
Q 4013 806 4147 1331 
L 4769 1331 
z
" transform="scale(0.015625)"/>
      <path id="DejaVuSerif-Bold-44" d="M 2100 378 
L 2534 378 
Q 3266 378 3605 847 
Q 3944 1316 3944 2338 
Q 3944 3353 3606 3820 
Q 3269 4288 2534 4288 
L 2100 4288 
L 2100 378 
z
M 300 0 
L 300 378 
L 897 378 
L 897 4288 
L 300 4288 
L 300 4666 
L 2694 4666 
Q 3950 4666 4615 4066 
Q 5281 3466 5281 2338 
Q 5281 1203 4614 601 
Q 3947 0 2694 0 
L 300 0 
z
" transform="scale(0.015625)"/>
      <path id="DejaVuSerif-Bold-65" d="M 2566 1875 
Q 2566 2531 2444 2795 
Q 2322 3059 2028 3059 
Q 1744 3059 1620 2800 
Q 1497 2541 1497 1931 
L 1497 1875 
L 2566 1875 
z
M 3781 1503 
L 1497 1503 
L 1497 1478 
Q 1497 834 1690 548 
Q 1884 263 2316 263 
Q 2675 263 2897 453 
Q 3119 644 3181 1006 
L 3700 1006 
Q 3566 441 3166 175 
Q 2766 -91 2047 -91 
Q 1184 -91 723 364 
Q 263 819 263 1663 
Q 263 2488 734 2950 
Q 1206 3413 2047 3413 
Q 2872 3413 3312 2927 
Q 3753 2441 3781 1503 
z
" transform="scale(0.015625)"/>
      <path id="DejaVuSerif-Bold-70" d="M 1728 1825 
L 1728 1497 
Q 1728 916 1876 656 
Q 2025 397 2356 397 
Q 2697 397 2836 672 
Q 2975 947 2975 1663 
Q 2975 2378 2836 2651 
Q 2697 2925 2356 2925 
Q 2025 2925 1876 2665 
Q 1728 2406 1728 1825 
z
M 622 2944 
L 147 2944 
L 147 3322 
L 1728 3322 
L 1728 2900 
Q 1869 3159 2106 3286 
Q 2344 3413 2694 3413 
Q 3403 3413 3811 2945 
Q 4219 2478 4219 1663 
Q 4219 847 3811 378 
Q 3403 -91 2694 -91 
Q 2344 -91 2106 36 
Q 1869 163 1728 422 
L 1728 -953 
L 2241 -953 
L 2241 -1331 
L 147 -1331 
L 147 -953 
L 622 -953 
L 622 2944 
z
" transform="scale(0.015625)"/>
      <path id="DejaVuSerif-Bold-6f" d="M 2138 263 
Q 2488 263 2630 563 
Q 2772 863 2772 1663 
Q 2772 2463 2631 2761 
Q 2491 3059 2138 3059 
Q 1784 3059 1640 2757 
Q 1497 2456 1497 1663 
Q 1497 869 1640 566 
Q 1784 263 2138 263 
z
M 2138 -91 
Q 1259 -91 761 376 
Q 263 844 263 1663 
Q 263 2484 761 2948 
Q 1259 3413 2138 3413 
Q 3019 3413 3516 2948 
Q 4013 2484 4013 1663 
Q 4013 844 3514 376 
Q 3016 -91 2138 -91 
z
" transform="scale(0.015625)"/>
      <path id="DejaVuSerif-Bold-79" d="M 1997 -750 
Q 1847 -1116 1634 -1269 
Q 1422 -1422 1063 -1422 
Q 909 -1422 721 -1387 
Q 534 -1353 313 -1288 
L 313 -594 
L 666 -597 
Q 675 -838 779 -953 
Q 884 -1069 1094 -1069 
Q 1297 -1069 1422 -958 
Q 1547 -847 1672 -538 
L 1722 -422 
L 275 2944 
L -84 2944 
L -84 3322 
L 1831 3322 
L 1831 2944 
L 1434 2944 
L 2278 978 
L 3066 2944 
L 2625 2944 
L 2625 3322 
L 3872 3322 
L 3872 2944 
L 3469 2944 
L 1997 -750 
z
" transform="scale(0.015625)"/>
      <path id="DejaVuSerif-Bold-6d" d="M 3884 2778 
Q 4116 3109 4384 3261 
Q 4653 3413 5013 3413 
Q 5584 3413 5867 3089 
Q 6150 2766 6150 2113 
L 6150 378 
L 6625 378 
L 6625 0 
L 4647 0 
L 4647 378 
L 5044 378 
L 5044 1947 
Q 5044 2569 4948 2731 
Q 4853 2894 4594 2894 
Q 4300 2894 4137 2667 
Q 3975 2441 3975 2022 
L 3975 378 
L 4372 378 
L 4372 0 
L 2472 0 
L 2472 378 
L 2869 378 
L 2869 1947 
Q 2869 2569 2772 2731 
Q 2675 2894 2419 2894 
Q 2122 2894 1959 2667 
Q 1797 2441 1797 2022 
L 1797 378 
L 2194 378 
L 2194 0 
L 219 0 
L 219 378 
L 691 378 
L 691 2944 
L 219 2944 
L 219 3322 
L 1797 3322 
L 1797 2853 
Q 1991 3144 2241 3278 
Q 2491 3413 2834 3413 
Q 3241 3413 3494 3258 
Q 3747 3103 3884 2778 
z
" transform="scale(0.015625)"/>
      <path id="DejaVuSerif-Bold-6e" d="M 219 0 
L 219 378 
L 691 378 
L 691 2944 
L 219 2944 
L 219 3322 
L 1797 3322 
L 1797 2853 
Q 1997 3150 2253 3281 
Q 2509 3413 2900 3413 
Q 3459 3413 3745 3083 
Q 4031 2753 4031 2113 
L 4031 378 
L 4506 378 
L 4506 0 
L 2522 0 
L 2522 378 
L 2925 378 
L 2925 2144 
Q 2925 2566 2817 2730 
Q 2709 2894 2444 2894 
Q 2109 2894 1953 2648 
Q 1797 2403 1797 1869 
L 1797 378 
L 2203 378 
L 2203 0 
L 219 0 
z
" transform="scale(0.015625)"/>
      <path id="DejaVuSerif-Bold-74" d="M 634 2944 
L 153 2944 
L 153 3322 
L 634 3322 
L 634 4353 
L 1741 4353 
L 1741 3322 
L 2663 3322 
L 2663 2944 
L 1741 2944 
L 1741 909 
Q 1741 475 1809 369 
Q 1878 263 2059 263 
Q 2259 263 2356 397 
Q 2453 531 2459 813 
L 2925 813 
Q 2897 313 2651 111 
Q 2406 -91 1806 -91 
Q 1122 -91 878 123 
Q 634 338 634 909 
L 634 2944 
z
" transform="scale(0.015625)"/>
      <path id="DejaVuSerif-Bold-52" d="M 3397 2278 
Q 3675 2238 3865 2094 
Q 4056 1950 4197 1678 
L 4878 378 
L 5356 378 
L 5356 0 
L 3822 0 
L 3078 1409 
Q 2863 1847 2711 1967 
Q 2559 2088 2291 2088 
L 2100 2088 
L 2100 378 
L 2700 378 
L 2700 0 
L 300 0 
L 300 378 
L 897 378 
L 897 4288 
L 300 4288 
L 300 4666 
L 2963 4666 
Q 3775 4666 4217 4339 
Q 4659 4013 4659 3413 
Q 4659 2925 4345 2642 
Q 4031 2359 3397 2278 
z
M 2100 2463 
L 2509 2463 
Q 2947 2463 3183 2700 
Q 3419 2938 3419 3378 
Q 3419 3819 3183 4053 
Q 2947 4288 2509 4288 
L 2100 4288 
L 2100 2463 
z
" transform="scale(0.015625)"/>
      <path id="DejaVuSerif-Bold-61" d="M 3525 2041 
L 3525 378 
L 4000 378 
L 4000 0 
L 2419 0 
L 2419 422 
Q 2200 159 1931 34 
Q 1663 -91 1319 -91 
Q 809 -91 536 182 
Q 263 456 263 966 
Q 263 1525 655 1803 
Q 1047 2081 1838 2081 
L 2419 2081 
L 2419 2278 
Q 2419 2681 2228 2873 
Q 2038 3066 1638 3066 
Q 1306 3066 1126 2930 
Q 947 2794 872 2484 
L 519 2484 
L 519 3200 
Q 816 3306 1134 3359 
Q 1453 3413 1806 3413 
Q 2697 3413 3111 3081 
Q 3525 2750 3525 2041 
z
M 2419 1044 
L 2419 1709 
L 2003 1709 
Q 1694 1709 1528 1540 
Q 1363 1372 1363 1056 
Q 1363 741 1483 584 
Q 1603 428 1850 428 
Q 2106 428 2262 597 
Q 2419 766 2419 1044 
z
" transform="scale(0.015625)"/>
      <path id="DejaVuSerif-Bold-64" d="M 2747 1497 
L 2747 1825 
Q 2747 2406 2597 2665 
Q 2447 2925 2119 2925 
Q 1775 2925 1636 2651 
Q 1497 2378 1497 1663 
Q 1497 947 1637 672 
Q 1778 397 2119 397 
Q 2447 397 2597 656 
Q 2747 916 2747 1497 
z
M 3853 378 
L 4325 378 
L 4325 0 
L 2747 0 
L 2747 422 
Q 2606 163 2367 36 
Q 2128 -91 1778 -91 
Q 1072 -91 667 378 
Q 263 847 263 1663 
Q 263 2481 667 2947 
Q 1072 3413 1778 3413 
Q 2128 3413 2367 3286 
Q 2606 3159 2747 2900 
L 2747 4488 
L 2272 4488 
L 2272 4863 
L 3853 4863 
L 3853 378 
z
" transform="scale(0.015625)"/>
      <path id="DejaVuSerif-Bold-69" d="M 588 4263 
Q 588 4516 763 4689 
Q 938 4863 1191 4863 
Q 1438 4863 1611 4689 
Q 1784 4516 1784 4263 
Q 1784 4016 1611 3842 
Q 1438 3669 1191 3669 
Q 938 3669 763 3841 
Q 588 4013 588 4263 
z
M 1797 378 
L 2272 378 
L 2272 0 
L 219 0 
L 219 378 
L 691 378 
L 691 2944 
L 219 2944 
L 219 3322 
L 1797 3322 
L 1797 378 
z
" transform="scale(0.015625)"/>
      <path id="DejaVuSerif-Bold-73" d="M 300 97 
L 300 1025 
L 653 1025 
Q 697 653 931 458 
Q 1166 263 1569 263 
Q 1906 263 2086 380 
Q 2266 497 2266 716 
Q 2266 916 2152 1025 
Q 2038 1134 1709 1216 
L 1253 1331 
Q 738 1459 506 1698 
Q 275 1938 275 2344 
Q 275 2884 650 3148 
Q 1025 3413 1806 3413 
Q 2100 3413 2433 3364 
Q 2766 3316 3169 3213 
L 3169 2375 
L 2816 2375 
Q 2788 2716 2573 2887 
Q 2359 3059 1959 3059 
Q 1622 3059 1448 2951 
Q 1275 2844 1275 2638 
Q 1275 2469 1375 2372 
Q 1475 2275 1734 2209 
L 2188 2094 
Q 2841 1928 3091 1684 
Q 3341 1441 3341 1006 
Q 3341 444 2939 176 
Q 2538 -91 1691 -91 
Q 1381 -91 1034 -44 
Q 688 3 300 97 
z
" transform="scale(0.015625)"/>
      <path id="DejaVuSerif-Bold-53" d="M 494 225 
L 494 1331 
L 891 1331 
Q 981 806 1318 547 
Q 1656 288 2253 288 
Q 2738 288 2991 472 
Q 3244 656 3244 1013 
Q 3244 1294 3072 1450 
Q 2900 1606 2363 1741 
L 1663 1913 
Q 978 2088 700 2398 
Q 422 2709 422 3284 
Q 422 3978 883 4364 
Q 1344 4750 2175 4750 
Q 2584 4750 3026 4681 
Q 3469 4613 3944 4475 
L 3944 3444 
L 3547 3444 
Q 3456 3925 3150 4148 
Q 2844 4372 2278 4372 
Q 1816 4372 1580 4211 
Q 1344 4050 1344 3731 
Q 1344 3441 1506 3289 
Q 1669 3138 2303 2975 
L 3003 2803 
Q 3653 2641 3945 2297 
Q 4238 1953 4238 1350 
Q 4238 644 3750 276 
Q 3263 -91 2316 -91 
Q 1859 -91 1409 -12 
Q 959 66 494 225 
z
" transform="scale(0.015625)"/>
      <path id="DejaVuSerif-Bold-63" d="M 3609 1038 
Q 3491 469 3123 189 
Q 2756 -91 2125 -91 
Q 1238 -91 750 368 
Q 263 828 263 1663 
Q 263 2488 744 2950 
Q 1225 3413 2081 3413 
Q 2428 3413 2781 3347 
Q 3134 3281 3500 3150 
L 3500 2228 
L 3150 2228 
Q 3100 2650 2903 2854 
Q 2706 3059 2350 3059 
Q 1888 3059 1692 2746 
Q 1497 2434 1497 1663 
Q 1497 909 1687 586 
Q 1878 263 2309 263 
Q 2644 263 2845 463 
Q 3047 663 3091 1038 
L 3609 1038 
z
" transform="scale(0.015625)"/>
      <path id="DejaVuSerif-Bold-72" d="M 3438 3359 
L 3438 2369 
L 3084 2369 
Q 3066 2634 2941 2764 
Q 2816 2894 2578 2894 
Q 2216 2894 2006 2575 
Q 1797 2256 1797 1691 
L 1797 378 
L 2400 378 
L 2400 0 
L 219 0 
L 219 378 
L 691 378 
L 691 2944 
L 184 2944 
L 184 3322 
L 1797 3322 
L 1797 2731 
Q 1959 3078 2226 3245 
Q 2494 3413 2881 3413 
Q 2978 3413 3117 3398 
Q 3256 3384 3438 3359 
z
" transform="scale(0.015625)"/>
     </defs>
     <use xlink:href="#DejaVuSerif-Bold-47"/>
     <use xlink:href="#DejaVuSerif-Bold-75" transform="translate(85.400391 0)"/>
     <use xlink:href="#DejaVuSerif-Bold-6c" transform="translate(158.105469 0)"/>
     <use xlink:href="#DejaVuSerif-Bold-66" transform="translate(196.09375 0)"/>
     <use xlink:href="#DejaVuSerif-Bold-20" transform="translate(239.111328 0)"/>
     <use xlink:href="#DejaVuSerif-Bold-50" transform="translate(273.925781 0)"/>
     <use xlink:href="#DejaVuSerif-Bold-51" transform="translate(349.121094 0)"/>
     <use xlink:href="#DejaVuSerif-Bold-43" transform="translate(436.230469 0)"/>
     <use xlink:href="#DejaVuSerif-Bold-20" transform="translate(515.820312 0)"/>
     <use xlink:href="#DejaVuSerif-Bold-44" transform="translate(550.634766 0)"/>
     <use xlink:href="#DejaVuSerif-Bold-65" transform="translate(637.353516 0)"/>
     <use xlink:href="#DejaVuSerif-Bold-70" transform="translate(700.976562 0)"/>
     <use xlink:href="#DejaVuSerif-Bold-6c" transform="translate(770.898438 0)"/>
     <use xlink:href="#DejaVuSerif-Bold-6f" transform="translate(808.886719 0)"/>
     <use xlink:href="#DejaVuSerif-Bold-79" transform="translate(875.585938 0)"/>
     <use xlink:href="#DejaVuSerif-Bold-6d" transform="translate(933.691406 0)"/>
     <use xlink:href="#DejaVuSerif-Bold-65" transform="translate(1039.501953 0)"/>
     <use xlink:href="#DejaVuSerif-Bold-6e" transform="translate(1103.125 0)"/>
     <use xlink:href="#DejaVuSerif-Bold-74" transform="translate(1175.830078 0)"/>
     <use xlink:href="#DejaVuSerif-Bold-20" transform="translate(1222.021484 0)"/>
     <use xlink:href="#DejaVuSerif-Bold-52" transform="translate(1256.835938 0)"/>
     <use xlink:href="#DejaVuSerif-Bold-65" transform="translate(1339.941406 0)"/>
     <use xlink:href="#DejaVuSerif-Bold-61" transform="translate(1403.564453 0)"/>
     <use xlink:href="#DejaVuSerif-Bold-64" transform="translate(1468.359375 0)"/>
     <use xlink:href="#DejaVuSerif-Bold-69" transform="translate(1538.28125 0)"/>
     <use xlink:href="#DejaVuSerif-Bold-6e" transform="translate(1576.269531 0)"/>
     <use xlink:href="#DejaVuSerif-Bold-65" transform="translate(1648.974609 0)"/>
     <use xlink:href="#DejaVuSerif-Bold-73" transform="translate(1712.597656 0)"/>
     <use xlink:href="#DejaVuSerif-Bold-73" transform="translate(1768.896484 0)"/>
     <use xlink:href="#DejaVuSerif-Bold-20" transform="translate(1825.195312 0)"/>
     <use xlink:href="#DejaVuSerif-Bold-53" transform="translate(1860.009766 0)"/>
     <use xlink:href="#DejaVuSerif-Bold-63" transform="translate(1932.226562 0)"/>
     <use xlink:href="#DejaVuSerif-Bold-6f" transform="translate(1993.115234 0)"/>
     <use xlink:href="#DejaVuSerif-Bold-72" transform="translate(2059.814453 0)"/>
     <use xlink:href="#DejaVuSerif-Bold-65" transform="translate(2112.5 0)"/>
     <use xlink:href="#DejaVuSerif-Bold-63" transform="translate(2176.123047 0)"/>
     <use xlink:href="#DejaVuSerif-Bold-61" transform="translate(2237.011719 0)"/>
     <use xlink:href="#DejaVuSerif-Bold-72" transform="translate(2301.806641 0)"/>
     <use xlink:href="#DejaVuSerif-Bold-64" transform="translate(2354.492188 0)"/>
    </g>
   </g>
  </g>
 </g>
 <defs>
  <clipPath id="p2d7246a87d">
   <path d="M 667.574063 350.815156 
C 667.574063 310.471724 659.627286 270.52058 644.188523 233.248109 
C 628.74976 195.975637 606.119255 162.106693 577.59214 133.579579 
C 549.065025 105.052464 515.196081 82.421959 477.92361 66.983196 
C 440.651138 51.544433 400.699995 43.597656 360.356562 43.597656 
C 320.01313 43.597656 280.061987 51.544433 242.789515 66.983196 
C 205.517044 82.421959 171.6481 105.052464 143.120985 133.579579 
C 114.59387 162.106693 91.963365 195.975637 76.524602 233.248109 
C 61.085839 270.52058 53.139062 310.471724 53.139062 350.815156 
C 53.139062 391.158589 61.085839 431.109732 76.524602 468.382204 
C 91.963365 505.654675 114.59387 539.523619 143.120985 568.050734 
C 171.6481 596.577848 205.517044 619.208353 242.789515 634.647117 
C 280.061987 650.08588 320.01313 658.032656 360.356562 658.032656 
C 400.699995 658.032656 440.651138 650.08588 477.92361 634.647117 
C 515.196081 619.208353 549.065025 596.577848 577.59214 568.050734 
C 606.119255 539.523619 628.74976 505.654675 644.188523 468.382204 
C 659.627286 431.109732 667.574063 391.158589 667.574063 350.815156 
M 360.356562 350.815156 
C 360.356562 350.815156 360.356562 350.815156 360.356562 350.815156 
C 360.356562 350.815156 360.356562 350.815156 360.356562 350.815156 
C 360.356562 350.815156 360.356562 350.815156 360.356562 350.815156 
C 360.356562 350.815156 360.356562 350.815156 360.356562 350.815156 
C 360.356562 350.815156 360.356562 350.815156 360.356562 350.815156 
C 360.356562 350.815156 360.356562 350.815156 360.356562 350.815156 
C 360.356562 350.815156 360.356562 350.815156 360.356562 350.815156 
C 360.356562 350.815156 360.356562 350.815156 360.356562 350.815156 
C 360.356562 350.815156 360.356562 350.815156 360.356562 350.815156 
C 360.356562 350.815156 360.356562 350.815156 360.356562 350.815156 
C 360.356562 350.815156 360.356562 350.815156 360.356562 350.815156 
C 360.356562 350.815156 360.356562 350.815156 360.356562 350.815156 
C 360.356562 350.815156 360.356562 350.815156 360.356562 350.815156 
C 360.356562 350.815156 360.356562 350.815156 360.356562 350.815156 
C 360.356562 350.815156 360.356562 350.815156 360.356562 350.815156 
C 360.356562 350.815156 360.356562 350.815156 360.356562 350.815156 
z
"/>
  </clipPath>
 </defs>
</svg>
