<?xml version="1.0" encoding="utf-8" standalone="no"?>
<!DOCTYPE svg PUBLIC "-//W3C//DTD SVG 1.1//EN"
  "http://www.w3.org/Graphics/SVG/1.1/DTD/svg11.dtd">
<svg xmlns:xlink="http://www.w3.org/1999/xlink" width="1142.4725pt" height="565.671781pt" viewBox="0 0 1142.4725 565.671781" xmlns="http://www.w3.org/2000/svg" version="1.1">
 <metadata>
  <rdf:RDF xmlns:dc="http://purl.org/dc/elements/1.1/" xmlns:cc="http://creativecommons.org/ns#" xmlns:rdf="http://www.w3.org/1999/02/22-rdf-syntax-ns#">
   <cc:Work>
    <dc:type rdf:resource="http://purl.org/dc/dcmitype/StillImage"/>
    <dc:date>2026-07-05T17:48:38.520865</dc:date>
    <dc:format>image/svg+xml</dc:format>
    <dc:creator>
     <cc:Agent>
      <dc:title>Matplotlib v3.10.0, https://matplotlib.org/</dc:title>
     </cc:Agent>
    </dc:creator>
   </cc:Work>
  </rdf:RDF>
 </metadata>
 <defs>
  <style type="text/css">*{stroke-linejoin: round; stroke-linecap: butt}</style>
 </defs>
 <g id="figure_1">
  <g id="patch_1">
   <path d="M 0 565.671781 
L 1142.4725 565.671781 
L 1142.4725 0 
L 0 0 
z
" style="fill: #ffffff"/>
  </g>
  <g id="axes_1">
   <g id="patch_2">
    <path d="M 36.8125 530.453656 
L 1135.2725 530.453656 
L 1135.2725 38.597656 
L 36.8125 38.597656 
z
" style="fill: #ffffff"/>
   </g>
   <g id="patch_3">
    <path d="M 86.7425 530.453656 
L 98.773825 530.453656 
L 98.773825 343.079942 
L 86.7425 343.079942 
z
" clip-path="url(#pc795f87097)" style="fill: #2e7d32; stroke: #ffffff; stroke-width: 0.5; stroke-linejoin: miter"/>
   </g>
   <g id="patch_4">
    <path d="M 187.003544 530.453656 
L 199.034869 530.453656 
L 199.034869 155.706228 
L 187.003544 155.706228 
z
" clip-path="url(#pc795f87097)" style="fill: #2e7d32; stroke: #ffffff; stroke-width: 0.5; stroke-linejoin: miter"/>
   </g>
   <g id="patch_5">
    <path d="M 287.264588 530.453656 
L 299.295914 530.453656 
L 299.295914 249.393085 
L 287.264588 249.393085 
z
" clip-path="url(#pc795f87097)" style="fill: #2e7d32; stroke: #ffffff; stroke-width: 0.5; stroke-linejoin: miter"/>
   </g>
   <g id="patch_6">
    <path d="M 387.525633 530.453656 
L 399.556958 530.453656 
L 399.556958 249.393085 
L 387.525633 249.393085 
z
" clip-path="url(#pc795f87097)" style="fill: #2e7d32; stroke: #ffffff; stroke-width: 0.5; stroke-linejoin: miter"/>
   </g>
   <g id="patch_7">
    <path d="M 487.786677 530.453656 
L 499.818002 530.453656 
L 499.818002 155.706228 
L 487.786677 155.706228 
z
" clip-path="url(#pc795f87097)" style="fill: #2e7d32; stroke: #ffffff; stroke-width: 0.5; stroke-linejoin: miter"/>
   </g>
   <g id="patch_8">
    <path d="M 588.047721 530.453656 
L 600.079046 530.453656 
L 600.079046 249.393085 
L 588.047721 249.393085 
z
" clip-path="url(#pc795f87097)" style="fill: #2e7d32; stroke: #ffffff; stroke-width: 0.5; stroke-linejoin: miter"/>
   </g>
   <g id="patch_9">
    <path d="M 688.308765 530.453656 
L 700.34009 530.453656 
L 700.34009 343.079942 
L 688.308765 343.079942 
z
" clip-path="url(#pc795f87097)" style="fill: #2e7d32; stroke: #ffffff; stroke-width: 0.5; stroke-linejoin: miter"/>
   </g>
   <g id="patch_10">
    <path d="M 788.569809 530.453656 
L 800.601135 530.453656 
L 800.601135 62.019371 
L 788.569809 62.019371 
z
" clip-path="url(#pc795f87097)" style="fill: #2e7d32; stroke: #ffffff; stroke-width: 0.5; stroke-linejoin: miter"/>
   </g>
   <g id="patch_11">
    <path d="M 888.830853 530.453656 
L 900.862179 530.453656 
L 900.862179 249.393085 
L 888.830853 249.393085 
z
" clip-path="url(#pc795f87097)" style="fill: #2e7d32; stroke: #ffffff; stroke-width: 0.5; stroke-linejoin: miter"/>
   </g>
   <g id="patch_12">
    <path d="M 989.091898 530.453656 
L 1001.123223 530.453656 
L 1001.123223 436.766799 
L 989.091898 436.766799 
z
" clip-path="url(#pc795f87097)" style="fill: #2e7d32; stroke: #ffffff; stroke-width: 0.5; stroke-linejoin: miter"/>
   </g>
   <g id="patch_13">
    <path d="M 98.773825 530.453656 
L 110.805151 530.453656 
L 110.805151 249.393085 
L 98.773825 249.393085 
z
" clip-path="url(#pc795f87097)" style="fill: #007a87; stroke: #ffffff; stroke-width: 0.5; stroke-linejoin: miter"/>
   </g>
   <g id="patch_14">
    <path d="M 199.034869 530.453656 
L 211.066195 530.453656 
L 211.066195 249.393085 
L 199.034869 249.393085 
z
" clip-path="url(#pc795f87097)" style="fill: #007a87; stroke: #ffffff; stroke-width: 0.5; stroke-linejoin: miter"/>
   </g>
   <g id="patch_15">
    <path d="M 299.295914 530.453656 
L 311.327239 530.453656 
L 311.327239 249.393085 
L 299.295914 249.393085 
z
" clip-path="url(#pc795f87097)" style="fill: #007a87; stroke: #ffffff; stroke-width: 0.5; stroke-linejoin: miter"/>
   </g>
   <g id="patch_16">
    <path d="M 399.556958 530.453656 
L 411.588283 530.453656 
L 411.588283 343.079942 
L 399.556958 343.079942 
z
" clip-path="url(#pc795f87097)" style="fill: #007a87; stroke: #ffffff; stroke-width: 0.5; stroke-linejoin: miter"/>
   </g>
   <g id="patch_17">
    <path d="M 499.818002 530.453656 
L 511.849327 530.453656 
L 511.849327 343.079942 
L 499.818002 343.079942 
z
" clip-path="url(#pc795f87097)" style="fill: #007a87; stroke: #ffffff; stroke-width: 0.5; stroke-linejoin: miter"/>
   </g>
   <g id="patch_18">
    <path d="M 600.079046 530.453656 
L 612.110371 530.453656 
L 612.110371 155.706228 
L 600.079046 155.706228 
z
" clip-path="url(#pc795f87097)" style="fill: #007a87; stroke: #ffffff; stroke-width: 0.5; stroke-linejoin: miter"/>
   </g>
   <g id="patch_19">
    <path d="M 700.34009 530.453656 
L 712.371416 530.453656 
L 712.371416 155.706228 
L 700.34009 155.706228 
z
" clip-path="url(#pc795f87097)" style="fill: #007a87; stroke: #ffffff; stroke-width: 0.5; stroke-linejoin: miter"/>
   </g>
   <g id="patch_20">
    <path d="M 800.601135 530.453656 
L 812.63246 530.453656 
L 812.63246 249.393085 
L 800.601135 249.393085 
z
" clip-path="url(#pc795f87097)" style="fill: #007a87; stroke: #ffffff; stroke-width: 0.5; stroke-linejoin: miter"/>
   </g>
   <g id="patch_21">
    <path d="M 900.862179 530.453656 
L 912.893504 530.453656 
L 912.893504 155.706228 
L 900.862179 155.706228 
z
" clip-path="url(#pc795f87097)" style="fill: #007a87; stroke: #ffffff; stroke-width: 0.5; stroke-linejoin: miter"/>
   </g>
   <g id="patch_22">
    <path d="M 1001.123223 530.453656 
L 1013.154548 530.453656 
L 1013.154548 249.393085 
L 1001.123223 249.393085 
z
" clip-path="url(#pc795f87097)" style="fill: #007a87; stroke: #ffffff; stroke-width: 0.5; stroke-linejoin: miter"/>
   </g>
   <g id="patch_23">
    <path d="M 110.805151 530.453656 
L 122.836476 530.453656 
L 122.836476 436.766799 
L 110.805151 436.766799 
z
" clip-path="url(#pc795f87097)" style="fill: #6a1b9a; stroke: #ffffff; stroke-width: 0.5; stroke-linejoin: miter"/>
   </g>
   <g id="patch_24">
    <path d="M 211.066195 530.453656 
L 223.09752 530.453656 
L 223.09752 436.766799 
L 211.066195 436.766799 
z
" clip-path="url(#pc795f87097)" style="fill: #6a1b9a; stroke: #ffffff; stroke-width: 0.5; stroke-linejoin: miter"/>
   </g>
   <g id="patch_25">
    <path d="M 311.327239 530.453656 
L 323.358564 530.453656 
L 323.358564 343.079942 
L 311.327239 343.079942 
z
" clip-path="url(#pc795f87097)" style="fill: #6a1b9a; stroke: #ffffff; stroke-width: 0.5; stroke-linejoin: miter"/>
   </g>
   <g id="patch_26">
    <path d="M 411.588283 530.453656 
L 423.619608 530.453656 
L 423.619608 343.079942 
L 411.588283 343.079942 
z
" clip-path="url(#pc795f87097)" style="fill: #6a1b9a; stroke: #ffffff; stroke-width: 0.5; stroke-linejoin: miter"/>
   </g>
   <g id="patch_27">
    <path d="M 511.849327 530.453656 
L 523.880653 530.453656 
L 523.880653 530.453656 
L 511.849327 530.453656 
z
" clip-path="url(#pc795f87097)" style="fill: #6a1b9a; stroke: #ffffff; stroke-width: 0.5; stroke-linejoin: miter"/>
   </g>
   <g id="patch_28">
    <path d="M 612.110371 530.453656 
L 624.141697 530.453656 
L 624.141697 530.453656 
L 612.110371 530.453656 
z
" clip-path="url(#pc795f87097)" style="fill: #6a1b9a; stroke: #ffffff; stroke-width: 0.5; stroke-linejoin: miter"/>
   </g>
   <g id="patch_29">
    <path d="M 712.371416 530.453656 
L 724.402741 530.453656 
L 724.402741 343.079942 
L 712.371416 343.079942 
z
" clip-path="url(#pc795f87097)" style="fill: #6a1b9a; stroke: #ffffff; stroke-width: 0.5; stroke-linejoin: miter"/>
   </g>
   <g id="patch_30">
    <path d="M 812.63246 530.453656 
L 824.663785 530.453656 
L 824.663785 530.453656 
L 812.63246 530.453656 
z
" clip-path="url(#pc795f87097)" style="fill: #6a1b9a; stroke: #ffffff; stroke-width: 0.5; stroke-linejoin: miter"/>
   </g>
   <g id="patch_31">
    <path d="M 912.893504 530.453656 
L 924.924829 530.453656 
L 924.924829 530.453656 
L 912.893504 530.453656 
z
" clip-path="url(#pc795f87097)" style="fill: #6a1b9a; stroke: #ffffff; stroke-width: 0.5; stroke-linejoin: miter"/>
   </g>
   <g id="patch_32">
    <path d="M 1013.154548 530.453656 
L 1025.185873 530.453656 
L 1025.185873 343.079942 
L 1013.154548 343.079942 
z
" clip-path="url(#pc795f87097)" style="fill: #6a1b9a; stroke: #ffffff; stroke-width: 0.5; stroke-linejoin: miter"/>
   </g>
   <g id="patch_33">
    <path d="M 122.836476 530.453656 
L 134.867801 530.453656 
L 134.867801 343.079942 
L 122.836476 343.079942 
z
" clip-path="url(#pc795f87097)" style="fill: #1b365d; stroke: #ffffff; stroke-width: 0.5; stroke-linejoin: miter"/>
   </g>
   <g id="patch_34">
    <path d="M 223.09752 530.453656 
L 235.128845 530.453656 
L 235.128845 436.766799 
L 223.09752 436.766799 
z
" clip-path="url(#pc795f87097)" style="fill: #1b365d; stroke: #ffffff; stroke-width: 0.5; stroke-linejoin: miter"/>
   </g>
   <g id="patch_35">
    <path d="M 323.358564 530.453656 
L 335.38989 530.453656 
L 335.38989 343.079942 
L 323.358564 343.079942 
z
" clip-path="url(#pc795f87097)" style="fill: #1b365d; stroke: #ffffff; stroke-width: 0.5; stroke-linejoin: miter"/>
   </g>
   <g id="patch_36">
    <path d="M 423.619608 530.453656 
L 435.650934 530.453656 
L 435.650934 343.079942 
L 423.619608 343.079942 
z
" clip-path="url(#pc795f87097)" style="fill: #1b365d; stroke: #ffffff; stroke-width: 0.5; stroke-linejoin: miter"/>
   </g>
   <g id="patch_37">
    <path d="M 523.880653 530.453656 
L 535.911978 530.453656 
L 535.911978 343.079942 
L 523.880653 343.079942 
z
" clip-path="url(#pc795f87097)" style="fill: #1b365d; stroke: #ffffff; stroke-width: 0.5; stroke-linejoin: miter"/>
   </g>
   <g id="patch_38">
    <path d="M 624.141697 530.453656 
L 636.173022 530.453656 
L 636.173022 436.766799 
L 624.141697 436.766799 
z
" clip-path="url(#pc795f87097)" style="fill: #1b365d; stroke: #ffffff; stroke-width: 0.5; stroke-linejoin: miter"/>
   </g>
   <g id="patch_39">
    <path d="M 724.402741 530.453656 
L 736.434066 530.453656 
L 736.434066 436.766799 
L 724.402741 436.766799 
z
" clip-path="url(#pc795f87097)" style="fill: #1b365d; stroke: #ffffff; stroke-width: 0.5; stroke-linejoin: miter"/>
   </g>
   <g id="patch_40">
    <path d="M 824.663785 530.453656 
L 836.69511 530.453656 
L 836.69511 436.766799 
L 824.663785 436.766799 
z
" clip-path="url(#pc795f87097)" style="fill: #1b365d; stroke: #ffffff; stroke-width: 0.5; stroke-linejoin: miter"/>
   </g>
   <g id="patch_41">
    <path d="M 924.924829 530.453656 
L 936.956155 530.453656 
L 936.956155 436.766799 
L 924.924829 436.766799 
z
" clip-path="url(#pc795f87097)" style="fill: #1b365d; stroke: #ffffff; stroke-width: 0.5; stroke-linejoin: miter"/>
   </g>
   <g id="patch_42">
    <path d="M 1025.185873 530.453656 
L 1037.217199 530.453656 
L 1037.217199 343.079942 
L 1025.185873 343.079942 
z
" clip-path="url(#pc795f87097)" style="fill: #1b365d; stroke: #ffffff; stroke-width: 0.5; stroke-linejoin: miter"/>
   </g>
   <g id="patch_43">
    <path d="M 134.867801 530.453656 
L 146.899127 530.453656 
L 146.899127 530.453656 
L 134.867801 530.453656 
z
" clip-path="url(#pc795f87097)" style="fill: #c8963e; stroke: #ffffff; stroke-width: 0.5; stroke-linejoin: miter"/>
   </g>
   <g id="patch_44">
    <path d="M 235.128845 530.453656 
L 247.160171 530.453656 
L 247.160171 436.766799 
L 235.128845 436.766799 
z
" clip-path="url(#pc795f87097)" style="fill: #c8963e; stroke: #ffffff; stroke-width: 0.5; stroke-linejoin: miter"/>
   </g>
   <g id="patch_45">
    <path d="M 335.38989 530.453656 
L 347.421215 530.453656 
L 347.421215 436.766799 
L 335.38989 436.766799 
z
" clip-path="url(#pc795f87097)" style="fill: #c8963e; stroke: #ffffff; stroke-width: 0.5; stroke-linejoin: miter"/>
   </g>
   <g id="patch_46">
    <path d="M 435.650934 530.453656 
L 447.682259 530.453656 
L 447.682259 436.766799 
L 435.650934 436.766799 
z
" clip-path="url(#pc795f87097)" style="fill: #c8963e; stroke: #ffffff; stroke-width: 0.5; stroke-linejoin: miter"/>
   </g>
   <g id="patch_47">
    <path d="M 535.911978 530.453656 
L 547.943303 530.453656 
L 547.943303 343.079942 
L 535.911978 343.079942 
z
" clip-path="url(#pc795f87097)" style="fill: #c8963e; stroke: #ffffff; stroke-width: 0.5; stroke-linejoin: miter"/>
   </g>
   <g id="patch_48">
    <path d="M 636.173022 530.453656 
L 648.204347 530.453656 
L 648.204347 530.453656 
L 636.173022 530.453656 
z
" clip-path="url(#pc795f87097)" style="fill: #c8963e; stroke: #ffffff; stroke-width: 0.5; stroke-linejoin: miter"/>
   </g>
   <g id="patch_49">
    <path d="M 736.434066 530.453656 
L 748.465392 530.453656 
L 748.465392 436.766799 
L 736.434066 436.766799 
z
" clip-path="url(#pc795f87097)" style="fill: #c8963e; stroke: #ffffff; stroke-width: 0.5; stroke-linejoin: miter"/>
   </g>
   <g id="patch_50">
    <path d="M 836.69511 530.453656 
L 848.726436 530.453656 
L 848.726436 530.453656 
L 836.69511 530.453656 
z
" clip-path="url(#pc795f87097)" style="fill: #c8963e; stroke: #ffffff; stroke-width: 0.5; stroke-linejoin: miter"/>
   </g>
   <g id="patch_51">
    <path d="M 936.956155 530.453656 
L 948.98748 530.453656 
L 948.98748 530.453656 
L 936.956155 530.453656 
z
" clip-path="url(#pc795f87097)" style="fill: #c8963e; stroke: #ffffff; stroke-width: 0.5; stroke-linejoin: miter"/>
   </g>
   <g id="patch_52">
    <path d="M 1037.217199 530.453656 
L 1049.248524 530.453656 
L 1049.248524 436.766799 
L 1037.217199 436.766799 
z
" clip-path="url(#pc795f87097)" style="fill: #c8963e; stroke: #ffffff; stroke-width: 0.5; stroke-linejoin: miter"/>
   </g>
   <g id="patch_53">
    <path d="M 146.899127 530.453656 
L 158.930452 530.453656 
L 158.930452 436.766799 
L 146.899127 436.766799 
z
" clip-path="url(#pc795f87097)" style="fill: #e67e22; stroke: #ffffff; stroke-width: 0.5; stroke-linejoin: miter"/>
   </g>
   <g id="patch_54">
    <path d="M 247.160171 530.453656 
L 259.191496 530.453656 
L 259.191496 530.453656 
L 247.160171 530.453656 
z
" clip-path="url(#pc795f87097)" style="fill: #e67e22; stroke: #ffffff; stroke-width: 0.5; stroke-linejoin: miter"/>
   </g>
   <g id="patch_55">
    <path d="M 347.421215 530.453656 
L 359.45254 530.453656 
L 359.45254 436.766799 
L 347.421215 436.766799 
z
" clip-path="url(#pc795f87097)" style="fill: #e67e22; stroke: #ffffff; stroke-width: 0.5; stroke-linejoin: miter"/>
   </g>
   <g id="patch_56">
    <path d="M 447.682259 530.453656 
L 459.713584 530.453656 
L 459.713584 530.453656 
L 447.682259 530.453656 
z
" clip-path="url(#pc795f87097)" style="fill: #e67e22; stroke: #ffffff; stroke-width: 0.5; stroke-linejoin: miter"/>
   </g>
   <g id="patch_57">
    <path d="M 547.943303 530.453656 
L 559.974629 530.453656 
L 559.974629 436.766799 
L 547.943303 436.766799 
z
" clip-path="url(#pc795f87097)" style="fill: #e67e22; stroke: #ffffff; stroke-width: 0.5; stroke-linejoin: miter"/>
   </g>
   <g id="patch_58">
    <path d="M 648.204347 530.453656 
L 660.235673 530.453656 
L 660.235673 530.453656 
L 648.204347 530.453656 
z
" clip-path="url(#pc795f87097)" style="fill: #e67e22; stroke: #ffffff; stroke-width: 0.5; stroke-linejoin: miter"/>
   </g>
   <g id="patch_59">
    <path d="M 748.465392 530.453656 
L 760.496717 530.453656 
L 760.496717 530.453656 
L 748.465392 530.453656 
z
" clip-path="url(#pc795f87097)" style="fill: #e67e22; stroke: #ffffff; stroke-width: 0.5; stroke-linejoin: miter"/>
   </g>
   <g id="patch_60">
    <path d="M 848.726436 530.453656 
L 860.757761 530.453656 
L 860.757761 436.766799 
L 848.726436 436.766799 
z
" clip-path="url(#pc795f87097)" style="fill: #e67e22; stroke: #ffffff; stroke-width: 0.5; stroke-linejoin: miter"/>
   </g>
   <g id="patch_61">
    <path d="M 948.98748 530.453656 
L 961.018805 530.453656 
L 961.018805 530.453656 
L 948.98748 530.453656 
z
" clip-path="url(#pc795f87097)" style="fill: #e67e22; stroke: #ffffff; stroke-width: 0.5; stroke-linejoin: miter"/>
   </g>
   <g id="patch_62">
    <path d="M 1049.248524 530.453656 
L 1061.279849 530.453656 
L 1061.279849 530.453656 
L 1049.248524 530.453656 
z
" clip-path="url(#pc795f87097)" style="fill: #e67e22; stroke: #ffffff; stroke-width: 0.5; stroke-linejoin: miter"/>
   </g>
   <g id="patch_63">
    <path d="M 158.930452 530.453656 
L 170.961777 530.453656 
L 170.961777 436.766799 
L 158.930452 436.766799 
z
" clip-path="url(#pc795f87097)" style="fill: #c41e3a; stroke: #ffffff; stroke-width: 0.5; stroke-linejoin: miter"/>
   </g>
   <g id="patch_64">
    <path d="M 259.191496 530.453656 
L 271.222821 530.453656 
L 271.222821 530.453656 
L 259.191496 530.453656 
z
" clip-path="url(#pc795f87097)" style="fill: #c41e3a; stroke: #ffffff; stroke-width: 0.5; stroke-linejoin: miter"/>
   </g>
   <g id="patch_65">
    <path d="M 359.45254 530.453656 
L 371.483865 530.453656 
L 371.483865 530.453656 
L 359.45254 530.453656 
z
" clip-path="url(#pc795f87097)" style="fill: #c41e3a; stroke: #ffffff; stroke-width: 0.5; stroke-linejoin: miter"/>
   </g>
   <g id="patch_66">
    <path d="M 459.713584 530.453656 
L 471.74491 530.453656 
L 471.74491 530.453656 
L 459.713584 530.453656 
z
" clip-path="url(#pc795f87097)" style="fill: #c41e3a; stroke: #ffffff; stroke-width: 0.5; stroke-linejoin: miter"/>
   </g>
   <g id="patch_67">
    <path d="M 559.974629 530.453656 
L 572.005954 530.453656 
L 572.005954 530.453656 
L 559.974629 530.453656 
z
" clip-path="url(#pc795f87097)" style="fill: #c41e3a; stroke: #ffffff; stroke-width: 0.5; stroke-linejoin: miter"/>
   </g>
   <g id="patch_68">
    <path d="M 660.235673 530.453656 
L 672.266998 530.453656 
L 672.266998 530.453656 
L 660.235673 530.453656 
z
" clip-path="url(#pc795f87097)" style="fill: #c41e3a; stroke: #ffffff; stroke-width: 0.5; stroke-linejoin: miter"/>
   </g>
   <g id="patch_69">
    <path d="M 760.496717 530.453656 
L 772.528042 530.453656 
L 772.528042 436.766799 
L 760.496717 436.766799 
z
" clip-path="url(#pc795f87097)" style="fill: #c41e3a; stroke: #ffffff; stroke-width: 0.5; stroke-linejoin: miter"/>
   </g>
   <g id="patch_70">
    <path d="M 860.757761 530.453656 
L 872.789086 530.453656 
L 872.789086 530.453656 
L 860.757761 530.453656 
z
" clip-path="url(#pc795f87097)" style="fill: #c41e3a; stroke: #ffffff; stroke-width: 0.5; stroke-linejoin: miter"/>
   </g>
   <g id="patch_71">
    <path d="M 961.018805 530.453656 
L 973.050131 530.453656 
L 973.050131 436.766799 
L 961.018805 436.766799 
z
" clip-path="url(#pc795f87097)" style="fill: #c41e3a; stroke: #ffffff; stroke-width: 0.5; stroke-linejoin: miter"/>
   </g>
   <g id="patch_72">
    <path d="M 1061.279849 530.453656 
L 1073.311175 530.453656 
L 1073.311175 530.453656 
L 1061.279849 530.453656 
z
" clip-path="url(#pc795f87097)" style="fill: #c41e3a; stroke: #ffffff; stroke-width: 0.5; stroke-linejoin: miter"/>
   </g>
   <g id="patch_73">
    <path d="M 170.961777 530.453656 
L 182.993102 530.453656 
L 182.993102 530.453656 
L 170.961777 530.453656 
z
" clip-path="url(#pc795f87097)" style="fill: #d4c5a9; stroke: #ffffff; stroke-width: 0.5; stroke-linejoin: miter"/>
   </g>
   <g id="patch_74">
    <path d="M 271.222821 530.453656 
L 283.254147 530.453656 
L 283.254147 436.766799 
L 271.222821 436.766799 
z
" clip-path="url(#pc795f87097)" style="fill: #d4c5a9; stroke: #ffffff; stroke-width: 0.5; stroke-linejoin: miter"/>
   </g>
   <g id="patch_75">
    <path d="M 371.483865 530.453656 
L 383.515191 530.453656 
L 383.515191 530.453656 
L 371.483865 530.453656 
z
" clip-path="url(#pc795f87097)" style="fill: #d4c5a9; stroke: #ffffff; stroke-width: 0.5; stroke-linejoin: miter"/>
   </g>
   <g id="patch_76">
    <path d="M 471.74491 530.453656 
L 483.776235 530.453656 
L 483.776235 530.453656 
L 471.74491 530.453656 
z
" clip-path="url(#pc795f87097)" style="fill: #d4c5a9; stroke: #ffffff; stroke-width: 0.5; stroke-linejoin: miter"/>
   </g>
   <g id="patch_77">
    <path d="M 572.005954 530.453656 
L 584.037279 530.453656 
L 584.037279 530.453656 
L 572.005954 530.453656 
z
" clip-path="url(#pc795f87097)" style="fill: #d4c5a9; stroke: #ffffff; stroke-width: 0.5; stroke-linejoin: miter"/>
   </g>
   <g id="patch_78">
    <path d="M 672.266998 530.453656 
L 684.298323 530.453656 
L 684.298323 530.453656 
L 672.266998 530.453656 
z
" clip-path="url(#pc795f87097)" style="fill: #d4c5a9; stroke: #ffffff; stroke-width: 0.5; stroke-linejoin: miter"/>
   </g>
   <g id="patch_79">
    <path d="M 772.528042 530.453656 
L 784.559367 530.453656 
L 784.559367 436.766799 
L 772.528042 436.766799 
z
" clip-path="url(#pc795f87097)" style="fill: #d4c5a9; stroke: #ffffff; stroke-width: 0.5; stroke-linejoin: miter"/>
   </g>
   <g id="patch_80">
    <path d="M 872.789086 530.453656 
L 884.820412 530.453656 
L 884.820412 436.766799 
L 872.789086 436.766799 
z
" clip-path="url(#pc795f87097)" style="fill: #d4c5a9; stroke: #ffffff; stroke-width: 0.5; stroke-linejoin: miter"/>
   </g>
   <g id="patch_81">
    <path d="M 973.050131 530.453656 
L 985.081456 530.453656 
L 985.081456 530.453656 
L 973.050131 530.453656 
z
" clip-path="url(#pc795f87097)" style="fill: #d4c5a9; stroke: #ffffff; stroke-width: 0.5; stroke-linejoin: miter"/>
   </g>
   <g id="patch_82">
    <path d="M 1073.311175 530.453656 
L 1085.3425 530.453656 
L 1085.3425 436.766799 
L 1073.311175 436.766799 
z
" clip-path="url(#pc795f87097)" style="fill: #d4c5a9; stroke: #ffffff; stroke-width: 0.5; stroke-linejoin: miter"/>
   </g>
   <g id="matplotlib.axis_1">
    <g id="xtick_1">
     <g id="line2d_1">
      <defs>
       <path id="m114dd5df36" d="M 0 0 
L 0 3.5 
" style="stroke: #000000; stroke-width: 0.8"/>
      </defs>
      <g>
       <use xlink:href="#m114dd5df36" x="134.867801" y="530.453656" style="stroke: #000000; stroke-width: 0.8"/>
      </g>
     </g>
     <g id="text_1">
      <!-- Energy -->
      <g transform="translate(116.622489 544.909906) scale(0.1 -0.1)">
       <defs>
        <path id="DejaVuSerif-45" d="M 353 0 
L 353 331 
L 947 331 
L 947 4331 
L 353 4331 
L 353 4666 
L 4109 4666 
L 4109 3628 
L 3725 3628 
L 3725 4281 
L 1581 4281 
L 1581 2719 
L 3109 2719 
L 3109 3303 
L 3494 3303 
L 3494 1753 
L 3109 1753 
L 3109 2338 
L 1581 2338 
L 1581 384 
L 3775 384 
L 3775 1038 
L 4159 1038 
L 4159 0 
L 353 0 
z
" transform="scale(0.015625)"/>
        <path id="DejaVuSerif-6e" d="M 263 0 
L 263 331 
L 781 331 
L 781 2988 
L 231 2988 
L 231 3322 
L 1356 3322 
L 1356 2731 
Q 1516 3069 1770 3241 
Q 2025 3413 2363 3413 
Q 2913 3413 3172 3097 
Q 3431 2781 3431 2113 
L 3431 331 
L 3944 331 
L 3944 0 
L 2356 0 
L 2356 331 
L 2853 331 
L 2853 1931 
Q 2853 2541 2703 2767 
Q 2553 2994 2175 2994 
Q 1775 2994 1565 2701 
Q 1356 2409 1356 1850 
L 1356 331 
L 1856 331 
L 1856 0 
L 263 0 
z
" transform="scale(0.015625)"/>
        <path id="DejaVuSerif-65" d="M 3469 1600 
L 991 1600 
L 991 1575 
Q 991 903 1244 561 
Q 1497 219 1991 219 
Q 2369 219 2611 417 
Q 2853 616 2950 1006 
L 3413 1006 
Q 3275 459 2904 184 
Q 2534 -91 1931 -91 
Q 1203 -91 761 389 
Q 319 869 319 1663 
Q 319 2450 753 2931 
Q 1188 3413 1894 3413 
Q 2647 3413 3050 2948 
Q 3453 2484 3469 1600 
z
M 2791 1931 
Q 2772 2513 2545 2808 
Q 2319 3103 1894 3103 
Q 1497 3103 1269 2806 
Q 1041 2509 991 1931 
L 2791 1931 
z
" transform="scale(0.015625)"/>
        <path id="DejaVuSerif-72" d="M 3059 3328 
L 3059 2497 
L 2728 2497 
Q 2713 2744 2591 2866 
Q 2469 2988 2234 2988 
Q 1809 2988 1582 2694 
Q 1356 2400 1356 1850 
L 1356 331 
L 2022 331 
L 2022 0 
L 263 0 
L 263 331 
L 781 331 
L 781 2994 
L 231 2994 
L 231 3322 
L 1356 3322 
L 1356 2731 
Q 1525 3078 1790 3245 
Q 2056 3413 2438 3413 
Q 2578 3413 2733 3391 
Q 2888 3369 3059 3328 
z
" transform="scale(0.015625)"/>
        <path id="DejaVuSerif-67" d="M 3359 2988 
L 3359 72 
Q 3359 -644 2965 -1033 
Q 2572 -1422 1844 -1422 
Q 1516 -1422 1216 -1362 
Q 916 -1303 641 -1184 
L 641 -488 
L 941 -488 
Q 997 -813 1206 -963 
Q 1416 -1113 1806 -1113 
Q 2313 -1113 2548 -827 
Q 2784 -541 2784 72 
L 2784 519 
Q 2616 206 2355 57 
Q 2094 -91 1709 -91 
Q 1097 -91 708 395 
Q 319 881 319 1663 
Q 319 2444 706 2928 
Q 1094 3413 1709 3413 
Q 2094 3413 2355 3264 
Q 2616 3116 2784 2803 
L 2784 3322 
L 3909 3322 
L 3909 2988 
L 3359 2988 
z
M 2784 1825 
Q 2784 2422 2554 2737 
Q 2325 3053 1888 3053 
Q 1444 3053 1217 2703 
Q 991 2353 991 1663 
Q 991 975 1217 622 
Q 1444 269 1888 269 
Q 2325 269 2554 583 
Q 2784 897 2784 1497 
L 2784 1825 
z
" transform="scale(0.015625)"/>
        <path id="DejaVuSerif-79" d="M 1381 -609 
L 1600 -56 
L 359 2988 
L -19 2988 
L -19 3322 
L 1509 3322 
L 1509 2988 
L 978 2988 
L 1913 703 
L 2847 2988 
L 2350 2988 
L 2350 3322 
L 3597 3322 
L 3597 2988 
L 3225 2988 
L 1703 -750 
Q 1547 -1138 1356 -1280 
Q 1166 -1422 819 -1422 
Q 672 -1422 517 -1397 
Q 363 -1372 206 -1325 
L 206 -691 
L 500 -691 
Q 519 -903 608 -995 
Q 697 -1088 884 -1088 
Q 1056 -1088 1161 -992 
Q 1266 -897 1381 -609 
z
" transform="scale(0.015625)"/>
       </defs>
       <use xlink:href="#DejaVuSerif-45"/>
       <use xlink:href="#DejaVuSerif-6e" transform="translate(72.998047 0)"/>
       <use xlink:href="#DejaVuSerif-65" transform="translate(137.402344 0)"/>
       <use xlink:href="#DejaVuSerif-72" transform="translate(196.582031 0)"/>
       <use xlink:href="#DejaVuSerif-67" transform="translate(244.384766 0)"/>
       <use xlink:href="#DejaVuSerif-79" transform="translate(308.398438 0)"/>
      </g>
     </g>
    </g>
    <g id="xtick_2">
     <g id="line2d_2">
      <g>
       <use xlink:href="#m114dd5df36" x="235.128845" y="530.453656" style="stroke: #000000; stroke-width: 0.8"/>
      </g>
     </g>
     <g id="text_2">
      <!-- Sovereign -->
      <g transform="translate(209.539783 544.909906) scale(0.1 -0.1)">
       <defs>
        <path id="DejaVuSerif-53" d="M 594 225 
L 594 1288 
L 953 1284 
Q 969 753 1261 498 
Q 1553 244 2150 244 
Q 2706 244 2998 464 
Q 3291 684 3291 1106 
Q 3291 1444 3114 1625 
Q 2938 1806 2369 1978 
L 1753 2163 
Q 1084 2366 811 2669 
Q 538 2972 538 3500 
Q 538 4094 959 4422 
Q 1381 4750 2144 4750 
Q 2469 4750 2856 4679 
Q 3244 4609 3681 4475 
L 3681 3481 
L 3328 3481 
Q 3275 3975 2998 4195 
Q 2722 4416 2156 4416 
Q 1663 4416 1405 4214 
Q 1147 4013 1147 3628 
Q 1147 3294 1340 3103 
Q 1534 2913 2163 2725 
L 2741 2553 
Q 3375 2363 3645 2067 
Q 3916 1772 3916 1275 
Q 3916 597 3481 253 
Q 3047 -91 2188 -91 
Q 1803 -91 1404 -12 
Q 1006 66 594 225 
z
" transform="scale(0.015625)"/>
        <path id="DejaVuSerif-6f" d="M 1925 219 
Q 2388 219 2623 584 
Q 2859 950 2859 1663 
Q 2859 2375 2623 2739 
Q 2388 3103 1925 3103 
Q 1463 3103 1227 2739 
Q 991 2375 991 1663 
Q 991 950 1228 584 
Q 1466 219 1925 219 
z
M 1925 -91 
Q 1200 -91 759 389 
Q 319 869 319 1663 
Q 319 2456 758 2934 
Q 1197 3413 1925 3413 
Q 2653 3413 3092 2934 
Q 3531 2456 3531 1663 
Q 3531 869 3092 389 
Q 2653 -91 1925 -91 
z
" transform="scale(0.015625)"/>
        <path id="DejaVuSerif-76" d="M 1581 0 
L 359 2988 
L -19 2988 
L -19 3322 
L 1509 3322 
L 1509 2988 
L 978 2988 
L 1913 703 
L 2847 2988 
L 2350 2988 
L 2350 3322 
L 3597 3322 
L 3597 2988 
L 3225 2988 
L 2003 0 
L 1581 0 
z
" transform="scale(0.015625)"/>
        <path id="DejaVuSerif-69" d="M 622 4353 
Q 622 4497 726 4603 
Q 831 4709 978 4709 
Q 1122 4709 1226 4603 
Q 1331 4497 1331 4353 
Q 1331 4206 1228 4103 
Q 1125 4000 978 4000 
Q 831 4000 726 4103 
Q 622 4206 622 4353 
z
M 1356 331 
L 1900 331 
L 1900 0 
L 231 0 
L 231 331 
L 781 331 
L 781 2988 
L 231 2988 
L 231 3322 
L 1356 3322 
L 1356 331 
z
" transform="scale(0.015625)"/>
       </defs>
       <use xlink:href="#DejaVuSerif-53"/>
       <use xlink:href="#DejaVuSerif-6f" transform="translate(68.505859 0)"/>
       <use xlink:href="#DejaVuSerif-76" transform="translate(128.710938 0)"/>
       <use xlink:href="#DejaVuSerif-65" transform="translate(185.205078 0)"/>
       <use xlink:href="#DejaVuSerif-72" transform="translate(244.384766 0)"/>
       <use xlink:href="#DejaVuSerif-65" transform="translate(292.1875 0)"/>
       <use xlink:href="#DejaVuSerif-69" transform="translate(351.367188 0)"/>
       <use xlink:href="#DejaVuSerif-67" transform="translate(383.349609 0)"/>
       <use xlink:href="#DejaVuSerif-6e" transform="translate(447.363281 0)"/>
      </g>
      <!-- Cloud -->
      <g transform="translate(220.272595 556.249906) scale(0.1 -0.1)">
       <defs>
        <path id="DejaVuSerif-43" d="M 4513 1234 
Q 4306 581 3820 245 
Q 3334 -91 2591 -91 
Q 2134 -91 1743 65 
Q 1353 222 1050 525 
Q 700 875 529 1320 
Q 359 1766 359 2328 
Q 359 3416 987 4083 
Q 1616 4750 2644 4750 
Q 3025 4750 3456 4650 
Q 3888 4550 4384 4347 
L 4384 3272 
L 4031 3272 
Q 3916 3859 3567 4137 
Q 3219 4416 2591 4416 
Q 1844 4416 1459 3886 
Q 1075 3356 1075 2328 
Q 1075 1303 1459 773 
Q 1844 244 2591 244 
Q 3113 244 3450 492 
Q 3788 741 3938 1234 
L 4513 1234 
z
" transform="scale(0.015625)"/>
        <path id="DejaVuSerif-6c" d="M 1313 331 
L 1856 331 
L 1856 0 
L 184 0 
L 184 331 
L 738 331 
L 738 4531 
L 184 4531 
L 184 4863 
L 1313 4863 
L 1313 331 
z
" transform="scale(0.015625)"/>
        <path id="DejaVuSerif-75" d="M 2266 3322 
L 3341 3322 
L 3341 331 
L 3884 331 
L 3884 0 
L 2766 0 
L 2766 588 
Q 2606 256 2353 82 
Q 2100 -91 1766 -91 
Q 1213 -91 952 223 
Q 691 538 691 1209 
L 691 2988 
L 172 2988 
L 172 3322 
L 1269 3322 
L 1269 1388 
Q 1269 781 1417 556 
Q 1566 331 1947 331 
Q 2347 331 2556 625 
Q 2766 919 2766 1478 
L 2766 2988 
L 2266 2988 
L 2266 3322 
z
" transform="scale(0.015625)"/>
        <path id="DejaVuSerif-64" d="M 3359 331 
L 3909 331 
L 3909 0 
L 2784 0 
L 2784 519 
Q 2616 206 2355 57 
Q 2094 -91 1709 -91 
Q 1097 -91 708 395 
Q 319 881 319 1663 
Q 319 2444 706 2928 
Q 1094 3413 1709 3413 
Q 2094 3413 2355 3264 
Q 2616 3116 2784 2803 
L 2784 4531 
L 2241 4531 
L 2241 4863 
L 3359 4863 
L 3359 331 
z
M 2784 1497 
L 2784 1825 
Q 2784 2422 2554 2737 
Q 2325 3053 1888 3053 
Q 1444 3053 1217 2703 
Q 991 2353 991 1663 
Q 991 975 1217 622 
Q 1444 269 1888 269 
Q 2325 269 2554 583 
Q 2784 897 2784 1497 
z
" transform="scale(0.015625)"/>
       </defs>
       <use xlink:href="#DejaVuSerif-43"/>
       <use xlink:href="#DejaVuSerif-6c" transform="translate(76.513672 0)"/>
       <use xlink:href="#DejaVuSerif-6f" transform="translate(108.496094 0)"/>
       <use xlink:href="#DejaVuSerif-75" transform="translate(168.701172 0)"/>
       <use xlink:href="#DejaVuSerif-64" transform="translate(233.105469 0)"/>
      </g>
     </g>
    </g>
    <g id="xtick_3">
     <g id="line2d_3">
      <g>
       <use xlink:href="#m114dd5df36" x="335.38989" y="530.453656" style="stroke: #000000; stroke-width: 0.8"/>
      </g>
     </g>
     <g id="text_3">
      <!-- Defense -->
      <g transform="translate(314.866452 545.052094) scale(0.1 -0.1)">
       <defs>
        <path id="DejaVuSerif-44" d="M 1581 331 
L 2163 331 
Q 3072 331 3558 850 
Q 4044 1369 4044 2338 
Q 4044 3306 3559 3818 
Q 3075 4331 2163 4331 
L 1581 4331 
L 1581 331 
z
M 353 0 
L 353 331 
L 947 331 
L 947 4331 
L 353 4331 
L 353 4666 
L 2209 4666 
Q 3416 4666 4089 4050 
Q 4763 3434 4763 2338 
Q 4763 1238 4088 619 
Q 3413 0 2209 0 
L 353 0 
z
" transform="scale(0.015625)"/>
        <path id="DejaVuSerif-66" d="M 2753 4078 
L 2450 4078 
Q 2447 4313 2317 4434 
Q 2188 4556 1941 4556 
Q 1619 4556 1487 4379 
Q 1356 4203 1356 3750 
L 1356 3322 
L 2284 3322 
L 2284 2988 
L 1356 2988 
L 1356 331 
L 2094 331 
L 2094 0 
L 231 0 
L 231 331 
L 781 331 
L 781 2988 
L 231 2988 
L 231 3322 
L 781 3322 
L 781 3738 
Q 781 4294 1070 4578 
Q 1359 4863 1919 4863 
Q 2128 4863 2337 4825 
Q 2547 4788 2753 4709 
L 2753 4078 
z
" transform="scale(0.015625)"/>
        <path id="DejaVuSerif-73" d="M 359 184 
L 359 959 
L 691 959 
Q 703 588 923 403 
Q 1144 219 1575 219 
Q 1963 219 2166 364 
Q 2369 509 2369 788 
Q 2369 1006 2220 1140 
Q 2072 1275 1594 1428 
L 1178 1569 
Q 750 1706 558 1912 
Q 366 2119 366 2438 
Q 366 2894 700 3153 
Q 1034 3413 1625 3413 
Q 1888 3413 2178 3344 
Q 2469 3275 2778 3144 
L 2778 2419 
L 2447 2419 
Q 2434 2741 2221 2922 
Q 2009 3103 1644 3103 
Q 1281 3103 1095 2975 
Q 909 2847 909 2591 
Q 909 2381 1050 2254 
Q 1191 2128 1613 1997 
L 2069 1856 
Q 2541 1709 2748 1489 
Q 2956 1269 2956 922 
Q 2956 450 2595 179 
Q 2234 -91 1600 -91 
Q 1278 -91 972 -22 
Q 666 47 359 184 
z
" transform="scale(0.015625)"/>
       </defs>
       <use xlink:href="#DejaVuSerif-44"/>
       <use xlink:href="#DejaVuSerif-65" transform="translate(80.175781 0)"/>
       <use xlink:href="#DejaVuSerif-66" transform="translate(139.355469 0)"/>
       <use xlink:href="#DejaVuSerif-65" transform="translate(176.367188 0)"/>
       <use xlink:href="#DejaVuSerif-6e" transform="translate(235.546875 0)"/>
       <use xlink:href="#DejaVuSerif-73" transform="translate(299.951172 0)"/>
       <use xlink:href="#DejaVuSerif-65" transform="translate(351.269531 0)"/>
      </g>
     </g>
    </g>
    <g id="xtick_4">
     <g id="line2d_4">
      <g>
       <use xlink:href="#m114dd5df36" x="435.650934" y="530.453656" style="stroke: #000000; stroke-width: 0.8"/>
      </g>
     </g>
     <g id="text_4">
      <!-- Finance -->
      <g transform="translate(415.400934 545.052094) scale(0.1 -0.1)">
       <defs>
        <path id="DejaVuSerif-46" d="M 353 0 
L 353 331 
L 947 331 
L 947 4331 
L 353 4331 
L 353 4666 
L 4172 4666 
L 4172 3628 
L 3788 3628 
L 3788 4281 
L 1581 4281 
L 1581 2719 
L 3175 2719 
L 3175 3303 
L 3559 3303 
L 3559 1753 
L 3175 1753 
L 3175 2338 
L 1581 2338 
L 1581 331 
L 2328 331 
L 2328 0 
L 353 0 
z
" transform="scale(0.015625)"/>
        <path id="DejaVuSerif-61" d="M 2547 1044 
L 2547 1747 
L 1806 1747 
Q 1378 1747 1168 1562 
Q 959 1378 959 997 
Q 959 650 1171 447 
Q 1384 244 1747 244 
Q 2106 244 2326 466 
Q 2547 688 2547 1044 
z
M 3122 2075 
L 3122 331 
L 3634 331 
L 3634 0 
L 2547 0 
L 2547 359 
Q 2356 128 2106 18 
Q 1856 -91 1522 -91 
Q 969 -91 644 203 
Q 319 497 319 997 
Q 319 1513 691 1797 
Q 1063 2081 1741 2081 
L 2547 2081 
L 2547 2309 
Q 2547 2688 2317 2895 
Q 2088 3103 1672 3103 
Q 1328 3103 1125 2947 
Q 922 2791 872 2484 
L 575 2484 
L 575 3156 
Q 875 3284 1158 3348 
Q 1441 3413 1709 3413 
Q 2400 3413 2761 3070 
Q 3122 2728 3122 2075 
z
" transform="scale(0.015625)"/>
        <path id="DejaVuSerif-63" d="M 3291 997 
Q 3169 466 2822 187 
Q 2475 -91 1925 -91 
Q 1200 -91 759 389 
Q 319 869 319 1663 
Q 319 2459 759 2936 
Q 1200 3413 1925 3413 
Q 2241 3413 2553 3339 
Q 2866 3266 3181 3116 
L 3181 2266 
L 2847 2266 
Q 2781 2703 2561 2903 
Q 2341 3103 1931 3103 
Q 1466 3103 1228 2742 
Q 991 2381 991 1663 
Q 991 944 1227 581 
Q 1463 219 1931 219 
Q 2303 219 2525 412 
Q 2747 606 2828 997 
L 3291 997 
z
" transform="scale(0.015625)"/>
       </defs>
       <use xlink:href="#DejaVuSerif-46"/>
       <use xlink:href="#DejaVuSerif-69" transform="translate(69.384766 0)"/>
       <use xlink:href="#DejaVuSerif-6e" transform="translate(101.367188 0)"/>
       <use xlink:href="#DejaVuSerif-61" transform="translate(165.771484 0)"/>
       <use xlink:href="#DejaVuSerif-6e" transform="translate(225.390625 0)"/>
       <use xlink:href="#DejaVuSerif-63" transform="translate(289.794922 0)"/>
       <use xlink:href="#DejaVuSerif-65" transform="translate(345.800781 0)"/>
      </g>
     </g>
    </g>
    <g id="xtick_5">
     <g id="line2d_5">
      <g>
       <use xlink:href="#m114dd5df36" x="535.911978" y="530.453656" style="stroke: #000000; stroke-width: 0.8"/>
      </g>
     </g>
     <g id="text_5">
      <!-- Telecom -->
      <g transform="translate(514.89479 545.052094) scale(0.1 -0.1)">
       <defs>
        <path id="DejaVuSerif-54" d="M 1222 0 
L 1222 331 
L 1819 331 
L 1819 4294 
L 447 4294 
L 447 3566 
L 63 3566 
L 63 4666 
L 4206 4666 
L 4206 3566 
L 3822 3566 
L 3822 4294 
L 2450 4294 
L 2450 331 
L 3047 331 
L 3047 0 
L 1222 0 
z
" transform="scale(0.015625)"/>
        <path id="DejaVuSerif-6d" d="M 3316 2675 
Q 3481 3041 3739 3227 
Q 3997 3413 4341 3413 
Q 4863 3413 5119 3089 
Q 5375 2766 5375 2113 
L 5375 331 
L 5894 331 
L 5894 0 
L 4300 0 
L 4300 331 
L 4800 331 
L 4800 2047 
Q 4800 2556 4650 2772 
Q 4500 2988 4153 2988 
Q 3769 2988 3567 2697 
Q 3366 2406 3366 1850 
L 3366 331 
L 3866 331 
L 3866 0 
L 2291 0 
L 2291 331 
L 2791 331 
L 2791 2069 
Q 2791 2566 2641 2777 
Q 2491 2988 2144 2988 
Q 1759 2988 1557 2697 
Q 1356 2406 1356 1850 
L 1356 331 
L 1856 331 
L 1856 0 
L 263 0 
L 263 331 
L 781 331 
L 781 2994 
L 231 2994 
L 231 3322 
L 1356 3322 
L 1356 2731 
Q 1516 3063 1762 3238 
Q 2009 3413 2322 3413 
Q 2709 3413 2968 3220 
Q 3228 3028 3316 2675 
z
" transform="scale(0.015625)"/>
       </defs>
       <use xlink:href="#DejaVuSerif-54"/>
       <use xlink:href="#DejaVuSerif-65" transform="translate(58.949219 0)"/>
       <use xlink:href="#DejaVuSerif-6c" transform="translate(118.128906 0)"/>
       <use xlink:href="#DejaVuSerif-65" transform="translate(150.111328 0)"/>
       <use xlink:href="#DejaVuSerif-63" transform="translate(209.291016 0)"/>
       <use xlink:href="#DejaVuSerif-6f" transform="translate(265.296875 0)"/>
       <use xlink:href="#DejaVuSerif-6d" transform="translate(325.501953 0)"/>
      </g>
     </g>
    </g>
    <g id="xtick_6">
     <g id="line2d_6">
      <g>
       <use xlink:href="#m114dd5df36" x="636.173022" y="530.453656" style="stroke: #000000; stroke-width: 0.8"/>
      </g>
     </g>
     <g id="text_6">
      <!-- Mega -->
      <g transform="translate(621.912085 544.909906) scale(0.1 -0.1)">
       <defs>
        <path id="DejaVuSerif-4d" d="M 353 0 
L 353 331 
L 947 331 
L 947 4331 
L 319 4331 
L 319 4666 
L 1678 4666 
L 3316 1344 
L 4953 4666 
L 6228 4666 
L 6228 4331 
L 5606 4331 
L 5606 331 
L 6203 331 
L 6203 0 
L 4378 0 
L 4378 331 
L 4972 331 
L 4972 3938 
L 3372 684 
L 2931 684 
L 1331 3938 
L 1331 331 
L 1925 331 
L 1925 0 
L 353 0 
z
" transform="scale(0.015625)"/>
       </defs>
       <use xlink:href="#DejaVuSerif-4d"/>
       <use xlink:href="#DejaVuSerif-65" transform="translate(102.392578 0)"/>
       <use xlink:href="#DejaVuSerif-67" transform="translate(161.572266 0)"/>
       <use xlink:href="#DejaVuSerif-61" transform="translate(225.585938 0)"/>
      </g>
      <!-- Projects -->
      <g transform="translate(615.524585 556.249906) scale(0.1 -0.1)">
       <defs>
        <path id="DejaVuSerif-50" d="M 1581 2375 
L 2406 2375 
Q 2872 2375 3115 2626 
Q 3359 2878 3359 3353 
Q 3359 3831 3115 4081 
Q 2872 4331 2406 4331 
L 1581 4331 
L 1581 2375 
z
M 353 0 
L 353 331 
L 947 331 
L 947 4331 
L 353 4331 
L 353 4666 
L 2559 4666 
Q 3259 4666 3668 4311 
Q 4078 3956 4078 3353 
Q 4078 2753 3668 2397 
Q 3259 2041 2559 2041 
L 1581 2041 
L 1581 331 
L 2303 331 
L 2303 0 
L 353 0 
z
" transform="scale(0.015625)"/>
        <path id="DejaVuSerif-6a" d="M 641 4353 
Q 641 4497 745 4603 
Q 850 4709 997 4709 
Q 1141 4709 1245 4603 
Q 1350 4497 1350 4353 
Q 1350 4206 1248 4103 
Q 1147 4000 997 4000 
Q 850 4000 745 4103 
Q 641 4206 641 4353 
z
M 781 2988 
L 238 2988 
L 238 3322 
L 1356 3322 
L 1356 -325 
Q 1356 -838 1051 -1130 
Q 747 -1422 213 -1422 
Q -13 -1422 -217 -1370 
Q -422 -1319 -616 -1216 
L -616 -531 
L -319 -531 
Q -297 -831 -164 -972 
Q -31 -1113 225 -1113 
Q 509 -1113 645 -920 
Q 781 -728 781 -325 
L 781 2988 
z
" transform="scale(0.015625)"/>
        <path id="DejaVuSerif-74" d="M 691 2988 
L 184 2988 
L 184 3322 
L 691 3322 
L 691 4353 
L 1269 4353 
L 1269 3322 
L 2350 3322 
L 2350 2988 
L 1269 2988 
L 1269 878 
Q 1269 456 1350 337 
Q 1431 219 1650 219 
Q 1875 219 1978 351 
Q 2081 484 2088 781 
L 2522 781 
Q 2497 328 2275 118 
Q 2053 -91 1600 -91 
Q 1103 -91 897 129 
Q 691 350 691 878 
L 691 2988 
z
" transform="scale(0.015625)"/>
       </defs>
       <use xlink:href="#DejaVuSerif-50"/>
       <use xlink:href="#DejaVuSerif-72" transform="translate(67.285156 0)"/>
       <use xlink:href="#DejaVuSerif-6f" transform="translate(115.087891 0)"/>
       <use xlink:href="#DejaVuSerif-6a" transform="translate(175.292969 0)"/>
       <use xlink:href="#DejaVuSerif-65" transform="translate(206.298828 0)"/>
       <use xlink:href="#DejaVuSerif-63" transform="translate(265.478516 0)"/>
       <use xlink:href="#DejaVuSerif-74" transform="translate(321.484375 0)"/>
       <use xlink:href="#DejaVuSerif-73" transform="translate(361.669922 0)"/>
      </g>
     </g>
    </g>
    <g id="xtick_7">
     <g id="line2d_7">
      <g>
       <use xlink:href="#m114dd5df36" x="736.434066" y="530.453656" style="stroke: #000000; stroke-width: 0.8"/>
      </g>
     </g>
     <g id="text_7">
      <!-- Healthcare -->
      <g transform="translate(708.17391 545.052094) scale(0.1 -0.1)">
       <defs>
        <path id="DejaVuSerif-48" d="M 353 0 
L 353 331 
L 947 331 
L 947 4331 
L 353 4331 
L 353 4666 
L 2175 4666 
L 2175 4331 
L 1581 4331 
L 1581 2719 
L 4000 2719 
L 4000 4331 
L 3406 4331 
L 3406 4666 
L 5228 4666 
L 5228 4331 
L 4634 4331 
L 4634 331 
L 5228 331 
L 5228 0 
L 3406 0 
L 3406 331 
L 4000 331 
L 4000 2338 
L 1581 2338 
L 1581 331 
L 2175 331 
L 2175 0 
L 353 0 
z
" transform="scale(0.015625)"/>
        <path id="DejaVuSerif-68" d="M 263 0 
L 263 331 
L 781 331 
L 781 4531 
L 231 4531 
L 231 4863 
L 1356 4863 
L 1356 2731 
Q 1516 3069 1770 3241 
Q 2025 3413 2363 3413 
Q 2913 3413 3172 3097 
Q 3431 2781 3431 2113 
L 3431 331 
L 3944 331 
L 3944 0 
L 2356 0 
L 2356 331 
L 2853 331 
L 2853 1931 
Q 2853 2541 2704 2764 
Q 2556 2988 2175 2988 
Q 1775 2988 1565 2697 
Q 1356 2406 1356 1850 
L 1356 331 
L 1856 331 
L 1856 0 
L 263 0 
z
" transform="scale(0.015625)"/>
       </defs>
       <use xlink:href="#DejaVuSerif-48"/>
       <use xlink:href="#DejaVuSerif-65" transform="translate(87.207031 0)"/>
       <use xlink:href="#DejaVuSerif-61" transform="translate(146.386719 0)"/>
       <use xlink:href="#DejaVuSerif-6c" transform="translate(206.005859 0)"/>
       <use xlink:href="#DejaVuSerif-74" transform="translate(237.988281 0)"/>
       <use xlink:href="#DejaVuSerif-68" transform="translate(278.173828 0)"/>
       <use xlink:href="#DejaVuSerif-63" transform="translate(342.578125 0)"/>
       <use xlink:href="#DejaVuSerif-61" transform="translate(398.583984 0)"/>
       <use xlink:href="#DejaVuSerif-72" transform="translate(458.203125 0)"/>
       <use xlink:href="#DejaVuSerif-65" transform="translate(506.005859 0)"/>
      </g>
     </g>
    </g>
    <g id="xtick_8">
     <g id="line2d_8">
      <g>
       <use xlink:href="#m114dd5df36" x="836.69511" y="530.453656" style="stroke: #000000; stroke-width: 0.8"/>
      </g>
     </g>
     <g id="text_8">
      <!-- Water -->
      <g transform="translate(821.653704 545.052094) scale(0.1 -0.1)">
       <defs>
        <path id="DejaVuSerif-57" d="M 4878 0 
L 4366 0 
L 3297 3794 
L 2228 0 
L 1716 0 
L 494 4331 
L 31 4331 
L 31 4666 
L 1734 4666 
L 1734 4331 
L 1153 4331 
L 2125 884 
L 3188 4666 
L 3694 4666 
L 4775 844 
L 5753 4331 
L 5216 4331 
L 5216 4666 
L 6559 4666 
L 6559 4331 
L 6100 4331 
L 4878 0 
z
" transform="scale(0.015625)"/>
       </defs>
       <use xlink:href="#DejaVuSerif-57"/>
       <use xlink:href="#DejaVuSerif-61" transform="translate(94.033203 0)"/>
       <use xlink:href="#DejaVuSerif-74" transform="translate(153.652344 0)"/>
       <use xlink:href="#DejaVuSerif-65" transform="translate(193.837891 0)"/>
       <use xlink:href="#DejaVuSerif-72" transform="translate(253.017578 0)"/>
      </g>
     </g>
    </g>
    <g id="xtick_9">
     <g id="line2d_9">
      <g>
       <use xlink:href="#m114dd5df36" x="936.956155" y="530.453656" style="stroke: #000000; stroke-width: 0.8"/>
      </g>
     </g>
     <g id="text_9">
      <!-- Maritime -->
      <g transform="translate(913.556936 545.052094) scale(0.1 -0.1)">
       <use xlink:href="#DejaVuSerif-4d"/>
       <use xlink:href="#DejaVuSerif-61" transform="translate(102.392578 0)"/>
       <use xlink:href="#DejaVuSerif-72" transform="translate(162.011719 0)"/>
       <use xlink:href="#DejaVuSerif-69" transform="translate(209.814453 0)"/>
       <use xlink:href="#DejaVuSerif-74" transform="translate(241.796875 0)"/>
       <use xlink:href="#DejaVuSerif-69" transform="translate(281.982422 0)"/>
       <use xlink:href="#DejaVuSerif-6d" transform="translate(313.964844 0)"/>
       <use xlink:href="#DejaVuSerif-65" transform="translate(408.789062 0)"/>
      </g>
     </g>
    </g>
    <g id="xtick_10">
     <g id="line2d_10">
      <g>
       <use xlink:href="#m114dd5df36" x="1037.217199" y="530.453656" style="stroke: #000000; stroke-width: 0.8"/>
      </g>
     </g>
     <g id="text_10">
      <!-- Space -->
      <g transform="translate(1021.850793 545.052094) scale(0.1 -0.1)">
       <defs>
        <path id="DejaVuSerif-70" d="M 1313 1825 
L 1313 1497 
Q 1313 897 1542 583 
Q 1772 269 2209 269 
Q 2650 269 2876 622 
Q 3103 975 3103 1663 
Q 3103 2353 2876 2703 
Q 2650 3053 2209 3053 
Q 1772 3053 1542 2737 
Q 1313 2422 1313 1825 
z
M 738 2988 
L 184 2988 
L 184 3322 
L 1313 3322 
L 1313 2803 
Q 1481 3116 1742 3264 
Q 2003 3413 2388 3413 
Q 3000 3413 3387 2928 
Q 3775 2444 3775 1663 
Q 3775 881 3387 395 
Q 3000 -91 2388 -91 
Q 2003 -91 1742 57 
Q 1481 206 1313 519 
L 1313 -997 
L 1856 -997 
L 1856 -1331 
L 184 -1331 
L 184 -997 
L 738 -997 
L 738 2988 
z
" transform="scale(0.015625)"/>
       </defs>
       <use xlink:href="#DejaVuSerif-53"/>
       <use xlink:href="#DejaVuSerif-70" transform="translate(68.505859 0)"/>
       <use xlink:href="#DejaVuSerif-61" transform="translate(132.519531 0)"/>
       <use xlink:href="#DejaVuSerif-63" transform="translate(192.138672 0)"/>
       <use xlink:href="#DejaVuSerif-65" transform="translate(248.144531 0)"/>
      </g>
     </g>
    </g>
   </g>
   <g id="matplotlib.axis_2">
    <g id="ytick_1">
     <g id="line2d_11">
      <path d="M 36.8125 530.453656 
L 1135.2725 530.453656 
" clip-path="url(#pc795f87097)" style="fill: none; stroke: #b0b0b0; stroke-opacity: 0.2; stroke-width: 0.8; stroke-linecap: square"/>
     </g>
     <g id="line2d_12">
      <defs>
       <path id="m8247889001" d="M 0 0 
L -3.5 0 
" style="stroke: #000000; stroke-width: 0.8"/>
      </defs>
      <g>
       <use xlink:href="#m8247889001" x="36.8125" y="530.453656" style="stroke: #000000; stroke-width: 0.8"/>
      </g>
     </g>
     <g id="text_11">
      <!-- 0 -->
      <g transform="translate(22.81375 534.632797) scale(0.11 -0.11)">
       <defs>
        <path id="DejaVuSerif-30" d="M 2034 219 
Q 2513 219 2750 744 
Q 2988 1269 2988 2328 
Q 2988 3391 2750 3916 
Q 2513 4441 2034 4441 
Q 1556 4441 1318 3916 
Q 1081 3391 1081 2328 
Q 1081 1269 1318 744 
Q 1556 219 2034 219 
z
M 2034 -91 
Q 1275 -91 848 546 
Q 422 1184 422 2328 
Q 422 3475 848 4112 
Q 1275 4750 2034 4750 
Q 2797 4750 3222 4112 
Q 3647 3475 3647 2328 
Q 3647 1184 3222 546 
Q 2797 -91 2034 -91 
z
" transform="scale(0.015625)"/>
       </defs>
       <use xlink:href="#DejaVuSerif-30"/>
      </g>
     </g>
    </g>
    <g id="ytick_2">
     <g id="line2d_13">
      <path d="M 36.8125 436.766799 
L 1135.2725 436.766799 
" clip-path="url(#pc795f87097)" style="fill: none; stroke: #b0b0b0; stroke-opacity: 0.2; stroke-width: 0.8; stroke-linecap: square"/>
     </g>
     <g id="line2d_14">
      <g>
       <use xlink:href="#m8247889001" x="36.8125" y="436.766799" style="stroke: #000000; stroke-width: 0.8"/>
      </g>
     </g>
     <g id="text_12">
      <!-- 1 -->
      <g transform="translate(22.81375 440.94594) scale(0.11 -0.11)">
       <defs>
        <path id="DejaVuSerif-31" d="M 909 0 
L 909 331 
L 1722 331 
L 1722 4213 
L 781 3603 
L 781 4013 
L 1919 4750 
L 2350 4750 
L 2350 331 
L 3163 331 
L 3163 0 
L 909 0 
z
" transform="scale(0.015625)"/>
       </defs>
       <use xlink:href="#DejaVuSerif-31"/>
      </g>
     </g>
    </g>
    <g id="ytick_3">
     <g id="line2d_15">
      <path d="M 36.8125 343.079942 
L 1135.2725 343.079942 
" clip-path="url(#pc795f87097)" style="fill: none; stroke: #b0b0b0; stroke-opacity: 0.2; stroke-width: 0.8; stroke-linecap: square"/>
     </g>
     <g id="line2d_16">
      <g>
       <use xlink:href="#m8247889001" x="36.8125" y="343.079942" style="stroke: #000000; stroke-width: 0.8"/>
      </g>
     </g>
     <g id="text_13">
      <!-- 2 -->
      <g transform="translate(22.81375 347.259083) scale(0.11 -0.11)">
       <defs>
        <path id="DejaVuSerif-32" d="M 819 3553 
L 469 3553 
L 469 4384 
Q 803 4563 1142 4656 
Q 1481 4750 1806 4750 
Q 2534 4750 2956 4397 
Q 3378 4044 3378 3438 
Q 3378 2753 2422 1800 
Q 2347 1728 2309 1691 
L 1131 513 
L 3078 513 
L 3078 1088 
L 3444 1088 
L 3444 0 
L 434 0 
L 434 341 
L 1850 1753 
Q 2319 2222 2519 2614 
Q 2719 3006 2719 3438 
Q 2719 3909 2473 4175 
Q 2228 4441 1797 4441 
Q 1350 4441 1106 4219 
Q 863 3997 819 3553 
z
" transform="scale(0.015625)"/>
       </defs>
       <use xlink:href="#DejaVuSerif-32"/>
      </g>
     </g>
    </g>
    <g id="ytick_4">
     <g id="line2d_17">
      <path d="M 36.8125 249.393085 
L 1135.2725 249.393085 
" clip-path="url(#pc795f87097)" style="fill: none; stroke: #b0b0b0; stroke-opacity: 0.2; stroke-width: 0.8; stroke-linecap: square"/>
     </g>
     <g id="line2d_18">
      <g>
       <use xlink:href="#m8247889001" x="36.8125" y="249.393085" style="stroke: #000000; stroke-width: 0.8"/>
      </g>
     </g>
     <g id="text_14">
      <!-- 3 -->
      <g transform="translate(22.81375 253.572225) scale(0.11 -0.11)">
       <defs>
        <path id="DejaVuSerif-33" d="M 622 4469 
Q 988 4606 1323 4678 
Q 1659 4750 1953 4750 
Q 2638 4750 3022 4454 
Q 3406 4159 3406 3634 
Q 3406 3213 3140 2930 
Q 2875 2647 2388 2547 
Q 2963 2466 3280 2130 
Q 3597 1794 3597 1259 
Q 3597 606 3158 257 
Q 2719 -91 1894 -91 
Q 1528 -91 1179 -12 
Q 831 66 488 225 
L 488 1131 
L 838 1131 
Q 869 681 1141 450 
Q 1413 219 1906 219 
Q 2384 219 2661 495 
Q 2938 772 2938 1253 
Q 2938 1803 2653 2086 
Q 2369 2369 1819 2369 
L 1522 2369 
L 1522 2688 
L 1678 2688 
Q 2225 2688 2498 2914 
Q 2772 3141 2772 3597 
Q 2772 4006 2547 4223 
Q 2322 4441 1900 4441 
Q 1478 4441 1245 4241 
Q 1013 4041 972 3647 
L 622 3647 
L 622 4469 
z
" transform="scale(0.015625)"/>
       </defs>
       <use xlink:href="#DejaVuSerif-33"/>
      </g>
     </g>
    </g>
    <g id="ytick_5">
     <g id="line2d_19">
      <path d="M 36.8125 155.706228 
L 1135.2725 155.706228 
" clip-path="url(#pc795f87097)" style="fill: none; stroke: #b0b0b0; stroke-opacity: 0.2; stroke-width: 0.8; stroke-linecap: square"/>
     </g>
     <g id="line2d_20">
      <g>
       <use xlink:href="#m8247889001" x="36.8125" y="155.706228" style="stroke: #000000; stroke-width: 0.8"/>
      </g>
     </g>
     <g id="text_15">
      <!-- 4 -->
      <g transform="translate(22.81375 159.885368) scale(0.11 -0.11)">
       <defs>
        <path id="DejaVuSerif-34" d="M 2234 1581 
L 2234 4063 
L 641 1581 
L 2234 1581 
z
M 3609 0 
L 1484 0 
L 1484 331 
L 2234 331 
L 2234 1247 
L 197 1247 
L 197 1588 
L 2241 4750 
L 2859 4750 
L 2859 1581 
L 3750 1581 
L 3750 1247 
L 2859 1247 
L 2859 331 
L 3609 331 
L 3609 0 
z
" transform="scale(0.015625)"/>
       </defs>
       <use xlink:href="#DejaVuSerif-34"/>
      </g>
     </g>
    </g>
    <g id="ytick_6">
     <g id="line2d_21">
      <path d="M 36.8125 62.019371 
L 1135.2725 62.019371 
" clip-path="url(#pc795f87097)" style="fill: none; stroke: #b0b0b0; stroke-opacity: 0.2; stroke-width: 0.8; stroke-linecap: square"/>
     </g>
     <g id="line2d_22">
      <g>
       <use xlink:href="#m8247889001" x="36.8125" y="62.019371" style="stroke: #000000; stroke-width: 0.8"/>
      </g>
     </g>
     <g id="text_16">
      <!-- 5 -->
      <g transform="translate(22.81375 66.198511) scale(0.11 -0.11)">
       <defs>
        <path id="DejaVuSerif-35" d="M 3219 4666 
L 3219 4153 
L 1081 4153 
L 1081 2816 
Q 1244 2928 1461 2984 
Q 1678 3041 1947 3041 
Q 2703 3041 3140 2622 
Q 3578 2203 3578 1478 
Q 3578 738 3136 323 
Q 2694 -91 1894 -91 
Q 1572 -91 1234 -12 
Q 897 66 544 225 
L 544 1131 
L 897 1131 
Q 925 688 1179 453 
Q 1434 219 1894 219 
Q 2388 219 2653 544 
Q 2919 869 2919 1478 
Q 2919 2084 2655 2407 
Q 2391 2731 1894 2731 
Q 1613 2731 1398 2631 
Q 1184 2531 1019 2322 
L 750 2322 
L 750 4666 
L 3219 4666 
z
" transform="scale(0.015625)"/>
       </defs>
       <use xlink:href="#DejaVuSerif-35"/>
      </g>
     </g>
    </g>
    <g id="text_17">
     <!-- Number of Case Studies -->
     <g transform="translate(16.318125 365.739406) rotate(-90) scale(0.12 -0.12)">
      <defs>
       <path id="DejaVuSerif-Bold-4e" d="M 281 0 
L 281 378 
L 878 378 
L 878 4288 
L 281 4288 
L 281 4666 
L 1741 4666 
L 4556 1363 
L 4556 4288 
L 3963 4288 
L 3963 4666 
L 5594 4666 
L 5594 4288 
L 4997 4288 
L 4997 0 
L 4178 0 
L 1319 3372 
L 1319 378 
L 1913 378 
L 1913 0 
L 281 0 
z
" transform="scale(0.015625)"/>
       <path id="DejaVuSerif-Bold-75" d="M 3963 3322 
L 3963 378 
L 4434 378 
L 4434 0 
L 2853 0 
L 2853 469 
Q 2656 172 2400 40 
Q 2144 -91 1753 -91 
Q 1194 -91 908 239 
Q 622 569 622 1209 
L 622 2944 
L 147 2944 
L 147 3322 
L 1728 3322 
L 1728 1381 
Q 1728 763 1831 595 
Q 1934 428 2209 428 
Q 2544 428 2698 675 
Q 2853 922 2853 1459 
L 2853 2944 
L 2450 2944 
L 2450 3322 
L 3963 3322 
z
" transform="scale(0.015625)"/>
       <path id="DejaVuSerif-Bold-6d" d="M 3884 2778 
Q 4116 3109 4384 3261 
Q 4653 3413 5013 3413 
Q 5584 3413 5867 3089 
Q 6150 2766 6150 2113 
L 6150 378 
L 6625 378 
L 6625 0 
L 4647 0 
L 4647 378 
L 5044 378 
L 5044 1947 
Q 5044 2569 4948 2731 
Q 4853 2894 4594 2894 
Q 4300 2894 4137 2667 
Q 3975 2441 3975 2022 
L 3975 378 
L 4372 378 
L 4372 0 
L 2472 0 
L 2472 378 
L 2869 378 
L 2869 1947 
Q 2869 2569 2772 2731 
Q 2675 2894 2419 2894 
Q 2122 2894 1959 2667 
Q 1797 2441 1797 2022 
L 1797 378 
L 2194 378 
L 2194 0 
L 219 0 
L 219 378 
L 691 378 
L 691 2944 
L 219 2944 
L 219 3322 
L 1797 3322 
L 1797 2853 
Q 1991 3144 2241 3278 
Q 2491 3413 2834 3413 
Q 3241 3413 3494 3258 
Q 3747 3103 3884 2778 
z
" transform="scale(0.015625)"/>
       <path id="DejaVuSerif-Bold-62" d="M 622 378 
L 622 4488 
L 147 4488 
L 147 4863 
L 1728 4863 
L 1728 2900 
Q 1869 3159 2106 3286 
Q 2344 3413 2694 3413 
Q 3403 3413 3811 2945 
Q 4219 2478 4219 1663 
Q 4219 847 3811 378 
Q 3403 -91 2694 -91 
Q 2344 -91 2106 36 
Q 1869 163 1728 422 
L 1728 0 
L 147 0 
L 147 378 
L 622 378 
z
M 1728 1497 
Q 1728 916 1876 656 
Q 2025 397 2356 397 
Q 2697 397 2836 672 
Q 2975 947 2975 1663 
Q 2975 2378 2836 2651 
Q 2697 2925 2356 2925 
Q 2025 2925 1876 2665 
Q 1728 2406 1728 1825 
L 1728 1497 
z
" transform="scale(0.015625)"/>
       <path id="DejaVuSerif-Bold-65" d="M 2566 1875 
Q 2566 2531 2444 2795 
Q 2322 3059 2028 3059 
Q 1744 3059 1620 2800 
Q 1497 2541 1497 1931 
L 1497 1875 
L 2566 1875 
z
M 3781 1503 
L 1497 1503 
L 1497 1478 
Q 1497 834 1690 548 
Q 1884 263 2316 263 
Q 2675 263 2897 453 
Q 3119 644 3181 1006 
L 3700 1006 
Q 3566 441 3166 175 
Q 2766 -91 2047 -91 
Q 1184 -91 723 364 
Q 263 819 263 1663 
Q 263 2488 734 2950 
Q 1206 3413 2047 3413 
Q 2872 3413 3312 2927 
Q 3753 2441 3781 1503 
z
" transform="scale(0.015625)"/>
       <path id="DejaVuSerif-Bold-72" d="M 3438 3359 
L 3438 2369 
L 3084 2369 
Q 3066 2634 2941 2764 
Q 2816 2894 2578 2894 
Q 2216 2894 2006 2575 
Q 1797 2256 1797 1691 
L 1797 378 
L 2400 378 
L 2400 0 
L 219 0 
L 219 378 
L 691 378 
L 691 2944 
L 184 2944 
L 184 3322 
L 1797 3322 
L 1797 2731 
Q 1959 3078 2226 3245 
Q 2494 3413 2881 3413 
Q 2978 3413 3117 3398 
Q 3256 3384 3438 3359 
z
" transform="scale(0.015625)"/>
       <path id="DejaVuSerif-Bold-20" transform="scale(0.015625)"/>
       <path id="DejaVuSerif-Bold-6f" d="M 2138 263 
Q 2488 263 2630 563 
Q 2772 863 2772 1663 
Q 2772 2463 2631 2761 
Q 2491 3059 2138 3059 
Q 1784 3059 1640 2757 
Q 1497 2456 1497 1663 
Q 1497 869 1640 566 
Q 1784 263 2138 263 
z
M 2138 -91 
Q 1259 -91 761 376 
Q 263 844 263 1663 
Q 263 2484 761 2948 
Q 1259 3413 2138 3413 
Q 3019 3413 3516 2948 
Q 4013 2484 4013 1663 
Q 4013 844 3514 376 
Q 3016 -91 2138 -91 
z
" transform="scale(0.015625)"/>
       <path id="DejaVuSerif-Bold-66" d="M 3097 4031 
L 2747 4031 
Q 2722 4275 2605 4394 
Q 2488 4513 2272 4513 
Q 2022 4513 1909 4333 
Q 1797 4153 1797 3750 
L 1797 3322 
L 2631 3322 
L 2631 2944 
L 1797 2944 
L 1797 378 
L 2438 378 
L 2438 0 
L 219 0 
L 219 378 
L 691 378 
L 691 2944 
L 197 2944 
L 197 3322 
L 691 3322 
L 691 3738 
Q 691 4291 1044 4577 
Q 1397 4863 2081 4863 
Q 2347 4863 2600 4833 
Q 2853 4803 3097 4744 
L 3097 4031 
z
" transform="scale(0.015625)"/>
       <path id="DejaVuSerif-Bold-43" d="M 4769 1331 
Q 4584 609 4106 259 
Q 3628 -91 2822 -91 
Q 1641 -91 955 561 
Q 269 1213 269 2328 
Q 269 3447 955 4098 
Q 1641 4750 2822 4750 
Q 3238 4750 3688 4650 
Q 4138 4550 4641 4347 
L 4641 3200 
L 4244 3200 
Q 4122 3788 3800 4080 
Q 3478 4372 2950 4372 
Q 2269 4372 1937 3870 
Q 1606 3369 1606 2328 
Q 1606 1288 1937 788 
Q 2269 288 2956 288 
Q 3422 288 3717 547 
Q 4013 806 4147 1331 
L 4769 1331 
z
" transform="scale(0.015625)"/>
       <path id="DejaVuSerif-Bold-61" d="M 3525 2041 
L 3525 378 
L 4000 378 
L 4000 0 
L 2419 0 
L 2419 422 
Q 2200 159 1931 34 
Q 1663 -91 1319 -91 
Q 809 -91 536 182 
Q 263 456 263 966 
Q 263 1525 655 1803 
Q 1047 2081 1838 2081 
L 2419 2081 
L 2419 2278 
Q 2419 2681 2228 2873 
Q 2038 3066 1638 3066 
Q 1306 3066 1126 2930 
Q 947 2794 872 2484 
L 519 2484 
L 519 3200 
Q 816 3306 1134 3359 
Q 1453 3413 1806 3413 
Q 2697 3413 3111 3081 
Q 3525 2750 3525 2041 
z
M 2419 1044 
L 2419 1709 
L 2003 1709 
Q 1694 1709 1528 1540 
Q 1363 1372 1363 1056 
Q 1363 741 1483 584 
Q 1603 428 1850 428 
Q 2106 428 2262 597 
Q 2419 766 2419 1044 
z
" transform="scale(0.015625)"/>
       <path id="DejaVuSerif-Bold-73" d="M 300 97 
L 300 1025 
L 653 1025 
Q 697 653 931 458 
Q 1166 263 1569 263 
Q 1906 263 2086 380 
Q 2266 497 2266 716 
Q 2266 916 2152 1025 
Q 2038 1134 1709 1216 
L 1253 1331 
Q 738 1459 506 1698 
Q 275 1938 275 2344 
Q 275 2884 650 3148 
Q 1025 3413 1806 3413 
Q 2100 3413 2433 3364 
Q 2766 3316 3169 3213 
L 3169 2375 
L 2816 2375 
Q 2788 2716 2573 2887 
Q 2359 3059 1959 3059 
Q 1622 3059 1448 2951 
Q 1275 2844 1275 2638 
Q 1275 2469 1375 2372 
Q 1475 2275 1734 2209 
L 2188 2094 
Q 2841 1928 3091 1684 
Q 3341 1441 3341 1006 
Q 3341 444 2939 176 
Q 2538 -91 1691 -91 
Q 1381 -91 1034 -44 
Q 688 3 300 97 
z
" transform="scale(0.015625)"/>
       <path id="DejaVuSerif-Bold-53" d="M 494 225 
L 494 1331 
L 891 1331 
Q 981 806 1318 547 
Q 1656 288 2253 288 
Q 2738 288 2991 472 
Q 3244 656 3244 1013 
Q 3244 1294 3072 1450 
Q 2900 1606 2363 1741 
L 1663 1913 
Q 978 2088 700 2398 
Q 422 2709 422 3284 
Q 422 3978 883 4364 
Q 1344 4750 2175 4750 
Q 2584 4750 3026 4681 
Q 3469 4613 3944 4475 
L 3944 3444 
L 3547 3444 
Q 3456 3925 3150 4148 
Q 2844 4372 2278 4372 
Q 1816 4372 1580 4211 
Q 1344 4050 1344 3731 
Q 1344 3441 1506 3289 
Q 1669 3138 2303 2975 
L 3003 2803 
Q 3653 2641 3945 2297 
Q 4238 1953 4238 1350 
Q 4238 644 3750 276 
Q 3263 -91 2316 -91 
Q 1859 -91 1409 -12 
Q 959 66 494 225 
z
" transform="scale(0.015625)"/>
       <path id="DejaVuSerif-Bold-74" d="M 634 2944 
L 153 2944 
L 153 3322 
L 634 3322 
L 634 4353 
L 1741 4353 
L 1741 3322 
L 2663 3322 
L 2663 2944 
L 1741 2944 
L 1741 909 
Q 1741 475 1809 369 
Q 1878 263 2059 263 
Q 2259 263 2356 397 
Q 2453 531 2459 813 
L 2925 813 
Q 2897 313 2651 111 
Q 2406 -91 1806 -91 
Q 1122 -91 878 123 
Q 634 338 634 909 
L 634 2944 
z
" transform="scale(0.015625)"/>
       <path id="DejaVuSerif-Bold-64" d="M 2747 1497 
L 2747 1825 
Q 2747 2406 2597 2665 
Q 2447 2925 2119 2925 
Q 1775 2925 1636 2651 
Q 1497 2378 1497 1663 
Q 1497 947 1637 672 
Q 1778 397 2119 397 
Q 2447 397 2597 656 
Q 2747 916 2747 1497 
z
M 3853 378 
L 4325 378 
L 4325 0 
L 2747 0 
L 2747 422 
Q 2606 163 2367 36 
Q 2128 -91 1778 -91 
Q 1072 -91 667 378 
Q 263 847 263 1663 
Q 263 2481 667 2947 
Q 1072 3413 1778 3413 
Q 2128 3413 2367 3286 
Q 2606 3159 2747 2900 
L 2747 4488 
L 2272 4488 
L 2272 4863 
L 3853 4863 
L 3853 378 
z
" transform="scale(0.015625)"/>
       <path id="DejaVuSerif-Bold-69" d="M 588 4263 
Q 588 4516 763 4689 
Q 938 4863 1191 4863 
Q 1438 4863 1611 4689 
Q 1784 4516 1784 4263 
Q 1784 4016 1611 3842 
Q 1438 3669 1191 3669 
Q 938 3669 763 3841 
Q 588 4013 588 4263 
z
M 1797 378 
L 2272 378 
L 2272 0 
L 219 0 
L 219 378 
L 691 378 
L 691 2944 
L 219 2944 
L 219 3322 
L 1797 3322 
L 1797 378 
z
" transform="scale(0.015625)"/>
      </defs>
      <use xlink:href="#DejaVuSerif-Bold-4e"/>
      <use xlink:href="#DejaVuSerif-Bold-75" transform="translate(91.40625 0)"/>
      <use xlink:href="#DejaVuSerif-Bold-6d" transform="translate(164.111328 0)"/>
      <use xlink:href="#DejaVuSerif-Bold-62" transform="translate(269.921875 0)"/>
      <use xlink:href="#DejaVuSerif-Bold-65" transform="translate(339.84375 0)"/>
      <use xlink:href="#DejaVuSerif-Bold-72" transform="translate(403.466797 0)"/>
      <use xlink:href="#DejaVuSerif-Bold-20" transform="translate(456.152344 0)"/>
      <use xlink:href="#DejaVuSerif-Bold-6f" transform="translate(490.966797 0)"/>
      <use xlink:href="#DejaVuSerif-Bold-66" transform="translate(557.666016 0)"/>
      <use xlink:href="#DejaVuSerif-Bold-20" transform="translate(600.683594 0)"/>
      <use xlink:href="#DejaVuSerif-Bold-43" transform="translate(635.498047 0)"/>
      <use xlink:href="#DejaVuSerif-Bold-61" transform="translate(715.087891 0)"/>
      <use xlink:href="#DejaVuSerif-Bold-73" transform="translate(779.882812 0)"/>
      <use xlink:href="#DejaVuSerif-Bold-65" transform="translate(836.181641 0)"/>
      <use xlink:href="#DejaVuSerif-Bold-20" transform="translate(899.804688 0)"/>
      <use xlink:href="#DejaVuSerif-Bold-53" transform="translate(934.619141 0)"/>
      <use xlink:href="#DejaVuSerif-Bold-74" transform="translate(1006.835938 0)"/>
      <use xlink:href="#DejaVuSerif-Bold-75" transform="translate(1053.027344 0)"/>
      <use xlink:href="#DejaVuSerif-Bold-64" transform="translate(1125.732422 0)"/>
      <use xlink:href="#DejaVuSerif-Bold-69" transform="translate(1195.654297 0)"/>
      <use xlink:href="#DejaVuSerif-Bold-65" transform="translate(1233.642578 0)"/>
      <use xlink:href="#DejaVuSerif-Bold-73" transform="translate(1297.265625 0)"/>
     </g>
    </g>
   </g>
   <g id="patch_83">
    <path d="M 36.8125 530.453656 
L 36.8125 38.597656 
" style="fill: none; stroke: #000000; stroke-width: 0.8; stroke-linejoin: miter; stroke-linecap: square"/>
   </g>
   <g id="patch_84">
    <path d="M 36.8125 530.453656 
L 1135.2725 530.453656 
" style="fill: none; stroke: #000000; stroke-width: 0.8; stroke-linejoin: miter; stroke-linecap: square"/>
   </g>
   <g id="text_18">
    <!-- Gulf Infrastructure — PQC Algorithm Distribution Across 100 Case Studies -->
    <g transform="translate(270.114375 18.597656) scale(0.15 -0.15)">
     <defs>
      <path id="DejaVuSerif-Bold-47" d="M 4403 3200 
Q 4263 3819 3934 4095 
Q 3606 4372 3009 4372 
Q 2284 4372 1945 3880 
Q 1606 3388 1606 2328 
Q 1606 1278 1931 783 
Q 2256 288 2944 288 
Q 3206 288 3431 347 
Q 3656 406 3841 525 
L 3841 1806 
L 3278 1806 
L 3278 2181 
L 4959 2181 
L 4959 391 
Q 4434 147 3911 28 
Q 3388 -91 2841 -91 
Q 1641 -91 955 556 
Q 269 1203 269 2328 
Q 269 3456 955 4103 
Q 1641 4750 2841 4750 
Q 3341 4750 3825 4650 
Q 4309 4550 4800 4347 
L 4800 3200 
L 4403 3200 
z
" transform="scale(0.015625)"/>
      <path id="DejaVuSerif-Bold-6c" d="M 1797 378 
L 2272 378 
L 2272 0 
L 219 0 
L 219 378 
L 691 378 
L 691 4488 
L 219 4488 
L 219 4863 
L 1797 4863 
L 1797 378 
z
" transform="scale(0.015625)"/>
      <path id="DejaVuSerif-Bold-49" d="M 300 0 
L 300 378 
L 897 378 
L 897 4288 
L 300 4288 
L 300 4666 
L 2700 4666 
L 2700 4288 
L 2100 4288 
L 2100 378 
L 2700 378 
L 2700 0 
L 300 0 
z
" transform="scale(0.015625)"/>
      <path id="DejaVuSerif-Bold-6e" d="M 219 0 
L 219 378 
L 691 378 
L 691 2944 
L 219 2944 
L 219 3322 
L 1797 3322 
L 1797 2853 
Q 1997 3150 2253 3281 
Q 2509 3413 2900 3413 
Q 3459 3413 3745 3083 
Q 4031 2753 4031 2113 
L 4031 378 
L 4506 378 
L 4506 0 
L 2522 0 
L 2522 378 
L 2925 378 
L 2925 2144 
Q 2925 2566 2817 2730 
Q 2709 2894 2444 2894 
Q 2109 2894 1953 2648 
Q 1797 2403 1797 1869 
L 1797 378 
L 2203 378 
L 2203 0 
L 219 0 
z
" transform="scale(0.015625)"/>
      <path id="DejaVuSerif-Bold-63" d="M 3609 1038 
Q 3491 469 3123 189 
Q 2756 -91 2125 -91 
Q 1238 -91 750 368 
Q 263 828 263 1663 
Q 263 2488 744 2950 
Q 1225 3413 2081 3413 
Q 2428 3413 2781 3347 
Q 3134 3281 3500 3150 
L 3500 2228 
L 3150 2228 
Q 3100 2650 2903 2854 
Q 2706 3059 2350 3059 
Q 1888 3059 1692 2746 
Q 1497 2434 1497 1663 
Q 1497 909 1687 586 
Q 1878 263 2309 263 
Q 2644 263 2845 463 
Q 3047 663 3091 1038 
L 3609 1038 
z
" transform="scale(0.015625)"/>
      <path id="DejaVuSerif-Bold-2014" d="M 344 2075 
L 6056 2075 
L 6056 1325 
L 344 1325 
L 344 2075 
z
" transform="scale(0.015625)"/>
      <path id="DejaVuSerif-Bold-50" d="M 300 0 
L 300 378 
L 897 378 
L 897 4288 
L 300 4288 
L 300 4666 
L 2956 4666 
Q 3734 4666 4193 4295 
Q 4653 3925 4653 3303 
Q 4653 2678 4192 2304 
Q 3731 1931 2956 1931 
L 2100 1931 
L 2100 378 
L 2853 378 
L 2853 0 
L 300 0 
z
M 2100 2309 
L 2450 2309 
Q 2856 2309 3098 2579 
Q 3341 2850 3341 3303 
Q 3341 3753 3100 4020 
Q 2859 4288 2450 4288 
L 2100 4288 
L 2100 2309 
z
" transform="scale(0.015625)"/>
      <path id="DejaVuSerif-Bold-51" d="M 2766 -91 
Q 1584 -72 926 565 
Q 269 1203 269 2328 
Q 269 3459 939 4104 
Q 1609 4750 2784 4750 
Q 3963 4750 4631 4106 
Q 5300 3463 5300 2328 
Q 5300 1334 4786 715 
Q 4272 97 3322 -50 
Q 3488 -228 3725 -306 
Q 3963 -384 4341 -384 
L 4500 -384 
L 4500 -1153 
L 4409 -1153 
Q 3816 -1153 3419 -897 
Q 3022 -641 2766 -91 
z
M 2784 288 
Q 3381 288 3672 791 
Q 3963 1294 3963 2328 
Q 3963 3366 3672 3869 
Q 3381 4372 2784 4372 
Q 2191 4372 1898 3864 
Q 1606 3356 1606 2328 
Q 1606 1303 1898 795 
Q 2191 288 2784 288 
z
" transform="scale(0.015625)"/>
      <path id="DejaVuSerif-Bold-41" d="M -50 0 
L -50 378 
L 331 378 
L 2088 4666 
L 2834 4666 
L 4594 378 
L 5038 378 
L 5038 0 
L 2853 0 
L 2853 378 
L 3309 378 
L 2925 1331 
L 1172 1331 
L 781 378 
L 1338 378 
L 1338 0 
L -50 0 
z
M 1325 1709 
L 2772 1709 
L 2053 3494 
L 1325 1709 
z
" transform="scale(0.015625)"/>
      <path id="DejaVuSerif-Bold-67" d="M 3853 2944 
L 3853 44 
Q 3853 -656 3354 -1039 
Q 2856 -1422 1947 -1422 
Q 1616 -1422 1275 -1370 
Q 934 -1319 575 -1216 
L 575 -422 
L 928 -422 
Q 975 -750 1192 -909 
Q 1409 -1069 1813 -1069 
Q 2325 -1069 2536 -823 
Q 2747 -578 2747 44 
L 2747 422 
Q 2606 163 2367 36 
Q 2128 -91 1778 -91 
Q 1072 -91 667 378 
Q 263 847 263 1663 
Q 263 2481 667 2947 
Q 1072 3413 1778 3413 
Q 2128 3413 2367 3286 
Q 2606 3159 2747 2900 
L 2747 3322 
L 4325 3322 
L 4325 2944 
L 3853 2944 
z
M 2747 1825 
Q 2747 2406 2597 2665 
Q 2447 2925 2119 2925 
Q 1775 2925 1636 2651 
Q 1497 2378 1497 1663 
Q 1497 947 1637 672 
Q 1778 397 2119 397 
Q 2447 397 2597 656 
Q 2747 916 2747 1497 
L 2747 1825 
z
" transform="scale(0.015625)"/>
      <path id="DejaVuSerif-Bold-68" d="M 219 0 
L 219 378 
L 691 378 
L 691 4488 
L 197 4488 
L 197 4863 
L 1797 4863 
L 1797 2853 
Q 1997 3150 2253 3281 
Q 2509 3413 2900 3413 
Q 3459 3413 3745 3083 
Q 4031 2753 4031 2113 
L 4031 378 
L 4506 378 
L 4506 0 
L 2522 0 
L 2522 378 
L 2925 378 
L 2925 2144 
Q 2925 2566 2817 2730 
Q 2709 2894 2444 2894 
Q 2109 2894 1953 2648 
Q 1797 2403 1797 1869 
L 1797 378 
L 2203 378 
L 2203 0 
L 219 0 
z
" transform="scale(0.015625)"/>
      <path id="DejaVuSerif-Bold-44" d="M 2100 378 
L 2534 378 
Q 3266 378 3605 847 
Q 3944 1316 3944 2338 
Q 3944 3353 3606 3820 
Q 3269 4288 2534 4288 
L 2100 4288 
L 2100 378 
z
M 300 0 
L 300 378 
L 897 378 
L 897 4288 
L 300 4288 
L 300 4666 
L 2694 4666 
Q 3950 4666 4615 4066 
Q 5281 3466 5281 2338 
Q 5281 1203 4614 601 
Q 3947 0 2694 0 
L 300 0 
z
" transform="scale(0.015625)"/>
      <path id="DejaVuSerif-Bold-31" d="M 878 0 
L 878 378 
L 1753 378 
L 1753 4153 
L 781 3578 
L 781 4044 
L 1953 4750 
L 2938 4750 
L 2938 378 
L 3816 378 
L 3816 0 
L 878 0 
z
" transform="scale(0.015625)"/>
      <path id="DejaVuSerif-Bold-30" d="M 2228 275 
Q 2603 275 2742 615 
Q 2881 956 2881 2328 
Q 2881 3691 2742 4037 
Q 2603 4384 2228 4384 
Q 1853 4384 1714 4043 
Q 1575 3703 1575 2328 
Q 1575 956 1714 615 
Q 1853 275 2228 275 
z
M 2228 -91 
Q 1294 -91 797 532 
Q 300 1156 300 2328 
Q 300 3500 797 4125 
Q 1294 4750 2228 4750 
Q 3159 4750 3656 4125 
Q 4153 3500 4153 2328 
Q 4153 1156 3656 532 
Q 3159 -91 2228 -91 
z
" transform="scale(0.015625)"/>
     </defs>
     <use xlink:href="#DejaVuSerif-Bold-47"/>
     <use xlink:href="#DejaVuSerif-Bold-75" transform="translate(85.400391 0)"/>
     <use xlink:href="#DejaVuSerif-Bold-6c" transform="translate(158.105469 0)"/>
     <use xlink:href="#DejaVuSerif-Bold-66" transform="translate(196.09375 0)"/>
     <use xlink:href="#DejaVuSerif-Bold-20" transform="translate(239.111328 0)"/>
     <use xlink:href="#DejaVuSerif-Bold-49" transform="translate(273.925781 0)"/>
     <use xlink:href="#DejaVuSerif-Bold-6e" transform="translate(320.703125 0)"/>
     <use xlink:href="#DejaVuSerif-Bold-66" transform="translate(393.408203 0)"/>
     <use xlink:href="#DejaVuSerif-Bold-72" transform="translate(436.425781 0)"/>
     <use xlink:href="#DejaVuSerif-Bold-61" transform="translate(489.111328 0)"/>
     <use xlink:href="#DejaVuSerif-Bold-73" transform="translate(553.90625 0)"/>
     <use xlink:href="#DejaVuSerif-Bold-74" transform="translate(610.205078 0)"/>
     <use xlink:href="#DejaVuSerif-Bold-72" transform="translate(656.396484 0)"/>
     <use xlink:href="#DejaVuSerif-Bold-75" transform="translate(709.082031 0)"/>
     <use xlink:href="#DejaVuSerif-Bold-63" transform="translate(781.787109 0)"/>
     <use xlink:href="#DejaVuSerif-Bold-74" transform="translate(842.675781 0)"/>
     <use xlink:href="#DejaVuSerif-Bold-75" transform="translate(888.867188 0)"/>
     <use xlink:href="#DejaVuSerif-Bold-72" transform="translate(961.572266 0)"/>
     <use xlink:href="#DejaVuSerif-Bold-65" transform="translate(1014.257812 0)"/>
     <use xlink:href="#DejaVuSerif-Bold-20" transform="translate(1077.880859 0)"/>
     <use xlink:href="#DejaVuSerif-Bold-2014" transform="translate(1112.695312 0)"/>
     <use xlink:href="#DejaVuSerif-Bold-20" transform="translate(1212.695312 0)"/>
     <use xlink:href="#DejaVuSerif-Bold-50" transform="translate(1247.509766 0)"/>
     <use xlink:href="#DejaVuSerif-Bold-51" transform="translate(1322.705078 0)"/>
     <use xlink:href="#DejaVuSerif-Bold-43" transform="translate(1409.814453 0)"/>
     <use xlink:href="#DejaVuSerif-Bold-20" transform="translate(1489.404297 0)"/>
     <use xlink:href="#DejaVuSerif-Bold-41" transform="translate(1524.21875 0)"/>
     <use xlink:href="#DejaVuSerif-Bold-6c" transform="translate(1601.806641 0)"/>
     <use xlink:href="#DejaVuSerif-Bold-67" transform="translate(1639.794922 0)"/>
     <use xlink:href="#DejaVuSerif-Bold-6f" transform="translate(1709.716797 0)"/>
     <use xlink:href="#DejaVuSerif-Bold-72" transform="translate(1776.416016 0)"/>
     <use xlink:href="#DejaVuSerif-Bold-69" transform="translate(1829.101562 0)"/>
     <use xlink:href="#DejaVuSerif-Bold-74" transform="translate(1867.089844 0)"/>
     <use xlink:href="#DejaVuSerif-Bold-68" transform="translate(1913.28125 0)"/>
     <use xlink:href="#DejaVuSerif-Bold-6d" transform="translate(1985.986328 0)"/>
     <use xlink:href="#DejaVuSerif-Bold-20" transform="translate(2091.796875 0)"/>
     <use xlink:href="#DejaVuSerif-Bold-44" transform="translate(2126.611328 0)"/>
     <use xlink:href="#DejaVuSerif-Bold-69" transform="translate(2213.330078 0)"/>
     <use xlink:href="#DejaVuSerif-Bold-73" transform="translate(2251.318359 0)"/>
     <use xlink:href="#DejaVuSerif-Bold-74" transform="translate(2307.617188 0)"/>
     <use xlink:href="#DejaVuSerif-Bold-72" transform="translate(2353.808594 0)"/>
     <use xlink:href="#DejaVuSerif-Bold-69" transform="translate(2406.494141 0)"/>
     <use xlink:href="#DejaVuSerif-Bold-62" transform="translate(2444.482422 0)"/>
     <use xlink:href="#DejaVuSerif-Bold-75" transform="translate(2514.404297 0)"/>
     <use xlink:href="#DejaVuSerif-Bold-74" transform="translate(2587.109375 0)"/>
     <use xlink:href="#DejaVuSerif-Bold-69" transform="translate(2633.300781 0)"/>
     <use xlink:href="#DejaVuSerif-Bold-6f" transform="translate(2671.289062 0)"/>
     <use xlink:href="#DejaVuSerif-Bold-6e" transform="translate(2737.988281 0)"/>
     <use xlink:href="#DejaVuSerif-Bold-20" transform="translate(2810.693359 0)"/>
     <use xlink:href="#DejaVuSerif-Bold-41" transform="translate(2845.507812 0)"/>
     <use xlink:href="#DejaVuSerif-Bold-63" transform="translate(2923.095703 0)"/>
     <use xlink:href="#DejaVuSerif-Bold-72" transform="translate(2983.984375 0)"/>
     <use xlink:href="#DejaVuSerif-Bold-6f" transform="translate(3036.669922 0)"/>
     <use xlink:href="#DejaVuSerif-Bold-73" transform="translate(3103.369141 0)"/>
     <use xlink:href="#DejaVuSerif-Bold-73" transform="translate(3159.667969 0)"/>
     <use xlink:href="#DejaVuSerif-Bold-20" transform="translate(3215.966797 0)"/>
     <use xlink:href="#DejaVuSerif-Bold-31" transform="translate(3250.78125 0)"/>
     <use xlink:href="#DejaVuSerif-Bold-30" transform="translate(3320.361328 0)"/>
     <use xlink:href="#DejaVuSerif-Bold-30" transform="translate(3389.941406 0)"/>
     <use xlink:href="#DejaVuSerif-Bold-20" transform="translate(3459.521484 0)"/>
     <use xlink:href="#DejaVuSerif-Bold-43" transform="translate(3494.335938 0)"/>
     <use xlink:href="#DejaVuSerif-Bold-61" transform="translate(3573.925781 0)"/>
     <use xlink:href="#DejaVuSerif-Bold-73" transform="translate(3638.720703 0)"/>
     <use xlink:href="#DejaVuSerif-Bold-65" transform="translate(3695.019531 0)"/>
     <use xlink:href="#DejaVuSerif-Bold-20" transform="translate(3758.642578 0)"/>
     <use xlink:href="#DejaVuSerif-Bold-53" transform="translate(3793.457031 0)"/>
     <use xlink:href="#DejaVuSerif-Bold-74" transform="translate(3865.673828 0)"/>
     <use xlink:href="#DejaVuSerif-Bold-75" transform="translate(3911.865234 0)"/>
     <use xlink:href="#DejaVuSerif-Bold-64" transform="translate(3984.570312 0)"/>
     <use xlink:href="#DejaVuSerif-Bold-69" transform="translate(4054.492188 0)"/>
     <use xlink:href="#DejaVuSerif-Bold-65" transform="translate(4092.480469 0)"/>
     <use xlink:href="#DejaVuSerif-Bold-73" transform="translate(4156.103516 0)"/>
    </g>
   </g>
   <g id="legend_1">
    <g id="patch_85">
     <path d="M 926.136406 98.638906 
L 1128.9725 98.638906 
Q 1130.7725 98.638906 1130.7725 96.838906 
L 1130.7725 44.897656 
Q 1130.7725 43.097656 1128.9725 43.097656 
L 926.136406 43.097656 
Q 924.336406 43.097656 924.336406 44.897656 
L 924.336406 96.838906 
Q 924.336406 98.638906 926.136406 98.638906 
z
" style="fill: #ffffff; opacity: 0.8; stroke: #cccccc; stroke-linejoin: miter"/>
    </g>
    <g id="patch_86">
     <path d="M 927.936406 53.53625 
L 945.936406 53.53625 
L 945.936406 47.23625 
L 927.936406 47.23625 
z
" style="fill: #2e7d32; stroke: #ffffff; stroke-width: 0.5; stroke-linejoin: miter"/>
    </g>
    <g id="text_19">
     <!-- ML-DSA-44 -->
     <g transform="translate(953.136406 53.53625) scale(0.09 -0.09)">
      <defs>
       <path id="DejaVuSerif-4c" d="M 353 0 
L 353 331 
L 947 331 
L 947 4331 
L 353 4331 
L 353 4666 
L 2175 4666 
L 2175 4331 
L 1581 4331 
L 1581 384 
L 3713 384 
L 3713 1166 
L 4097 1166 
L 4097 0 
L 353 0 
z
" transform="scale(0.015625)"/>
       <path id="DejaVuSerif-2d" d="M 281 1959 
L 1881 1959 
L 1881 1472 
L 281 1472 
L 281 1959 
z
" transform="scale(0.015625)"/>
       <path id="DejaVuSerif-41" d="M 1281 1691 
L 2994 1691 
L 2138 3909 
L 1281 1691 
z
M -38 0 
L -38 331 
L 372 331 
L 2034 4666 
L 2559 4666 
L 4225 331 
L 4684 331 
L 4684 0 
L 2988 0 
L 2988 331 
L 3506 331 
L 3116 1356 
L 1153 1356 
L 763 331 
L 1275 331 
L 1275 0 
L -38 0 
z
" transform="scale(0.015625)"/>
      </defs>
      <use xlink:href="#DejaVuSerif-4d"/>
      <use xlink:href="#DejaVuSerif-4c" transform="translate(102.392578 0)"/>
      <use xlink:href="#DejaVuSerif-2d" transform="translate(168.798828 0)"/>
      <use xlink:href="#DejaVuSerif-44" transform="translate(202.587891 0)"/>
      <use xlink:href="#DejaVuSerif-53" transform="translate(282.763672 0)"/>
      <use xlink:href="#DejaVuSerif-41" transform="translate(351.269531 0)"/>
      <use xlink:href="#DejaVuSerif-2d" transform="translate(423.486328 0)"/>
      <use xlink:href="#DejaVuSerif-34" transform="translate(457.275391 0)"/>
      <use xlink:href="#DejaVuSerif-34" transform="translate(520.898438 0)"/>
     </g>
    </g>
    <g id="patch_87">
     <path d="M 927.936406 66.746562 
L 945.936406 66.746562 
L 945.936406 60.446562 
L 927.936406 60.446562 
z
" style="fill: #007a87; stroke: #ffffff; stroke-width: 0.5; stroke-linejoin: miter"/>
    </g>
    <g id="text_20">
     <!-- Falcon-512 -->
     <g transform="translate(953.136406 66.746562) scale(0.09 -0.09)">
      <use xlink:href="#DejaVuSerif-46"/>
      <use xlink:href="#DejaVuSerif-61" transform="translate(62.634766 0)"/>
      <use xlink:href="#DejaVuSerif-6c" transform="translate(122.253906 0)"/>
      <use xlink:href="#DejaVuSerif-63" transform="translate(154.236328 0)"/>
      <use xlink:href="#DejaVuSerif-6f" transform="translate(210.242188 0)"/>
      <use xlink:href="#DejaVuSerif-6e" transform="translate(270.447266 0)"/>
      <use xlink:href="#DejaVuSerif-2d" transform="translate(334.851562 0)"/>
      <use xlink:href="#DejaVuSerif-35" transform="translate(368.640625 0)"/>
      <use xlink:href="#DejaVuSerif-31" transform="translate(432.263672 0)"/>
      <use xlink:href="#DejaVuSerif-32" transform="translate(495.886719 0)"/>
     </g>
    </g>
    <g id="patch_88">
     <path d="M 927.936406 79.956875 
L 945.936406 79.956875 
L 945.936406 73.656875 
L 927.936406 73.656875 
z
" style="fill: #6a1b9a; stroke: #ffffff; stroke-width: 0.5; stroke-linejoin: miter"/>
    </g>
    <g id="text_21">
     <!-- SPHINCS+ -->
     <g transform="translate(953.136406 79.956875) scale(0.09 -0.09)">
      <defs>
       <path id="DejaVuSerif-49" d="M 1581 331 
L 2175 331 
L 2175 0 
L 353 0 
L 353 331 
L 947 331 
L 947 4331 
L 353 4331 
L 353 4666 
L 2175 4666 
L 2175 4331 
L 1581 4331 
L 1581 331 
z
" transform="scale(0.015625)"/>
       <path id="DejaVuSerif-4e" d="M 313 0 
L 313 331 
L 941 331 
L 941 4331 
L 313 4331 
L 313 4666 
L 1509 4666 
L 4306 984 
L 4306 4331 
L 3681 4331 
L 3681 4666 
L 5319 4666 
L 5319 4331 
L 4691 4331 
L 4691 -91 
L 4313 -91 
L 1325 3841 
L 1325 331 
L 1953 331 
L 1953 0 
L 313 0 
z
" transform="scale(0.015625)"/>
       <path id="DejaVuSerif-2b" d="M 2931 4013 
L 2931 2259 
L 4684 2259 
L 4684 1753 
L 2931 1753 
L 2931 0 
L 2431 0 
L 2431 1753 
L 678 1753 
L 678 2259 
L 2431 2259 
L 2431 4013 
L 2931 4013 
z
" transform="scale(0.015625)"/>
      </defs>
      <use xlink:href="#DejaVuSerif-53"/>
      <use xlink:href="#DejaVuSerif-50" transform="translate(68.505859 0)"/>
      <use xlink:href="#DejaVuSerif-48" transform="translate(135.791016 0)"/>
      <use xlink:href="#DejaVuSerif-49" transform="translate(222.998047 0)"/>
      <use xlink:href="#DejaVuSerif-4e" transform="translate(262.5 0)"/>
      <use xlink:href="#DejaVuSerif-43" transform="translate(350 0)"/>
      <use xlink:href="#DejaVuSerif-53" transform="translate(426.513672 0)"/>
      <use xlink:href="#DejaVuSerif-2b" transform="translate(495.019531 0)"/>
     </g>
    </g>
    <g id="patch_89">
     <path d="M 927.936406 93.167188 
L 945.936406 93.167188 
L 945.936406 86.867188 
L 927.936406 86.867188 
z
" style="fill: #1b365d; stroke: #ffffff; stroke-width: 0.5; stroke-linejoin: miter"/>
    </g>
    <g id="text_22">
     <!-- ML-KEM-512 -->
     <g transform="translate(953.136406 93.167188) scale(0.09 -0.09)">
      <defs>
       <path id="DejaVuSerif-4b" d="M 353 0 
L 353 331 
L 947 331 
L 947 4331 
L 353 4331 
L 353 4666 
L 2175 4666 
L 2175 4331 
L 1581 4331 
L 1581 2566 
L 3591 4331 
L 3084 4331 
L 3084 4666 
L 4634 4666 
L 4634 4331 
L 4109 4331 
L 2106 2572 
L 4347 331 
L 4878 331 
L 4878 0 
L 3794 0 
L 1581 2216 
L 1581 331 
L 2175 331 
L 2175 0 
L 353 0 
z
" transform="scale(0.015625)"/>
      </defs>
      <use xlink:href="#DejaVuSerif-4d"/>
      <use xlink:href="#DejaVuSerif-4c" transform="translate(102.392578 0)"/>
      <use xlink:href="#DejaVuSerif-2d" transform="translate(168.798828 0)"/>
      <use xlink:href="#DejaVuSerif-4b" transform="translate(202.587891 0)"/>
      <use xlink:href="#DejaVuSerif-45" transform="translate(277.294922 0)"/>
      <use xlink:href="#DejaVuSerif-4d" transform="translate(350.292969 0)"/>
      <use xlink:href="#DejaVuSerif-2d" transform="translate(452.685547 0)"/>
      <use xlink:href="#DejaVuSerif-35" transform="translate(486.474609 0)"/>
      <use xlink:href="#DejaVuSerif-31" transform="translate(550.097656 0)"/>
      <use xlink:href="#DejaVuSerif-32" transform="translate(613.720703 0)"/>
     </g>
    </g>
    <g id="patch_90">
     <path d="M 1032.09875 53.53625 
L 1050.09875 53.53625 
L 1050.09875 47.23625 
L 1032.09875 47.23625 
z
" style="fill: #c8963e; stroke: #ffffff; stroke-width: 0.5; stroke-linejoin: miter"/>
    </g>
    <g id="text_23">
     <!-- ML-KEM-768 -->
     <g transform="translate(1057.29875 53.53625) scale(0.09 -0.09)">
      <defs>
       <path id="DejaVuSerif-37" d="M 3609 4347 
L 1784 0 
L 1319 0 
L 3059 4153 
L 903 4153 
L 903 3578 
L 538 3578 
L 538 4666 
L 3609 4666 
L 3609 4347 
z
" transform="scale(0.015625)"/>
       <path id="DejaVuSerif-36" d="M 2094 219 
Q 2534 219 2771 542 
Q 3009 866 3009 1472 
Q 3009 2078 2771 2401 
Q 2534 2725 2094 2725 
Q 1647 2725 1412 2412 
Q 1178 2100 1178 1509 
Q 1178 888 1415 553 
Q 1653 219 2094 219 
z
M 1075 2569 
Q 1288 2803 1556 2918 
Q 1825 3034 2163 3034 
Q 2859 3034 3264 2615 
Q 3669 2197 3669 1472 
Q 3669 763 3233 336 
Q 2797 -91 2069 -91 
Q 1278 -91 853 498 
Q 428 1088 428 2181 
Q 428 3406 931 4078 
Q 1434 4750 2350 4750 
Q 2597 4750 2869 4703 
Q 3141 4656 3425 4563 
L 3425 3794 
L 3072 3794 
Q 3034 4109 2831 4275 
Q 2628 4441 2284 4441 
Q 1678 4441 1381 3981 
Q 1084 3522 1075 2569 
z
" transform="scale(0.015625)"/>
       <path id="DejaVuSerif-38" d="M 2981 1275 
Q 2981 1775 2732 2051 
Q 2484 2328 2034 2328 
Q 1584 2328 1336 2051 
Q 1088 1775 1088 1275 
Q 1088 772 1336 495 
Q 1584 219 2034 219 
Q 2484 219 2732 495 
Q 2981 772 2981 1275 
z
M 2853 3541 
Q 2853 3966 2637 4203 
Q 2422 4441 2034 4441 
Q 1650 4441 1433 4203 
Q 1216 3966 1216 3541 
Q 1216 3113 1433 2875 
Q 1650 2638 2034 2638 
Q 2422 2638 2637 2875 
Q 2853 3113 2853 3541 
z
M 2516 2484 
Q 3047 2413 3344 2092 
Q 3641 1772 3641 1275 
Q 3641 619 3225 264 
Q 2809 -91 2034 -91 
Q 1263 -91 845 264 
Q 428 619 428 1275 
Q 428 1772 725 2092 
Q 1022 2413 1556 2484 
Q 1084 2569 832 2842 
Q 581 3116 581 3541 
Q 581 4103 968 4426 
Q 1356 4750 2034 4750 
Q 2713 4750 3100 4426 
Q 3488 4103 3488 3541 
Q 3488 3116 3236 2842 
Q 2984 2569 2516 2484 
z
" transform="scale(0.015625)"/>
      </defs>
      <use xlink:href="#DejaVuSerif-4d"/>
      <use xlink:href="#DejaVuSerif-4c" transform="translate(102.392578 0)"/>
      <use xlink:href="#DejaVuSerif-2d" transform="translate(168.798828 0)"/>
      <use xlink:href="#DejaVuSerif-4b" transform="translate(202.587891 0)"/>
      <use xlink:href="#DejaVuSerif-45" transform="translate(277.294922 0)"/>
      <use xlink:href="#DejaVuSerif-4d" transform="translate(350.292969 0)"/>
      <use xlink:href="#DejaVuSerif-2d" transform="translate(452.685547 0)"/>
      <use xlink:href="#DejaVuSerif-37" transform="translate(486.474609 0)"/>
      <use xlink:href="#DejaVuSerif-36" transform="translate(550.097656 0)"/>
      <use xlink:href="#DejaVuSerif-38" transform="translate(613.720703 0)"/>
     </g>
    </g>
    <g id="patch_91">
     <path d="M 1032.09875 66.746562 
L 1050.09875 66.746562 
L 1050.09875 60.446562 
L 1032.09875 60.446562 
z
" style="fill: #e67e22; stroke: #ffffff; stroke-width: 0.5; stroke-linejoin: miter"/>
    </g>
    <g id="text_24">
     <!-- BIKE-L1 -->
     <g transform="translate(1057.29875 66.746562) scale(0.09 -0.09)">
      <defs>
       <path id="DejaVuSerif-42" d="M 1581 331 
L 2516 331 
Q 3078 331 3337 575 
Q 3597 819 3597 1350 
Q 3597 1878 3339 2120 
Q 3081 2363 2516 2363 
L 1581 2363 
L 1581 331 
z
M 1581 2694 
L 2375 2694 
Q 2888 2694 3123 2891 
Q 3359 3088 3359 3513 
Q 3359 3941 3123 4136 
Q 2888 4331 2375 4331 
L 1581 4331 
L 1581 2694 
z
M 353 0 
L 353 331 
L 947 331 
L 947 4331 
L 353 4331 
L 353 4666 
L 2656 4666 
Q 3363 4666 3720 4377 
Q 4078 4088 4078 3513 
Q 4078 3097 3829 2850 
Q 3581 2603 3103 2547 
Q 3697 2472 4005 2167 
Q 4313 1863 4313 1350 
Q 4313 656 3875 328 
Q 3438 0 2509 0 
L 353 0 
z
" transform="scale(0.015625)"/>
      </defs>
      <use xlink:href="#DejaVuSerif-42"/>
      <use xlink:href="#DejaVuSerif-49" transform="translate(73.486328 0)"/>
      <use xlink:href="#DejaVuSerif-4b" transform="translate(112.988281 0)"/>
      <use xlink:href="#DejaVuSerif-45" transform="translate(187.695312 0)"/>
      <use xlink:href="#DejaVuSerif-2d" transform="translate(262.568359 0)"/>
      <use xlink:href="#DejaVuSerif-4c" transform="translate(296.357422 0)"/>
      <use xlink:href="#DejaVuSerif-31" transform="translate(362.763672 0)"/>
     </g>
    </g>
    <g id="patch_92">
     <path d="M 1032.09875 79.956875 
L 1050.09875 79.956875 
L 1050.09875 73.656875 
L 1032.09875 73.656875 
z
" style="fill: #c41e3a; stroke: #ffffff; stroke-width: 0.5; stroke-linejoin: miter"/>
    </g>
    <g id="text_25">
     <!-- FrodoKEM-976 -->
     <g transform="translate(1057.29875 79.956875) scale(0.09 -0.09)">
      <defs>
       <path id="DejaVuSerif-39" d="M 2994 2091 
Q 2784 1856 2512 1740 
Q 2241 1625 1900 1625 
Q 1206 1625 804 2044 
Q 403 2463 403 3188 
Q 403 3897 839 4323 
Q 1275 4750 2003 4750 
Q 2794 4750 3217 4161 
Q 3641 3572 3641 2478 
Q 3641 1253 3137 581 
Q 2634 -91 1722 -91 
Q 1475 -91 1203 -44 
Q 931 3 647 97 
L 647 872 
L 997 872 
Q 1038 556 1241 387 
Q 1444 219 1784 219 
Q 2391 219 2687 676 
Q 2984 1134 2994 2091 
z
M 1978 4441 
Q 1534 4441 1298 4117 
Q 1063 3794 1063 3188 
Q 1063 2581 1298 2256 
Q 1534 1931 1978 1931 
Q 2422 1931 2658 2245 
Q 2894 2559 2894 3150 
Q 2894 3772 2656 4106 
Q 2419 4441 1978 4441 
z
" transform="scale(0.015625)"/>
      </defs>
      <use xlink:href="#DejaVuSerif-46"/>
      <use xlink:href="#DejaVuSerif-72" transform="translate(69.384766 0)"/>
      <use xlink:href="#DejaVuSerif-6f" transform="translate(117.1875 0)"/>
      <use xlink:href="#DejaVuSerif-64" transform="translate(177.392578 0)"/>
      <use xlink:href="#DejaVuSerif-6f" transform="translate(241.40625 0)"/>
      <use xlink:href="#DejaVuSerif-4b" transform="translate(301.611328 0)"/>
      <use xlink:href="#DejaVuSerif-45" transform="translate(376.318359 0)"/>
      <use xlink:href="#DejaVuSerif-4d" transform="translate(449.316406 0)"/>
      <use xlink:href="#DejaVuSerif-2d" transform="translate(551.708984 0)"/>
      <use xlink:href="#DejaVuSerif-39" transform="translate(585.498047 0)"/>
      <use xlink:href="#DejaVuSerif-37" transform="translate(649.121094 0)"/>
      <use xlink:href="#DejaVuSerif-36" transform="translate(712.744141 0)"/>
     </g>
    </g>
    <g id="patch_93">
     <path d="M 1032.09875 93.167188 
L 1050.09875 93.167188 
L 1050.09875 86.867188 
L 1032.09875 86.867188 
z
" style="fill: #d4c5a9; stroke: #ffffff; stroke-width: 0.5; stroke-linejoin: miter"/>
    </g>
    <g id="text_26">
     <!-- HQC-128 -->
     <g transform="translate(1057.29875 93.167188) scale(0.09 -0.09)">
      <defs>
       <path id="DejaVuSerif-51" d="M 2700 -91 
Q 1628 -91 993 567 
Q 359 1225 359 2328 
Q 359 2894 529 3339 
Q 700 3784 1050 4134 
Q 1356 4441 1750 4595 
Q 2144 4750 2625 4750 
Q 3641 4750 4266 4084 
Q 4891 3419 4891 2328 
Q 4891 1403 4422 773 
Q 3953 144 3128 -38 
Q 3297 -247 3539 -347 
Q 3781 -447 4122 -447 
L 4219 -447 
L 4219 -1025 
Q 3691 -1000 3314 -767 
Q 2938 -534 2700 -91 
z
M 2625 244 
Q 3391 244 3781 770 
Q 4172 1297 4172 2328 
Q 4172 3363 3781 3889 
Q 3391 4416 2625 4416 
Q 1856 4416 1465 3889 
Q 1075 3363 1075 2328 
Q 1075 1297 1465 770 
Q 1856 244 2625 244 
z
" transform="scale(0.015625)"/>
      </defs>
      <use xlink:href="#DejaVuSerif-48"/>
      <use xlink:href="#DejaVuSerif-51" transform="translate(87.207031 0)"/>
      <use xlink:href="#DejaVuSerif-43" transform="translate(169.189453 0)"/>
      <use xlink:href="#DejaVuSerif-2d" transform="translate(245.703125 0)"/>
      <use xlink:href="#DejaVuSerif-31" transform="translate(279.492188 0)"/>
      <use xlink:href="#DejaVuSerif-32" transform="translate(343.115234 0)"/>
      <use xlink:href="#DejaVuSerif-38" transform="translate(406.738281 0)"/>
     </g>
    </g>
   </g>
  </g>
 </g>
 <defs>
  <clipPath id="pc795f87097">
   <rect x="36.8125" y="38.597656" width="1098.46" height="491.856"/>
  </clipPath>
 </defs>
</svg>
