<?xml version="1.0" encoding="utf-8" standalone="no"?>
<!DOCTYPE svg PUBLIC "-//W3C//DTD SVG 1.1//EN"
  "http://www.w3.org/Graphics/SVG/1.1/DTD/svg11.dtd">
<svg xmlns:xlink="http://www.w3.org/1999/xlink" width="715.966435pt" height="587.103219pt" viewBox="0 0 715.966435 587.103219" xmlns="http://www.w3.org/2000/svg" version="1.1">
 <metadata>
  <rdf:RDF xmlns:dc="http://purl.org/dc/elements/1.1/" xmlns:cc="http://creativecommons.org/ns#" xmlns:rdf="http://www.w3.org/1999/02/22-rdf-syntax-ns#">
   <cc:Work>
    <dc:type rdf:resource="http://purl.org/dc/dcmitype/StillImage"/>
    <dc:date>2026-07-05T17:48:42.725123</dc:date>
    <dc:format>image/svg+xml</dc:format>
    <dc:creator>
     <cc:Agent>
      <dc:title>Matplotlib v3.10.0, https://matplotlib.org/</dc:title>
     </cc:Agent>
    </dc:creator>
   </cc:Work>
  </rdf:RDF>
 </metadata>
 <defs>
  <style type="text/css">*{stroke-linejoin: round; stroke-linecap: butt}</style>
 </defs>
 <g id="figure_1">
  <g id="patch_1">
   <path d="M 0 587.103219 
L 715.966435 587.103219 
L 715.966435 0 
L 0 0 
z
" style="fill: #ffffff"/>
  </g>
  <g id="axes_1">
   <g id="patch_2">
    <path d="M 345.834313 91.034636 
C 294.292591 91.034636 244.40701 109.438399 205.214377 142.912069 
C 166.021744 176.38574 140.040738 222.778165 131.977836 273.685323 
C 123.914934 324.592481 134.288292 376.742871 161.218768 420.689413 
C 188.149244 464.635955 229.906176 497.554466 278.925266 513.481734 
L 345.834313 307.556861 
z
" style="fill: #2e7d32"/>
   </g>
   <g id="patch_3">
    <path d="M 289.618063 515.175303 
C 328.690697 527.870773 370.581355 529.187235 410.374045 518.970207 
C 450.166735 508.75318 486.241497 487.418626 514.365019 457.470118 
L 356.527137 309.250438 
z
" style="fill: #007a87"/>
   </g>
   <g id="patch_4">
    <path d="M 514.365019 457.470118 
C 537.754487 432.562871 554.919522 402.469412 564.452043 369.658296 
C 573.984563 336.84718 575.61657 302.240855 569.214167 268.678264 
L 356.527137 309.250438 
z
" style="fill: #e67e22"/>
   </g>
   <g id="patch_5">
    <path d="M 588.188155 258.247228 
C 583.930735 235.929004 576.186768 214.41932 565.241005 194.509043 
C 554.295242 174.598766 540.283504 156.534938 523.720857 140.981559 
L 375.501126 298.819402 
z
" style="fill: #6a1b9a"/>
   </g>
   <g id="patch_6">
    <path d="M 504.746869 151.412595 
C 493.165073 140.536561 480.421297 130.968253 466.745894 122.880645 
C 453.070492 114.793036 438.546357 108.235144 423.436044 103.325521 
L 356.527137 309.250438 
z
" style="fill: #c41e3a"/>
   </g>
   <g id="patch_7">
    <path d="M 423.436044 103.325521 
C 412.648332 99.820389 401.60184 97.168365 390.398617 95.393956 
C 379.195394 93.619547 367.870039 92.728213 356.527167 92.728213 
L 356.527137 309.250438 
z
" style="fill: #c8963e"/>
   </g>
   <g id="matplotlib.axis_1"/>
   <g id="matplotlib.axis_2"/>
   <g id="text_1">
    <!-- Lattice Signatures -->
    <g transform="translate(7.2 267.387549) scale(0.1 -0.1)">
     <defs>
      <path id="DejaVuSerif-Bold-4c" d="M 300 0 
L 300 378 
L 897 378 
L 897 4288 
L 300 4288 
L 300 4666 
L 2700 4666 
L 2700 4288 
L 2100 4288 
L 2100 428 
L 3938 428 
L 3938 1166 
L 4359 1166 
L 4359 0 
L 300 0 
z
" transform="scale(0.015625)"/>
      <path id="DejaVuSerif-Bold-61" d="M 3525 2041 
L 3525 378 
L 4000 378 
L 4000 0 
L 2419 0 
L 2419 422 
Q 2200 159 1931 34 
Q 1663 -91 1319 -91 
Q 809 -91 536 182 
Q 263 456 263 966 
Q 263 1525 655 1803 
Q 1047 2081 1838 2081 
L 2419 2081 
L 2419 2278 
Q 2419 2681 2228 2873 
Q 2038 3066 1638 3066 
Q 1306 3066 1126 2930 
Q 947 2794 872 2484 
L 519 2484 
L 519 3200 
Q 816 3306 1134 3359 
Q 1453 3413 1806 3413 
Q 2697 3413 3111 3081 
Q 3525 2750 3525 2041 
z
M 2419 1044 
L 2419 1709 
L 2003 1709 
Q 1694 1709 1528 1540 
Q 1363 1372 1363 1056 
Q 1363 741 1483 584 
Q 1603 428 1850 428 
Q 2106 428 2262 597 
Q 2419 766 2419 1044 
z
" transform="scale(0.015625)"/>
      <path id="DejaVuSerif-Bold-74" d="M 634 2944 
L 153 2944 
L 153 3322 
L 634 3322 
L 634 4353 
L 1741 4353 
L 1741 3322 
L 2663 3322 
L 2663 2944 
L 1741 2944 
L 1741 909 
Q 1741 475 1809 369 
Q 1878 263 2059 263 
Q 2259 263 2356 397 
Q 2453 531 2459 813 
L 2925 813 
Q 2897 313 2651 111 
Q 2406 -91 1806 -91 
Q 1122 -91 878 123 
Q 634 338 634 909 
L 634 2944 
z
" transform="scale(0.015625)"/>
      <path id="DejaVuSerif-Bold-69" d="M 588 4263 
Q 588 4516 763 4689 
Q 938 4863 1191 4863 
Q 1438 4863 1611 4689 
Q 1784 4516 1784 4263 
Q 1784 4016 1611 3842 
Q 1438 3669 1191 3669 
Q 938 3669 763 3841 
Q 588 4013 588 4263 
z
M 1797 378 
L 2272 378 
L 2272 0 
L 219 0 
L 219 378 
L 691 378 
L 691 2944 
L 219 2944 
L 219 3322 
L 1797 3322 
L 1797 378 
z
" transform="scale(0.015625)"/>
      <path id="DejaVuSerif-Bold-63" d="M 3609 1038 
Q 3491 469 3123 189 
Q 2756 -91 2125 -91 
Q 1238 -91 750 368 
Q 263 828 263 1663 
Q 263 2488 744 2950 
Q 1225 3413 2081 3413 
Q 2428 3413 2781 3347 
Q 3134 3281 3500 3150 
L 3500 2228 
L 3150 2228 
Q 3100 2650 2903 2854 
Q 2706 3059 2350 3059 
Q 1888 3059 1692 2746 
Q 1497 2434 1497 1663 
Q 1497 909 1687 586 
Q 1878 263 2309 263 
Q 2644 263 2845 463 
Q 3047 663 3091 1038 
L 3609 1038 
z
" transform="scale(0.015625)"/>
      <path id="DejaVuSerif-Bold-65" d="M 2566 1875 
Q 2566 2531 2444 2795 
Q 2322 3059 2028 3059 
Q 1744 3059 1620 2800 
Q 1497 2541 1497 1931 
L 1497 1875 
L 2566 1875 
z
M 3781 1503 
L 1497 1503 
L 1497 1478 
Q 1497 834 1690 548 
Q 1884 263 2316 263 
Q 2675 263 2897 453 
Q 3119 644 3181 1006 
L 3700 1006 
Q 3566 441 3166 175 
Q 2766 -91 2047 -91 
Q 1184 -91 723 364 
Q 263 819 263 1663 
Q 263 2488 734 2950 
Q 1206 3413 2047 3413 
Q 2872 3413 3312 2927 
Q 3753 2441 3781 1503 
z
" transform="scale(0.015625)"/>
      <path id="DejaVuSerif-Bold-20" transform="scale(0.015625)"/>
      <path id="DejaVuSerif-Bold-53" d="M 494 225 
L 494 1331 
L 891 1331 
Q 981 806 1318 547 
Q 1656 288 2253 288 
Q 2738 288 2991 472 
Q 3244 656 3244 1013 
Q 3244 1294 3072 1450 
Q 2900 1606 2363 1741 
L 1663 1913 
Q 978 2088 700 2398 
Q 422 2709 422 3284 
Q 422 3978 883 4364 
Q 1344 4750 2175 4750 
Q 2584 4750 3026 4681 
Q 3469 4613 3944 4475 
L 3944 3444 
L 3547 3444 
Q 3456 3925 3150 4148 
Q 2844 4372 2278 4372 
Q 1816 4372 1580 4211 
Q 1344 4050 1344 3731 
Q 1344 3441 1506 3289 
Q 1669 3138 2303 2975 
L 3003 2803 
Q 3653 2641 3945 2297 
Q 4238 1953 4238 1350 
Q 4238 644 3750 276 
Q 3263 -91 2316 -91 
Q 1859 -91 1409 -12 
Q 959 66 494 225 
z
" transform="scale(0.015625)"/>
      <path id="DejaVuSerif-Bold-67" d="M 3853 2944 
L 3853 44 
Q 3853 -656 3354 -1039 
Q 2856 -1422 1947 -1422 
Q 1616 -1422 1275 -1370 
Q 934 -1319 575 -1216 
L 575 -422 
L 928 -422 
Q 975 -750 1192 -909 
Q 1409 -1069 1813 -1069 
Q 2325 -1069 2536 -823 
Q 2747 -578 2747 44 
L 2747 422 
Q 2606 163 2367 36 
Q 2128 -91 1778 -91 
Q 1072 -91 667 378 
Q 263 847 263 1663 
Q 263 2481 667 2947 
Q 1072 3413 1778 3413 
Q 2128 3413 2367 3286 
Q 2606 3159 2747 2900 
L 2747 3322 
L 4325 3322 
L 4325 2944 
L 3853 2944 
z
M 2747 1825 
Q 2747 2406 2597 2665 
Q 2447 2925 2119 2925 
Q 1775 2925 1636 2651 
Q 1497 2378 1497 1663 
Q 1497 947 1637 672 
Q 1778 397 2119 397 
Q 2447 397 2597 656 
Q 2747 916 2747 1497 
L 2747 1825 
z
" transform="scale(0.015625)"/>
      <path id="DejaVuSerif-Bold-6e" d="M 219 0 
L 219 378 
L 691 378 
L 691 2944 
L 219 2944 
L 219 3322 
L 1797 3322 
L 1797 2853 
Q 1997 3150 2253 3281 
Q 2509 3413 2900 3413 
Q 3459 3413 3745 3083 
Q 4031 2753 4031 2113 
L 4031 378 
L 4506 378 
L 4506 0 
L 2522 0 
L 2522 378 
L 2925 378 
L 2925 2144 
Q 2925 2566 2817 2730 
Q 2709 2894 2444 2894 
Q 2109 2894 1953 2648 
Q 1797 2403 1797 1869 
L 1797 378 
L 2203 378 
L 2203 0 
L 219 0 
z
" transform="scale(0.015625)"/>
      <path id="DejaVuSerif-Bold-75" d="M 3963 3322 
L 3963 378 
L 4434 378 
L 4434 0 
L 2853 0 
L 2853 469 
Q 2656 172 2400 40 
Q 2144 -91 1753 -91 
Q 1194 -91 908 239 
Q 622 569 622 1209 
L 622 2944 
L 147 2944 
L 147 3322 
L 1728 3322 
L 1728 1381 
Q 1728 763 1831 595 
Q 1934 428 2209 428 
Q 2544 428 2698 675 
Q 2853 922 2853 1459 
L 2853 2944 
L 2450 2944 
L 2450 3322 
L 3963 3322 
z
" transform="scale(0.015625)"/>
      <path id="DejaVuSerif-Bold-72" d="M 3438 3359 
L 3438 2369 
L 3084 2369 
Q 3066 2634 2941 2764 
Q 2816 2894 2578 2894 
Q 2216 2894 2006 2575 
Q 1797 2256 1797 1691 
L 1797 378 
L 2400 378 
L 2400 0 
L 219 0 
L 219 378 
L 691 378 
L 691 2944 
L 184 2944 
L 184 3322 
L 1797 3322 
L 1797 2731 
Q 1959 3078 2226 3245 
Q 2494 3413 2881 3413 
Q 2978 3413 3117 3398 
Q 3256 3384 3438 3359 
z
" transform="scale(0.015625)"/>
      <path id="DejaVuSerif-Bold-73" d="M 300 97 
L 300 1025 
L 653 1025 
Q 697 653 931 458 
Q 1166 263 1569 263 
Q 1906 263 2086 380 
Q 2266 497 2266 716 
Q 2266 916 2152 1025 
Q 2038 1134 1709 1216 
L 1253 1331 
Q 738 1459 506 1698 
Q 275 1938 275 2344 
Q 275 2884 650 3148 
Q 1025 3413 1806 3413 
Q 2100 3413 2433 3364 
Q 2766 3316 3169 3213 
L 3169 2375 
L 2816 2375 
Q 2788 2716 2573 2887 
Q 2359 3059 1959 3059 
Q 1622 3059 1448 2951 
Q 1275 2844 1275 2638 
Q 1275 2469 1375 2372 
Q 1475 2275 1734 2209 
L 2188 2094 
Q 2841 1928 3091 1684 
Q 3341 1441 3341 1006 
Q 3341 444 2939 176 
Q 2538 -91 1691 -91 
Q 1381 -91 1034 -44 
Q 688 3 300 97 
z
" transform="scale(0.015625)"/>
     </defs>
     <use xlink:href="#DejaVuSerif-Bold-4c"/>
     <use xlink:href="#DejaVuSerif-Bold-61" transform="translate(70.3125 0)"/>
     <use xlink:href="#DejaVuSerif-Bold-74" transform="translate(135.107422 0)"/>
     <use xlink:href="#DejaVuSerif-Bold-74" transform="translate(181.298828 0)"/>
     <use xlink:href="#DejaVuSerif-Bold-69" transform="translate(227.490234 0)"/>
     <use xlink:href="#DejaVuSerif-Bold-63" transform="translate(265.478516 0)"/>
     <use xlink:href="#DejaVuSerif-Bold-65" transform="translate(326.367188 0)"/>
     <use xlink:href="#DejaVuSerif-Bold-20" transform="translate(389.990234 0)"/>
     <use xlink:href="#DejaVuSerif-Bold-53" transform="translate(424.804688 0)"/>
     <use xlink:href="#DejaVuSerif-Bold-69" transform="translate(497.021484 0)"/>
     <use xlink:href="#DejaVuSerif-Bold-67" transform="translate(535.009766 0)"/>
     <use xlink:href="#DejaVuSerif-Bold-6e" transform="translate(604.931641 0)"/>
     <use xlink:href="#DejaVuSerif-Bold-61" transform="translate(677.636719 0)"/>
     <use xlink:href="#DejaVuSerif-Bold-74" transform="translate(742.431641 0)"/>
     <use xlink:href="#DejaVuSerif-Bold-75" transform="translate(788.623047 0)"/>
     <use xlink:href="#DejaVuSerif-Bold-72" transform="translate(861.328125 0)"/>
     <use xlink:href="#DejaVuSerif-Bold-65" transform="translate(914.013672 0)"/>
     <use xlink:href="#DejaVuSerif-Bold-73" transform="translate(977.636719 0)"/>
    </g>
    <!-- (ML-DSA/Falcon) -->
    <g transform="translate(14.715625 278.727549) scale(0.1 -0.1)">
     <defs>
      <path id="DejaVuSerif-Bold-28" d="M 2694 -997 
Q 1641 -606 1122 122 
Q 603 850 603 1931 
Q 603 3013 1115 3731 
Q 1628 4450 2694 4863 
L 2694 4488 
Q 2200 4188 1983 3598 
Q 1766 3009 1766 1931 
Q 1766 856 1983 267 
Q 2200 -322 2694 -622 
L 2694 -997 
z
" transform="scale(0.015625)"/>
      <path id="DejaVuSerif-Bold-4d" d="M 269 0 
L 269 378 
L 863 378 
L 863 4288 
L 269 4288 
L 269 4666 
L 2194 4666 
L 3525 1672 
L 4863 4666 
L 6784 4666 
L 6784 4288 
L 6188 4288 
L 6188 378 
L 6784 378 
L 6784 0 
L 4384 0 
L 4384 378 
L 4978 378 
L 4978 3938 
L 3531 684 
L 2741 684 
L 1300 3938 
L 1300 378 
L 1894 378 
L 1894 0 
L 269 0 
z
" transform="scale(0.015625)"/>
      <path id="DejaVuSerif-Bold-2d" d="M 347 2138 
L 2309 2138 
L 2309 1294 
L 347 1294 
L 347 2138 
z
" transform="scale(0.015625)"/>
      <path id="DejaVuSerif-Bold-44" d="M 2100 378 
L 2534 378 
Q 3266 378 3605 847 
Q 3944 1316 3944 2338 
Q 3944 3353 3606 3820 
Q 3269 4288 2534 4288 
L 2100 4288 
L 2100 378 
z
M 300 0 
L 300 378 
L 897 378 
L 897 4288 
L 300 4288 
L 300 4666 
L 2694 4666 
Q 3950 4666 4615 4066 
Q 5281 3466 5281 2338 
Q 5281 1203 4614 601 
Q 3947 0 2694 0 
L 300 0 
z
" transform="scale(0.015625)"/>
      <path id="DejaVuSerif-Bold-41" d="M -50 0 
L -50 378 
L 331 378 
L 2088 4666 
L 2834 4666 
L 4594 378 
L 5038 378 
L 5038 0 
L 2853 0 
L 2853 378 
L 3309 378 
L 2925 1331 
L 1172 1331 
L 781 378 
L 1338 378 
L 1338 0 
L -50 0 
z
M 1325 1709 
L 2772 1709 
L 2053 3494 
L 1325 1709 
z
" transform="scale(0.015625)"/>
      <path id="DejaVuSerif-Bold-2f" d="M 1644 4666 
L 2338 4666 
L 691 -594 
L 0 -594 
L 1644 4666 
z
" transform="scale(0.015625)"/>
      <path id="DejaVuSerif-Bold-46" d="M 300 0 
L 300 378 
L 897 378 
L 897 4288 
L 300 4288 
L 300 4666 
L 4459 4666 
L 4459 3566 
L 4031 3566 
L 4031 4238 
L 2106 4238 
L 2106 2741 
L 3291 2741 
L 3291 3334 
L 3719 3334 
L 3719 1722 
L 3291 1722 
L 3291 2316 
L 2106 2316 
L 2106 378 
L 2841 378 
L 2841 0 
L 300 0 
z
" transform="scale(0.015625)"/>
      <path id="DejaVuSerif-Bold-6c" d="M 1797 378 
L 2272 378 
L 2272 0 
L 219 0 
L 219 378 
L 691 378 
L 691 4488 
L 219 4488 
L 219 4863 
L 1797 4863 
L 1797 378 
z
" transform="scale(0.015625)"/>
      <path id="DejaVuSerif-Bold-6f" d="M 2138 263 
Q 2488 263 2630 563 
Q 2772 863 2772 1663 
Q 2772 2463 2631 2761 
Q 2491 3059 2138 3059 
Q 1784 3059 1640 2757 
Q 1497 2456 1497 1663 
Q 1497 869 1640 566 
Q 1784 263 2138 263 
z
M 2138 -91 
Q 1259 -91 761 376 
Q 263 844 263 1663 
Q 263 2484 761 2948 
Q 1259 3413 2138 3413 
Q 3019 3413 3516 2948 
Q 4013 2484 4013 1663 
Q 4013 844 3514 376 
Q 3016 -91 2138 -91 
z
" transform="scale(0.015625)"/>
      <path id="DejaVuSerif-Bold-29" d="M 325 -997 
L 325 -622 
Q 819 -322 1036 267 
Q 1253 856 1253 1931 
Q 1253 3009 1036 3598 
Q 819 4188 325 4488 
L 325 4863 
Q 1391 4450 1905 3731 
Q 2419 3013 2419 1931 
Q 2419 850 1898 122 
Q 1378 -606 325 -997 
z
" transform="scale(0.015625)"/>
     </defs>
     <use xlink:href="#DejaVuSerif-Bold-28"/>
     <use xlink:href="#DejaVuSerif-Bold-4d" transform="translate(47.314453 0)"/>
     <use xlink:href="#DejaVuSerif-Bold-4c" transform="translate(158.007812 0)"/>
     <use xlink:href="#DejaVuSerif-Bold-2d" transform="translate(228.320312 0)"/>
     <use xlink:href="#DejaVuSerif-Bold-44" transform="translate(269.824219 0)"/>
     <use xlink:href="#DejaVuSerif-Bold-53" transform="translate(356.542969 0)"/>
     <use xlink:href="#DejaVuSerif-Bold-41" transform="translate(428.759766 0)"/>
     <use xlink:href="#DejaVuSerif-Bold-2f" transform="translate(506.347656 0)"/>
     <use xlink:href="#DejaVuSerif-Bold-46" transform="translate(542.871094 0)"/>
     <use xlink:href="#DejaVuSerif-Bold-61" transform="translate(608.367188 0)"/>
     <use xlink:href="#DejaVuSerif-Bold-6c" transform="translate(673.162109 0)"/>
     <use xlink:href="#DejaVuSerif-Bold-63" transform="translate(711.150391 0)"/>
     <use xlink:href="#DejaVuSerif-Bold-6f" transform="translate(772.039062 0)"/>
     <use xlink:href="#DejaVuSerif-Bold-6e" transform="translate(838.738281 0)"/>
     <use xlink:href="#DejaVuSerif-Bold-29" transform="translate(911.443359 0)"/>
    </g>
   </g>
   <g id="text_2">
    <!-- 45% -->
    <g transform="translate(205.811833 289.993316) scale(0.1 -0.1)">
     <defs>
      <path id="DejaVuSerif-Bold-34" d="M 4084 0 
L 1516 0 
L 1516 378 
L 2209 378 
L 2209 1228 
L 263 1228 
L 263 1588 
L 2216 4750 
L 3391 4750 
L 3391 1631 
L 4191 1631 
L 4191 1228 
L 3391 1228 
L 3391 378 
L 4084 378 
L 4084 0 
z
M 2209 1631 
L 2209 3897 
L 819 1631 
L 2209 1631 
z
" transform="scale(0.015625)"/>
      <path id="DejaVuSerif-Bold-35" d="M 3609 4666 
L 3609 3847 
L 1113 3847 
L 1113 2822 
Q 1319 2981 1572 3062 
Q 1825 3144 2106 3144 
Q 2969 3144 3469 2708 
Q 3969 2272 3969 1522 
Q 3969 759 3469 334 
Q 2969 -91 2069 -91 
Q 1688 -91 1311 -28 
Q 934 34 525 166 
L 525 1184 
L 900 1184 
Q 919 725 1139 500 
Q 1359 275 1791 275 
Q 2250 275 2472 583 
Q 2694 891 2694 1522 
Q 2694 2144 2476 2451 
Q 2259 2759 1819 2759 
Q 1581 2759 1395 2661 
Q 1209 2563 1050 2356 
L 738 2356 
L 738 4666 
L 3609 4666 
z
" transform="scale(0.015625)"/>
      <path id="DejaVuSerif-Bold-25" d="M 1381 4434 
Q 1181 4434 1093 4217 
Q 1006 4000 1006 3481 
Q 1006 2959 1093 2740 
Q 1181 2522 1381 2522 
Q 1584 2522 1671 2740 
Q 1759 2959 1759 3481 
Q 1759 4000 1671 4217 
Q 1584 4434 1381 4434 
z
M 1381 4750 
Q 1978 4750 2295 4423 
Q 2613 4097 2613 3481 
Q 2613 2866 2295 2537 
Q 1978 2209 1381 2209 
Q 788 2209 470 2537 
Q 153 2866 153 3481 
Q 153 4097 470 4423 
Q 788 4750 1381 4750 
z
M 4231 4750 
L 4769 4750 
L 1850 -91 
L 1313 -91 
L 4231 4750 
z
M 4697 2450 
Q 5294 2450 5609 2123 
Q 5925 1797 5925 1184 
Q 5925 569 5609 239 
Q 5294 -91 4697 -91 
Q 4103 -91 3786 239 
Q 3469 569 3469 1184 
Q 3469 1797 3786 2123 
Q 4103 2450 4697 2450 
z
M 4697 2138 
Q 4494 2138 4406 1920 
Q 4319 1703 4319 1184 
Q 4319 663 4408 444 
Q 4497 225 4697 225 
Q 4900 225 4987 444 
Q 5075 663 5075 1184 
Q 5075 1703 4987 1920 
Q 4900 2138 4697 2138 
z
" transform="scale(0.015625)"/>
     </defs>
     <use xlink:href="#DejaVuSerif-Bold-34"/>
     <use xlink:href="#DejaVuSerif-Bold-35" transform="translate(69.580078 0)"/>
     <use xlink:href="#DejaVuSerif-Bold-25" transform="translate(139.160156 0)"/>
    </g>
   </g>
   <g id="text_3">
    <!-- Lattice KEM -->
    <g transform="translate(415.75874 537.102659) scale(0.1 -0.1)">
     <defs>
      <path id="DejaVuSerif-Bold-4b" d="M 300 0 
L 300 378 
L 897 378 
L 897 4288 
L 300 4288 
L 300 4666 
L 2700 4666 
L 2700 4288 
L 2100 4288 
L 2100 2584 
L 4078 4288 
L 3578 4288 
L 3578 4666 
L 5319 4666 
L 5319 4288 
L 4697 4288 
L 3022 2847 
L 5300 378 
L 5759 378 
L 5759 0 
L 4178 0 
L 2100 2266 
L 2100 378 
L 2700 378 
L 2700 0 
L 300 0 
z
" transform="scale(0.015625)"/>
      <path id="DejaVuSerif-Bold-45" d="M 300 0 
L 300 378 
L 897 378 
L 897 4288 
L 300 4288 
L 300 4666 
L 4494 4666 
L 4494 3566 
L 4063 3566 
L 4063 4238 
L 2100 4238 
L 2100 2741 
L 3322 2741 
L 3322 3334 
L 3750 3334 
L 3750 1722 
L 3322 1722 
L 3322 2316 
L 2100 2316 
L 2100 428 
L 4122 428 
L 4122 1100 
L 4550 1100 
L 4550 0 
L 300 0 
z
" transform="scale(0.015625)"/>
     </defs>
     <use xlink:href="#DejaVuSerif-Bold-4c"/>
     <use xlink:href="#DejaVuSerif-Bold-61" transform="translate(70.3125 0)"/>
     <use xlink:href="#DejaVuSerif-Bold-74" transform="translate(135.107422 0)"/>
     <use xlink:href="#DejaVuSerif-Bold-74" transform="translate(181.298828 0)"/>
     <use xlink:href="#DejaVuSerif-Bold-69" transform="translate(227.490234 0)"/>
     <use xlink:href="#DejaVuSerif-Bold-63" transform="translate(265.478516 0)"/>
     <use xlink:href="#DejaVuSerif-Bold-65" transform="translate(326.367188 0)"/>
     <use xlink:href="#DejaVuSerif-Bold-20" transform="translate(389.990234 0)"/>
     <use xlink:href="#DejaVuSerif-Bold-4b" transform="translate(424.804688 0)"/>
     <use xlink:href="#DejaVuSerif-Bold-45" transform="translate(511.71875 0)"/>
     <use xlink:href="#DejaVuSerif-Bold-4d" transform="translate(587.939453 0)"/>
    </g>
    <!-- (ML-KEM) -->
    <g transform="translate(415.75874 548.300472) scale(0.1 -0.1)">
     <use xlink:href="#DejaVuSerif-Bold-28"/>
     <use xlink:href="#DejaVuSerif-Bold-4d" transform="translate(47.314453 0)"/>
     <use xlink:href="#DejaVuSerif-Bold-4c" transform="translate(158.007812 0)"/>
     <use xlink:href="#DejaVuSerif-Bold-2d" transform="translate(228.320312 0)"/>
     <use xlink:href="#DejaVuSerif-Bold-4b" transform="translate(269.824219 0)"/>
     <use xlink:href="#DejaVuSerif-Bold-45" transform="translate(356.738281 0)"/>
     <use xlink:href="#DejaVuSerif-Bold-4d" transform="translate(432.958984 0)"/>
     <use xlink:href="#DejaVuSerif-Bold-29" transform="translate(543.652344 0)"/>
    </g>
   </g>
   <g id="text_4">
    <!-- 18% -->
    <g transform="translate(377.126691 437.841678) scale(0.1 -0.1)">
     <defs>
      <path id="DejaVuSerif-Bold-31" d="M 878 0 
L 878 378 
L 1753 378 
L 1753 4153 
L 781 3578 
L 781 4044 
L 1953 4750 
L 2938 4750 
L 2938 378 
L 3816 378 
L 3816 0 
L 878 0 
z
" transform="scale(0.015625)"/>
      <path id="DejaVuSerif-Bold-38" d="M 2975 2484 
Q 3531 2394 3820 2075 
Q 4109 1756 4109 1241 
Q 4109 597 3623 253 
Q 3138 -91 2222 -91 
Q 1306 -91 818 253 
Q 331 597 331 1241 
Q 331 1756 622 2075 
Q 913 2394 1466 2484 
Q 975 2597 731 2861 
Q 488 3125 488 3531 
Q 488 4125 931 4437 
Q 1375 4750 2222 4750 
Q 3066 4750 3511 4437 
Q 3956 4125 3956 3531 
Q 3956 3125 3711 2861 
Q 3466 2597 2975 2484 
z
M 2747 3519 
Q 2747 4013 2628 4198 
Q 2509 4384 2222 4384 
Q 1931 4384 1814 4198 
Q 1697 4013 1697 3519 
Q 1697 3028 1814 2845 
Q 1931 2663 2222 2663 
Q 2513 2663 2630 2845 
Q 2747 3028 2747 3519 
z
M 2869 1294 
Q 2869 1866 2723 2081 
Q 2578 2297 2222 2297 
Q 1863 2297 1719 2081 
Q 1575 1866 1575 1294 
Q 1575 716 1720 495 
Q 1866 275 2222 275 
Q 2575 275 2722 495 
Q 2869 716 2869 1294 
z
" transform="scale(0.015625)"/>
     </defs>
     <use xlink:href="#DejaVuSerif-Bold-31"/>
     <use xlink:href="#DejaVuSerif-Bold-38" transform="translate(69.580078 0)"/>
     <use xlink:href="#DejaVuSerif-Bold-25" transform="translate(139.160156 0)"/>
    </g>
   </g>
   <g id="text_5">
    <!-- Code-Based -->
    <g transform="translate(585.24456 372.859446) scale(0.1 -0.1)">
     <defs>
      <path id="DejaVuSerif-Bold-43" d="M 4769 1331 
Q 4584 609 4106 259 
Q 3628 -91 2822 -91 
Q 1641 -91 955 561 
Q 269 1213 269 2328 
Q 269 3447 955 4098 
Q 1641 4750 2822 4750 
Q 3238 4750 3688 4650 
Q 4138 4550 4641 4347 
L 4641 3200 
L 4244 3200 
Q 4122 3788 3800 4080 
Q 3478 4372 2950 4372 
Q 2269 4372 1937 3870 
Q 1606 3369 1606 2328 
Q 1606 1288 1937 788 
Q 2269 288 2956 288 
Q 3422 288 3717 547 
Q 4013 806 4147 1331 
L 4769 1331 
z
" transform="scale(0.015625)"/>
      <path id="DejaVuSerif-Bold-64" d="M 2747 1497 
L 2747 1825 
Q 2747 2406 2597 2665 
Q 2447 2925 2119 2925 
Q 1775 2925 1636 2651 
Q 1497 2378 1497 1663 
Q 1497 947 1637 672 
Q 1778 397 2119 397 
Q 2447 397 2597 656 
Q 2747 916 2747 1497 
z
M 3853 378 
L 4325 378 
L 4325 0 
L 2747 0 
L 2747 422 
Q 2606 163 2367 36 
Q 2128 -91 1778 -91 
Q 1072 -91 667 378 
Q 263 847 263 1663 
Q 263 2481 667 2947 
Q 1072 3413 1778 3413 
Q 2128 3413 2367 3286 
Q 2606 3159 2747 2900 
L 2747 4488 
L 2272 4488 
L 2272 4863 
L 3853 4863 
L 3853 378 
z
" transform="scale(0.015625)"/>
      <path id="DejaVuSerif-Bold-42" d="M 300 0 
L 300 378 
L 897 378 
L 897 4288 
L 300 4288 
L 300 4666 
L 3066 4666 
Q 3919 4666 4347 4378 
Q 4775 4091 4775 3513 
Q 4775 3097 4479 2853 
Q 4184 2609 3603 2547 
Q 4306 2481 4681 2172 
Q 5056 1863 5056 1350 
Q 5056 656 4532 328 
Q 4009 0 2894 0 
L 300 0 
z
M 2100 2719 
L 2509 2719 
Q 3047 2719 3306 2914 
Q 3566 3109 3566 3513 
Q 3566 3919 3314 4103 
Q 3063 4288 2509 4288 
L 2100 4288 
L 2100 2719 
z
M 2100 378 
L 2547 378 
Q 3144 378 3431 615 
Q 3719 853 3719 1350 
Q 3719 1850 3428 2097 
Q 3138 2344 2547 2344 
L 2100 2344 
L 2100 378 
z
" transform="scale(0.015625)"/>
     </defs>
     <use xlink:href="#DejaVuSerif-Bold-43"/>
     <use xlink:href="#DejaVuSerif-Bold-6f" transform="translate(79.589844 0)"/>
     <use xlink:href="#DejaVuSerif-Bold-64" transform="translate(146.289062 0)"/>
     <use xlink:href="#DejaVuSerif-Bold-65" transform="translate(216.210938 0)"/>
     <use xlink:href="#DejaVuSerif-Bold-2d" transform="translate(279.833984 0)"/>
     <use xlink:href="#DejaVuSerif-Bold-42" transform="translate(321.337891 0)"/>
     <use xlink:href="#DejaVuSerif-Bold-61" transform="translate(405.859375 0)"/>
     <use xlink:href="#DejaVuSerif-Bold-73" transform="translate(470.654297 0)"/>
     <use xlink:href="#DejaVuSerif-Bold-65" transform="translate(526.953125 0)"/>
     <use xlink:href="#DejaVuSerif-Bold-64" transform="translate(590.576172 0)"/>
    </g>
    <!-- (McEliece/HQC/BIKE) -->
    <g transform="translate(585.24456 384.057258) scale(0.1 -0.1)">
     <defs>
      <path id="DejaVuSerif-Bold-48" d="M 300 0 
L 300 378 
L 897 378 
L 897 4288 
L 300 4288 
L 300 4666 
L 2700 4666 
L 2700 4288 
L 2100 4288 
L 2100 2719 
L 3956 2719 
L 3956 4288 
L 3359 4288 
L 3359 4666 
L 5759 4666 
L 5759 4288 
L 5159 4288 
L 5159 378 
L 5759 378 
L 5759 0 
L 3359 0 
L 3359 378 
L 3956 378 
L 3956 2291 
L 2100 2291 
L 2100 378 
L 2700 378 
L 2700 0 
L 300 0 
z
" transform="scale(0.015625)"/>
      <path id="DejaVuSerif-Bold-51" d="M 2766 -91 
Q 1584 -72 926 565 
Q 269 1203 269 2328 
Q 269 3459 939 4104 
Q 1609 4750 2784 4750 
Q 3963 4750 4631 4106 
Q 5300 3463 5300 2328 
Q 5300 1334 4786 715 
Q 4272 97 3322 -50 
Q 3488 -228 3725 -306 
Q 3963 -384 4341 -384 
L 4500 -384 
L 4500 -1153 
L 4409 -1153 
Q 3816 -1153 3419 -897 
Q 3022 -641 2766 -91 
z
M 2784 288 
Q 3381 288 3672 791 
Q 3963 1294 3963 2328 
Q 3963 3366 3672 3869 
Q 3381 4372 2784 4372 
Q 2191 4372 1898 3864 
Q 1606 3356 1606 2328 
Q 1606 1303 1898 795 
Q 2191 288 2784 288 
z
" transform="scale(0.015625)"/>
      <path id="DejaVuSerif-Bold-49" d="M 300 0 
L 300 378 
L 897 378 
L 897 4288 
L 300 4288 
L 300 4666 
L 2700 4666 
L 2700 4288 
L 2100 4288 
L 2100 378 
L 2700 378 
L 2700 0 
L 300 0 
z
" transform="scale(0.015625)"/>
     </defs>
     <use xlink:href="#DejaVuSerif-Bold-28"/>
     <use xlink:href="#DejaVuSerif-Bold-4d" transform="translate(47.314453 0)"/>
     <use xlink:href="#DejaVuSerif-Bold-63" transform="translate(158.007812 0)"/>
     <use xlink:href="#DejaVuSerif-Bold-45" transform="translate(218.896484 0)"/>
     <use xlink:href="#DejaVuSerif-Bold-6c" transform="translate(295.117188 0)"/>
     <use xlink:href="#DejaVuSerif-Bold-69" transform="translate(333.105469 0)"/>
     <use xlink:href="#DejaVuSerif-Bold-65" transform="translate(371.09375 0)"/>
     <use xlink:href="#DejaVuSerif-Bold-63" transform="translate(434.716797 0)"/>
     <use xlink:href="#DejaVuSerif-Bold-65" transform="translate(495.605469 0)"/>
     <use xlink:href="#DejaVuSerif-Bold-2f" transform="translate(559.228516 0)"/>
     <use xlink:href="#DejaVuSerif-Bold-48" transform="translate(595.751953 0)"/>
     <use xlink:href="#DejaVuSerif-Bold-51" transform="translate(690.234375 0)"/>
     <use xlink:href="#DejaVuSerif-Bold-43" transform="translate(777.34375 0)"/>
     <use xlink:href="#DejaVuSerif-Bold-2f" transform="translate(856.933594 0)"/>
     <use xlink:href="#DejaVuSerif-Bold-42" transform="translate(893.457031 0)"/>
     <use xlink:href="#DejaVuSerif-Bold-49" transform="translate(977.978516 0)"/>
     <use xlink:href="#DejaVuSerif-Bold-4b" transform="translate(1024.755859 0)"/>
     <use xlink:href="#DejaVuSerif-Bold-45" transform="translate(1111.669922 0)"/>
     <use xlink:href="#DejaVuSerif-Bold-29" transform="translate(1187.890625 0)"/>
    </g>
   </g>
   <g id="text_6">
    <!-- 15% -->
    <g transform="translate(469.573501 348.25447) scale(0.1 -0.1)">
     <use xlink:href="#DejaVuSerif-Bold-31"/>
     <use xlink:href="#DejaVuSerif-Bold-35" transform="translate(69.580078 0)"/>
     <use xlink:href="#DejaVuSerif-Bold-25" transform="translate(139.160156 0)"/>
    </g>
   </g>
   <g id="text_7">
    <!-- Hash-Based -->
    <g transform="translate(584.214996 181.238476) scale(0.1 -0.1)">
     <defs>
      <path id="DejaVuSerif-Bold-68" d="M 219 0 
L 219 378 
L 691 378 
L 691 4488 
L 197 4488 
L 197 4863 
L 1797 4863 
L 1797 2853 
Q 1997 3150 2253 3281 
Q 2509 3413 2900 3413 
Q 3459 3413 3745 3083 
Q 4031 2753 4031 2113 
L 4031 378 
L 4506 378 
L 4506 0 
L 2522 0 
L 2522 378 
L 2925 378 
L 2925 2144 
Q 2925 2566 2817 2730 
Q 2709 2894 2444 2894 
Q 2109 2894 1953 2648 
Q 1797 2403 1797 1869 
L 1797 378 
L 2203 378 
L 2203 0 
L 219 0 
z
" transform="scale(0.015625)"/>
     </defs>
     <use xlink:href="#DejaVuSerif-Bold-48"/>
     <use xlink:href="#DejaVuSerif-Bold-61" transform="translate(94.482422 0)"/>
     <use xlink:href="#DejaVuSerif-Bold-73" transform="translate(159.277344 0)"/>
     <use xlink:href="#DejaVuSerif-Bold-68" transform="translate(215.576172 0)"/>
     <use xlink:href="#DejaVuSerif-Bold-2d" transform="translate(288.28125 0)"/>
     <use xlink:href="#DejaVuSerif-Bold-42" transform="translate(329.785156 0)"/>
     <use xlink:href="#DejaVuSerif-Bold-61" transform="translate(414.306641 0)"/>
     <use xlink:href="#DejaVuSerif-Bold-73" transform="translate(479.101562 0)"/>
     <use xlink:href="#DejaVuSerif-Bold-65" transform="translate(535.400391 0)"/>
     <use xlink:href="#DejaVuSerif-Bold-64" transform="translate(599.023438 0)"/>
    </g>
    <!-- (SPHINCS+) -->
    <g transform="translate(584.214996 192.436288) scale(0.1 -0.1)">
     <defs>
      <path id="DejaVuSerif-Bold-50" d="M 300 0 
L 300 378 
L 897 378 
L 897 4288 
L 300 4288 
L 300 4666 
L 2956 4666 
Q 3734 4666 4193 4295 
Q 4653 3925 4653 3303 
Q 4653 2678 4192 2304 
Q 3731 1931 2956 1931 
L 2100 1931 
L 2100 378 
L 2853 378 
L 2853 0 
L 300 0 
z
M 2100 2309 
L 2450 2309 
Q 2856 2309 3098 2579 
Q 3341 2850 3341 3303 
Q 3341 3753 3100 4020 
Q 2859 4288 2450 4288 
L 2100 4288 
L 2100 2309 
z
" transform="scale(0.015625)"/>
      <path id="DejaVuSerif-Bold-4e" d="M 281 0 
L 281 378 
L 878 378 
L 878 4288 
L 281 4288 
L 281 4666 
L 1741 4666 
L 4556 1363 
L 4556 4288 
L 3963 4288 
L 3963 4666 
L 5594 4666 
L 5594 4288 
L 4997 4288 
L 4997 0 
L 4178 0 
L 1319 3372 
L 1319 378 
L 1913 378 
L 1913 0 
L 281 0 
z
" transform="scale(0.015625)"/>
      <path id="DejaVuSerif-Bold-2b" d="M 3041 4013 
L 3041 2369 
L 4684 2369 
L 4684 1650 
L 3041 1650 
L 3041 6 
L 2322 6 
L 2322 1650 
L 678 1650 
L 678 2369 
L 2322 2369 
L 2322 4013 
L 3041 4013 
z
" transform="scale(0.015625)"/>
     </defs>
     <use xlink:href="#DejaVuSerif-Bold-28"/>
     <use xlink:href="#DejaVuSerif-Bold-53" transform="translate(47.314453 0)"/>
     <use xlink:href="#DejaVuSerif-Bold-50" transform="translate(119.53125 0)"/>
     <use xlink:href="#DejaVuSerif-Bold-48" transform="translate(194.726562 0)"/>
     <use xlink:href="#DejaVuSerif-Bold-49" transform="translate(289.208984 0)"/>
     <use xlink:href="#DejaVuSerif-Bold-4e" transform="translate(335.986328 0)"/>
     <use xlink:href="#DejaVuSerif-Bold-43" transform="translate(427.392578 0)"/>
     <use xlink:href="#DejaVuSerif-Bold-53" transform="translate(506.982422 0)"/>
     <use xlink:href="#DejaVuSerif-Bold-2b" transform="translate(579.199219 0)"/>
     <use xlink:href="#DejaVuSerif-Bold-29" transform="translate(662.988281 0)"/>
    </g>
   </g>
   <g id="text_8">
    <!-- 10% -->
    <g transform="translate(477.636461 238.992561) scale(0.1 -0.1)">
     <defs>
      <path id="DejaVuSerif-Bold-30" d="M 2228 275 
Q 2603 275 2742 615 
Q 2881 956 2881 2328 
Q 2881 3691 2742 4037 
Q 2603 4384 2228 4384 
Q 1853 4384 1714 4043 
Q 1575 3703 1575 2328 
Q 1575 956 1714 615 
Q 1853 275 2228 275 
z
M 2228 -91 
Q 1294 -91 797 532 
Q 300 1156 300 2328 
Q 300 3500 797 4125 
Q 1294 4750 2228 4750 
Q 3159 4750 3656 4125 
Q 4153 3500 4153 2328 
Q 4153 1156 3656 532 
Q 3159 -91 2228 -91 
z
" transform="scale(0.015625)"/>
     </defs>
     <use xlink:href="#DejaVuSerif-Bold-31"/>
     <use xlink:href="#DejaVuSerif-Bold-30" transform="translate(69.580078 0)"/>
     <use xlink:href="#DejaVuSerif-Bold-25" transform="translate(139.160156 0)"/>
    </g>
   </g>
   <g id="text_9">
    <!-- LWE-Based -->
    <g transform="translate(477.767771 101.404135) scale(0.1 -0.1)">
     <defs>
      <path id="DejaVuSerif-Bold-57" d="M 5453 0 
L 4647 0 
L 3591 3397 
L 2534 0 
L 1728 0 
L 397 4288 
L -56 4288 
L -56 4666 
L 2156 4666 
L 2156 4288 
L 1656 4288 
L 2547 1422 
L 3553 4666 
L 4441 4666 
L 5466 1369 
L 6375 4288 
L 5819 4288 
L 5819 4666 
L 7263 4666 
L 7263 4288 
L 6784 4288 
L 5453 0 
z
" transform="scale(0.015625)"/>
     </defs>
     <use xlink:href="#DejaVuSerif-Bold-4c"/>
     <use xlink:href="#DejaVuSerif-Bold-57" transform="translate(63.5625 0)"/>
     <use xlink:href="#DejaVuSerif-Bold-45" transform="translate(175.867188 0)"/>
     <use xlink:href="#DejaVuSerif-Bold-2d" transform="translate(253.962891 0)"/>
     <use xlink:href="#DejaVuSerif-Bold-42" transform="translate(295.466797 0)"/>
     <use xlink:href="#DejaVuSerif-Bold-61" transform="translate(379.988281 0)"/>
     <use xlink:href="#DejaVuSerif-Bold-73" transform="translate(444.783203 0)"/>
     <use xlink:href="#DejaVuSerif-Bold-65" transform="translate(501.082031 0)"/>
     <use xlink:href="#DejaVuSerif-Bold-64" transform="translate(564.705078 0)"/>
    </g>
    <!-- (FrodoKEM) -->
    <g transform="translate(477.767771 112.601948) scale(0.1 -0.1)">
     <use xlink:href="#DejaVuSerif-Bold-28"/>
     <use xlink:href="#DejaVuSerif-Bold-46" transform="translate(47.314453 0)"/>
     <use xlink:href="#DejaVuSerif-Bold-72" transform="translate(116.560547 0)"/>
     <use xlink:href="#DejaVuSerif-Bold-6f" transform="translate(169.246094 0)"/>
     <use xlink:href="#DejaVuSerif-Bold-64" transform="translate(235.945312 0)"/>
     <use xlink:href="#DejaVuSerif-Bold-6f" transform="translate(305.867188 0)"/>
     <use xlink:href="#DejaVuSerif-Bold-4b" transform="translate(372.566406 0)"/>
     <use xlink:href="#DejaVuSerif-Bold-45" transform="translate(459.480469 0)"/>
     <use xlink:href="#DejaVuSerif-Bold-4d" transform="translate(535.701172 0)"/>
     <use xlink:href="#DejaVuSerif-Bold-29" transform="translate(646.394531 0)"/>
    </g>
   </g>
   <g id="text_10">
    <!-- 7% -->
    <g transform="translate(414.428704 200.187937) scale(0.1 -0.1)">
     <defs>
      <path id="DejaVuSerif-Bold-37" d="M 3922 3872 
L 1997 0 
L 1363 0 
L 3238 3781 
L 934 3781 
L 934 3150 
L 506 3150 
L 506 4666 
L 3922 4666 
L 3922 3872 
z
" transform="scale(0.015625)"/>
     </defs>
     <use xlink:href="#DejaVuSerif-Bold-37"/>
     <use xlink:href="#DejaVuSerif-Bold-25" transform="translate(69.580078 0)"/>
    </g>
   </g>
   <g id="text_11">
    <!-- Hybrid -->
    <g transform="translate(393.785765 71.097678) scale(0.1 -0.1)">
     <defs>
      <path id="DejaVuSerif-Bold-79" d="M 1997 -750 
Q 1847 -1116 1634 -1269 
Q 1422 -1422 1063 -1422 
Q 909 -1422 721 -1387 
Q 534 -1353 313 -1288 
L 313 -594 
L 666 -597 
Q 675 -838 779 -953 
Q 884 -1069 1094 -1069 
Q 1297 -1069 1422 -958 
Q 1547 -847 1672 -538 
L 1722 -422 
L 275 2944 
L -84 2944 
L -84 3322 
L 1831 3322 
L 1831 2944 
L 1434 2944 
L 2278 978 
L 3066 2944 
L 2625 2944 
L 2625 3322 
L 3872 3322 
L 3872 2944 
L 3469 2944 
L 1997 -750 
z
" transform="scale(0.015625)"/>
      <path id="DejaVuSerif-Bold-62" d="M 622 378 
L 622 4488 
L 147 4488 
L 147 4863 
L 1728 4863 
L 1728 2900 
Q 1869 3159 2106 3286 
Q 2344 3413 2694 3413 
Q 3403 3413 3811 2945 
Q 4219 2478 4219 1663 
Q 4219 847 3811 378 
Q 3403 -91 2694 -91 
Q 2344 -91 2106 36 
Q 1869 163 1728 422 
L 1728 0 
L 147 0 
L 147 378 
L 622 378 
z
M 1728 1497 
Q 1728 916 1876 656 
Q 2025 397 2356 397 
Q 2697 397 2836 672 
Q 2975 947 2975 1663 
Q 2975 2378 2836 2651 
Q 2697 2925 2356 2925 
Q 2025 2925 1876 2665 
Q 1728 2406 1728 1825 
L 1728 1497 
z
" transform="scale(0.015625)"/>
     </defs>
     <use xlink:href="#DejaVuSerif-Bold-48"/>
     <use xlink:href="#DejaVuSerif-Bold-79" transform="translate(94.482422 0)"/>
     <use xlink:href="#DejaVuSerif-Bold-62" transform="translate(152.587891 0)"/>
     <use xlink:href="#DejaVuSerif-Bold-72" transform="translate(222.509766 0)"/>
     <use xlink:href="#DejaVuSerif-Bold-69" transform="translate(275.195312 0)"/>
     <use xlink:href="#DejaVuSerif-Bold-64" transform="translate(313.183594 0)"/>
    </g>
    <!-- (Classical+PQ) -->
    <g transform="translate(393.785765 82.437678) scale(0.1 -0.1)">
     <use xlink:href="#DejaVuSerif-Bold-28"/>
     <use xlink:href="#DejaVuSerif-Bold-43" transform="translate(47.314453 0)"/>
     <use xlink:href="#DejaVuSerif-Bold-6c" transform="translate(126.904297 0)"/>
     <use xlink:href="#DejaVuSerif-Bold-61" transform="translate(164.892578 0)"/>
     <use xlink:href="#DejaVuSerif-Bold-73" transform="translate(229.6875 0)"/>
     <use xlink:href="#DejaVuSerif-Bold-73" transform="translate(285.986328 0)"/>
     <use xlink:href="#DejaVuSerif-Bold-69" transform="translate(342.285156 0)"/>
     <use xlink:href="#DejaVuSerif-Bold-63" transform="translate(380.273438 0)"/>
     <use xlink:href="#DejaVuSerif-Bold-61" transform="translate(441.162109 0)"/>
     <use xlink:href="#DejaVuSerif-Bold-6c" transform="translate(505.957031 0)"/>
     <use xlink:href="#DejaVuSerif-Bold-2b" transform="translate(543.945312 0)"/>
     <use xlink:href="#DejaVuSerif-Bold-50" transform="translate(627.734375 0)"/>
     <use xlink:href="#DejaVuSerif-Bold-51" transform="translate(702.929688 0)"/>
     <use xlink:href="#DejaVuSerif-Bold-29" transform="translate(790.039062 0)"/>
    </g>
   </g>
   <g id="text_12">
    <!-- 5% -->
    <g transform="translate(368.620338 183.695921) scale(0.1 -0.1)">
     <use xlink:href="#DejaVuSerif-Bold-35"/>
     <use xlink:href="#DejaVuSerif-Bold-25" transform="translate(69.580078 0)"/>
    </g>
   </g>
   <g id="text_13">
    <!-- Technology Stack Distribution — 100 Gulf Case Studies -->
    <g transform="translate(123.690809 18.597656) scale(0.15 -0.15)">
     <defs>
      <path id="DejaVuSerif-Bold-54" d="M 1159 0 
L 1159 378 
L 1778 378 
L 1778 4238 
L 500 4238 
L 500 3500 
L 72 3500 
L 72 4666 
L 4697 4666 
L 4697 3500 
L 4275 3500 
L 4275 4238 
L 2988 4238 
L 2988 378 
L 3609 378 
L 3609 0 
L 1159 0 
z
" transform="scale(0.015625)"/>
      <path id="DejaVuSerif-Bold-6b" d="M 2216 0 
L 219 0 
L 219 378 
L 691 378 
L 691 4488 
L 219 4488 
L 219 4863 
L 1797 4863 
L 1797 1741 
L 3138 2944 
L 2741 2944 
L 2741 3322 
L 4256 3322 
L 4256 2944 
L 3641 2944 
L 2784 2175 
L 4184 378 
L 4544 378 
L 4544 0 
L 2638 0 
L 2638 378 
L 3028 378 
L 2106 1563 
L 1797 1288 
L 1797 378 
L 2216 378 
L 2216 0 
z
" transform="scale(0.015625)"/>
      <path id="DejaVuSerif-Bold-2014" d="M 344 2075 
L 6056 2075 
L 6056 1325 
L 344 1325 
L 344 2075 
z
" transform="scale(0.015625)"/>
      <path id="DejaVuSerif-Bold-47" d="M 4403 3200 
Q 4263 3819 3934 4095 
Q 3606 4372 3009 4372 
Q 2284 4372 1945 3880 
Q 1606 3388 1606 2328 
Q 1606 1278 1931 783 
Q 2256 288 2944 288 
Q 3206 288 3431 347 
Q 3656 406 3841 525 
L 3841 1806 
L 3278 1806 
L 3278 2181 
L 4959 2181 
L 4959 391 
Q 4434 147 3911 28 
Q 3388 -91 2841 -91 
Q 1641 -91 955 556 
Q 269 1203 269 2328 
Q 269 3456 955 4103 
Q 1641 4750 2841 4750 
Q 3341 4750 3825 4650 
Q 4309 4550 4800 4347 
L 4800 3200 
L 4403 3200 
z
" transform="scale(0.015625)"/>
      <path id="DejaVuSerif-Bold-66" d="M 3097 4031 
L 2747 4031 
Q 2722 4275 2605 4394 
Q 2488 4513 2272 4513 
Q 2022 4513 1909 4333 
Q 1797 4153 1797 3750 
L 1797 3322 
L 2631 3322 
L 2631 2944 
L 1797 2944 
L 1797 378 
L 2438 378 
L 2438 0 
L 219 0 
L 219 378 
L 691 378 
L 691 2944 
L 197 2944 
L 197 3322 
L 691 3322 
L 691 3738 
Q 691 4291 1044 4577 
Q 1397 4863 2081 4863 
Q 2347 4863 2600 4833 
Q 2853 4803 3097 4744 
L 3097 4031 
z
" transform="scale(0.015625)"/>
     </defs>
     <use xlink:href="#DejaVuSerif-Bold-54"/>
     <use xlink:href="#DejaVuSerif-Bold-65" transform="translate(62.914062 0)"/>
     <use xlink:href="#DejaVuSerif-Bold-63" transform="translate(126.537109 0)"/>
     <use xlink:href="#DejaVuSerif-Bold-68" transform="translate(187.425781 0)"/>
     <use xlink:href="#DejaVuSerif-Bold-6e" transform="translate(260.130859 0)"/>
     <use xlink:href="#DejaVuSerif-Bold-6f" transform="translate(332.835938 0)"/>
     <use xlink:href="#DejaVuSerif-Bold-6c" transform="translate(399.535156 0)"/>
     <use xlink:href="#DejaVuSerif-Bold-6f" transform="translate(437.523438 0)"/>
     <use xlink:href="#DejaVuSerif-Bold-67" transform="translate(504.222656 0)"/>
     <use xlink:href="#DejaVuSerif-Bold-79" transform="translate(574.144531 0)"/>
     <use xlink:href="#DejaVuSerif-Bold-20" transform="translate(632.25 0)"/>
     <use xlink:href="#DejaVuSerif-Bold-53" transform="translate(667.064453 0)"/>
     <use xlink:href="#DejaVuSerif-Bold-74" transform="translate(739.28125 0)"/>
     <use xlink:href="#DejaVuSerif-Bold-61" transform="translate(785.472656 0)"/>
     <use xlink:href="#DejaVuSerif-Bold-63" transform="translate(850.267578 0)"/>
     <use xlink:href="#DejaVuSerif-Bold-6b" transform="translate(911.15625 0)"/>
     <use xlink:href="#DejaVuSerif-Bold-20" transform="translate(980.443359 0)"/>
     <use xlink:href="#DejaVuSerif-Bold-44" transform="translate(1015.257812 0)"/>
     <use xlink:href="#DejaVuSerif-Bold-69" transform="translate(1101.976562 0)"/>
     <use xlink:href="#DejaVuSerif-Bold-73" transform="translate(1139.964844 0)"/>
     <use xlink:href="#DejaVuSerif-Bold-74" transform="translate(1196.263672 0)"/>
     <use xlink:href="#DejaVuSerif-Bold-72" transform="translate(1242.455078 0)"/>
     <use xlink:href="#DejaVuSerif-Bold-69" transform="translate(1295.140625 0)"/>
     <use xlink:href="#DejaVuSerif-Bold-62" transform="translate(1333.128906 0)"/>
     <use xlink:href="#DejaVuSerif-Bold-75" transform="translate(1403.050781 0)"/>
     <use xlink:href="#DejaVuSerif-Bold-74" transform="translate(1475.755859 0)"/>
     <use xlink:href="#DejaVuSerif-Bold-69" transform="translate(1521.947266 0)"/>
     <use xlink:href="#DejaVuSerif-Bold-6f" transform="translate(1559.935547 0)"/>
     <use xlink:href="#DejaVuSerif-Bold-6e" transform="translate(1626.634766 0)"/>
     <use xlink:href="#DejaVuSerif-Bold-20" transform="translate(1699.339844 0)"/>
     <use xlink:href="#DejaVuSerif-Bold-2014" transform="translate(1734.154297 0)"/>
     <use xlink:href="#DejaVuSerif-Bold-20" transform="translate(1834.154297 0)"/>
     <use xlink:href="#DejaVuSerif-Bold-31" transform="translate(1868.96875 0)"/>
     <use xlink:href="#DejaVuSerif-Bold-30" transform="translate(1938.548828 0)"/>
     <use xlink:href="#DejaVuSerif-Bold-30" transform="translate(2008.128906 0)"/>
     <use xlink:href="#DejaVuSerif-Bold-20" transform="translate(2077.708984 0)"/>
     <use xlink:href="#DejaVuSerif-Bold-47" transform="translate(2112.523438 0)"/>
     <use xlink:href="#DejaVuSerif-Bold-75" transform="translate(2197.923828 0)"/>
     <use xlink:href="#DejaVuSerif-Bold-6c" transform="translate(2270.628906 0)"/>
     <use xlink:href="#DejaVuSerif-Bold-66" transform="translate(2308.617188 0)"/>
     <use xlink:href="#DejaVuSerif-Bold-20" transform="translate(2351.634766 0)"/>
     <use xlink:href="#DejaVuSerif-Bold-43" transform="translate(2386.449219 0)"/>
     <use xlink:href="#DejaVuSerif-Bold-61" transform="translate(2466.039062 0)"/>
     <use xlink:href="#DejaVuSerif-Bold-73" transform="translate(2530.833984 0)"/>
     <use xlink:href="#DejaVuSerif-Bold-65" transform="translate(2587.132812 0)"/>
     <use xlink:href="#DejaVuSerif-Bold-20" transform="translate(2650.755859 0)"/>
     <use xlink:href="#DejaVuSerif-Bold-53" transform="translate(2685.570312 0)"/>
     <use xlink:href="#DejaVuSerif-Bold-74" transform="translate(2757.787109 0)"/>
     <use xlink:href="#DejaVuSerif-Bold-75" transform="translate(2803.978516 0)"/>
     <use xlink:href="#DejaVuSerif-Bold-64" transform="translate(2876.683594 0)"/>
     <use xlink:href="#DejaVuSerif-Bold-69" transform="translate(2946.605469 0)"/>
     <use xlink:href="#DejaVuSerif-Bold-65" transform="translate(2984.59375 0)"/>
     <use xlink:href="#DejaVuSerif-Bold-73" transform="translate(3048.216797 0)"/>
    </g>
   </g>
  </g>
 </g>
</svg>
