<?xml version="1.0" encoding="utf-8" standalone="no"?>
<!DOCTYPE svg PUBLIC "-//W3C//DTD SVG 1.1//EN"
  "http://www.w3.org/Graphics/SVG/1.1/DTD/svg11.dtd">
<svg xmlns:xlink="http://www.w3.org/1999/xlink" width="854.64pt" height="422.517656pt" viewBox="0 0 854.64 422.517656" xmlns="http://www.w3.org/2000/svg" version="1.1">
 <metadata>
  <rdf:RDF xmlns:dc="http://purl.org/dc/elements/1.1/" xmlns:cc="http://creativecommons.org/ns#" xmlns:rdf="http://www.w3.org/1999/02/22-rdf-syntax-ns#">
   <cc:Work>
    <dc:type rdf:resource="http://purl.org/dc/dcmitype/StillImage"/>
    <dc:date>2026-07-05T17:48:44.325320</dc:date>
    <dc:format>image/svg+xml</dc:format>
    <dc:creator>
     <cc:Agent>
      <dc:title>Matplotlib v3.10.0, https://matplotlib.org/</dc:title>
     </cc:Agent>
    </dc:creator>
   </cc:Work>
  </rdf:RDF>
 </metadata>
 <defs>
  <style type="text/css">*{stroke-linejoin: round; stroke-linecap: butt}</style>
 </defs>
 <g id="figure_1">
  <g id="patch_1">
   <path d="M 0 422.517656 
L 854.64 422.517656 
L 854.64 0 
L 0 0 
z
" style="fill: #ffffff"/>
  </g>
  <g id="axes_1">
   <g id="patch_2">
    <path d="M 7.2 398.19402 
L 707.4 398.19402 
L 707.4 373.479493 
L 7.2 373.479493 
z
" clip-path="url(#p9dd550ab57)" style="fill: #c8963e; stroke: #ffffff; stroke-linejoin: miter"/>
   </g>
   <g id="patch_3">
    <path d="M 7.2 362.887553 
L 707.4 362.887553 
L 707.4 338.173026 
L 7.2 338.173026 
z
" clip-path="url(#p9dd550ab57)" style="fill: #1b365d; stroke: #ffffff; stroke-linejoin: miter"/>
   </g>
   <g id="patch_4">
    <path d="M 7.2 327.581086 
L 707.4 327.581086 
L 707.4 302.86656 
L 7.2 302.86656 
z
" clip-path="url(#p9dd550ab57)" style="fill: #c41e3a; stroke: #ffffff; stroke-linejoin: miter"/>
   </g>
   <g id="patch_5">
    <path d="M 7.2 292.27462 
L 707.4 292.27462 
L 707.4 267.560093 
L 7.2 267.560093 
z
" clip-path="url(#p9dd550ab57)" style="fill: #2e7d32; stroke: #ffffff; stroke-linejoin: miter"/>
   </g>
   <g id="patch_6">
    <path d="M 7.2 256.968153 
L 707.4 256.968153 
L 707.4 232.253626 
L 7.2 232.253626 
z
" clip-path="url(#p9dd550ab57)" style="fill: #007a87; stroke: #ffffff; stroke-linejoin: miter"/>
   </g>
   <g id="patch_7">
    <path d="M 7.2 221.661686 
L 707.4 221.661686 
L 707.4 196.94716 
L 7.2 196.94716 
z
" clip-path="url(#p9dd550ab57)" style="fill: #e67e22; stroke: #ffffff; stroke-linejoin: miter"/>
   </g>
   <g id="patch_8">
    <path d="M 7.2 186.35522 
L 707.4 186.35522 
L 707.4 161.640693 
L 7.2 161.640693 
z
" clip-path="url(#p9dd550ab57)" style="fill: #6a1b9a; stroke: #ffffff; stroke-linejoin: miter"/>
   </g>
   <g id="patch_9">
    <path d="M 7.2 151.048753 
L 707.4 151.048753 
L 707.4 126.334226 
L 7.2 126.334226 
z
" clip-path="url(#p9dd550ab57)" style="fill: #00bcd4; stroke: #ffffff; stroke-linejoin: miter"/>
   </g>
   <g id="patch_10">
    <path d="M 7.2 115.742286 
L 707.4 115.742286 
L 707.4 91.027759 
L 7.2 91.027759 
z
" clip-path="url(#p9dd550ab57)" style="fill: #795548; stroke: #ffffff; stroke-linejoin: miter"/>
   </g>
   <g id="patch_11">
    <path d="M 7.2 80.435819 
L 707.4 80.435819 
L 707.4 55.721293 
L 7.2 55.721293 
z
" clip-path="url(#p9dd550ab57)" style="fill: #607d8b; stroke: #ffffff; stroke-linejoin: miter"/>
   </g>
   <g id="text_1">
    <!-- Energy: Falcon-512 -->
    <g style="fill: #ffffff" transform="translate(303.109375 382.926132) scale(0.1 -0.1)">
     <defs>
      <path id="DejaVuSerif-Bold-45" d="M 300 0 
L 300 378 
L 897 378 
L 897 4288 
L 300 4288 
L 300 4666 
L 4494 4666 
L 4494 3566 
L 4063 3566 
L 4063 4238 
L 2100 4238 
L 2100 2741 
L 3322 2741 
L 3322 3334 
L 3750 3334 
L 3750 1722 
L 3322 1722 
L 3322 2316 
L 2100 2316 
L 2100 428 
L 4122 428 
L 4122 1100 
L 4550 1100 
L 4550 0 
L 300 0 
z
" transform="scale(0.015625)"/>
      <path id="DejaVuSerif-Bold-6e" d="M 219 0 
L 219 378 
L 691 378 
L 691 2944 
L 219 2944 
L 219 3322 
L 1797 3322 
L 1797 2853 
Q 1997 3150 2253 3281 
Q 2509 3413 2900 3413 
Q 3459 3413 3745 3083 
Q 4031 2753 4031 2113 
L 4031 378 
L 4506 378 
L 4506 0 
L 2522 0 
L 2522 378 
L 2925 378 
L 2925 2144 
Q 2925 2566 2817 2730 
Q 2709 2894 2444 2894 
Q 2109 2894 1953 2648 
Q 1797 2403 1797 1869 
L 1797 378 
L 2203 378 
L 2203 0 
L 219 0 
z
" transform="scale(0.015625)"/>
      <path id="DejaVuSerif-Bold-65" d="M 2566 1875 
Q 2566 2531 2444 2795 
Q 2322 3059 2028 3059 
Q 1744 3059 1620 2800 
Q 1497 2541 1497 1931 
L 1497 1875 
L 2566 1875 
z
M 3781 1503 
L 1497 1503 
L 1497 1478 
Q 1497 834 1690 548 
Q 1884 263 2316 263 
Q 2675 263 2897 453 
Q 3119 644 3181 1006 
L 3700 1006 
Q 3566 441 3166 175 
Q 2766 -91 2047 -91 
Q 1184 -91 723 364 
Q 263 819 263 1663 
Q 263 2488 734 2950 
Q 1206 3413 2047 3413 
Q 2872 3413 3312 2927 
Q 3753 2441 3781 1503 
z
" transform="scale(0.015625)"/>
      <path id="DejaVuSerif-Bold-72" d="M 3438 3359 
L 3438 2369 
L 3084 2369 
Q 3066 2634 2941 2764 
Q 2816 2894 2578 2894 
Q 2216 2894 2006 2575 
Q 1797 2256 1797 1691 
L 1797 378 
L 2400 378 
L 2400 0 
L 219 0 
L 219 378 
L 691 378 
L 691 2944 
L 184 2944 
L 184 3322 
L 1797 3322 
L 1797 2731 
Q 1959 3078 2226 3245 
Q 2494 3413 2881 3413 
Q 2978 3413 3117 3398 
Q 3256 3384 3438 3359 
z
" transform="scale(0.015625)"/>
      <path id="DejaVuSerif-Bold-67" d="M 3853 2944 
L 3853 44 
Q 3853 -656 3354 -1039 
Q 2856 -1422 1947 -1422 
Q 1616 -1422 1275 -1370 
Q 934 -1319 575 -1216 
L 575 -422 
L 928 -422 
Q 975 -750 1192 -909 
Q 1409 -1069 1813 -1069 
Q 2325 -1069 2536 -823 
Q 2747 -578 2747 44 
L 2747 422 
Q 2606 163 2367 36 
Q 2128 -91 1778 -91 
Q 1072 -91 667 378 
Q 263 847 263 1663 
Q 263 2481 667 2947 
Q 1072 3413 1778 3413 
Q 2128 3413 2367 3286 
Q 2606 3159 2747 2900 
L 2747 3322 
L 4325 3322 
L 4325 2944 
L 3853 2944 
z
M 2747 1825 
Q 2747 2406 2597 2665 
Q 2447 2925 2119 2925 
Q 1775 2925 1636 2651 
Q 1497 2378 1497 1663 
Q 1497 947 1637 672 
Q 1778 397 2119 397 
Q 2447 397 2597 656 
Q 2747 916 2747 1497 
L 2747 1825 
z
" transform="scale(0.015625)"/>
      <path id="DejaVuSerif-Bold-79" d="M 1997 -750 
Q 1847 -1116 1634 -1269 
Q 1422 -1422 1063 -1422 
Q 909 -1422 721 -1387 
Q 534 -1353 313 -1288 
L 313 -594 
L 666 -597 
Q 675 -838 779 -953 
Q 884 -1069 1094 -1069 
Q 1297 -1069 1422 -958 
Q 1547 -847 1672 -538 
L 1722 -422 
L 275 2944 
L -84 2944 
L -84 3322 
L 1831 3322 
L 1831 2944 
L 1434 2944 
L 2278 978 
L 3066 2944 
L 2625 2944 
L 2625 3322 
L 3872 3322 
L 3872 2944 
L 3469 2944 
L 1997 -750 
z
" transform="scale(0.015625)"/>
      <path id="DejaVuSerif-Bold-3a" d="M 588 2541 
Q 588 2788 761 2963 
Q 934 3138 1178 3138 
Q 1422 3138 1597 2961 
Q 1772 2784 1772 2541 
Q 1772 2297 1598 2125 
Q 1425 1953 1178 1953 
Q 931 1953 759 2125 
Q 588 2297 588 2541 
z
M 588 506 
Q 588 750 761 925 
Q 934 1100 1178 1100 
Q 1422 1100 1597 925 
Q 1772 750 1772 506 
Q 1772 259 1597 84 
Q 1422 -91 1178 -91 
Q 934 -91 761 84 
Q 588 259 588 506 
z
" transform="scale(0.015625)"/>
      <path id="DejaVuSerif-Bold-20" transform="scale(0.015625)"/>
      <path id="DejaVuSerif-Bold-46" d="M 300 0 
L 300 378 
L 897 378 
L 897 4288 
L 300 4288 
L 300 4666 
L 4459 4666 
L 4459 3566 
L 4031 3566 
L 4031 4238 
L 2106 4238 
L 2106 2741 
L 3291 2741 
L 3291 3334 
L 3719 3334 
L 3719 1722 
L 3291 1722 
L 3291 2316 
L 2106 2316 
L 2106 378 
L 2841 378 
L 2841 0 
L 300 0 
z
" transform="scale(0.015625)"/>
      <path id="DejaVuSerif-Bold-61" d="M 3525 2041 
L 3525 378 
L 4000 378 
L 4000 0 
L 2419 0 
L 2419 422 
Q 2200 159 1931 34 
Q 1663 -91 1319 -91 
Q 809 -91 536 182 
Q 263 456 263 966 
Q 263 1525 655 1803 
Q 1047 2081 1838 2081 
L 2419 2081 
L 2419 2278 
Q 2419 2681 2228 2873 
Q 2038 3066 1638 3066 
Q 1306 3066 1126 2930 
Q 947 2794 872 2484 
L 519 2484 
L 519 3200 
Q 816 3306 1134 3359 
Q 1453 3413 1806 3413 
Q 2697 3413 3111 3081 
Q 3525 2750 3525 2041 
z
M 2419 1044 
L 2419 1709 
L 2003 1709 
Q 1694 1709 1528 1540 
Q 1363 1372 1363 1056 
Q 1363 741 1483 584 
Q 1603 428 1850 428 
Q 2106 428 2262 597 
Q 2419 766 2419 1044 
z
" transform="scale(0.015625)"/>
      <path id="DejaVuSerif-Bold-6c" d="M 1797 378 
L 2272 378 
L 2272 0 
L 219 0 
L 219 378 
L 691 378 
L 691 4488 
L 219 4488 
L 219 4863 
L 1797 4863 
L 1797 378 
z
" transform="scale(0.015625)"/>
      <path id="DejaVuSerif-Bold-63" d="M 3609 1038 
Q 3491 469 3123 189 
Q 2756 -91 2125 -91 
Q 1238 -91 750 368 
Q 263 828 263 1663 
Q 263 2488 744 2950 
Q 1225 3413 2081 3413 
Q 2428 3413 2781 3347 
Q 3134 3281 3500 3150 
L 3500 2228 
L 3150 2228 
Q 3100 2650 2903 2854 
Q 2706 3059 2350 3059 
Q 1888 3059 1692 2746 
Q 1497 2434 1497 1663 
Q 1497 909 1687 586 
Q 1878 263 2309 263 
Q 2644 263 2845 463 
Q 3047 663 3091 1038 
L 3609 1038 
z
" transform="scale(0.015625)"/>
      <path id="DejaVuSerif-Bold-6f" d="M 2138 263 
Q 2488 263 2630 563 
Q 2772 863 2772 1663 
Q 2772 2463 2631 2761 
Q 2491 3059 2138 3059 
Q 1784 3059 1640 2757 
Q 1497 2456 1497 1663 
Q 1497 869 1640 566 
Q 1784 263 2138 263 
z
M 2138 -91 
Q 1259 -91 761 376 
Q 263 844 263 1663 
Q 263 2484 761 2948 
Q 1259 3413 2138 3413 
Q 3019 3413 3516 2948 
Q 4013 2484 4013 1663 
Q 4013 844 3514 376 
Q 3016 -91 2138 -91 
z
" transform="scale(0.015625)"/>
      <path id="DejaVuSerif-Bold-2d" d="M 347 2138 
L 2309 2138 
L 2309 1294 
L 347 1294 
L 347 2138 
z
" transform="scale(0.015625)"/>
      <path id="DejaVuSerif-Bold-35" d="M 3609 4666 
L 3609 3847 
L 1113 3847 
L 1113 2822 
Q 1319 2981 1572 3062 
Q 1825 3144 2106 3144 
Q 2969 3144 3469 2708 
Q 3969 2272 3969 1522 
Q 3969 759 3469 334 
Q 2969 -91 2069 -91 
Q 1688 -91 1311 -28 
Q 934 34 525 166 
L 525 1184 
L 900 1184 
Q 919 725 1139 500 
Q 1359 275 1791 275 
Q 2250 275 2472 583 
Q 2694 891 2694 1522 
Q 2694 2144 2476 2451 
Q 2259 2759 1819 2759 
Q 1581 2759 1395 2661 
Q 1209 2563 1050 2356 
L 738 2356 
L 738 4666 
L 3609 4666 
z
" transform="scale(0.015625)"/>
      <path id="DejaVuSerif-Bold-31" d="M 878 0 
L 878 378 
L 1753 378 
L 1753 4153 
L 781 3578 
L 781 4044 
L 1953 4750 
L 2938 4750 
L 2938 378 
L 3816 378 
L 3816 0 
L 878 0 
z
" transform="scale(0.015625)"/>
      <path id="DejaVuSerif-Bold-32" d="M 844 3513 
L 469 3513 
L 469 4519 
Q 850 4634 1223 4692 
Q 1597 4750 1978 4750 
Q 2869 4750 3367 4386 
Q 3866 4022 3866 3372 
Q 3866 2909 3591 2542 
Q 3316 2175 2541 1672 
L 1241 819 
L 3450 819 
L 3450 1369 
L 3878 1369 
L 3878 0 
L 428 0 
L 428 763 
L 1119 1241 
Q 2003 1850 2297 2278 
Q 2591 2706 2591 3278 
Q 2591 3819 2367 4101 
Q 2144 4384 1716 4384 
Q 1347 4384 1125 4161 
Q 903 3938 844 3513 
z
" transform="scale(0.015625)"/>
     </defs>
     <use xlink:href="#DejaVuSerif-Bold-45"/>
     <use xlink:href="#DejaVuSerif-Bold-6e" transform="translate(76.220703 0)"/>
     <use xlink:href="#DejaVuSerif-Bold-65" transform="translate(148.925781 0)"/>
     <use xlink:href="#DejaVuSerif-Bold-72" transform="translate(212.548828 0)"/>
     <use xlink:href="#DejaVuSerif-Bold-67" transform="translate(265.234375 0)"/>
     <use xlink:href="#DejaVuSerif-Bold-79" transform="translate(335.15625 0)"/>
     <use xlink:href="#DejaVuSerif-Bold-3a" transform="translate(393.261719 0)"/>
     <use xlink:href="#DejaVuSerif-Bold-20" transform="translate(430.175781 0)"/>
     <use xlink:href="#DejaVuSerif-Bold-46" transform="translate(464.990234 0)"/>
     <use xlink:href="#DejaVuSerif-Bold-61" transform="translate(530.486328 0)"/>
     <use xlink:href="#DejaVuSerif-Bold-6c" transform="translate(595.28125 0)"/>
     <use xlink:href="#DejaVuSerif-Bold-63" transform="translate(633.269531 0)"/>
     <use xlink:href="#DejaVuSerif-Bold-6f" transform="translate(694.158203 0)"/>
     <use xlink:href="#DejaVuSerif-Bold-6e" transform="translate(760.857422 0)"/>
     <use xlink:href="#DejaVuSerif-Bold-2d" transform="translate(833.5625 0)"/>
     <use xlink:href="#DejaVuSerif-Bold-35" transform="translate(875.066406 0)"/>
     <use xlink:href="#DejaVuSerif-Bold-31" transform="translate(944.646484 0)"/>
     <use xlink:href="#DejaVuSerif-Bold-32" transform="translate(1014.226562 0)"/>
    </g>
    <!-- (Compact) -->
    <g style="fill: #ffffff" transform="translate(327.873438 394.266132) scale(0.1 -0.1)">
     <defs>
      <path id="DejaVuSerif-Bold-28" d="M 2694 -997 
Q 1641 -606 1122 122 
Q 603 850 603 1931 
Q 603 3013 1115 3731 
Q 1628 4450 2694 4863 
L 2694 4488 
Q 2200 4188 1983 3598 
Q 1766 3009 1766 1931 
Q 1766 856 1983 267 
Q 2200 -322 2694 -622 
L 2694 -997 
z
" transform="scale(0.015625)"/>
      <path id="DejaVuSerif-Bold-43" d="M 4769 1331 
Q 4584 609 4106 259 
Q 3628 -91 2822 -91 
Q 1641 -91 955 561 
Q 269 1213 269 2328 
Q 269 3447 955 4098 
Q 1641 4750 2822 4750 
Q 3238 4750 3688 4650 
Q 4138 4550 4641 4347 
L 4641 3200 
L 4244 3200 
Q 4122 3788 3800 4080 
Q 3478 4372 2950 4372 
Q 2269 4372 1937 3870 
Q 1606 3369 1606 2328 
Q 1606 1288 1937 788 
Q 2269 288 2956 288 
Q 3422 288 3717 547 
Q 4013 806 4147 1331 
L 4769 1331 
z
" transform="scale(0.015625)"/>
      <path id="DejaVuSerif-Bold-6d" d="M 3884 2778 
Q 4116 3109 4384 3261 
Q 4653 3413 5013 3413 
Q 5584 3413 5867 3089 
Q 6150 2766 6150 2113 
L 6150 378 
L 6625 378 
L 6625 0 
L 4647 0 
L 4647 378 
L 5044 378 
L 5044 1947 
Q 5044 2569 4948 2731 
Q 4853 2894 4594 2894 
Q 4300 2894 4137 2667 
Q 3975 2441 3975 2022 
L 3975 378 
L 4372 378 
L 4372 0 
L 2472 0 
L 2472 378 
L 2869 378 
L 2869 1947 
Q 2869 2569 2772 2731 
Q 2675 2894 2419 2894 
Q 2122 2894 1959 2667 
Q 1797 2441 1797 2022 
L 1797 378 
L 2194 378 
L 2194 0 
L 219 0 
L 219 378 
L 691 378 
L 691 2944 
L 219 2944 
L 219 3322 
L 1797 3322 
L 1797 2853 
Q 1991 3144 2241 3278 
Q 2491 3413 2834 3413 
Q 3241 3413 3494 3258 
Q 3747 3103 3884 2778 
z
" transform="scale(0.015625)"/>
      <path id="DejaVuSerif-Bold-70" d="M 1728 1825 
L 1728 1497 
Q 1728 916 1876 656 
Q 2025 397 2356 397 
Q 2697 397 2836 672 
Q 2975 947 2975 1663 
Q 2975 2378 2836 2651 
Q 2697 2925 2356 2925 
Q 2025 2925 1876 2665 
Q 1728 2406 1728 1825 
z
M 622 2944 
L 147 2944 
L 147 3322 
L 1728 3322 
L 1728 2900 
Q 1869 3159 2106 3286 
Q 2344 3413 2694 3413 
Q 3403 3413 3811 2945 
Q 4219 2478 4219 1663 
Q 4219 847 3811 378 
Q 3403 -91 2694 -91 
Q 2344 -91 2106 36 
Q 1869 163 1728 422 
L 1728 -953 
L 2241 -953 
L 2241 -1331 
L 147 -1331 
L 147 -953 
L 622 -953 
L 622 2944 
z
" transform="scale(0.015625)"/>
      <path id="DejaVuSerif-Bold-74" d="M 634 2944 
L 153 2944 
L 153 3322 
L 634 3322 
L 634 4353 
L 1741 4353 
L 1741 3322 
L 2663 3322 
L 2663 2944 
L 1741 2944 
L 1741 909 
Q 1741 475 1809 369 
Q 1878 263 2059 263 
Q 2259 263 2356 397 
Q 2453 531 2459 813 
L 2925 813 
Q 2897 313 2651 111 
Q 2406 -91 1806 -91 
Q 1122 -91 878 123 
Q 634 338 634 909 
L 634 2944 
z
" transform="scale(0.015625)"/>
      <path id="DejaVuSerif-Bold-29" d="M 325 -997 
L 325 -622 
Q 819 -322 1036 267 
Q 1253 856 1253 1931 
Q 1253 3009 1036 3598 
Q 819 4188 325 4488 
L 325 4863 
Q 1391 4450 1905 3731 
Q 2419 3013 2419 1931 
Q 2419 850 1898 122 
Q 1378 -606 325 -997 
z
" transform="scale(0.015625)"/>
     </defs>
     <use xlink:href="#DejaVuSerif-Bold-28"/>
     <use xlink:href="#DejaVuSerif-Bold-43" transform="translate(47.314453 0)"/>
     <use xlink:href="#DejaVuSerif-Bold-6f" transform="translate(126.904297 0)"/>
     <use xlink:href="#DejaVuSerif-Bold-6d" transform="translate(193.603516 0)"/>
     <use xlink:href="#DejaVuSerif-Bold-70" transform="translate(299.414062 0)"/>
     <use xlink:href="#DejaVuSerif-Bold-61" transform="translate(369.335938 0)"/>
     <use xlink:href="#DejaVuSerif-Bold-63" transform="translate(434.130859 0)"/>
     <use xlink:href="#DejaVuSerif-Bold-74" transform="translate(495.019531 0)"/>
     <use xlink:href="#DejaVuSerif-Bold-29" transform="translate(541.210938 0)"/>
    </g>
   </g>
   <g id="text_2">
    <!-- Sovereign Cloud: ML-DSA-44 -->
    <g style="fill: #ffffff" transform="translate(275.764063 347.619665) scale(0.1 -0.1)">
     <defs>
      <path id="DejaVuSerif-Bold-53" d="M 494 225 
L 494 1331 
L 891 1331 
Q 981 806 1318 547 
Q 1656 288 2253 288 
Q 2738 288 2991 472 
Q 3244 656 3244 1013 
Q 3244 1294 3072 1450 
Q 2900 1606 2363 1741 
L 1663 1913 
Q 978 2088 700 2398 
Q 422 2709 422 3284 
Q 422 3978 883 4364 
Q 1344 4750 2175 4750 
Q 2584 4750 3026 4681 
Q 3469 4613 3944 4475 
L 3944 3444 
L 3547 3444 
Q 3456 3925 3150 4148 
Q 2844 4372 2278 4372 
Q 1816 4372 1580 4211 
Q 1344 4050 1344 3731 
Q 1344 3441 1506 3289 
Q 1669 3138 2303 2975 
L 3003 2803 
Q 3653 2641 3945 2297 
Q 4238 1953 4238 1350 
Q 4238 644 3750 276 
Q 3263 -91 2316 -91 
Q 1859 -91 1409 -12 
Q 959 66 494 225 
z
" transform="scale(0.015625)"/>
      <path id="DejaVuSerif-Bold-76" d="M 1428 0 
L 250 2944 
L -116 2944 
L -116 3322 
L 1791 3322 
L 1791 2944 
L 1388 2944 
L 2228 844 
L 3066 2944 
L 2631 2944 
L 2631 3322 
L 3878 3322 
L 3878 2944 
L 3494 2944 
L 2316 0 
L 1428 0 
z
" transform="scale(0.015625)"/>
      <path id="DejaVuSerif-Bold-69" d="M 588 4263 
Q 588 4516 763 4689 
Q 938 4863 1191 4863 
Q 1438 4863 1611 4689 
Q 1784 4516 1784 4263 
Q 1784 4016 1611 3842 
Q 1438 3669 1191 3669 
Q 938 3669 763 3841 
Q 588 4013 588 4263 
z
M 1797 378 
L 2272 378 
L 2272 0 
L 219 0 
L 219 378 
L 691 378 
L 691 2944 
L 219 2944 
L 219 3322 
L 1797 3322 
L 1797 378 
z
" transform="scale(0.015625)"/>
      <path id="DejaVuSerif-Bold-75" d="M 3963 3322 
L 3963 378 
L 4434 378 
L 4434 0 
L 2853 0 
L 2853 469 
Q 2656 172 2400 40 
Q 2144 -91 1753 -91 
Q 1194 -91 908 239 
Q 622 569 622 1209 
L 622 2944 
L 147 2944 
L 147 3322 
L 1728 3322 
L 1728 1381 
Q 1728 763 1831 595 
Q 1934 428 2209 428 
Q 2544 428 2698 675 
Q 2853 922 2853 1459 
L 2853 2944 
L 2450 2944 
L 2450 3322 
L 3963 3322 
z
" transform="scale(0.015625)"/>
      <path id="DejaVuSerif-Bold-64" d="M 2747 1497 
L 2747 1825 
Q 2747 2406 2597 2665 
Q 2447 2925 2119 2925 
Q 1775 2925 1636 2651 
Q 1497 2378 1497 1663 
Q 1497 947 1637 672 
Q 1778 397 2119 397 
Q 2447 397 2597 656 
Q 2747 916 2747 1497 
z
M 3853 378 
L 4325 378 
L 4325 0 
L 2747 0 
L 2747 422 
Q 2606 163 2367 36 
Q 2128 -91 1778 -91 
Q 1072 -91 667 378 
Q 263 847 263 1663 
Q 263 2481 667 2947 
Q 1072 3413 1778 3413 
Q 2128 3413 2367 3286 
Q 2606 3159 2747 2900 
L 2747 4488 
L 2272 4488 
L 2272 4863 
L 3853 4863 
L 3853 378 
z
" transform="scale(0.015625)"/>
      <path id="DejaVuSerif-Bold-4d" d="M 269 0 
L 269 378 
L 863 378 
L 863 4288 
L 269 4288 
L 269 4666 
L 2194 4666 
L 3525 1672 
L 4863 4666 
L 6784 4666 
L 6784 4288 
L 6188 4288 
L 6188 378 
L 6784 378 
L 6784 0 
L 4384 0 
L 4384 378 
L 4978 378 
L 4978 3938 
L 3531 684 
L 2741 684 
L 1300 3938 
L 1300 378 
L 1894 378 
L 1894 0 
L 269 0 
z
" transform="scale(0.015625)"/>
      <path id="DejaVuSerif-Bold-4c" d="M 300 0 
L 300 378 
L 897 378 
L 897 4288 
L 300 4288 
L 300 4666 
L 2700 4666 
L 2700 4288 
L 2100 4288 
L 2100 428 
L 3938 428 
L 3938 1166 
L 4359 1166 
L 4359 0 
L 300 0 
z
" transform="scale(0.015625)"/>
      <path id="DejaVuSerif-Bold-44" d="M 2100 378 
L 2534 378 
Q 3266 378 3605 847 
Q 3944 1316 3944 2338 
Q 3944 3353 3606 3820 
Q 3269 4288 2534 4288 
L 2100 4288 
L 2100 378 
z
M 300 0 
L 300 378 
L 897 378 
L 897 4288 
L 300 4288 
L 300 4666 
L 2694 4666 
Q 3950 4666 4615 4066 
Q 5281 3466 5281 2338 
Q 5281 1203 4614 601 
Q 3947 0 2694 0 
L 300 0 
z
" transform="scale(0.015625)"/>
      <path id="DejaVuSerif-Bold-41" d="M -50 0 
L -50 378 
L 331 378 
L 2088 4666 
L 2834 4666 
L 4594 378 
L 5038 378 
L 5038 0 
L 2853 0 
L 2853 378 
L 3309 378 
L 2925 1331 
L 1172 1331 
L 781 378 
L 1338 378 
L 1338 0 
L -50 0 
z
M 1325 1709 
L 2772 1709 
L 2053 3494 
L 1325 1709 
z
" transform="scale(0.015625)"/>
      <path id="DejaVuSerif-Bold-34" d="M 4084 0 
L 1516 0 
L 1516 378 
L 2209 378 
L 2209 1228 
L 263 1228 
L 263 1588 
L 2216 4750 
L 3391 4750 
L 3391 1631 
L 4191 1631 
L 4191 1228 
L 3391 1228 
L 3391 378 
L 4084 378 
L 4084 0 
z
M 2209 1631 
L 2209 3897 
L 819 1631 
L 2209 1631 
z
" transform="scale(0.015625)"/>
     </defs>
     <use xlink:href="#DejaVuSerif-Bold-53"/>
     <use xlink:href="#DejaVuSerif-Bold-6f" transform="translate(72.216797 0)"/>
     <use xlink:href="#DejaVuSerif-Bold-76" transform="translate(138.916016 0)"/>
     <use xlink:href="#DejaVuSerif-Bold-65" transform="translate(197.021484 0)"/>
     <use xlink:href="#DejaVuSerif-Bold-72" transform="translate(260.644531 0)"/>
     <use xlink:href="#DejaVuSerif-Bold-65" transform="translate(313.330078 0)"/>
     <use xlink:href="#DejaVuSerif-Bold-69" transform="translate(376.953125 0)"/>
     <use xlink:href="#DejaVuSerif-Bold-67" transform="translate(414.941406 0)"/>
     <use xlink:href="#DejaVuSerif-Bold-6e" transform="translate(484.863281 0)"/>
     <use xlink:href="#DejaVuSerif-Bold-20" transform="translate(557.568359 0)"/>
     <use xlink:href="#DejaVuSerif-Bold-43" transform="translate(592.382812 0)"/>
     <use xlink:href="#DejaVuSerif-Bold-6c" transform="translate(671.972656 0)"/>
     <use xlink:href="#DejaVuSerif-Bold-6f" transform="translate(709.960938 0)"/>
     <use xlink:href="#DejaVuSerif-Bold-75" transform="translate(776.660156 0)"/>
     <use xlink:href="#DejaVuSerif-Bold-64" transform="translate(849.365234 0)"/>
     <use xlink:href="#DejaVuSerif-Bold-3a" transform="translate(919.287109 0)"/>
     <use xlink:href="#DejaVuSerif-Bold-20" transform="translate(956.201172 0)"/>
     <use xlink:href="#DejaVuSerif-Bold-4d" transform="translate(991.015625 0)"/>
     <use xlink:href="#DejaVuSerif-Bold-4c" transform="translate(1101.708984 0)"/>
     <use xlink:href="#DejaVuSerif-Bold-2d" transform="translate(1172.021484 0)"/>
     <use xlink:href="#DejaVuSerif-Bold-44" transform="translate(1213.525391 0)"/>
     <use xlink:href="#DejaVuSerif-Bold-53" transform="translate(1300.244141 0)"/>
     <use xlink:href="#DejaVuSerif-Bold-41" transform="translate(1372.460938 0)"/>
     <use xlink:href="#DejaVuSerif-Bold-2d" transform="translate(1450.048828 0)"/>
     <use xlink:href="#DejaVuSerif-Bold-34" transform="translate(1491.552734 0)"/>
     <use xlink:href="#DejaVuSerif-Bold-34" transform="translate(1561.132812 0)"/>
    </g>
    <!-- (Fast) -->
    <g style="fill: #ffffff" transform="translate(340.929688 358.959665) scale(0.1 -0.1)">
     <defs>
      <path id="DejaVuSerif-Bold-73" d="M 300 97 
L 300 1025 
L 653 1025 
Q 697 653 931 458 
Q 1166 263 1569 263 
Q 1906 263 2086 380 
Q 2266 497 2266 716 
Q 2266 916 2152 1025 
Q 2038 1134 1709 1216 
L 1253 1331 
Q 738 1459 506 1698 
Q 275 1938 275 2344 
Q 275 2884 650 3148 
Q 1025 3413 1806 3413 
Q 2100 3413 2433 3364 
Q 2766 3316 3169 3213 
L 3169 2375 
L 2816 2375 
Q 2788 2716 2573 2887 
Q 2359 3059 1959 3059 
Q 1622 3059 1448 2951 
Q 1275 2844 1275 2638 
Q 1275 2469 1375 2372 
Q 1475 2275 1734 2209 
L 2188 2094 
Q 2841 1928 3091 1684 
Q 3341 1441 3341 1006 
Q 3341 444 2939 176 
Q 2538 -91 1691 -91 
Q 1381 -91 1034 -44 
Q 688 3 300 97 
z
" transform="scale(0.015625)"/>
     </defs>
     <use xlink:href="#DejaVuSerif-Bold-28"/>
     <use xlink:href="#DejaVuSerif-Bold-46" transform="translate(47.314453 0)"/>
     <use xlink:href="#DejaVuSerif-Bold-61" transform="translate(112.810547 0)"/>
     <use xlink:href="#DejaVuSerif-Bold-73" transform="translate(177.605469 0)"/>
     <use xlink:href="#DejaVuSerif-Bold-74" transform="translate(233.904297 0)"/>
     <use xlink:href="#DejaVuSerif-Bold-29" transform="translate(280.095703 0)"/>
    </g>
   </g>
   <g id="text_3">
    <!-- Defense: ML-DSA-44 + -->
    <g style="fill: #ffffff" transform="translate(293.317969 312.384292) scale(0.1 -0.1)">
     <defs>
      <path id="DejaVuSerif-Bold-66" d="M 3097 4031 
L 2747 4031 
Q 2722 4275 2605 4394 
Q 2488 4513 2272 4513 
Q 2022 4513 1909 4333 
Q 1797 4153 1797 3750 
L 1797 3322 
L 2631 3322 
L 2631 2944 
L 1797 2944 
L 1797 378 
L 2438 378 
L 2438 0 
L 219 0 
L 219 378 
L 691 378 
L 691 2944 
L 197 2944 
L 197 3322 
L 691 3322 
L 691 3738 
Q 691 4291 1044 4577 
Q 1397 4863 2081 4863 
Q 2347 4863 2600 4833 
Q 2853 4803 3097 4744 
L 3097 4031 
z
" transform="scale(0.015625)"/>
      <path id="DejaVuSerif-Bold-2b" d="M 3041 4013 
L 3041 2369 
L 4684 2369 
L 4684 1650 
L 3041 1650 
L 3041 6 
L 2322 6 
L 2322 1650 
L 678 1650 
L 678 2369 
L 2322 2369 
L 2322 4013 
L 3041 4013 
z
" transform="scale(0.015625)"/>
     </defs>
     <use xlink:href="#DejaVuSerif-Bold-44"/>
     <use xlink:href="#DejaVuSerif-Bold-65" transform="translate(86.71875 0)"/>
     <use xlink:href="#DejaVuSerif-Bold-66" transform="translate(150.341797 0)"/>
     <use xlink:href="#DejaVuSerif-Bold-65" transform="translate(193.359375 0)"/>
     <use xlink:href="#DejaVuSerif-Bold-6e" transform="translate(256.982422 0)"/>
     <use xlink:href="#DejaVuSerif-Bold-73" transform="translate(329.6875 0)"/>
     <use xlink:href="#DejaVuSerif-Bold-65" transform="translate(385.986328 0)"/>
     <use xlink:href="#DejaVuSerif-Bold-3a" transform="translate(449.609375 0)"/>
     <use xlink:href="#DejaVuSerif-Bold-20" transform="translate(486.523438 0)"/>
     <use xlink:href="#DejaVuSerif-Bold-4d" transform="translate(521.337891 0)"/>
     <use xlink:href="#DejaVuSerif-Bold-4c" transform="translate(632.03125 0)"/>
     <use xlink:href="#DejaVuSerif-Bold-2d" transform="translate(702.34375 0)"/>
     <use xlink:href="#DejaVuSerif-Bold-44" transform="translate(743.847656 0)"/>
     <use xlink:href="#DejaVuSerif-Bold-53" transform="translate(830.566406 0)"/>
     <use xlink:href="#DejaVuSerif-Bold-41" transform="translate(902.783203 0)"/>
     <use xlink:href="#DejaVuSerif-Bold-2d" transform="translate(980.371094 0)"/>
     <use xlink:href="#DejaVuSerif-Bold-34" transform="translate(1021.875 0)"/>
     <use xlink:href="#DejaVuSerif-Bold-34" transform="translate(1091.455078 0)"/>
     <use xlink:href="#DejaVuSerif-Bold-20" transform="translate(1161.035156 0)"/>
     <use xlink:href="#DejaVuSerif-Bold-2b" transform="translate(1195.849609 0)"/>
    </g>
    <!-- SPHINCS+ -->
    <g style="fill: #ffffff" transform="translate(326.514844 323.582104) scale(0.1 -0.1)">
     <defs>
      <path id="DejaVuSerif-Bold-50" d="M 300 0 
L 300 378 
L 897 378 
L 897 4288 
L 300 4288 
L 300 4666 
L 2956 4666 
Q 3734 4666 4193 4295 
Q 4653 3925 4653 3303 
Q 4653 2678 4192 2304 
Q 3731 1931 2956 1931 
L 2100 1931 
L 2100 378 
L 2853 378 
L 2853 0 
L 300 0 
z
M 2100 2309 
L 2450 2309 
Q 2856 2309 3098 2579 
Q 3341 2850 3341 3303 
Q 3341 3753 3100 4020 
Q 2859 4288 2450 4288 
L 2100 4288 
L 2100 2309 
z
" transform="scale(0.015625)"/>
      <path id="DejaVuSerif-Bold-48" d="M 300 0 
L 300 378 
L 897 378 
L 897 4288 
L 300 4288 
L 300 4666 
L 2700 4666 
L 2700 4288 
L 2100 4288 
L 2100 2719 
L 3956 2719 
L 3956 4288 
L 3359 4288 
L 3359 4666 
L 5759 4666 
L 5759 4288 
L 5159 4288 
L 5159 378 
L 5759 378 
L 5759 0 
L 3359 0 
L 3359 378 
L 3956 378 
L 3956 2291 
L 2100 2291 
L 2100 378 
L 2700 378 
L 2700 0 
L 300 0 
z
" transform="scale(0.015625)"/>
      <path id="DejaVuSerif-Bold-49" d="M 300 0 
L 300 378 
L 897 378 
L 897 4288 
L 300 4288 
L 300 4666 
L 2700 4666 
L 2700 4288 
L 2100 4288 
L 2100 378 
L 2700 378 
L 2700 0 
L 300 0 
z
" transform="scale(0.015625)"/>
      <path id="DejaVuSerif-Bold-4e" d="M 281 0 
L 281 378 
L 878 378 
L 878 4288 
L 281 4288 
L 281 4666 
L 1741 4666 
L 4556 1363 
L 4556 4288 
L 3963 4288 
L 3963 4666 
L 5594 4666 
L 5594 4288 
L 4997 4288 
L 4997 0 
L 4178 0 
L 1319 3372 
L 1319 378 
L 1913 378 
L 1913 0 
L 281 0 
z
" transform="scale(0.015625)"/>
     </defs>
     <use xlink:href="#DejaVuSerif-Bold-53"/>
     <use xlink:href="#DejaVuSerif-Bold-50" transform="translate(72.216797 0)"/>
     <use xlink:href="#DejaVuSerif-Bold-48" transform="translate(147.412109 0)"/>
     <use xlink:href="#DejaVuSerif-Bold-49" transform="translate(241.894531 0)"/>
     <use xlink:href="#DejaVuSerif-Bold-4e" transform="translate(288.671875 0)"/>
     <use xlink:href="#DejaVuSerif-Bold-43" transform="translate(380.078125 0)"/>
     <use xlink:href="#DejaVuSerif-Bold-53" transform="translate(459.667969 0)"/>
     <use xlink:href="#DejaVuSerif-Bold-2b" transform="translate(531.884766 0)"/>
    </g>
   </g>
   <g id="text_4">
    <!-- Finance: ML-DSA-65 -->
    <g style="fill: #ffffff" transform="translate(299.54375 277.077825) scale(0.1 -0.1)">
     <defs>
      <path id="DejaVuSerif-Bold-36" d="M 1575 2766 
Q 1778 2928 2029 3009 
Q 2281 3091 2578 3091 
Q 3294 3091 3701 2672 
Q 4109 2253 4109 1522 
Q 4109 750 3650 329 
Q 3191 -91 2344 -91 
Q 1388 -91 895 486 
Q 403 1063 403 2181 
Q 403 3453 950 4101 
Q 1497 4750 2572 4750 
Q 2853 4750 3175 4703 
Q 3497 4656 3866 4563 
L 3866 3738 
L 3488 3738 
Q 3409 4056 3192 4220 
Q 2975 4384 2631 4384 
Q 2075 4384 1826 4003 
Q 1578 3622 1575 2766 
z
M 2272 275 
Q 2594 275 2731 548 
Q 2869 822 2869 1497 
Q 2869 2172 2731 2445 
Q 2594 2719 2272 2719 
Q 1950 2719 1814 2445 
Q 1678 2172 1678 1497 
Q 1678 822 1814 548 
Q 1950 275 2272 275 
z
" transform="scale(0.015625)"/>
     </defs>
     <use xlink:href="#DejaVuSerif-Bold-46"/>
     <use xlink:href="#DejaVuSerif-Bold-69" transform="translate(70.996094 0)"/>
     <use xlink:href="#DejaVuSerif-Bold-6e" transform="translate(108.984375 0)"/>
     <use xlink:href="#DejaVuSerif-Bold-61" transform="translate(181.689453 0)"/>
     <use xlink:href="#DejaVuSerif-Bold-6e" transform="translate(246.484375 0)"/>
     <use xlink:href="#DejaVuSerif-Bold-63" transform="translate(319.189453 0)"/>
     <use xlink:href="#DejaVuSerif-Bold-65" transform="translate(380.078125 0)"/>
     <use xlink:href="#DejaVuSerif-Bold-3a" transform="translate(443.701172 0)"/>
     <use xlink:href="#DejaVuSerif-Bold-20" transform="translate(480.615234 0)"/>
     <use xlink:href="#DejaVuSerif-Bold-4d" transform="translate(515.429688 0)"/>
     <use xlink:href="#DejaVuSerif-Bold-4c" transform="translate(626.123047 0)"/>
     <use xlink:href="#DejaVuSerif-Bold-2d" transform="translate(696.435547 0)"/>
     <use xlink:href="#DejaVuSerif-Bold-44" transform="translate(737.939453 0)"/>
     <use xlink:href="#DejaVuSerif-Bold-53" transform="translate(824.658203 0)"/>
     <use xlink:href="#DejaVuSerif-Bold-41" transform="translate(896.875 0)"/>
     <use xlink:href="#DejaVuSerif-Bold-2d" transform="translate(974.462891 0)"/>
     <use xlink:href="#DejaVuSerif-Bold-36" transform="translate(1015.966797 0)"/>
     <use xlink:href="#DejaVuSerif-Bold-35" transform="translate(1085.546875 0)"/>
    </g>
    <!-- (Balanced) -->
    <g style="fill: #ffffff" transform="translate(326.607031 288.275638) scale(0.1 -0.1)">
     <defs>
      <path id="DejaVuSerif-Bold-42" d="M 300 0 
L 300 378 
L 897 378 
L 897 4288 
L 300 4288 
L 300 4666 
L 3066 4666 
Q 3919 4666 4347 4378 
Q 4775 4091 4775 3513 
Q 4775 3097 4479 2853 
Q 4184 2609 3603 2547 
Q 4306 2481 4681 2172 
Q 5056 1863 5056 1350 
Q 5056 656 4532 328 
Q 4009 0 2894 0 
L 300 0 
z
M 2100 2719 
L 2509 2719 
Q 3047 2719 3306 2914 
Q 3566 3109 3566 3513 
Q 3566 3919 3314 4103 
Q 3063 4288 2509 4288 
L 2100 4288 
L 2100 2719 
z
M 2100 378 
L 2547 378 
Q 3144 378 3431 615 
Q 3719 853 3719 1350 
Q 3719 1850 3428 2097 
Q 3138 2344 2547 2344 
L 2100 2344 
L 2100 378 
z
" transform="scale(0.015625)"/>
     </defs>
     <use xlink:href="#DejaVuSerif-Bold-28"/>
     <use xlink:href="#DejaVuSerif-Bold-42" transform="translate(47.314453 0)"/>
     <use xlink:href="#DejaVuSerif-Bold-61" transform="translate(131.835938 0)"/>
     <use xlink:href="#DejaVuSerif-Bold-6c" transform="translate(196.630859 0)"/>
     <use xlink:href="#DejaVuSerif-Bold-61" transform="translate(234.619141 0)"/>
     <use xlink:href="#DejaVuSerif-Bold-6e" transform="translate(299.414062 0)"/>
     <use xlink:href="#DejaVuSerif-Bold-63" transform="translate(372.119141 0)"/>
     <use xlink:href="#DejaVuSerif-Bold-65" transform="translate(433.007812 0)"/>
     <use xlink:href="#DejaVuSerif-Bold-64" transform="translate(496.630859 0)"/>
     <use xlink:href="#DejaVuSerif-Bold-29" transform="translate(566.552734 0)"/>
    </g>
   </g>
   <g id="text_5">
    <!-- Telecom: ML-KEM-768 -->
    <g style="fill: #ffffff" transform="translate(293.307031 241.771358) scale(0.1 -0.1)">
     <defs>
      <path id="DejaVuSerif-Bold-54" d="M 1159 0 
L 1159 378 
L 1778 378 
L 1778 4238 
L 500 4238 
L 500 3500 
L 72 3500 
L 72 4666 
L 4697 4666 
L 4697 3500 
L 4275 3500 
L 4275 4238 
L 2988 4238 
L 2988 378 
L 3609 378 
L 3609 0 
L 1159 0 
z
" transform="scale(0.015625)"/>
      <path id="DejaVuSerif-Bold-4b" d="M 300 0 
L 300 378 
L 897 378 
L 897 4288 
L 300 4288 
L 300 4666 
L 2700 4666 
L 2700 4288 
L 2100 4288 
L 2100 2584 
L 4078 4288 
L 3578 4288 
L 3578 4666 
L 5319 4666 
L 5319 4288 
L 4697 4288 
L 3022 2847 
L 5300 378 
L 5759 378 
L 5759 0 
L 4178 0 
L 2100 2266 
L 2100 378 
L 2700 378 
L 2700 0 
L 300 0 
z
" transform="scale(0.015625)"/>
      <path id="DejaVuSerif-Bold-37" d="M 3922 3872 
L 1997 0 
L 1363 0 
L 3238 3781 
L 934 3781 
L 934 3150 
L 506 3150 
L 506 4666 
L 3922 4666 
L 3922 3872 
z
" transform="scale(0.015625)"/>
      <path id="DejaVuSerif-Bold-38" d="M 2975 2484 
Q 3531 2394 3820 2075 
Q 4109 1756 4109 1241 
Q 4109 597 3623 253 
Q 3138 -91 2222 -91 
Q 1306 -91 818 253 
Q 331 597 331 1241 
Q 331 1756 622 2075 
Q 913 2394 1466 2484 
Q 975 2597 731 2861 
Q 488 3125 488 3531 
Q 488 4125 931 4437 
Q 1375 4750 2222 4750 
Q 3066 4750 3511 4437 
Q 3956 4125 3956 3531 
Q 3956 3125 3711 2861 
Q 3466 2597 2975 2484 
z
M 2747 3519 
Q 2747 4013 2628 4198 
Q 2509 4384 2222 4384 
Q 1931 4384 1814 4198 
Q 1697 4013 1697 3519 
Q 1697 3028 1814 2845 
Q 1931 2663 2222 2663 
Q 2513 2663 2630 2845 
Q 2747 3028 2747 3519 
z
M 2869 1294 
Q 2869 1866 2723 2081 
Q 2578 2297 2222 2297 
Q 1863 2297 1719 2081 
Q 1575 1866 1575 1294 
Q 1575 716 1720 495 
Q 1866 275 2222 275 
Q 2575 275 2722 495 
Q 2869 716 2869 1294 
z
" transform="scale(0.015625)"/>
     </defs>
     <use xlink:href="#DejaVuSerif-Bold-54"/>
     <use xlink:href="#DejaVuSerif-Bold-65" transform="translate(62.914062 0)"/>
     <use xlink:href="#DejaVuSerif-Bold-6c" transform="translate(126.537109 0)"/>
     <use xlink:href="#DejaVuSerif-Bold-65" transform="translate(164.525391 0)"/>
     <use xlink:href="#DejaVuSerif-Bold-63" transform="translate(228.148438 0)"/>
     <use xlink:href="#DejaVuSerif-Bold-6f" transform="translate(289.037109 0)"/>
     <use xlink:href="#DejaVuSerif-Bold-6d" transform="translate(355.736328 0)"/>
     <use xlink:href="#DejaVuSerif-Bold-3a" transform="translate(461.546875 0)"/>
     <use xlink:href="#DejaVuSerif-Bold-20" transform="translate(498.460938 0)"/>
     <use xlink:href="#DejaVuSerif-Bold-4d" transform="translate(533.275391 0)"/>
     <use xlink:href="#DejaVuSerif-Bold-4c" transform="translate(643.96875 0)"/>
     <use xlink:href="#DejaVuSerif-Bold-2d" transform="translate(714.28125 0)"/>
     <use xlink:href="#DejaVuSerif-Bold-4b" transform="translate(755.785156 0)"/>
     <use xlink:href="#DejaVuSerif-Bold-45" transform="translate(842.699219 0)"/>
     <use xlink:href="#DejaVuSerif-Bold-4d" transform="translate(918.919922 0)"/>
     <use xlink:href="#DejaVuSerif-Bold-2d" transform="translate(1029.613281 0)"/>
     <use xlink:href="#DejaVuSerif-Bold-37" transform="translate(1071.117188 0)"/>
     <use xlink:href="#DejaVuSerif-Bold-36" transform="translate(1140.697266 0)"/>
     <use xlink:href="#DejaVuSerif-Bold-38" transform="translate(1210.277344 0)"/>
    </g>
    <!-- (Secure) -->
    <g style="fill: #ffffff" transform="translate(333.28125 252.969171) scale(0.1 -0.1)">
     <use xlink:href="#DejaVuSerif-Bold-28"/>
     <use xlink:href="#DejaVuSerif-Bold-53" transform="translate(47.314453 0)"/>
     <use xlink:href="#DejaVuSerif-Bold-65" transform="translate(119.53125 0)"/>
     <use xlink:href="#DejaVuSerif-Bold-63" transform="translate(183.154297 0)"/>
     <use xlink:href="#DejaVuSerif-Bold-75" transform="translate(244.042969 0)"/>
     <use xlink:href="#DejaVuSerif-Bold-72" transform="translate(316.748047 0)"/>
     <use xlink:href="#DejaVuSerif-Bold-65" transform="translate(369.433594 0)"/>
     <use xlink:href="#DejaVuSerif-Bold-29" transform="translate(433.056641 0)"/>
    </g>
   </g>
   <g id="text_6">
    <!-- Mega Projects: Falcon-512 -->
    <g style="fill: #ffffff" transform="translate(282.691406 206.393798) scale(0.1 -0.1)">
     <defs>
      <path id="DejaVuSerif-Bold-6a" d="M 556 4263 
Q 556 4516 729 4689 
Q 903 4863 1159 4863 
Q 1403 4863 1578 4688 
Q 1753 4513 1753 4263 
Q 1753 4016 1579 3842 
Q 1406 3669 1159 3669 
Q 906 3669 731 3841 
Q 556 4013 556 4263 
z
M 684 2944 
L 213 2944 
L 213 3322 
L 1791 3322 
L 1791 -391 
Q 1791 -900 1430 -1161 
Q 1069 -1422 366 -1422 
Q 178 -1422 -34 -1390 
Q -247 -1359 -475 -1300 
L -475 -594 
L -122 -597 
Q -116 -847 -23 -958 
Q 69 -1069 275 -1069 
Q 503 -1069 593 -922 
Q 684 -775 684 -391 
L 684 2944 
z
" transform="scale(0.015625)"/>
     </defs>
     <use xlink:href="#DejaVuSerif-Bold-4d"/>
     <use xlink:href="#DejaVuSerif-Bold-65" transform="translate(110.693359 0)"/>
     <use xlink:href="#DejaVuSerif-Bold-67" transform="translate(174.316406 0)"/>
     <use xlink:href="#DejaVuSerif-Bold-61" transform="translate(244.238281 0)"/>
     <use xlink:href="#DejaVuSerif-Bold-20" transform="translate(309.033203 0)"/>
     <use xlink:href="#DejaVuSerif-Bold-50" transform="translate(343.847656 0)"/>
     <use xlink:href="#DejaVuSerif-Bold-72" transform="translate(419.042969 0)"/>
     <use xlink:href="#DejaVuSerif-Bold-6f" transform="translate(471.728516 0)"/>
     <use xlink:href="#DejaVuSerif-Bold-6a" transform="translate(538.427734 0)"/>
     <use xlink:href="#DejaVuSerif-Bold-65" transform="translate(574.609375 0)"/>
     <use xlink:href="#DejaVuSerif-Bold-63" transform="translate(638.232422 0)"/>
     <use xlink:href="#DejaVuSerif-Bold-74" transform="translate(699.121094 0)"/>
     <use xlink:href="#DejaVuSerif-Bold-73" transform="translate(745.3125 0)"/>
     <use xlink:href="#DejaVuSerif-Bold-3a" transform="translate(801.611328 0)"/>
     <use xlink:href="#DejaVuSerif-Bold-20" transform="translate(838.525391 0)"/>
     <use xlink:href="#DejaVuSerif-Bold-46" transform="translate(873.339844 0)"/>
     <use xlink:href="#DejaVuSerif-Bold-61" transform="translate(938.835938 0)"/>
     <use xlink:href="#DejaVuSerif-Bold-6c" transform="translate(1003.630859 0)"/>
     <use xlink:href="#DejaVuSerif-Bold-63" transform="translate(1041.619141 0)"/>
     <use xlink:href="#DejaVuSerif-Bold-6f" transform="translate(1102.507812 0)"/>
     <use xlink:href="#DejaVuSerif-Bold-6e" transform="translate(1169.207031 0)"/>
     <use xlink:href="#DejaVuSerif-Bold-2d" transform="translate(1241.912109 0)"/>
     <use xlink:href="#DejaVuSerif-Bold-35" transform="translate(1283.416016 0)"/>
     <use xlink:href="#DejaVuSerif-Bold-31" transform="translate(1352.996094 0)"/>
     <use xlink:href="#DejaVuSerif-Bold-32" transform="translate(1422.576172 0)"/>
    </g>
    <!-- (Compact) -->
    <g style="fill: #ffffff" transform="translate(327.873438 217.733798) scale(0.1 -0.1)">
     <use xlink:href="#DejaVuSerif-Bold-28"/>
     <use xlink:href="#DejaVuSerif-Bold-43" transform="translate(47.314453 0)"/>
     <use xlink:href="#DejaVuSerif-Bold-6f" transform="translate(126.904297 0)"/>
     <use xlink:href="#DejaVuSerif-Bold-6d" transform="translate(193.603516 0)"/>
     <use xlink:href="#DejaVuSerif-Bold-70" transform="translate(299.414062 0)"/>
     <use xlink:href="#DejaVuSerif-Bold-61" transform="translate(369.335938 0)"/>
     <use xlink:href="#DejaVuSerif-Bold-63" transform="translate(434.130859 0)"/>
     <use xlink:href="#DejaVuSerif-Bold-74" transform="translate(495.019531 0)"/>
     <use xlink:href="#DejaVuSerif-Bold-29" transform="translate(541.210938 0)"/>
    </g>
   </g>
   <g id="text_7">
    <!-- Healthcare: SPHINCS+ -->
    <g style="fill: #ffffff" transform="translate(291.839063 171.158425) scale(0.1 -0.1)">
     <defs>
      <path id="DejaVuSerif-Bold-68" d="M 219 0 
L 219 378 
L 691 378 
L 691 4488 
L 197 4488 
L 197 4863 
L 1797 4863 
L 1797 2853 
Q 1997 3150 2253 3281 
Q 2509 3413 2900 3413 
Q 3459 3413 3745 3083 
Q 4031 2753 4031 2113 
L 4031 378 
L 4506 378 
L 4506 0 
L 2522 0 
L 2522 378 
L 2925 378 
L 2925 2144 
Q 2925 2566 2817 2730 
Q 2709 2894 2444 2894 
Q 2109 2894 1953 2648 
Q 1797 2403 1797 1869 
L 1797 378 
L 2203 378 
L 2203 0 
L 219 0 
z
" transform="scale(0.015625)"/>
     </defs>
     <use xlink:href="#DejaVuSerif-Bold-48"/>
     <use xlink:href="#DejaVuSerif-Bold-65" transform="translate(94.482422 0)"/>
     <use xlink:href="#DejaVuSerif-Bold-61" transform="translate(158.105469 0)"/>
     <use xlink:href="#DejaVuSerif-Bold-6c" transform="translate(222.900391 0)"/>
     <use xlink:href="#DejaVuSerif-Bold-74" transform="translate(260.888672 0)"/>
     <use xlink:href="#DejaVuSerif-Bold-68" transform="translate(307.080078 0)"/>
     <use xlink:href="#DejaVuSerif-Bold-63" transform="translate(379.785156 0)"/>
     <use xlink:href="#DejaVuSerif-Bold-61" transform="translate(440.673828 0)"/>
     <use xlink:href="#DejaVuSerif-Bold-72" transform="translate(505.46875 0)"/>
     <use xlink:href="#DejaVuSerif-Bold-65" transform="translate(558.154297 0)"/>
     <use xlink:href="#DejaVuSerif-Bold-3a" transform="translate(621.777344 0)"/>
     <use xlink:href="#DejaVuSerif-Bold-20" transform="translate(658.691406 0)"/>
     <use xlink:href="#DejaVuSerif-Bold-53" transform="translate(693.505859 0)"/>
     <use xlink:href="#DejaVuSerif-Bold-50" transform="translate(765.722656 0)"/>
     <use xlink:href="#DejaVuSerif-Bold-48" transform="translate(840.917969 0)"/>
     <use xlink:href="#DejaVuSerif-Bold-49" transform="translate(935.400391 0)"/>
     <use xlink:href="#DejaVuSerif-Bold-4e" transform="translate(982.177734 0)"/>
     <use xlink:href="#DejaVuSerif-Bold-43" transform="translate(1073.583984 0)"/>
     <use xlink:href="#DejaVuSerif-Bold-53" transform="translate(1153.173828 0)"/>
     <use xlink:href="#DejaVuSerif-Bold-2b" transform="translate(1225.390625 0)"/>
    </g>
    <!-- (Secure) -->
    <g style="fill: #ffffff" transform="translate(333.28125 182.356237) scale(0.1 -0.1)">
     <use xlink:href="#DejaVuSerif-Bold-28"/>
     <use xlink:href="#DejaVuSerif-Bold-53" transform="translate(47.314453 0)"/>
     <use xlink:href="#DejaVuSerif-Bold-65" transform="translate(119.53125 0)"/>
     <use xlink:href="#DejaVuSerif-Bold-63" transform="translate(183.154297 0)"/>
     <use xlink:href="#DejaVuSerif-Bold-75" transform="translate(244.042969 0)"/>
     <use xlink:href="#DejaVuSerif-Bold-72" transform="translate(316.748047 0)"/>
     <use xlink:href="#DejaVuSerif-Bold-65" transform="translate(369.433594 0)"/>
     <use xlink:href="#DejaVuSerif-Bold-29" transform="translate(433.056641 0)"/>
    </g>
   </g>
   <g id="text_8">
    <!-- Water: ML-DSA-44 -->
    <g style="fill: #ffffff" transform="translate(305.185938 135.851958) scale(0.1 -0.1)">
     <defs>
      <path id="DejaVuSerif-Bold-57" d="M 5453 0 
L 4647 0 
L 3591 3397 
L 2534 0 
L 1728 0 
L 397 4288 
L -56 4288 
L -56 4666 
L 2156 4666 
L 2156 4288 
L 1656 4288 
L 2547 1422 
L 3553 4666 
L 4441 4666 
L 5466 1369 
L 6375 4288 
L 5819 4288 
L 5819 4666 
L 7263 4666 
L 7263 4288 
L 6784 4288 
L 5453 0 
z
" transform="scale(0.015625)"/>
     </defs>
     <use xlink:href="#DejaVuSerif-Bold-57"/>
     <use xlink:href="#DejaVuSerif-Bold-61" transform="translate(103.554688 0)"/>
     <use xlink:href="#DejaVuSerif-Bold-74" transform="translate(168.349609 0)"/>
     <use xlink:href="#DejaVuSerif-Bold-65" transform="translate(214.541016 0)"/>
     <use xlink:href="#DejaVuSerif-Bold-72" transform="translate(278.164062 0)"/>
     <use xlink:href="#DejaVuSerif-Bold-3a" transform="translate(330.849609 0)"/>
     <use xlink:href="#DejaVuSerif-Bold-20" transform="translate(367.763672 0)"/>
     <use xlink:href="#DejaVuSerif-Bold-4d" transform="translate(402.578125 0)"/>
     <use xlink:href="#DejaVuSerif-Bold-4c" transform="translate(513.271484 0)"/>
     <use xlink:href="#DejaVuSerif-Bold-2d" transform="translate(583.583984 0)"/>
     <use xlink:href="#DejaVuSerif-Bold-44" transform="translate(625.087891 0)"/>
     <use xlink:href="#DejaVuSerif-Bold-53" transform="translate(711.806641 0)"/>
     <use xlink:href="#DejaVuSerif-Bold-41" transform="translate(784.023438 0)"/>
     <use xlink:href="#DejaVuSerif-Bold-2d" transform="translate(861.611328 0)"/>
     <use xlink:href="#DejaVuSerif-Bold-34" transform="translate(903.115234 0)"/>
     <use xlink:href="#DejaVuSerif-Bold-34" transform="translate(972.695312 0)"/>
    </g>
    <!-- (Fast) -->
    <g style="fill: #ffffff" transform="translate(340.929688 147.049771) scale(0.1 -0.1)">
     <use xlink:href="#DejaVuSerif-Bold-28"/>
     <use xlink:href="#DejaVuSerif-Bold-46" transform="translate(47.314453 0)"/>
     <use xlink:href="#DejaVuSerif-Bold-61" transform="translate(112.810547 0)"/>
     <use xlink:href="#DejaVuSerif-Bold-73" transform="translate(177.605469 0)"/>
     <use xlink:href="#DejaVuSerif-Bold-74" transform="translate(233.904297 0)"/>
     <use xlink:href="#DejaVuSerif-Bold-29" transform="translate(280.095703 0)"/>
    </g>
   </g>
   <g id="text_9">
    <!-- Maritime: Falcon-512 -->
    <g style="fill: #ffffff" transform="translate(296.784375 100.545491) scale(0.1 -0.1)">
     <use xlink:href="#DejaVuSerif-Bold-4d"/>
     <use xlink:href="#DejaVuSerif-Bold-61" transform="translate(110.693359 0)"/>
     <use xlink:href="#DejaVuSerif-Bold-72" transform="translate(175.488281 0)"/>
     <use xlink:href="#DejaVuSerif-Bold-69" transform="translate(228.173828 0)"/>
     <use xlink:href="#DejaVuSerif-Bold-74" transform="translate(266.162109 0)"/>
     <use xlink:href="#DejaVuSerif-Bold-69" transform="translate(312.353516 0)"/>
     <use xlink:href="#DejaVuSerif-Bold-6d" transform="translate(350.341797 0)"/>
     <use xlink:href="#DejaVuSerif-Bold-65" transform="translate(456.152344 0)"/>
     <use xlink:href="#DejaVuSerif-Bold-3a" transform="translate(519.775391 0)"/>
     <use xlink:href="#DejaVuSerif-Bold-20" transform="translate(556.689453 0)"/>
     <use xlink:href="#DejaVuSerif-Bold-46" transform="translate(591.503906 0)"/>
     <use xlink:href="#DejaVuSerif-Bold-61" transform="translate(657 0)"/>
     <use xlink:href="#DejaVuSerif-Bold-6c" transform="translate(721.794922 0)"/>
     <use xlink:href="#DejaVuSerif-Bold-63" transform="translate(759.783203 0)"/>
     <use xlink:href="#DejaVuSerif-Bold-6f" transform="translate(820.671875 0)"/>
     <use xlink:href="#DejaVuSerif-Bold-6e" transform="translate(887.371094 0)"/>
     <use xlink:href="#DejaVuSerif-Bold-2d" transform="translate(960.076172 0)"/>
     <use xlink:href="#DejaVuSerif-Bold-35" transform="translate(1001.580078 0)"/>
     <use xlink:href="#DejaVuSerif-Bold-31" transform="translate(1071.160156 0)"/>
     <use xlink:href="#DejaVuSerif-Bold-32" transform="translate(1140.740234 0)"/>
    </g>
    <!-- (Compact) -->
    <g style="fill: #ffffff" transform="translate(327.873438 111.743304) scale(0.1 -0.1)">
     <use xlink:href="#DejaVuSerif-Bold-28"/>
     <use xlink:href="#DejaVuSerif-Bold-43" transform="translate(47.314453 0)"/>
     <use xlink:href="#DejaVuSerif-Bold-6f" transform="translate(126.904297 0)"/>
     <use xlink:href="#DejaVuSerif-Bold-6d" transform="translate(193.603516 0)"/>
     <use xlink:href="#DejaVuSerif-Bold-70" transform="translate(299.414062 0)"/>
     <use xlink:href="#DejaVuSerif-Bold-61" transform="translate(369.335938 0)"/>
     <use xlink:href="#DejaVuSerif-Bold-63" transform="translate(434.130859 0)"/>
     <use xlink:href="#DejaVuSerif-Bold-74" transform="translate(495.019531 0)"/>
     <use xlink:href="#DejaVuSerif-Bold-29" transform="translate(541.210938 0)"/>
    </g>
   </g>
   <g id="text_10">
    <!-- Space: ML-KEM-1024 -->
    <g style="fill: #ffffff" transform="translate(296.333594 65.239025) scale(0.1 -0.1)">
     <defs>
      <path id="DejaVuSerif-Bold-30" d="M 2228 275 
Q 2603 275 2742 615 
Q 2881 956 2881 2328 
Q 2881 3691 2742 4037 
Q 2603 4384 2228 4384 
Q 1853 4384 1714 4043 
Q 1575 3703 1575 2328 
Q 1575 956 1714 615 
Q 1853 275 2228 275 
z
M 2228 -91 
Q 1294 -91 797 532 
Q 300 1156 300 2328 
Q 300 3500 797 4125 
Q 1294 4750 2228 4750 
Q 3159 4750 3656 4125 
Q 4153 3500 4153 2328 
Q 4153 1156 3656 532 
Q 3159 -91 2228 -91 
z
" transform="scale(0.015625)"/>
     </defs>
     <use xlink:href="#DejaVuSerif-Bold-53"/>
     <use xlink:href="#DejaVuSerif-Bold-70" transform="translate(72.216797 0)"/>
     <use xlink:href="#DejaVuSerif-Bold-61" transform="translate(142.138672 0)"/>
     <use xlink:href="#DejaVuSerif-Bold-63" transform="translate(206.933594 0)"/>
     <use xlink:href="#DejaVuSerif-Bold-65" transform="translate(267.822266 0)"/>
     <use xlink:href="#DejaVuSerif-Bold-3a" transform="translate(331.445312 0)"/>
     <use xlink:href="#DejaVuSerif-Bold-20" transform="translate(368.359375 0)"/>
     <use xlink:href="#DejaVuSerif-Bold-4d" transform="translate(403.173828 0)"/>
     <use xlink:href="#DejaVuSerif-Bold-4c" transform="translate(513.867188 0)"/>
     <use xlink:href="#DejaVuSerif-Bold-2d" transform="translate(584.179688 0)"/>
     <use xlink:href="#DejaVuSerif-Bold-4b" transform="translate(625.683594 0)"/>
     <use xlink:href="#DejaVuSerif-Bold-45" transform="translate(712.597656 0)"/>
     <use xlink:href="#DejaVuSerif-Bold-4d" transform="translate(788.818359 0)"/>
     <use xlink:href="#DejaVuSerif-Bold-2d" transform="translate(899.511719 0)"/>
     <use xlink:href="#DejaVuSerif-Bold-31" transform="translate(941.015625 0)"/>
     <use xlink:href="#DejaVuSerif-Bold-30" transform="translate(1010.595703 0)"/>
     <use xlink:href="#DejaVuSerif-Bold-32" transform="translate(1080.175781 0)"/>
     <use xlink:href="#DejaVuSerif-Bold-34" transform="translate(1149.755859 0)"/>
    </g>
    <!-- (Max KEM) -->
    <g style="fill: #ffffff" transform="translate(325.38125 76.436837) scale(0.1 -0.1)">
     <defs>
      <path id="DejaVuSerif-Bold-78" d="M 2247 2119 
L 2834 2944 
L 2425 2944 
L 2425 3322 
L 3719 3322 
L 3719 2944 
L 3278 2944 
L 2431 1759 
L 3419 378 
L 3859 378 
L 3859 0 
L 1747 0 
L 1747 378 
L 2175 378 
L 1550 1253 
L 922 378 
L 1369 378 
L 1369 0 
L 0 0 
L 0 378 
L 475 378 
L 1356 1619 
L 403 2944 
L 31 2944 
L 31 3322 
L 2059 3322 
L 2059 2944 
L 1656 2944 
L 2247 2119 
z
" transform="scale(0.015625)"/>
     </defs>
     <use xlink:href="#DejaVuSerif-Bold-28"/>
     <use xlink:href="#DejaVuSerif-Bold-4d" transform="translate(47.314453 0)"/>
     <use xlink:href="#DejaVuSerif-Bold-61" transform="translate(158.007812 0)"/>
     <use xlink:href="#DejaVuSerif-Bold-78" transform="translate(222.802734 0)"/>
     <use xlink:href="#DejaVuSerif-Bold-20" transform="translate(282.421875 0)"/>
     <use xlink:href="#DejaVuSerif-Bold-4b" transform="translate(317.236328 0)"/>
     <use xlink:href="#DejaVuSerif-Bold-45" transform="translate(404.150391 0)"/>
     <use xlink:href="#DejaVuSerif-Bold-4d" transform="translate(480.371094 0)"/>
     <use xlink:href="#DejaVuSerif-Bold-29" transform="translate(591.064453 0)"/>
    </g>
   </g>
   <g id="text_11">
    <!-- Gulf Infrastructure — Primary PQC Recommendation by Domain -->
    <g transform="translate(155.875078 18.597656) scale(0.15 -0.15)">
     <defs>
      <path id="DejaVuSerif-Bold-47" d="M 4403 3200 
Q 4263 3819 3934 4095 
Q 3606 4372 3009 4372 
Q 2284 4372 1945 3880 
Q 1606 3388 1606 2328 
Q 1606 1278 1931 783 
Q 2256 288 2944 288 
Q 3206 288 3431 347 
Q 3656 406 3841 525 
L 3841 1806 
L 3278 1806 
L 3278 2181 
L 4959 2181 
L 4959 391 
Q 4434 147 3911 28 
Q 3388 -91 2841 -91 
Q 1641 -91 955 556 
Q 269 1203 269 2328 
Q 269 3456 955 4103 
Q 1641 4750 2841 4750 
Q 3341 4750 3825 4650 
Q 4309 4550 4800 4347 
L 4800 3200 
L 4403 3200 
z
" transform="scale(0.015625)"/>
      <path id="DejaVuSerif-Bold-2014" d="M 344 2075 
L 6056 2075 
L 6056 1325 
L 344 1325 
L 344 2075 
z
" transform="scale(0.015625)"/>
      <path id="DejaVuSerif-Bold-51" d="M 2766 -91 
Q 1584 -72 926 565 
Q 269 1203 269 2328 
Q 269 3459 939 4104 
Q 1609 4750 2784 4750 
Q 3963 4750 4631 4106 
Q 5300 3463 5300 2328 
Q 5300 1334 4786 715 
Q 4272 97 3322 -50 
Q 3488 -228 3725 -306 
Q 3963 -384 4341 -384 
L 4500 -384 
L 4500 -1153 
L 4409 -1153 
Q 3816 -1153 3419 -897 
Q 3022 -641 2766 -91 
z
M 2784 288 
Q 3381 288 3672 791 
Q 3963 1294 3963 2328 
Q 3963 3366 3672 3869 
Q 3381 4372 2784 4372 
Q 2191 4372 1898 3864 
Q 1606 3356 1606 2328 
Q 1606 1303 1898 795 
Q 2191 288 2784 288 
z
" transform="scale(0.015625)"/>
      <path id="DejaVuSerif-Bold-52" d="M 3397 2278 
Q 3675 2238 3865 2094 
Q 4056 1950 4197 1678 
L 4878 378 
L 5356 378 
L 5356 0 
L 3822 0 
L 3078 1409 
Q 2863 1847 2711 1967 
Q 2559 2088 2291 2088 
L 2100 2088 
L 2100 378 
L 2700 378 
L 2700 0 
L 300 0 
L 300 378 
L 897 378 
L 897 4288 
L 300 4288 
L 300 4666 
L 2963 4666 
Q 3775 4666 4217 4339 
Q 4659 4013 4659 3413 
Q 4659 2925 4345 2642 
Q 4031 2359 3397 2278 
z
M 2100 2463 
L 2509 2463 
Q 2947 2463 3183 2700 
Q 3419 2938 3419 3378 
Q 3419 3819 3183 4053 
Q 2947 4288 2509 4288 
L 2100 4288 
L 2100 2463 
z
" transform="scale(0.015625)"/>
      <path id="DejaVuSerif-Bold-62" d="M 622 378 
L 622 4488 
L 147 4488 
L 147 4863 
L 1728 4863 
L 1728 2900 
Q 1869 3159 2106 3286 
Q 2344 3413 2694 3413 
Q 3403 3413 3811 2945 
Q 4219 2478 4219 1663 
Q 4219 847 3811 378 
Q 3403 -91 2694 -91 
Q 2344 -91 2106 36 
Q 1869 163 1728 422 
L 1728 0 
L 147 0 
L 147 378 
L 622 378 
z
M 1728 1497 
Q 1728 916 1876 656 
Q 2025 397 2356 397 
Q 2697 397 2836 672 
Q 2975 947 2975 1663 
Q 2975 2378 2836 2651 
Q 2697 2925 2356 2925 
Q 2025 2925 1876 2665 
Q 1728 2406 1728 1825 
L 1728 1497 
z
" transform="scale(0.015625)"/>
     </defs>
     <use xlink:href="#DejaVuSerif-Bold-47"/>
     <use xlink:href="#DejaVuSerif-Bold-75" transform="translate(85.400391 0)"/>
     <use xlink:href="#DejaVuSerif-Bold-6c" transform="translate(158.105469 0)"/>
     <use xlink:href="#DejaVuSerif-Bold-66" transform="translate(196.09375 0)"/>
     <use xlink:href="#DejaVuSerif-Bold-20" transform="translate(239.111328 0)"/>
     <use xlink:href="#DejaVuSerif-Bold-49" transform="translate(273.925781 0)"/>
     <use xlink:href="#DejaVuSerif-Bold-6e" transform="translate(320.703125 0)"/>
     <use xlink:href="#DejaVuSerif-Bold-66" transform="translate(393.408203 0)"/>
     <use xlink:href="#DejaVuSerif-Bold-72" transform="translate(436.425781 0)"/>
     <use xlink:href="#DejaVuSerif-Bold-61" transform="translate(489.111328 0)"/>
     <use xlink:href="#DejaVuSerif-Bold-73" transform="translate(553.90625 0)"/>
     <use xlink:href="#DejaVuSerif-Bold-74" transform="translate(610.205078 0)"/>
     <use xlink:href="#DejaVuSerif-Bold-72" transform="translate(656.396484 0)"/>
     <use xlink:href="#DejaVuSerif-Bold-75" transform="translate(709.082031 0)"/>
     <use xlink:href="#DejaVuSerif-Bold-63" transform="translate(781.787109 0)"/>
     <use xlink:href="#DejaVuSerif-Bold-74" transform="translate(842.675781 0)"/>
     <use xlink:href="#DejaVuSerif-Bold-75" transform="translate(888.867188 0)"/>
     <use xlink:href="#DejaVuSerif-Bold-72" transform="translate(961.572266 0)"/>
     <use xlink:href="#DejaVuSerif-Bold-65" transform="translate(1014.257812 0)"/>
     <use xlink:href="#DejaVuSerif-Bold-20" transform="translate(1077.880859 0)"/>
     <use xlink:href="#DejaVuSerif-Bold-2014" transform="translate(1112.695312 0)"/>
     <use xlink:href="#DejaVuSerif-Bold-20" transform="translate(1212.695312 0)"/>
     <use xlink:href="#DejaVuSerif-Bold-50" transform="translate(1247.509766 0)"/>
     <use xlink:href="#DejaVuSerif-Bold-72" transform="translate(1322.705078 0)"/>
     <use xlink:href="#DejaVuSerif-Bold-69" transform="translate(1375.390625 0)"/>
     <use xlink:href="#DejaVuSerif-Bold-6d" transform="translate(1413.378906 0)"/>
     <use xlink:href="#DejaVuSerif-Bold-61" transform="translate(1519.189453 0)"/>
     <use xlink:href="#DejaVuSerif-Bold-72" transform="translate(1583.984375 0)"/>
     <use xlink:href="#DejaVuSerif-Bold-79" transform="translate(1636.669922 0)"/>
     <use xlink:href="#DejaVuSerif-Bold-20" transform="translate(1694.775391 0)"/>
     <use xlink:href="#DejaVuSerif-Bold-50" transform="translate(1729.589844 0)"/>
     <use xlink:href="#DejaVuSerif-Bold-51" transform="translate(1804.785156 0)"/>
     <use xlink:href="#DejaVuSerif-Bold-43" transform="translate(1891.894531 0)"/>
     <use xlink:href="#DejaVuSerif-Bold-20" transform="translate(1971.484375 0)"/>
     <use xlink:href="#DejaVuSerif-Bold-52" transform="translate(2006.298828 0)"/>
     <use xlink:href="#DejaVuSerif-Bold-65" transform="translate(2089.404297 0)"/>
     <use xlink:href="#DejaVuSerif-Bold-63" transform="translate(2153.027344 0)"/>
     <use xlink:href="#DejaVuSerif-Bold-6f" transform="translate(2213.916016 0)"/>
     <use xlink:href="#DejaVuSerif-Bold-6d" transform="translate(2280.615234 0)"/>
     <use xlink:href="#DejaVuSerif-Bold-6d" transform="translate(2386.425781 0)"/>
     <use xlink:href="#DejaVuSerif-Bold-65" transform="translate(2492.236328 0)"/>
     <use xlink:href="#DejaVuSerif-Bold-6e" transform="translate(2555.859375 0)"/>
     <use xlink:href="#DejaVuSerif-Bold-64" transform="translate(2628.564453 0)"/>
     <use xlink:href="#DejaVuSerif-Bold-61" transform="translate(2698.486328 0)"/>
     <use xlink:href="#DejaVuSerif-Bold-74" transform="translate(2763.28125 0)"/>
     <use xlink:href="#DejaVuSerif-Bold-69" transform="translate(2809.472656 0)"/>
     <use xlink:href="#DejaVuSerif-Bold-6f" transform="translate(2847.460938 0)"/>
     <use xlink:href="#DejaVuSerif-Bold-6e" transform="translate(2914.160156 0)"/>
     <use xlink:href="#DejaVuSerif-Bold-20" transform="translate(2986.865234 0)"/>
     <use xlink:href="#DejaVuSerif-Bold-62" transform="translate(3021.679688 0)"/>
     <use xlink:href="#DejaVuSerif-Bold-79" transform="translate(3091.601562 0)"/>
     <use xlink:href="#DejaVuSerif-Bold-20" transform="translate(3149.707031 0)"/>
     <use xlink:href="#DejaVuSerif-Bold-44" transform="translate(3184.521484 0)"/>
     <use xlink:href="#DejaVuSerif-Bold-6f" transform="translate(3271.240234 0)"/>
     <use xlink:href="#DejaVuSerif-Bold-6d" transform="translate(3337.939453 0)"/>
     <use xlink:href="#DejaVuSerif-Bold-61" transform="translate(3443.75 0)"/>
     <use xlink:href="#DejaVuSerif-Bold-69" transform="translate(3508.544922 0)"/>
     <use xlink:href="#DejaVuSerif-Bold-6e" transform="translate(3546.533203 0)"/>
    </g>
   </g>
  </g>
 </g>
 <defs>
  <clipPath id="p9dd550ab57">
   <rect x="7.2" y="38.597656" width="840.24" height="376.72"/>
  </clipPath>
 </defs>
</svg>
