<?xml version="1.0" encoding="utf-8" standalone="no"?>
<!DOCTYPE svg PUBLIC "-//W3C//DTD SVG 1.1//EN"
  "http://www.w3.org/Graphics/SVG/1.1/DTD/svg11.dtd">
<svg xmlns:xlink="http://www.w3.org/1999/xlink" width="1142.561875pt" height="566.204219pt" viewBox="0 0 1142.561875 566.204219" xmlns="http://www.w3.org/2000/svg" version="1.1">
 <metadata>
  <rdf:RDF xmlns:dc="http://purl.org/dc/elements/1.1/" xmlns:cc="http://creativecommons.org/ns#" xmlns:rdf="http://www.w3.org/1999/02/22-rdf-syntax-ns#">
   <cc:Work>
    <dc:type rdf:resource="http://purl.org/dc/dcmitype/StillImage"/>
    <dc:date>2026-07-05T17:48:41.598611</dc:date>
    <dc:format>image/svg+xml</dc:format>
    <dc:creator>
     <cc:Agent>
      <dc:title>Matplotlib v3.10.0, https://matplotlib.org/</dc:title>
     </cc:Agent>
    </dc:creator>
   </cc:Work>
  </rdf:RDF>
 </metadata>
 <defs>
  <style type="text/css">*{stroke-linejoin: round; stroke-linecap: butt}</style>
 </defs>
 <g id="figure_1">
  <g id="patch_1">
   <path d="M 0 566.204219 
L 1142.561875 566.204219 
L 1142.561875 0 
L 0 0 
z
" style="fill: #ffffff"/>
  </g>
  <g id="axes_1">
   <g id="patch_2">
    <path d="M 43.981875 525.573906 
L 1135.361875 525.573906 
L 1135.361875 38.597656 
L 43.981875 38.597656 
z
" style="fill: #ffffff"/>
   </g>
   <g id="matplotlib.axis_1">
    <g id="xtick_1">
     <g id="line2d_1">
      <path d="M 43.981875 525.573906 
L 43.981875 38.597656 
" clip-path="url(#pdc7dfdc23b)" style="fill: none; stroke-dasharray: 2.96,1.28; stroke-dashoffset: 0; stroke: #b0b0b0; stroke-opacity: 0.3; stroke-width: 0.8"/>
     </g>
     <g id="line2d_2">
      <defs>
       <path id="mcb705e296e" d="M 0 0 
L 0 3.5 
" style="stroke: #000000; stroke-width: 0.8"/>
      </defs>
      <g>
       <use xlink:href="#mcb705e296e" x="43.981875" y="525.573906" style="stroke: #000000; stroke-width: 0.8"/>
      </g>
     </g>
     <g id="text_1">
      <!-- 0 -->
      <g transform="translate(40.4825 540.932187) scale(0.11 -0.11)">
       <defs>
        <path id="DejaVuSerif-30" d="M 2034 219 
Q 2513 219 2750 744 
Q 2988 1269 2988 2328 
Q 2988 3391 2750 3916 
Q 2513 4441 2034 4441 
Q 1556 4441 1318 3916 
Q 1081 3391 1081 2328 
Q 1081 1269 1318 744 
Q 1556 219 2034 219 
z
M 2034 -91 
Q 1275 -91 848 546 
Q 422 1184 422 2328 
Q 422 3475 848 4112 
Q 1275 4750 2034 4750 
Q 2797 4750 3222 4112 
Q 3647 3475 3647 2328 
Q 3647 1184 3222 546 
Q 2797 -91 2034 -91 
z
" transform="scale(0.015625)"/>
       </defs>
       <use xlink:href="#DejaVuSerif-30"/>
      </g>
     </g>
    </g>
    <g id="xtick_2">
     <g id="line2d_3">
      <path d="M 242.414602 525.573906 
L 242.414602 38.597656 
" clip-path="url(#pdc7dfdc23b)" style="fill: none; stroke-dasharray: 2.96,1.28; stroke-dashoffset: 0; stroke: #b0b0b0; stroke-opacity: 0.3; stroke-width: 0.8"/>
     </g>
     <g id="line2d_4">
      <g>
       <use xlink:href="#mcb705e296e" x="242.414602" y="525.573906" style="stroke: #000000; stroke-width: 0.8"/>
      </g>
     </g>
     <g id="text_2">
      <!-- 2 -->
      <g transform="translate(238.915227 540.932187) scale(0.11 -0.11)">
       <defs>
        <path id="DejaVuSerif-32" d="M 819 3553 
L 469 3553 
L 469 4384 
Q 803 4563 1142 4656 
Q 1481 4750 1806 4750 
Q 2534 4750 2956 4397 
Q 3378 4044 3378 3438 
Q 3378 2753 2422 1800 
Q 2347 1728 2309 1691 
L 1131 513 
L 3078 513 
L 3078 1088 
L 3444 1088 
L 3444 0 
L 434 0 
L 434 341 
L 1850 1753 
Q 2319 2222 2519 2614 
Q 2719 3006 2719 3438 
Q 2719 3909 2473 4175 
Q 2228 4441 1797 4441 
Q 1350 4441 1106 4219 
Q 863 3997 819 3553 
z
" transform="scale(0.015625)"/>
       </defs>
       <use xlink:href="#DejaVuSerif-32"/>
      </g>
     </g>
    </g>
    <g id="xtick_3">
     <g id="line2d_5">
      <path d="M 440.84733 525.573906 
L 440.84733 38.597656 
" clip-path="url(#pdc7dfdc23b)" style="fill: none; stroke-dasharray: 2.96,1.28; stroke-dashoffset: 0; stroke: #b0b0b0; stroke-opacity: 0.3; stroke-width: 0.8"/>
     </g>
     <g id="line2d_6">
      <g>
       <use xlink:href="#mcb705e296e" x="440.84733" y="525.573906" style="stroke: #000000; stroke-width: 0.8"/>
      </g>
     </g>
     <g id="text_3">
      <!-- 4 -->
      <g transform="translate(437.347955 540.932187) scale(0.11 -0.11)">
       <defs>
        <path id="DejaVuSerif-34" d="M 2234 1581 
L 2234 4063 
L 641 1581 
L 2234 1581 
z
M 3609 0 
L 1484 0 
L 1484 331 
L 2234 331 
L 2234 1247 
L 197 1247 
L 197 1588 
L 2241 4750 
L 2859 4750 
L 2859 1581 
L 3750 1581 
L 3750 1247 
L 2859 1247 
L 2859 331 
L 3609 331 
L 3609 0 
z
" transform="scale(0.015625)"/>
       </defs>
       <use xlink:href="#DejaVuSerif-34"/>
      </g>
     </g>
    </g>
    <g id="xtick_4">
     <g id="line2d_7">
      <path d="M 639.280057 525.573906 
L 639.280057 38.597656 
" clip-path="url(#pdc7dfdc23b)" style="fill: none; stroke-dasharray: 2.96,1.28; stroke-dashoffset: 0; stroke: #b0b0b0; stroke-opacity: 0.3; stroke-width: 0.8"/>
     </g>
     <g id="line2d_8">
      <g>
       <use xlink:href="#mcb705e296e" x="639.280057" y="525.573906" style="stroke: #000000; stroke-width: 0.8"/>
      </g>
     </g>
     <g id="text_4">
      <!-- 6 -->
      <g transform="translate(635.780682 540.932187) scale(0.11 -0.11)">
       <defs>
        <path id="DejaVuSerif-36" d="M 2094 219 
Q 2534 219 2771 542 
Q 3009 866 3009 1472 
Q 3009 2078 2771 2401 
Q 2534 2725 2094 2725 
Q 1647 2725 1412 2412 
Q 1178 2100 1178 1509 
Q 1178 888 1415 553 
Q 1653 219 2094 219 
z
M 1075 2569 
Q 1288 2803 1556 2918 
Q 1825 3034 2163 3034 
Q 2859 3034 3264 2615 
Q 3669 2197 3669 1472 
Q 3669 763 3233 336 
Q 2797 -91 2069 -91 
Q 1278 -91 853 498 
Q 428 1088 428 2181 
Q 428 3406 931 4078 
Q 1434 4750 2350 4750 
Q 2597 4750 2869 4703 
Q 3141 4656 3425 4563 
L 3425 3794 
L 3072 3794 
Q 3034 4109 2831 4275 
Q 2628 4441 2284 4441 
Q 1678 4441 1381 3981 
Q 1084 3522 1075 2569 
z
" transform="scale(0.015625)"/>
       </defs>
       <use xlink:href="#DejaVuSerif-36"/>
      </g>
     </g>
    </g>
    <g id="xtick_5">
     <g id="line2d_9">
      <path d="M 837.712784 525.573906 
L 837.712784 38.597656 
" clip-path="url(#pdc7dfdc23b)" style="fill: none; stroke-dasharray: 2.96,1.28; stroke-dashoffset: 0; stroke: #b0b0b0; stroke-opacity: 0.3; stroke-width: 0.8"/>
     </g>
     <g id="line2d_10">
      <g>
       <use xlink:href="#mcb705e296e" x="837.712784" y="525.573906" style="stroke: #000000; stroke-width: 0.8"/>
      </g>
     </g>
     <g id="text_5">
      <!-- 8 -->
      <g transform="translate(834.213409 540.932187) scale(0.11 -0.11)">
       <defs>
        <path id="DejaVuSerif-38" d="M 2981 1275 
Q 2981 1775 2732 2051 
Q 2484 2328 2034 2328 
Q 1584 2328 1336 2051 
Q 1088 1775 1088 1275 
Q 1088 772 1336 495 
Q 1584 219 2034 219 
Q 2484 219 2732 495 
Q 2981 772 2981 1275 
z
M 2853 3541 
Q 2853 3966 2637 4203 
Q 2422 4441 2034 4441 
Q 1650 4441 1433 4203 
Q 1216 3966 1216 3541 
Q 1216 3113 1433 2875 
Q 1650 2638 2034 2638 
Q 2422 2638 2637 2875 
Q 2853 3113 2853 3541 
z
M 2516 2484 
Q 3047 2413 3344 2092 
Q 3641 1772 3641 1275 
Q 3641 619 3225 264 
Q 2809 -91 2034 -91 
Q 1263 -91 845 264 
Q 428 619 428 1275 
Q 428 1772 725 2092 
Q 1022 2413 1556 2484 
Q 1084 2569 832 2842 
Q 581 3116 581 3541 
Q 581 4103 968 4426 
Q 1356 4750 2034 4750 
Q 2713 4750 3100 4426 
Q 3488 4103 3488 3541 
Q 3488 3116 3236 2842 
Q 2984 2569 2516 2484 
z
" transform="scale(0.015625)"/>
       </defs>
       <use xlink:href="#DejaVuSerif-38"/>
      </g>
     </g>
    </g>
    <g id="xtick_6">
     <g id="line2d_11">
      <path d="M 1036.145511 525.573906 
L 1036.145511 38.597656 
" clip-path="url(#pdc7dfdc23b)" style="fill: none; stroke-dasharray: 2.96,1.28; stroke-dashoffset: 0; stroke: #b0b0b0; stroke-opacity: 0.3; stroke-width: 0.8"/>
     </g>
     <g id="line2d_12">
      <g>
       <use xlink:href="#mcb705e296e" x="1036.145511" y="525.573906" style="stroke: #000000; stroke-width: 0.8"/>
      </g>
     </g>
     <g id="text_6">
      <!-- 10 -->
      <g transform="translate(1029.146761 540.932187) scale(0.11 -0.11)">
       <defs>
        <path id="DejaVuSerif-31" d="M 909 0 
L 909 331 
L 1722 331 
L 1722 4213 
L 781 3603 
L 781 4013 
L 1919 4750 
L 2350 4750 
L 2350 331 
L 3163 331 
L 3163 0 
L 909 0 
z
" transform="scale(0.015625)"/>
       </defs>
       <use xlink:href="#DejaVuSerif-31"/>
       <use xlink:href="#DejaVuSerif-30" transform="translate(63.623047 0)"/>
      </g>
     </g>
    </g>
    <g id="text_7">
     <!-- Deployment Timeline Priority → -->
     <g transform="translate(482.793125 556.337969) scale(0.12 -0.12)">
      <defs>
       <path id="DejaVuSerif-Bold-44" d="M 2100 378 
L 2534 378 
Q 3266 378 3605 847 
Q 3944 1316 3944 2338 
Q 3944 3353 3606 3820 
Q 3269 4288 2534 4288 
L 2100 4288 
L 2100 378 
z
M 300 0 
L 300 378 
L 897 378 
L 897 4288 
L 300 4288 
L 300 4666 
L 2694 4666 
Q 3950 4666 4615 4066 
Q 5281 3466 5281 2338 
Q 5281 1203 4614 601 
Q 3947 0 2694 0 
L 300 0 
z
" transform="scale(0.015625)"/>
       <path id="DejaVuSerif-Bold-65" d="M 2566 1875 
Q 2566 2531 2444 2795 
Q 2322 3059 2028 3059 
Q 1744 3059 1620 2800 
Q 1497 2541 1497 1931 
L 1497 1875 
L 2566 1875 
z
M 3781 1503 
L 1497 1503 
L 1497 1478 
Q 1497 834 1690 548 
Q 1884 263 2316 263 
Q 2675 263 2897 453 
Q 3119 644 3181 1006 
L 3700 1006 
Q 3566 441 3166 175 
Q 2766 -91 2047 -91 
Q 1184 -91 723 364 
Q 263 819 263 1663 
Q 263 2488 734 2950 
Q 1206 3413 2047 3413 
Q 2872 3413 3312 2927 
Q 3753 2441 3781 1503 
z
" transform="scale(0.015625)"/>
       <path id="DejaVuSerif-Bold-70" d="M 1728 1825 
L 1728 1497 
Q 1728 916 1876 656 
Q 2025 397 2356 397 
Q 2697 397 2836 672 
Q 2975 947 2975 1663 
Q 2975 2378 2836 2651 
Q 2697 2925 2356 2925 
Q 2025 2925 1876 2665 
Q 1728 2406 1728 1825 
z
M 622 2944 
L 147 2944 
L 147 3322 
L 1728 3322 
L 1728 2900 
Q 1869 3159 2106 3286 
Q 2344 3413 2694 3413 
Q 3403 3413 3811 2945 
Q 4219 2478 4219 1663 
Q 4219 847 3811 378 
Q 3403 -91 2694 -91 
Q 2344 -91 2106 36 
Q 1869 163 1728 422 
L 1728 -953 
L 2241 -953 
L 2241 -1331 
L 147 -1331 
L 147 -953 
L 622 -953 
L 622 2944 
z
" transform="scale(0.015625)"/>
       <path id="DejaVuSerif-Bold-6c" d="M 1797 378 
L 2272 378 
L 2272 0 
L 219 0 
L 219 378 
L 691 378 
L 691 4488 
L 219 4488 
L 219 4863 
L 1797 4863 
L 1797 378 
z
" transform="scale(0.015625)"/>
       <path id="DejaVuSerif-Bold-6f" d="M 2138 263 
Q 2488 263 2630 563 
Q 2772 863 2772 1663 
Q 2772 2463 2631 2761 
Q 2491 3059 2138 3059 
Q 1784 3059 1640 2757 
Q 1497 2456 1497 1663 
Q 1497 869 1640 566 
Q 1784 263 2138 263 
z
M 2138 -91 
Q 1259 -91 761 376 
Q 263 844 263 1663 
Q 263 2484 761 2948 
Q 1259 3413 2138 3413 
Q 3019 3413 3516 2948 
Q 4013 2484 4013 1663 
Q 4013 844 3514 376 
Q 3016 -91 2138 -91 
z
" transform="scale(0.015625)"/>
       <path id="DejaVuSerif-Bold-79" d="M 1997 -750 
Q 1847 -1116 1634 -1269 
Q 1422 -1422 1063 -1422 
Q 909 -1422 721 -1387 
Q 534 -1353 313 -1288 
L 313 -594 
L 666 -597 
Q 675 -838 779 -953 
Q 884 -1069 1094 -1069 
Q 1297 -1069 1422 -958 
Q 1547 -847 1672 -538 
L 1722 -422 
L 275 2944 
L -84 2944 
L -84 3322 
L 1831 3322 
L 1831 2944 
L 1434 2944 
L 2278 978 
L 3066 2944 
L 2625 2944 
L 2625 3322 
L 3872 3322 
L 3872 2944 
L 3469 2944 
L 1997 -750 
z
" transform="scale(0.015625)"/>
       <path id="DejaVuSerif-Bold-6d" d="M 3884 2778 
Q 4116 3109 4384 3261 
Q 4653 3413 5013 3413 
Q 5584 3413 5867 3089 
Q 6150 2766 6150 2113 
L 6150 378 
L 6625 378 
L 6625 0 
L 4647 0 
L 4647 378 
L 5044 378 
L 5044 1947 
Q 5044 2569 4948 2731 
Q 4853 2894 4594 2894 
Q 4300 2894 4137 2667 
Q 3975 2441 3975 2022 
L 3975 378 
L 4372 378 
L 4372 0 
L 2472 0 
L 2472 378 
L 2869 378 
L 2869 1947 
Q 2869 2569 2772 2731 
Q 2675 2894 2419 2894 
Q 2122 2894 1959 2667 
Q 1797 2441 1797 2022 
L 1797 378 
L 2194 378 
L 2194 0 
L 219 0 
L 219 378 
L 691 378 
L 691 2944 
L 219 2944 
L 219 3322 
L 1797 3322 
L 1797 2853 
Q 1991 3144 2241 3278 
Q 2491 3413 2834 3413 
Q 3241 3413 3494 3258 
Q 3747 3103 3884 2778 
z
" transform="scale(0.015625)"/>
       <path id="DejaVuSerif-Bold-6e" d="M 219 0 
L 219 378 
L 691 378 
L 691 2944 
L 219 2944 
L 219 3322 
L 1797 3322 
L 1797 2853 
Q 1997 3150 2253 3281 
Q 2509 3413 2900 3413 
Q 3459 3413 3745 3083 
Q 4031 2753 4031 2113 
L 4031 378 
L 4506 378 
L 4506 0 
L 2522 0 
L 2522 378 
L 2925 378 
L 2925 2144 
Q 2925 2566 2817 2730 
Q 2709 2894 2444 2894 
Q 2109 2894 1953 2648 
Q 1797 2403 1797 1869 
L 1797 378 
L 2203 378 
L 2203 0 
L 219 0 
z
" transform="scale(0.015625)"/>
       <path id="DejaVuSerif-Bold-74" d="M 634 2944 
L 153 2944 
L 153 3322 
L 634 3322 
L 634 4353 
L 1741 4353 
L 1741 3322 
L 2663 3322 
L 2663 2944 
L 1741 2944 
L 1741 909 
Q 1741 475 1809 369 
Q 1878 263 2059 263 
Q 2259 263 2356 397 
Q 2453 531 2459 813 
L 2925 813 
Q 2897 313 2651 111 
Q 2406 -91 1806 -91 
Q 1122 -91 878 123 
Q 634 338 634 909 
L 634 2944 
z
" transform="scale(0.015625)"/>
       <path id="DejaVuSerif-Bold-20" transform="scale(0.015625)"/>
       <path id="DejaVuSerif-Bold-54" d="M 1159 0 
L 1159 378 
L 1778 378 
L 1778 4238 
L 500 4238 
L 500 3500 
L 72 3500 
L 72 4666 
L 4697 4666 
L 4697 3500 
L 4275 3500 
L 4275 4238 
L 2988 4238 
L 2988 378 
L 3609 378 
L 3609 0 
L 1159 0 
z
" transform="scale(0.015625)"/>
       <path id="DejaVuSerif-Bold-69" d="M 588 4263 
Q 588 4516 763 4689 
Q 938 4863 1191 4863 
Q 1438 4863 1611 4689 
Q 1784 4516 1784 4263 
Q 1784 4016 1611 3842 
Q 1438 3669 1191 3669 
Q 938 3669 763 3841 
Q 588 4013 588 4263 
z
M 1797 378 
L 2272 378 
L 2272 0 
L 219 0 
L 219 378 
L 691 378 
L 691 2944 
L 219 2944 
L 219 3322 
L 1797 3322 
L 1797 378 
z
" transform="scale(0.015625)"/>
       <path id="DejaVuSerif-Bold-50" d="M 300 0 
L 300 378 
L 897 378 
L 897 4288 
L 300 4288 
L 300 4666 
L 2956 4666 
Q 3734 4666 4193 4295 
Q 4653 3925 4653 3303 
Q 4653 2678 4192 2304 
Q 3731 1931 2956 1931 
L 2100 1931 
L 2100 378 
L 2853 378 
L 2853 0 
L 300 0 
z
M 2100 2309 
L 2450 2309 
Q 2856 2309 3098 2579 
Q 3341 2850 3341 3303 
Q 3341 3753 3100 4020 
Q 2859 4288 2450 4288 
L 2100 4288 
L 2100 2309 
z
" transform="scale(0.015625)"/>
       <path id="DejaVuSerif-Bold-72" d="M 3438 3359 
L 3438 2369 
L 3084 2369 
Q 3066 2634 2941 2764 
Q 2816 2894 2578 2894 
Q 2216 2894 2006 2575 
Q 1797 2256 1797 1691 
L 1797 378 
L 2400 378 
L 2400 0 
L 219 0 
L 219 378 
L 691 378 
L 691 2944 
L 184 2944 
L 184 3322 
L 1797 3322 
L 1797 2731 
Q 1959 3078 2226 3245 
Q 2494 3413 2881 3413 
Q 2978 3413 3117 3398 
Q 3256 3384 3438 3359 
z
" transform="scale(0.015625)"/>
       <path id="DejaVuSerif-Bold-2192" d="M 366 1725 
L 366 2413 
L 4066 2413 
L 3659 3375 
L 3822 3375 
L 5125 2084 
L 5125 2053 
L 3822 763 
L 3659 763 
L 4066 1725 
L 366 1725 
z
" transform="scale(0.015625)"/>
      </defs>
      <use xlink:href="#DejaVuSerif-Bold-44"/>
      <use xlink:href="#DejaVuSerif-Bold-65" transform="translate(86.71875 0)"/>
      <use xlink:href="#DejaVuSerif-Bold-70" transform="translate(150.341797 0)"/>
      <use xlink:href="#DejaVuSerif-Bold-6c" transform="translate(220.263672 0)"/>
      <use xlink:href="#DejaVuSerif-Bold-6f" transform="translate(258.251953 0)"/>
      <use xlink:href="#DejaVuSerif-Bold-79" transform="translate(324.951172 0)"/>
      <use xlink:href="#DejaVuSerif-Bold-6d" transform="translate(383.056641 0)"/>
      <use xlink:href="#DejaVuSerif-Bold-65" transform="translate(488.867188 0)"/>
      <use xlink:href="#DejaVuSerif-Bold-6e" transform="translate(552.490234 0)"/>
      <use xlink:href="#DejaVuSerif-Bold-74" transform="translate(625.195312 0)"/>
      <use xlink:href="#DejaVuSerif-Bold-20" transform="translate(671.386719 0)"/>
      <use xlink:href="#DejaVuSerif-Bold-54" transform="translate(706.201172 0)"/>
      <use xlink:href="#DejaVuSerif-Bold-69" transform="translate(780.615234 0)"/>
      <use xlink:href="#DejaVuSerif-Bold-6d" transform="translate(818.603516 0)"/>
      <use xlink:href="#DejaVuSerif-Bold-65" transform="translate(924.414062 0)"/>
      <use xlink:href="#DejaVuSerif-Bold-6c" transform="translate(988.037109 0)"/>
      <use xlink:href="#DejaVuSerif-Bold-69" transform="translate(1026.025391 0)"/>
      <use xlink:href="#DejaVuSerif-Bold-6e" transform="translate(1064.013672 0)"/>
      <use xlink:href="#DejaVuSerif-Bold-65" transform="translate(1136.71875 0)"/>
      <use xlink:href="#DejaVuSerif-Bold-20" transform="translate(1200.341797 0)"/>
      <use xlink:href="#DejaVuSerif-Bold-50" transform="translate(1235.15625 0)"/>
      <use xlink:href="#DejaVuSerif-Bold-72" transform="translate(1310.351562 0)"/>
      <use xlink:href="#DejaVuSerif-Bold-69" transform="translate(1363.037109 0)"/>
      <use xlink:href="#DejaVuSerif-Bold-6f" transform="translate(1401.025391 0)"/>
      <use xlink:href="#DejaVuSerif-Bold-72" transform="translate(1467.724609 0)"/>
      <use xlink:href="#DejaVuSerif-Bold-69" transform="translate(1520.410156 0)"/>
      <use xlink:href="#DejaVuSerif-Bold-74" transform="translate(1558.398438 0)"/>
      <use xlink:href="#DejaVuSerif-Bold-79" transform="translate(1604.589844 0)"/>
      <use xlink:href="#DejaVuSerif-Bold-20" transform="translate(1662.695312 0)"/>
      <use xlink:href="#DejaVuSerif-Bold-2192" transform="translate(1697.509766 0)"/>
     </g>
    </g>
   </g>
   <g id="matplotlib.axis_2">
    <g id="ytick_1">
     <g id="line2d_13">
      <path d="M 43.981875 525.573906 
L 1135.361875 525.573906 
" clip-path="url(#pdc7dfdc23b)" style="fill: none; stroke-dasharray: 2.96,1.28; stroke-dashoffset: 0; stroke: #b0b0b0; stroke-opacity: 0.3; stroke-width: 0.8"/>
     </g>
     <g id="line2d_14">
      <defs>
       <path id="me47dc3da5b" d="M 0 0 
L -3.5 0 
" style="stroke: #000000; stroke-width: 0.8"/>
      </defs>
      <g>
       <use xlink:href="#me47dc3da5b" x="43.981875" y="525.573906" style="stroke: #000000; stroke-width: 0.8"/>
      </g>
     </g>
     <g id="text_8">
      <!-- 0 -->
      <g transform="translate(29.983125 529.753047) scale(0.11 -0.11)">
       <use xlink:href="#DejaVuSerif-30"/>
      </g>
     </g>
    </g>
    <g id="ytick_2">
     <g id="line2d_15">
      <path d="M 43.981875 437.03277 
L 1135.361875 437.03277 
" clip-path="url(#pdc7dfdc23b)" style="fill: none; stroke-dasharray: 2.96,1.28; stroke-dashoffset: 0; stroke: #b0b0b0; stroke-opacity: 0.3; stroke-width: 0.8"/>
     </g>
     <g id="line2d_16">
      <g>
       <use xlink:href="#me47dc3da5b" x="43.981875" y="437.03277" style="stroke: #000000; stroke-width: 0.8"/>
      </g>
     </g>
     <g id="text_9">
      <!-- 2 -->
      <g transform="translate(29.983125 441.211911) scale(0.11 -0.11)">
       <use xlink:href="#DejaVuSerif-32"/>
      </g>
     </g>
    </g>
    <g id="ytick_3">
     <g id="line2d_17">
      <path d="M 43.981875 348.491634 
L 1135.361875 348.491634 
" clip-path="url(#pdc7dfdc23b)" style="fill: none; stroke-dasharray: 2.96,1.28; stroke-dashoffset: 0; stroke: #b0b0b0; stroke-opacity: 0.3; stroke-width: 0.8"/>
     </g>
     <g id="line2d_18">
      <g>
       <use xlink:href="#me47dc3da5b" x="43.981875" y="348.491634" style="stroke: #000000; stroke-width: 0.8"/>
      </g>
     </g>
     <g id="text_10">
      <!-- 4 -->
      <g transform="translate(29.983125 352.670774) scale(0.11 -0.11)">
       <use xlink:href="#DejaVuSerif-34"/>
      </g>
     </g>
    </g>
    <g id="ytick_4">
     <g id="line2d_19">
      <path d="M 43.981875 259.950497 
L 1135.361875 259.950497 
" clip-path="url(#pdc7dfdc23b)" style="fill: none; stroke-dasharray: 2.96,1.28; stroke-dashoffset: 0; stroke: #b0b0b0; stroke-opacity: 0.3; stroke-width: 0.8"/>
     </g>
     <g id="line2d_20">
      <g>
       <use xlink:href="#me47dc3da5b" x="43.981875" y="259.950497" style="stroke: #000000; stroke-width: 0.8"/>
      </g>
     </g>
     <g id="text_11">
      <!-- 6 -->
      <g transform="translate(29.983125 264.129638) scale(0.11 -0.11)">
       <use xlink:href="#DejaVuSerif-36"/>
      </g>
     </g>
    </g>
    <g id="ytick_5">
     <g id="line2d_21">
      <path d="M 43.981875 171.409361 
L 1135.361875 171.409361 
" clip-path="url(#pdc7dfdc23b)" style="fill: none; stroke-dasharray: 2.96,1.28; stroke-dashoffset: 0; stroke: #b0b0b0; stroke-opacity: 0.3; stroke-width: 0.8"/>
     </g>
     <g id="line2d_22">
      <g>
       <use xlink:href="#me47dc3da5b" x="43.981875" y="171.409361" style="stroke: #000000; stroke-width: 0.8"/>
      </g>
     </g>
     <g id="text_12">
      <!-- 8 -->
      <g transform="translate(29.983125 175.588501) scale(0.11 -0.11)">
       <use xlink:href="#DejaVuSerif-38"/>
      </g>
     </g>
    </g>
    <g id="ytick_6">
     <g id="line2d_23">
      <path d="M 43.981875 82.868224 
L 1135.361875 82.868224 
" clip-path="url(#pdc7dfdc23b)" style="fill: none; stroke-dasharray: 2.96,1.28; stroke-dashoffset: 0; stroke: #b0b0b0; stroke-opacity: 0.3; stroke-width: 0.8"/>
     </g>
     <g id="line2d_24">
      <g>
       <use xlink:href="#me47dc3da5b" x="43.981875" y="82.868224" style="stroke: #000000; stroke-width: 0.8"/>
      </g>
     </g>
     <g id="text_13">
      <!-- 10 -->
      <g transform="translate(22.984375 87.047365) scale(0.11 -0.11)">
       <use xlink:href="#DejaVuSerif-31"/>
       <use xlink:href="#DejaVuSerif-30" transform="translate(63.623047 0)"/>
      </g>
     </g>
    </g>
    <g id="text_14">
     <!-- Security Criticality ↑ -->
     <g transform="translate(16.318125 352.778906) rotate(-90) scale(0.12 -0.12)">
      <defs>
       <path id="DejaVuSerif-Bold-53" d="M 494 225 
L 494 1331 
L 891 1331 
Q 981 806 1318 547 
Q 1656 288 2253 288 
Q 2738 288 2991 472 
Q 3244 656 3244 1013 
Q 3244 1294 3072 1450 
Q 2900 1606 2363 1741 
L 1663 1913 
Q 978 2088 700 2398 
Q 422 2709 422 3284 
Q 422 3978 883 4364 
Q 1344 4750 2175 4750 
Q 2584 4750 3026 4681 
Q 3469 4613 3944 4475 
L 3944 3444 
L 3547 3444 
Q 3456 3925 3150 4148 
Q 2844 4372 2278 4372 
Q 1816 4372 1580 4211 
Q 1344 4050 1344 3731 
Q 1344 3441 1506 3289 
Q 1669 3138 2303 2975 
L 3003 2803 
Q 3653 2641 3945 2297 
Q 4238 1953 4238 1350 
Q 4238 644 3750 276 
Q 3263 -91 2316 -91 
Q 1859 -91 1409 -12 
Q 959 66 494 225 
z
" transform="scale(0.015625)"/>
       <path id="DejaVuSerif-Bold-63" d="M 3609 1038 
Q 3491 469 3123 189 
Q 2756 -91 2125 -91 
Q 1238 -91 750 368 
Q 263 828 263 1663 
Q 263 2488 744 2950 
Q 1225 3413 2081 3413 
Q 2428 3413 2781 3347 
Q 3134 3281 3500 3150 
L 3500 2228 
L 3150 2228 
Q 3100 2650 2903 2854 
Q 2706 3059 2350 3059 
Q 1888 3059 1692 2746 
Q 1497 2434 1497 1663 
Q 1497 909 1687 586 
Q 1878 263 2309 263 
Q 2644 263 2845 463 
Q 3047 663 3091 1038 
L 3609 1038 
z
" transform="scale(0.015625)"/>
       <path id="DejaVuSerif-Bold-75" d="M 3963 3322 
L 3963 378 
L 4434 378 
L 4434 0 
L 2853 0 
L 2853 469 
Q 2656 172 2400 40 
Q 2144 -91 1753 -91 
Q 1194 -91 908 239 
Q 622 569 622 1209 
L 622 2944 
L 147 2944 
L 147 3322 
L 1728 3322 
L 1728 1381 
Q 1728 763 1831 595 
Q 1934 428 2209 428 
Q 2544 428 2698 675 
Q 2853 922 2853 1459 
L 2853 2944 
L 2450 2944 
L 2450 3322 
L 3963 3322 
z
" transform="scale(0.015625)"/>
       <path id="DejaVuSerif-Bold-43" d="M 4769 1331 
Q 4584 609 4106 259 
Q 3628 -91 2822 -91 
Q 1641 -91 955 561 
Q 269 1213 269 2328 
Q 269 3447 955 4098 
Q 1641 4750 2822 4750 
Q 3238 4750 3688 4650 
Q 4138 4550 4641 4347 
L 4641 3200 
L 4244 3200 
Q 4122 3788 3800 4080 
Q 3478 4372 2950 4372 
Q 2269 4372 1937 3870 
Q 1606 3369 1606 2328 
Q 1606 1288 1937 788 
Q 2269 288 2956 288 
Q 3422 288 3717 547 
Q 4013 806 4147 1331 
L 4769 1331 
z
" transform="scale(0.015625)"/>
       <path id="DejaVuSerif-Bold-61" d="M 3525 2041 
L 3525 378 
L 4000 378 
L 4000 0 
L 2419 0 
L 2419 422 
Q 2200 159 1931 34 
Q 1663 -91 1319 -91 
Q 809 -91 536 182 
Q 263 456 263 966 
Q 263 1525 655 1803 
Q 1047 2081 1838 2081 
L 2419 2081 
L 2419 2278 
Q 2419 2681 2228 2873 
Q 2038 3066 1638 3066 
Q 1306 3066 1126 2930 
Q 947 2794 872 2484 
L 519 2484 
L 519 3200 
Q 816 3306 1134 3359 
Q 1453 3413 1806 3413 
Q 2697 3413 3111 3081 
Q 3525 2750 3525 2041 
z
M 2419 1044 
L 2419 1709 
L 2003 1709 
Q 1694 1709 1528 1540 
Q 1363 1372 1363 1056 
Q 1363 741 1483 584 
Q 1603 428 1850 428 
Q 2106 428 2262 597 
Q 2419 766 2419 1044 
z
" transform="scale(0.015625)"/>
       <path id="DejaVuSerif-Bold-2191" d="M 3025 0 
L 2338 0 
L 2338 3700 
L 1375 3294 
L 1375 3456 
L 2666 4759 
L 2697 4759 
L 3988 3456 
L 3988 3294 
L 3025 3700 
L 3025 0 
z
" transform="scale(0.015625)"/>
      </defs>
      <use xlink:href="#DejaVuSerif-Bold-53"/>
      <use xlink:href="#DejaVuSerif-Bold-65" transform="translate(72.216797 0)"/>
      <use xlink:href="#DejaVuSerif-Bold-63" transform="translate(135.839844 0)"/>
      <use xlink:href="#DejaVuSerif-Bold-75" transform="translate(196.728516 0)"/>
      <use xlink:href="#DejaVuSerif-Bold-72" transform="translate(269.433594 0)"/>
      <use xlink:href="#DejaVuSerif-Bold-69" transform="translate(322.119141 0)"/>
      <use xlink:href="#DejaVuSerif-Bold-74" transform="translate(360.107422 0)"/>
      <use xlink:href="#DejaVuSerif-Bold-79" transform="translate(406.298828 0)"/>
      <use xlink:href="#DejaVuSerif-Bold-20" transform="translate(464.404297 0)"/>
      <use xlink:href="#DejaVuSerif-Bold-43" transform="translate(499.21875 0)"/>
      <use xlink:href="#DejaVuSerif-Bold-72" transform="translate(578.808594 0)"/>
      <use xlink:href="#DejaVuSerif-Bold-69" transform="translate(631.494141 0)"/>
      <use xlink:href="#DejaVuSerif-Bold-74" transform="translate(669.482422 0)"/>
      <use xlink:href="#DejaVuSerif-Bold-69" transform="translate(715.673828 0)"/>
      <use xlink:href="#DejaVuSerif-Bold-63" transform="translate(753.662109 0)"/>
      <use xlink:href="#DejaVuSerif-Bold-61" transform="translate(814.550781 0)"/>
      <use xlink:href="#DejaVuSerif-Bold-6c" transform="translate(879.345703 0)"/>
      <use xlink:href="#DejaVuSerif-Bold-69" transform="translate(917.333984 0)"/>
      <use xlink:href="#DejaVuSerif-Bold-74" transform="translate(955.322266 0)"/>
      <use xlink:href="#DejaVuSerif-Bold-79" transform="translate(1001.513672 0)"/>
      <use xlink:href="#DejaVuSerif-Bold-20" transform="translate(1059.619141 0)"/>
      <use xlink:href="#DejaVuSerif-Bold-2191" transform="translate(1094.433594 0)"/>
     </g>
    </g>
   </g>
   <g id="line2d_25">
    <path d="M 43.981875 259.950497 
L 1135.361875 259.950497 
" clip-path="url(#pdc7dfdc23b)" style="fill: none; stroke-dasharray: 5.55,2.4; stroke-dashoffset: 0; stroke: #c8963e; stroke-opacity: 0.3; stroke-width: 1.5"/>
   </g>
   <g id="line2d_26">
    <path d="M 589.671875 525.573906 
L 589.671875 38.597656 
" clip-path="url(#pdc7dfdc23b)" style="fill: none; stroke-dasharray: 5.55,2.4; stroke-dashoffset: 0; stroke: #c8963e; stroke-opacity: 0.3; stroke-width: 1.5"/>
   </g>
   <g id="patch_3">
    <path d="M 43.981875 525.573906 
L 43.981875 38.597656 
" style="fill: none; stroke: #000000; stroke-width: 0.8; stroke-linejoin: miter; stroke-linecap: square"/>
   </g>
   <g id="patch_4">
    <path d="M 43.981875 525.573906 
L 1135.361875 525.573906 
" style="fill: none; stroke: #000000; stroke-width: 0.8; stroke-linejoin: miter; stroke-linecap: square"/>
   </g>
   <g id="text_15">
    <!-- Energy -->
    <g transform="translate(125.501286 206.825815) scale(0.09 -0.09)">
     <defs>
      <path id="DejaVuSerif-Bold-45" d="M 300 0 
L 300 378 
L 897 378 
L 897 4288 
L 300 4288 
L 300 4666 
L 4494 4666 
L 4494 3566 
L 4063 3566 
L 4063 4238 
L 2100 4238 
L 2100 2741 
L 3322 2741 
L 3322 3334 
L 3750 3334 
L 3750 1722 
L 3322 1722 
L 3322 2316 
L 2100 2316 
L 2100 428 
L 4122 428 
L 4122 1100 
L 4550 1100 
L 4550 0 
L 300 0 
z
" transform="scale(0.015625)"/>
      <path id="DejaVuSerif-Bold-67" d="M 3853 2944 
L 3853 44 
Q 3853 -656 3354 -1039 
Q 2856 -1422 1947 -1422 
Q 1616 -1422 1275 -1370 
Q 934 -1319 575 -1216 
L 575 -422 
L 928 -422 
Q 975 -750 1192 -909 
Q 1409 -1069 1813 -1069 
Q 2325 -1069 2536 -823 
Q 2747 -578 2747 44 
L 2747 422 
Q 2606 163 2367 36 
Q 2128 -91 1778 -91 
Q 1072 -91 667 378 
Q 263 847 263 1663 
Q 263 2481 667 2947 
Q 1072 3413 1778 3413 
Q 2128 3413 2367 3286 
Q 2606 3159 2747 2900 
L 2747 3322 
L 4325 3322 
L 4325 2944 
L 3853 2944 
z
M 2747 1825 
Q 2747 2406 2597 2665 
Q 2447 2925 2119 2925 
Q 1775 2925 1636 2651 
Q 1497 2378 1497 1663 
Q 1497 947 1637 672 
Q 1778 397 2119 397 
Q 2447 397 2597 656 
Q 2747 916 2747 1497 
L 2747 1825 
z
" transform="scale(0.015625)"/>
     </defs>
     <use xlink:href="#DejaVuSerif-Bold-45"/>
     <use xlink:href="#DejaVuSerif-Bold-6e" transform="translate(76.220703 0)"/>
     <use xlink:href="#DejaVuSerif-Bold-65" transform="translate(148.925781 0)"/>
     <use xlink:href="#DejaVuSerif-Bold-72" transform="translate(212.548828 0)"/>
     <use xlink:href="#DejaVuSerif-Bold-67" transform="translate(265.234375 0)"/>
     <use xlink:href="#DejaVuSerif-Bold-79" transform="translate(335.15625 0)"/>
    </g>
   </g>
   <g id="text_16">
    <!-- Sovereign Cloud -->
    <g transform="translate(201.046243 295.366952) scale(0.09 -0.09)">
     <defs>
      <path id="DejaVuSerif-Bold-76" d="M 1428 0 
L 250 2944 
L -116 2944 
L -116 3322 
L 1791 3322 
L 1791 2944 
L 1388 2944 
L 2228 844 
L 3066 2944 
L 2631 2944 
L 2631 3322 
L 3878 3322 
L 3878 2944 
L 3494 2944 
L 2316 0 
L 1428 0 
z
" transform="scale(0.015625)"/>
      <path id="DejaVuSerif-Bold-64" d="M 2747 1497 
L 2747 1825 
Q 2747 2406 2597 2665 
Q 2447 2925 2119 2925 
Q 1775 2925 1636 2651 
Q 1497 2378 1497 1663 
Q 1497 947 1637 672 
Q 1778 397 2119 397 
Q 2447 397 2597 656 
Q 2747 916 2747 1497 
z
M 3853 378 
L 4325 378 
L 4325 0 
L 2747 0 
L 2747 422 
Q 2606 163 2367 36 
Q 2128 -91 1778 -91 
Q 1072 -91 667 378 
Q 263 847 263 1663 
Q 263 2481 667 2947 
Q 1072 3413 1778 3413 
Q 2128 3413 2367 3286 
Q 2606 3159 2747 2900 
L 2747 4488 
L 2272 4488 
L 2272 4863 
L 3853 4863 
L 3853 378 
z
" transform="scale(0.015625)"/>
     </defs>
     <use xlink:href="#DejaVuSerif-Bold-53"/>
     <use xlink:href="#DejaVuSerif-Bold-6f" transform="translate(72.216797 0)"/>
     <use xlink:href="#DejaVuSerif-Bold-76" transform="translate(138.916016 0)"/>
     <use xlink:href="#DejaVuSerif-Bold-65" transform="translate(197.021484 0)"/>
     <use xlink:href="#DejaVuSerif-Bold-72" transform="translate(260.644531 0)"/>
     <use xlink:href="#DejaVuSerif-Bold-65" transform="translate(313.330078 0)"/>
     <use xlink:href="#DejaVuSerif-Bold-69" transform="translate(376.953125 0)"/>
     <use xlink:href="#DejaVuSerif-Bold-67" transform="translate(414.941406 0)"/>
     <use xlink:href="#DejaVuSerif-Bold-6e" transform="translate(484.863281 0)"/>
     <use xlink:href="#DejaVuSerif-Bold-20" transform="translate(557.568359 0)"/>
     <use xlink:href="#DejaVuSerif-Bold-43" transform="translate(592.382812 0)"/>
     <use xlink:href="#DejaVuSerif-Bold-6c" transform="translate(671.972656 0)"/>
     <use xlink:href="#DejaVuSerif-Bold-6f" transform="translate(709.960938 0)"/>
     <use xlink:href="#DejaVuSerif-Bold-75" transform="translate(776.660156 0)"/>
     <use xlink:href="#DejaVuSerif-Bold-64" transform="translate(849.365234 0)"/>
    </g>
   </g>
   <g id="text_17">
    <!-- Defense -->
    <g transform="translate(321.398544 162.555247) scale(0.09 -0.09)">
     <defs>
      <path id="DejaVuSerif-Bold-66" d="M 3097 4031 
L 2747 4031 
Q 2722 4275 2605 4394 
Q 2488 4513 2272 4513 
Q 2022 4513 1909 4333 
Q 1797 4153 1797 3750 
L 1797 3322 
L 2631 3322 
L 2631 2944 
L 1797 2944 
L 1797 378 
L 2438 378 
L 2438 0 
L 219 0 
L 219 378 
L 691 378 
L 691 2944 
L 197 2944 
L 197 3322 
L 691 3322 
L 691 3738 
Q 691 4291 1044 4577 
Q 1397 4863 2081 4863 
Q 2347 4863 2600 4833 
Q 2853 4803 3097 4744 
L 3097 4031 
z
" transform="scale(0.015625)"/>
      <path id="DejaVuSerif-Bold-73" d="M 300 97 
L 300 1025 
L 653 1025 
Q 697 653 931 458 
Q 1166 263 1569 263 
Q 1906 263 2086 380 
Q 2266 497 2266 716 
Q 2266 916 2152 1025 
Q 2038 1134 1709 1216 
L 1253 1331 
Q 738 1459 506 1698 
Q 275 1938 275 2344 
Q 275 2884 650 3148 
Q 1025 3413 1806 3413 
Q 2100 3413 2433 3364 
Q 2766 3316 3169 3213 
L 3169 2375 
L 2816 2375 
Q 2788 2716 2573 2887 
Q 2359 3059 1959 3059 
Q 1622 3059 1448 2951 
Q 1275 2844 1275 2638 
Q 1275 2469 1375 2372 
Q 1475 2275 1734 2209 
L 2188 2094 
Q 2841 1928 3091 1684 
Q 3341 1441 3341 1006 
Q 3341 444 2939 176 
Q 2538 -91 1691 -91 
Q 1381 -91 1034 -44 
Q 688 3 300 97 
z
" transform="scale(0.015625)"/>
     </defs>
     <use xlink:href="#DejaVuSerif-Bold-44"/>
     <use xlink:href="#DejaVuSerif-Bold-65" transform="translate(86.71875 0)"/>
     <use xlink:href="#DejaVuSerif-Bold-66" transform="translate(150.341797 0)"/>
     <use xlink:href="#DejaVuSerif-Bold-65" transform="translate(193.359375 0)"/>
     <use xlink:href="#DejaVuSerif-Bold-6e" transform="translate(256.982422 0)"/>
     <use xlink:href="#DejaVuSerif-Bold-73" transform="translate(329.6875 0)"/>
     <use xlink:href="#DejaVuSerif-Bold-65" transform="translate(385.986328 0)"/>
    </g>
   </g>
   <g id="text_18">
    <!-- Finance -->
    <g transform="translate(420.880689 251.096384) scale(0.09 -0.09)">
     <defs>
      <path id="DejaVuSerif-Bold-46" d="M 300 0 
L 300 378 
L 897 378 
L 897 4288 
L 300 4288 
L 300 4666 
L 4459 4666 
L 4459 3566 
L 4031 3566 
L 4031 4238 
L 2106 4238 
L 2106 2741 
L 3291 2741 
L 3291 3334 
L 3719 3334 
L 3719 1722 
L 3291 1722 
L 3291 2316 
L 2106 2316 
L 2106 378 
L 2841 378 
L 2841 0 
L 300 0 
z
" transform="scale(0.015625)"/>
     </defs>
     <use xlink:href="#DejaVuSerif-Bold-46"/>
     <use xlink:href="#DejaVuSerif-Bold-69" transform="translate(70.996094 0)"/>
     <use xlink:href="#DejaVuSerif-Bold-6e" transform="translate(108.984375 0)"/>
     <use xlink:href="#DejaVuSerif-Bold-61" transform="translate(181.689453 0)"/>
     <use xlink:href="#DejaVuSerif-Bold-6e" transform="translate(246.484375 0)"/>
     <use xlink:href="#DejaVuSerif-Bold-63" transform="translate(319.189453 0)"/>
     <use xlink:href="#DejaVuSerif-Bold-65" transform="translate(380.078125 0)"/>
    </g>
   </g>
   <g id="text_19">
    <!-- Telecom -->
    <g transform="translate(519.293381 339.63752) scale(0.09 -0.09)">
     <use xlink:href="#DejaVuSerif-Bold-54"/>
     <use xlink:href="#DejaVuSerif-Bold-65" transform="translate(62.914062 0)"/>
     <use xlink:href="#DejaVuSerif-Bold-6c" transform="translate(126.537109 0)"/>
     <use xlink:href="#DejaVuSerif-Bold-65" transform="translate(164.525391 0)"/>
     <use xlink:href="#DejaVuSerif-Bold-63" transform="translate(228.148438 0)"/>
     <use xlink:href="#DejaVuSerif-Bold-6f" transform="translate(289.037109 0)"/>
     <use xlink:href="#DejaVuSerif-Bold-6d" transform="translate(355.736328 0)"/>
    </g>
   </g>
   <g id="text_20">
    <!-- Mega Projects -->
    <g transform="translate(603.206932 206.825815) scale(0.09 -0.09)">
     <defs>
      <path id="DejaVuSerif-Bold-4d" d="M 269 0 
L 269 378 
L 863 378 
L 863 4288 
L 269 4288 
L 269 4666 
L 2194 4666 
L 3525 1672 
L 4863 4666 
L 6784 4666 
L 6784 4288 
L 6188 4288 
L 6188 378 
L 6784 378 
L 6784 0 
L 4384 0 
L 4384 378 
L 4978 378 
L 4978 3938 
L 3531 684 
L 2741 684 
L 1300 3938 
L 1300 378 
L 1894 378 
L 1894 0 
L 269 0 
z
" transform="scale(0.015625)"/>
      <path id="DejaVuSerif-Bold-6a" d="M 556 4263 
Q 556 4516 729 4689 
Q 903 4863 1159 4863 
Q 1403 4863 1578 4688 
Q 1753 4513 1753 4263 
Q 1753 4016 1579 3842 
Q 1406 3669 1159 3669 
Q 906 3669 731 3841 
Q 556 4013 556 4263 
z
M 684 2944 
L 213 2944 
L 213 3322 
L 1791 3322 
L 1791 -391 
Q 1791 -900 1430 -1161 
Q 1069 -1422 366 -1422 
Q 178 -1422 -34 -1390 
Q -247 -1359 -475 -1300 
L -475 -594 
L -122 -597 
Q -116 -847 -23 -958 
Q 69 -1069 275 -1069 
Q 503 -1069 593 -922 
Q 684 -775 684 -391 
L 684 2944 
z
" transform="scale(0.015625)"/>
     </defs>
     <use xlink:href="#DejaVuSerif-Bold-4d"/>
     <use xlink:href="#DejaVuSerif-Bold-65" transform="translate(110.693359 0)"/>
     <use xlink:href="#DejaVuSerif-Bold-67" transform="translate(174.316406 0)"/>
     <use xlink:href="#DejaVuSerif-Bold-61" transform="translate(244.238281 0)"/>
     <use xlink:href="#DejaVuSerif-Bold-20" transform="translate(309.033203 0)"/>
     <use xlink:href="#DejaVuSerif-Bold-50" transform="translate(343.847656 0)"/>
     <use xlink:href="#DejaVuSerif-Bold-72" transform="translate(419.042969 0)"/>
     <use xlink:href="#DejaVuSerif-Bold-6f" transform="translate(471.728516 0)"/>
     <use xlink:href="#DejaVuSerif-Bold-6a" transform="translate(538.427734 0)"/>
     <use xlink:href="#DejaVuSerif-Bold-65" transform="translate(574.609375 0)"/>
     <use xlink:href="#DejaVuSerif-Bold-63" transform="translate(638.232422 0)"/>
     <use xlink:href="#DejaVuSerif-Bold-74" transform="translate(699.121094 0)"/>
     <use xlink:href="#DejaVuSerif-Bold-73" transform="translate(745.3125 0)"/>
    </g>
   </g>
   <g id="text_21">
    <!-- Healthcare -->
    <g transform="translate(710.516264 295.366952) scale(0.09 -0.09)">
     <defs>
      <path id="DejaVuSerif-Bold-48" d="M 300 0 
L 300 378 
L 897 378 
L 897 4288 
L 300 4288 
L 300 4666 
L 2700 4666 
L 2700 4288 
L 2100 4288 
L 2100 2719 
L 3956 2719 
L 3956 4288 
L 3359 4288 
L 3359 4666 
L 5759 4666 
L 5759 4288 
L 5159 4288 
L 5159 378 
L 5759 378 
L 5759 0 
L 3359 0 
L 3359 378 
L 3956 378 
L 3956 2291 
L 2100 2291 
L 2100 378 
L 2700 378 
L 2700 0 
L 300 0 
z
" transform="scale(0.015625)"/>
      <path id="DejaVuSerif-Bold-68" d="M 219 0 
L 219 378 
L 691 378 
L 691 4488 
L 197 4488 
L 197 4863 
L 1797 4863 
L 1797 2853 
Q 1997 3150 2253 3281 
Q 2509 3413 2900 3413 
Q 3459 3413 3745 3083 
Q 4031 2753 4031 2113 
L 4031 378 
L 4506 378 
L 4506 0 
L 2522 0 
L 2522 378 
L 2925 378 
L 2925 2144 
Q 2925 2566 2817 2730 
Q 2709 2894 2444 2894 
Q 2109 2894 1953 2648 
Q 1797 2403 1797 1869 
L 1797 378 
L 2203 378 
L 2203 0 
L 219 0 
z
" transform="scale(0.015625)"/>
     </defs>
     <use xlink:href="#DejaVuSerif-Bold-48"/>
     <use xlink:href="#DejaVuSerif-Bold-65" transform="translate(94.482422 0)"/>
     <use xlink:href="#DejaVuSerif-Bold-61" transform="translate(158.105469 0)"/>
     <use xlink:href="#DejaVuSerif-Bold-6c" transform="translate(222.900391 0)"/>
     <use xlink:href="#DejaVuSerif-Bold-74" transform="translate(260.888672 0)"/>
     <use xlink:href="#DejaVuSerif-Bold-68" transform="translate(307.080078 0)"/>
     <use xlink:href="#DejaVuSerif-Bold-63" transform="translate(379.785156 0)"/>
     <use xlink:href="#DejaVuSerif-Bold-61" transform="translate(440.673828 0)"/>
     <use xlink:href="#DejaVuSerif-Bold-72" transform="translate(505.46875 0)"/>
     <use xlink:href="#DejaVuSerif-Bold-65" transform="translate(558.154297 0)"/>
    </g>
   </g>
   <g id="text_22">
    <!-- Water -->
    <g transform="translate(822.824112 383.908088) scale(0.09 -0.09)">
     <defs>
      <path id="DejaVuSerif-Bold-57" d="M 5453 0 
L 4647 0 
L 3591 3397 
L 2534 0 
L 1728 0 
L 397 4288 
L -56 4288 
L -56 4666 
L 2156 4666 
L 2156 4288 
L 1656 4288 
L 2547 1422 
L 3553 4666 
L 4441 4666 
L 5466 1369 
L 6375 4288 
L 5819 4288 
L 5819 4666 
L 7263 4666 
L 7263 4288 
L 6784 4288 
L 5453 0 
z
" transform="scale(0.015625)"/>
     </defs>
     <use xlink:href="#DejaVuSerif-Bold-57"/>
     <use xlink:href="#DejaVuSerif-Bold-61" transform="translate(103.554688 0)"/>
     <use xlink:href="#DejaVuSerif-Bold-74" transform="translate(168.349609 0)"/>
     <use xlink:href="#DejaVuSerif-Bold-65" transform="translate(214.541016 0)"/>
     <use xlink:href="#DejaVuSerif-Bold-72" transform="translate(278.164062 0)"/>
    </g>
   </g>
   <g id="text_23">
    <!-- Maritime -->
    <g transform="translate(913.539695 428.178656) scale(0.09 -0.09)">
     <use xlink:href="#DejaVuSerif-Bold-4d"/>
     <use xlink:href="#DejaVuSerif-Bold-61" transform="translate(110.693359 0)"/>
     <use xlink:href="#DejaVuSerif-Bold-72" transform="translate(175.488281 0)"/>
     <use xlink:href="#DejaVuSerif-Bold-69" transform="translate(228.173828 0)"/>
     <use xlink:href="#DejaVuSerif-Bold-74" transform="translate(266.162109 0)"/>
     <use xlink:href="#DejaVuSerif-Bold-69" transform="translate(312.353516 0)"/>
     <use xlink:href="#DejaVuSerif-Bold-6d" transform="translate(350.341797 0)"/>
     <use xlink:href="#DejaVuSerif-Bold-65" transform="translate(456.152344 0)"/>
    </g>
   </g>
   <g id="text_24">
    <!-- Space -->
    <g transform="translate(1021.230121 162.555247) scale(0.09 -0.09)">
     <use xlink:href="#DejaVuSerif-Bold-53"/>
     <use xlink:href="#DejaVuSerif-Bold-70" transform="translate(72.216797 0)"/>
     <use xlink:href="#DejaVuSerif-Bold-61" transform="translate(142.138672 0)"/>
     <use xlink:href="#DejaVuSerif-Bold-63" transform="translate(206.933594 0)"/>
     <use xlink:href="#DejaVuSerif-Bold-65" transform="translate(267.822266 0)"/>
    </g>
   </g>
   <g id="text_25">
    <!-- URGENT -->
    <g style="fill: #c41e3a; opacity: 0.5" transform="translate(311.765028 113.701418) scale(0.12 -0.12)">
     <defs>
      <path id="DejaVuSerif-Bold-55" d="M 813 4288 
L 219 4288 
L 219 4666 
L 2619 4666 
L 2619 4288 
L 2022 4288 
L 2022 1953 
Q 2022 1081 2294 732 
Q 2566 384 3225 384 
Q 3869 384 4139 736 
Q 4409 1088 4409 1953 
L 4409 4288 
L 3816 4288 
L 3816 4666 
L 5441 4666 
L 5441 4288 
L 4844 4288 
L 4844 1888 
Q 4844 819 4381 364 
Q 3919 -91 2828 -91 
Q 1744 -91 1278 368 
Q 813 828 813 1894 
L 813 4288 
z
" transform="scale(0.015625)"/>
      <path id="DejaVuSerif-Bold-52" d="M 3397 2278 
Q 3675 2238 3865 2094 
Q 4056 1950 4197 1678 
L 4878 378 
L 5356 378 
L 5356 0 
L 3822 0 
L 3078 1409 
Q 2863 1847 2711 1967 
Q 2559 2088 2291 2088 
L 2100 2088 
L 2100 378 
L 2700 378 
L 2700 0 
L 300 0 
L 300 378 
L 897 378 
L 897 4288 
L 300 4288 
L 300 4666 
L 2963 4666 
Q 3775 4666 4217 4339 
Q 4659 4013 4659 3413 
Q 4659 2925 4345 2642 
Q 4031 2359 3397 2278 
z
M 2100 2463 
L 2509 2463 
Q 2947 2463 3183 2700 
Q 3419 2938 3419 3378 
Q 3419 3819 3183 4053 
Q 2947 4288 2509 4288 
L 2100 4288 
L 2100 2463 
z
" transform="scale(0.015625)"/>
      <path id="DejaVuSerif-Bold-47" d="M 4403 3200 
Q 4263 3819 3934 4095 
Q 3606 4372 3009 4372 
Q 2284 4372 1945 3880 
Q 1606 3388 1606 2328 
Q 1606 1278 1931 783 
Q 2256 288 2944 288 
Q 3206 288 3431 347 
Q 3656 406 3841 525 
L 3841 1806 
L 3278 1806 
L 3278 2181 
L 4959 2181 
L 4959 391 
Q 4434 147 3911 28 
Q 3388 -91 2841 -91 
Q 1641 -91 955 556 
Q 269 1203 269 2328 
Q 269 3456 955 4103 
Q 1641 4750 2841 4750 
Q 3341 4750 3825 4650 
Q 4309 4550 4800 4347 
L 4800 3200 
L 4403 3200 
z
" transform="scale(0.015625)"/>
      <path id="DejaVuSerif-Bold-4e" d="M 281 0 
L 281 378 
L 878 378 
L 878 4288 
L 281 4288 
L 281 4666 
L 1741 4666 
L 4556 1363 
L 4556 4288 
L 3963 4288 
L 3963 4666 
L 5594 4666 
L 5594 4288 
L 4997 4288 
L 4997 0 
L 4178 0 
L 1319 3372 
L 1319 378 
L 1913 378 
L 1913 0 
L 281 0 
z
" transform="scale(0.015625)"/>
     </defs>
     <use xlink:href="#DejaVuSerif-Bold-55"/>
     <use xlink:href="#DejaVuSerif-Bold-52" transform="translate(87.207031 0)"/>
     <use xlink:href="#DejaVuSerif-Bold-47" transform="translate(170.3125 0)"/>
     <use xlink:href="#DejaVuSerif-Bold-45" transform="translate(255.712891 0)"/>
     <use xlink:href="#DejaVuSerif-Bold-4e" transform="translate(331.933594 0)"/>
     <use xlink:href="#DejaVuSerif-Bold-54" transform="translate(423.339844 0)"/>
    </g>
    <!-- (Tier 1) -->
    <g style="fill: #c41e3a; opacity: 0.5" transform="translate(315.966903 127.138793) scale(0.12 -0.12)">
     <defs>
      <path id="DejaVuSerif-Bold-28" d="M 2694 -997 
Q 1641 -606 1122 122 
Q 603 850 603 1931 
Q 603 3013 1115 3731 
Q 1628 4450 2694 4863 
L 2694 4488 
Q 2200 4188 1983 3598 
Q 1766 3009 1766 1931 
Q 1766 856 1983 267 
Q 2200 -322 2694 -622 
L 2694 -997 
z
" transform="scale(0.015625)"/>
      <path id="DejaVuSerif-Bold-31" d="M 878 0 
L 878 378 
L 1753 378 
L 1753 4153 
L 781 3578 
L 781 4044 
L 1953 4750 
L 2938 4750 
L 2938 378 
L 3816 378 
L 3816 0 
L 878 0 
z
" transform="scale(0.015625)"/>
      <path id="DejaVuSerif-Bold-29" d="M 325 -997 
L 325 -622 
Q 819 -322 1036 267 
Q 1253 856 1253 1931 
Q 1253 3009 1036 3598 
Q 819 4188 325 4488 
L 325 4863 
Q 1391 4450 1905 3731 
Q 2419 3013 2419 1931 
Q 2419 850 1898 122 
Q 1378 -606 325 -997 
z
" transform="scale(0.015625)"/>
     </defs>
     <use xlink:href="#DejaVuSerif-Bold-28"/>
     <use xlink:href="#DejaVuSerif-Bold-54" transform="translate(47.314453 0)"/>
     <use xlink:href="#DejaVuSerif-Bold-69" transform="translate(121.728516 0)"/>
     <use xlink:href="#DejaVuSerif-Bold-65" transform="translate(159.716797 0)"/>
     <use xlink:href="#DejaVuSerif-Bold-72" transform="translate(223.339844 0)"/>
     <use xlink:href="#DejaVuSerif-Bold-20" transform="translate(276.025391 0)"/>
     <use xlink:href="#DejaVuSerif-Bold-31" transform="translate(310.839844 0)"/>
     <use xlink:href="#DejaVuSerif-Bold-29" transform="translate(380.419922 0)"/>
    </g>
   </g>
   <g id="text_26">
    <!-- STRATEGIC -->
    <g style="fill: #e67e22; opacity: 0.5" transform="translate(797.856847 113.701418) scale(0.12 -0.12)">
     <defs>
      <path id="DejaVuSerif-Bold-41" d="M -50 0 
L -50 378 
L 331 378 
L 2088 4666 
L 2834 4666 
L 4594 378 
L 5038 378 
L 5038 0 
L 2853 0 
L 2853 378 
L 3309 378 
L 2925 1331 
L 1172 1331 
L 781 378 
L 1338 378 
L 1338 0 
L -50 0 
z
M 1325 1709 
L 2772 1709 
L 2053 3494 
L 1325 1709 
z
" transform="scale(0.015625)"/>
      <path id="DejaVuSerif-Bold-49" d="M 300 0 
L 300 378 
L 897 378 
L 897 4288 
L 300 4288 
L 300 4666 
L 2700 4666 
L 2700 4288 
L 2100 4288 
L 2100 378 
L 2700 378 
L 2700 0 
L 300 0 
z
" transform="scale(0.015625)"/>
     </defs>
     <use xlink:href="#DejaVuSerif-Bold-53"/>
     <use xlink:href="#DejaVuSerif-Bold-54" transform="translate(72.216797 0)"/>
     <use xlink:href="#DejaVuSerif-Bold-52" transform="translate(146.630859 0)"/>
     <use xlink:href="#DejaVuSerif-Bold-41" transform="translate(229.736328 0)"/>
     <use xlink:href="#DejaVuSerif-Bold-54" transform="translate(301.824219 0)"/>
     <use xlink:href="#DejaVuSerif-Bold-45" transform="translate(376.238281 0)"/>
     <use xlink:href="#DejaVuSerif-Bold-47" transform="translate(452.458984 0)"/>
     <use xlink:href="#DejaVuSerif-Bold-49" transform="translate(537.859375 0)"/>
     <use xlink:href="#DejaVuSerif-Bold-43" transform="translate(584.636719 0)"/>
    </g>
    <!-- (Tier 2) -->
    <g style="fill: #e67e22; opacity: 0.5" transform="translate(812.048722 127.138793) scale(0.12 -0.12)">
     <defs>
      <path id="DejaVuSerif-Bold-32" d="M 844 3513 
L 469 3513 
L 469 4519 
Q 850 4634 1223 4692 
Q 1597 4750 1978 4750 
Q 2869 4750 3367 4386 
Q 3866 4022 3866 3372 
Q 3866 2909 3591 2542 
Q 3316 2175 2541 1672 
L 1241 819 
L 3450 819 
L 3450 1369 
L 3878 1369 
L 3878 0 
L 428 0 
L 428 763 
L 1119 1241 
Q 2003 1850 2297 2278 
Q 2591 2706 2591 3278 
Q 2591 3819 2367 4101 
Q 2144 4384 1716 4384 
Q 1347 4384 1125 4161 
Q 903 3938 844 3513 
z
" transform="scale(0.015625)"/>
     </defs>
     <use xlink:href="#DejaVuSerif-Bold-28"/>
     <use xlink:href="#DejaVuSerif-Bold-54" transform="translate(47.314453 0)"/>
     <use xlink:href="#DejaVuSerif-Bold-69" transform="translate(121.728516 0)"/>
     <use xlink:href="#DejaVuSerif-Bold-65" transform="translate(159.716797 0)"/>
     <use xlink:href="#DejaVuSerif-Bold-72" transform="translate(223.339844 0)"/>
     <use xlink:href="#DejaVuSerif-Bold-20" transform="translate(276.025391 0)"/>
     <use xlink:href="#DejaVuSerif-Bold-32" transform="translate(310.839844 0)"/>
     <use xlink:href="#DejaVuSerif-Bold-29" transform="translate(380.419922 0)"/>
    </g>
   </g>
   <g id="text_27">
    <!-- PLANNED -->
    <g style="fill: #007a87; opacity: 0.5" transform="translate(307.499403 379.324827) scale(0.12 -0.12)">
     <defs>
      <path id="DejaVuSerif-Bold-4c" d="M 300 0 
L 300 378 
L 897 378 
L 897 4288 
L 300 4288 
L 300 4666 
L 2700 4666 
L 2700 4288 
L 2100 4288 
L 2100 428 
L 3938 428 
L 3938 1166 
L 4359 1166 
L 4359 0 
L 300 0 
z
" transform="scale(0.015625)"/>
     </defs>
     <use xlink:href="#DejaVuSerif-Bold-50"/>
     <use xlink:href="#DejaVuSerif-Bold-4c" transform="translate(75.195312 0)"/>
     <use xlink:href="#DejaVuSerif-Bold-41" transform="translate(145.507812 0)"/>
     <use xlink:href="#DejaVuSerif-Bold-4e" transform="translate(223.095703 0)"/>
     <use xlink:href="#DejaVuSerif-Bold-4e" transform="translate(314.501953 0)"/>
     <use xlink:href="#DejaVuSerif-Bold-45" transform="translate(405.908203 0)"/>
     <use xlink:href="#DejaVuSerif-Bold-44" transform="translate(482.128906 0)"/>
    </g>
    <!-- (Tier 3) -->
    <g style="fill: #007a87; opacity: 0.5" transform="translate(315.966903 392.762202) scale(0.12 -0.12)">
     <defs>
      <path id="DejaVuSerif-Bold-33" d="M 550 4531 
Q 963 4641 1350 4695 
Q 1738 4750 2106 4750 
Q 2950 4750 3401 4448 
Q 3853 4147 3853 3584 
Q 3853 3163 3593 2900 
Q 3334 2638 2834 2547 
Q 3444 2450 3744 2131 
Q 4044 1813 4044 1259 
Q 4044 606 3526 257 
Q 3009 -91 2028 -91 
Q 1659 -91 1267 -28 
Q 875 34 447 159 
L 447 1184 
L 825 1184 
Q 859 741 1103 508 
Q 1347 275 1778 275 
Q 2253 275 2512 539 
Q 2772 803 2772 1288 
Q 2772 1794 2501 2069 
Q 2231 2344 1734 2344 
L 1528 2344 
L 1528 2719 
L 1691 2719 
Q 2150 2719 2381 2931 
Q 2613 3144 2613 3566 
Q 2613 3963 2395 4173 
Q 2178 4384 1772 4384 
Q 1403 4384 1187 4182 
Q 972 3981 928 3597 
L 550 3597 
L 550 4531 
z
" transform="scale(0.015625)"/>
     </defs>
     <use xlink:href="#DejaVuSerif-Bold-28"/>
     <use xlink:href="#DejaVuSerif-Bold-54" transform="translate(47.314453 0)"/>
     <use xlink:href="#DejaVuSerif-Bold-69" transform="translate(121.728516 0)"/>
     <use xlink:href="#DejaVuSerif-Bold-65" transform="translate(159.716797 0)"/>
     <use xlink:href="#DejaVuSerif-Bold-72" transform="translate(223.339844 0)"/>
     <use xlink:href="#DejaVuSerif-Bold-20" transform="translate(276.025391 0)"/>
     <use xlink:href="#DejaVuSerif-Bold-33" transform="translate(310.839844 0)"/>
     <use xlink:href="#DejaVuSerif-Bold-29" transform="translate(380.419922 0)"/>
    </g>
   </g>
   <g id="text_28">
    <!-- MONITORED -->
    <g style="fill: #2e7d32; opacity: 0.5" transform="translate(793.099034 379.324827) scale(0.12 -0.12)">
     <defs>
      <path id="DejaVuSerif-Bold-4f" d="M 2784 288 
Q 3381 288 3672 791 
Q 3963 1294 3963 2328 
Q 3963 3366 3672 3869 
Q 3381 4372 2784 4372 
Q 2191 4372 1898 3864 
Q 1606 3356 1606 2328 
Q 1606 1303 1898 795 
Q 2191 288 2784 288 
z
M 2784 -91 
Q 1606 -91 937 553 
Q 269 1197 269 2328 
Q 269 3459 939 4104 
Q 1609 4750 2784 4750 
Q 3963 4750 4631 4106 
Q 5300 3463 5300 2328 
Q 5300 1197 4629 553 
Q 3959 -91 2784 -91 
z
" transform="scale(0.015625)"/>
     </defs>
     <use xlink:href="#DejaVuSerif-Bold-4d"/>
     <use xlink:href="#DejaVuSerif-Bold-4f" transform="translate(110.693359 0)"/>
     <use xlink:href="#DejaVuSerif-Bold-4e" transform="translate(197.802734 0)"/>
     <use xlink:href="#DejaVuSerif-Bold-49" transform="translate(289.208984 0)"/>
     <use xlink:href="#DejaVuSerif-Bold-54" transform="translate(335.986328 0)"/>
     <use xlink:href="#DejaVuSerif-Bold-4f" transform="translate(410.400391 0)"/>
     <use xlink:href="#DejaVuSerif-Bold-52" transform="translate(497.509766 0)"/>
     <use xlink:href="#DejaVuSerif-Bold-45" transform="translate(580.615234 0)"/>
     <use xlink:href="#DejaVuSerif-Bold-44" transform="translate(656.835938 0)"/>
    </g>
    <!-- (Tier 4) -->
    <g style="fill: #2e7d32; opacity: 0.5" transform="translate(812.048722 392.762202) scale(0.12 -0.12)">
     <defs>
      <path id="DejaVuSerif-Bold-34" d="M 4084 0 
L 1516 0 
L 1516 378 
L 2209 378 
L 2209 1228 
L 263 1228 
L 263 1588 
L 2216 4750 
L 3391 4750 
L 3391 1631 
L 4191 1631 
L 4191 1228 
L 3391 1228 
L 3391 378 
L 4084 378 
L 4084 0 
z
M 2209 1631 
L 2209 3897 
L 819 1631 
L 2209 1631 
z
" transform="scale(0.015625)"/>
     </defs>
     <use xlink:href="#DejaVuSerif-Bold-28"/>
     <use xlink:href="#DejaVuSerif-Bold-54" transform="translate(47.314453 0)"/>
     <use xlink:href="#DejaVuSerif-Bold-69" transform="translate(121.728516 0)"/>
     <use xlink:href="#DejaVuSerif-Bold-65" transform="translate(159.716797 0)"/>
     <use xlink:href="#DejaVuSerif-Bold-72" transform="translate(223.339844 0)"/>
     <use xlink:href="#DejaVuSerif-Bold-20" transform="translate(276.025391 0)"/>
     <use xlink:href="#DejaVuSerif-Bold-34" transform="translate(310.839844 0)"/>
     <use xlink:href="#DejaVuSerif-Bold-29" transform="translate(380.419922 0)"/>
    </g>
   </g>
   <g id="text_29">
    <!-- Gulf PQC Migration Priority Matrix -->
    <g transform="translate(441.214063 18.597656) scale(0.15 -0.15)">
     <defs>
      <path id="DejaVuSerif-Bold-51" d="M 2766 -91 
Q 1584 -72 926 565 
Q 269 1203 269 2328 
Q 269 3459 939 4104 
Q 1609 4750 2784 4750 
Q 3963 4750 4631 4106 
Q 5300 3463 5300 2328 
Q 5300 1334 4786 715 
Q 4272 97 3322 -50 
Q 3488 -228 3725 -306 
Q 3963 -384 4341 -384 
L 4500 -384 
L 4500 -1153 
L 4409 -1153 
Q 3816 -1153 3419 -897 
Q 3022 -641 2766 -91 
z
M 2784 288 
Q 3381 288 3672 791 
Q 3963 1294 3963 2328 
Q 3963 3366 3672 3869 
Q 3381 4372 2784 4372 
Q 2191 4372 1898 3864 
Q 1606 3356 1606 2328 
Q 1606 1303 1898 795 
Q 2191 288 2784 288 
z
" transform="scale(0.015625)"/>
      <path id="DejaVuSerif-Bold-78" d="M 2247 2119 
L 2834 2944 
L 2425 2944 
L 2425 3322 
L 3719 3322 
L 3719 2944 
L 3278 2944 
L 2431 1759 
L 3419 378 
L 3859 378 
L 3859 0 
L 1747 0 
L 1747 378 
L 2175 378 
L 1550 1253 
L 922 378 
L 1369 378 
L 1369 0 
L 0 0 
L 0 378 
L 475 378 
L 1356 1619 
L 403 2944 
L 31 2944 
L 31 3322 
L 2059 3322 
L 2059 2944 
L 1656 2944 
L 2247 2119 
z
" transform="scale(0.015625)"/>
     </defs>
     <use xlink:href="#DejaVuSerif-Bold-47"/>
     <use xlink:href="#DejaVuSerif-Bold-75" transform="translate(85.400391 0)"/>
     <use xlink:href="#DejaVuSerif-Bold-6c" transform="translate(158.105469 0)"/>
     <use xlink:href="#DejaVuSerif-Bold-66" transform="translate(196.09375 0)"/>
     <use xlink:href="#DejaVuSerif-Bold-20" transform="translate(239.111328 0)"/>
     <use xlink:href="#DejaVuSerif-Bold-50" transform="translate(273.925781 0)"/>
     <use xlink:href="#DejaVuSerif-Bold-51" transform="translate(349.121094 0)"/>
     <use xlink:href="#DejaVuSerif-Bold-43" transform="translate(436.230469 0)"/>
     <use xlink:href="#DejaVuSerif-Bold-20" transform="translate(515.820312 0)"/>
     <use xlink:href="#DejaVuSerif-Bold-4d" transform="translate(550.634766 0)"/>
     <use xlink:href="#DejaVuSerif-Bold-69" transform="translate(661.328125 0)"/>
     <use xlink:href="#DejaVuSerif-Bold-67" transform="translate(699.316406 0)"/>
     <use xlink:href="#DejaVuSerif-Bold-72" transform="translate(769.238281 0)"/>
     <use xlink:href="#DejaVuSerif-Bold-61" transform="translate(821.923828 0)"/>
     <use xlink:href="#DejaVuSerif-Bold-74" transform="translate(886.71875 0)"/>
     <use xlink:href="#DejaVuSerif-Bold-69" transform="translate(932.910156 0)"/>
     <use xlink:href="#DejaVuSerif-Bold-6f" transform="translate(970.898438 0)"/>
     <use xlink:href="#DejaVuSerif-Bold-6e" transform="translate(1037.597656 0)"/>
     <use xlink:href="#DejaVuSerif-Bold-20" transform="translate(1110.302734 0)"/>
     <use xlink:href="#DejaVuSerif-Bold-50" transform="translate(1145.117188 0)"/>
     <use xlink:href="#DejaVuSerif-Bold-72" transform="translate(1220.3125 0)"/>
     <use xlink:href="#DejaVuSerif-Bold-69" transform="translate(1272.998047 0)"/>
     <use xlink:href="#DejaVuSerif-Bold-6f" transform="translate(1310.986328 0)"/>
     <use xlink:href="#DejaVuSerif-Bold-72" transform="translate(1377.685547 0)"/>
     <use xlink:href="#DejaVuSerif-Bold-69" transform="translate(1430.371094 0)"/>
     <use xlink:href="#DejaVuSerif-Bold-74" transform="translate(1468.359375 0)"/>
     <use xlink:href="#DejaVuSerif-Bold-79" transform="translate(1514.550781 0)"/>
     <use xlink:href="#DejaVuSerif-Bold-20" transform="translate(1572.65625 0)"/>
     <use xlink:href="#DejaVuSerif-Bold-4d" transform="translate(1607.470703 0)"/>
     <use xlink:href="#DejaVuSerif-Bold-61" transform="translate(1718.164062 0)"/>
     <use xlink:href="#DejaVuSerif-Bold-74" transform="translate(1782.958984 0)"/>
     <use xlink:href="#DejaVuSerif-Bold-72" transform="translate(1829.150391 0)"/>
     <use xlink:href="#DejaVuSerif-Bold-69" transform="translate(1881.835938 0)"/>
     <use xlink:href="#DejaVuSerif-Bold-78" transform="translate(1919.824219 0)"/>
    </g>
   </g>
   <g id="PathCollection_1">
    <defs>
     <path id="m263a969f88" d="M 0 14.142136 
C 3.750538 14.142136 7.347969 12.652031 10 10 
C 12.652031 7.347969 14.142136 3.750538 14.142136 0 
C 14.142136 -3.750538 12.652031 -7.347969 10 -10 
C 7.347969 -12.652031 3.750538 -14.142136 0 -14.142136 
C -3.750538 -14.142136 -7.347969 -12.652031 -10 -10 
C -12.652031 -7.347969 -14.142136 -3.750538 -14.142136 0 
C -14.142136 3.750538 -12.652031 7.347969 -10 10 
C -7.347969 12.652031 -3.750538 14.142136 0 14.142136 
z
" style="stroke: #ffffff; stroke-opacity: 0.8; stroke-width: 2"/>
    </defs>
    <g clip-path="url(#pdc7dfdc23b)">
     <use xlink:href="#m263a969f88" x="143.198239" y="171.409361" style="fill: #c8963e; fill-opacity: 0.8; stroke: #ffffff; stroke-opacity: 0.8; stroke-width: 2"/>
    </g>
   </g>
   <g id="PathCollection_2">
    <defs>
     <path id="me525339b7a" d="M 0 14.142136 
C 3.750538 14.142136 7.347969 12.652031 10 10 
C 12.652031 7.347969 14.142136 3.750538 14.142136 0 
C 14.142136 -3.750538 12.652031 -7.347969 10 -10 
C 7.347969 -12.652031 3.750538 -14.142136 0 -14.142136 
C -3.750538 -14.142136 -7.347969 -12.652031 -10 -10 
C -12.652031 -7.347969 -14.142136 -3.750538 -14.142136 0 
C -14.142136 3.750538 -12.652031 7.347969 -10 10 
C -7.347969 12.652031 -3.750538 14.142136 0 14.142136 
z
" style="stroke: #ffffff; stroke-opacity: 0.8; stroke-width: 2"/>
    </defs>
    <g clip-path="url(#pdc7dfdc23b)">
     <use xlink:href="#me525339b7a" x="242.414602" y="259.950497" style="fill: #007a87; fill-opacity: 0.8; stroke: #ffffff; stroke-opacity: 0.8; stroke-width: 2"/>
    </g>
   </g>
   <g id="PathCollection_3">
    <defs>
     <path id="mac5b84f581" d="M 0 14.142136 
C 3.750538 14.142136 7.347969 12.652031 10 10 
C 12.652031 7.347969 14.142136 3.750538 14.142136 0 
C 14.142136 -3.750538 12.652031 -7.347969 10 -10 
C 7.347969 -12.652031 3.750538 -14.142136 0 -14.142136 
C -3.750538 -14.142136 -7.347969 -12.652031 -10 -10 
C -12.652031 -7.347969 -14.142136 -3.750538 -14.142136 0 
C -14.142136 3.750538 -12.652031 7.347969 -10 10 
C -7.347969 12.652031 -3.750538 14.142136 0 14.142136 
z
" style="stroke: #ffffff; stroke-opacity: 0.8; stroke-width: 2"/>
    </defs>
    <g clip-path="url(#pdc7dfdc23b)">
     <use xlink:href="#mac5b84f581" x="341.630966" y="127.138793" style="fill: #1b365d; fill-opacity: 0.8; stroke: #ffffff; stroke-opacity: 0.8; stroke-width: 2"/>
    </g>
   </g>
   <g id="PathCollection_4">
    <defs>
     <path id="me9cc457753" d="M 0 14.142136 
C 3.750538 14.142136 7.347969 12.652031 10 10 
C 12.652031 7.347969 14.142136 3.750538 14.142136 0 
C 14.142136 -3.750538 12.652031 -7.347969 10 -10 
C 7.347969 -12.652031 3.750538 -14.142136 0 -14.142136 
C -3.750538 -14.142136 -7.347969 -12.652031 -10 -10 
C -12.652031 -7.347969 -14.142136 -3.750538 -14.142136 0 
C -14.142136 3.750538 -12.652031 7.347969 -10 10 
C -7.347969 12.652031 -3.750538 14.142136 0 14.142136 
z
" style="stroke: #ffffff; stroke-opacity: 0.8; stroke-width: 2"/>
    </defs>
    <g clip-path="url(#pdc7dfdc23b)">
     <use xlink:href="#me9cc457753" x="440.84733" y="215.679929" style="fill: #2e7d32; fill-opacity: 0.8; stroke: #ffffff; stroke-opacity: 0.8; stroke-width: 2"/>
    </g>
   </g>
   <g id="PathCollection_5">
    <g clip-path="url(#pdc7dfdc23b)">
     <use xlink:href="#me9cc457753" x="540.063693" y="304.221065" style="fill: #2e7d32; fill-opacity: 0.8; stroke: #ffffff; stroke-opacity: 0.8; stroke-width: 2"/>
    </g>
   </g>
   <g id="PathCollection_6">
    <g clip-path="url(#pdc7dfdc23b)">
     <use xlink:href="#me9cc457753" x="639.280057" y="171.409361" style="fill: #2e7d32; fill-opacity: 0.8; stroke: #ffffff; stroke-opacity: 0.8; stroke-width: 2"/>
    </g>
   </g>
   <g id="PathCollection_7">
    <g clip-path="url(#pdc7dfdc23b)">
     <use xlink:href="#me9cc457753" x="738.49642" y="259.950497" style="fill: #2e7d32; fill-opacity: 0.8; stroke: #ffffff; stroke-opacity: 0.8; stroke-width: 2"/>
    </g>
   </g>
   <g id="PathCollection_8">
    <g clip-path="url(#pdc7dfdc23b)">
     <use xlink:href="#me9cc457753" x="837.712784" y="348.491634" style="fill: #2e7d32; fill-opacity: 0.8; stroke: #ffffff; stroke-opacity: 0.8; stroke-width: 2"/>
    </g>
   </g>
   <g id="PathCollection_9">
    <g clip-path="url(#pdc7dfdc23b)">
     <use xlink:href="#me9cc457753" x="936.929148" y="392.762202" style="fill: #2e7d32; fill-opacity: 0.8; stroke: #ffffff; stroke-opacity: 0.8; stroke-width: 2"/>
    </g>
   </g>
   <g id="PathCollection_10">
    <g clip-path="url(#pdc7dfdc23b)">
     <use xlink:href="#me9cc457753" x="1036.145511" y="127.138793" style="fill: #2e7d32; fill-opacity: 0.8; stroke: #ffffff; stroke-opacity: 0.8; stroke-width: 2"/>
    </g>
   </g>
  </g>
 </g>
 <defs>
  <clipPath id="pdc7dfdc23b">
   <rect x="43.981875" y="38.597656" width="1091.38" height="486.97625"/>
  </clipPath>
 </defs>
</svg>
