<?xml version="1.0" encoding="utf-8" standalone="no"?>
<!DOCTYPE svg PUBLIC "-//W3C//DTD SVG 1.1//EN"
  "http://www.w3.org/Graphics/SVG/1.1/DTD/svg11.dtd">
<svg xmlns:xlink="http://www.w3.org/1999/xlink" width="998.4725pt" height="494.097344pt" viewBox="0 0 998.4725 494.097344" xmlns="http://www.w3.org/2000/svg" version="1.1">
 <metadata>
  <rdf:RDF xmlns:dc="http://purl.org/dc/elements/1.1/" xmlns:cc="http://creativecommons.org/ns#" xmlns:rdf="http://www.w3.org/1999/02/22-rdf-syntax-ns#">
   <cc:Work>
    <dc:type rdf:resource="http://purl.org/dc/dcmitype/StillImage"/>
    <dc:date>2026-07-05T17:48:39.630853</dc:date>
    <dc:format>image/svg+xml</dc:format>
    <dc:creator>
     <cc:Agent>
      <dc:title>Matplotlib v3.10.0, https://matplotlib.org/</dc:title>
     </cc:Agent>
    </dc:creator>
   </cc:Work>
  </rdf:RDF>
 </metadata>
 <defs>
  <style type="text/css">*{stroke-linejoin: round; stroke-linecap: butt}</style>
 </defs>
 <g id="figure_1">
  <g id="patch_1">
   <path d="M 0 494.097344 
L 998.4725 494.097344 
L 998.4725 0 
L 0 0 
z
" style="fill: #ffffff"/>
  </g>
  <g id="axes_1">
   <g id="patch_2">
    <path d="M 36.8125 456.777406 
L 991.2725 456.777406 
L 991.2725 38.597656 
L 36.8125 38.597656 
z
" style="fill: #ffffff"/>
   </g>
   <g id="patch_3">
    <path d="M 80.197045 456.777406 
L 102.44553 456.777406 
L 102.44553 257.644192 
L 80.197045 257.644192 
z
" clip-path="url(#pec7ca61ca5)" style="fill: #c41e3a; stroke: #ffffff; stroke-linejoin: miter"/>
   </g>
   <g id="patch_4">
    <path d="M 169.190985 456.777406 
L 191.43947 456.777406 
L 191.43947 191.266454 
L 169.190985 191.266454 
z
" clip-path="url(#pec7ca61ca5)" style="fill: #c41e3a; stroke: #ffffff; stroke-linejoin: miter"/>
   </g>
   <g id="patch_5">
    <path d="M 258.184924 456.777406 
L 280.433409 456.777406 
L 280.433409 58.510978 
L 258.184924 58.510978 
z
" clip-path="url(#pec7ca61ca5)" style="fill: #c41e3a; stroke: #ffffff; stroke-linejoin: miter"/>
   </g>
   <g id="patch_6">
    <path d="M 347.178864 456.777406 
L 369.427348 456.777406 
L 369.427348 124.888716 
L 347.178864 124.888716 
z
" clip-path="url(#pec7ca61ca5)" style="fill: #c41e3a; stroke: #ffffff; stroke-linejoin: miter"/>
   </g>
   <g id="patch_7">
    <path d="M 436.172803 456.777406 
L 458.421288 456.777406 
L 458.421288 257.644192 
L 436.172803 257.644192 
z
" clip-path="url(#pec7ca61ca5)" style="fill: #c41e3a; stroke: #ffffff; stroke-linejoin: miter"/>
   </g>
   <g id="patch_8">
    <path d="M 525.166742 456.777406 
L 547.415227 456.777406 
L 547.415227 324.02193 
L 525.166742 324.02193 
z
" clip-path="url(#pec7ca61ca5)" style="fill: #c41e3a; stroke: #ffffff; stroke-linejoin: miter"/>
   </g>
   <g id="patch_9">
    <path d="M 614.160682 456.777406 
L 636.409167 456.777406 
L 636.409167 257.644192 
L 614.160682 257.644192 
z
" clip-path="url(#pec7ca61ca5)" style="fill: #c41e3a; stroke: #ffffff; stroke-linejoin: miter"/>
   </g>
   <g id="patch_10">
    <path d="M 703.154621 456.777406 
L 725.403106 456.777406 
L 725.403106 257.644192 
L 703.154621 257.644192 
z
" clip-path="url(#pec7ca61ca5)" style="fill: #c41e3a; stroke: #ffffff; stroke-linejoin: miter"/>
   </g>
   <g id="patch_11">
    <path d="M 792.148561 456.777406 
L 814.397045 456.777406 
L 814.397045 324.02193 
L 792.148561 324.02193 
z
" clip-path="url(#pec7ca61ca5)" style="fill: #c41e3a; stroke: #ffffff; stroke-linejoin: miter"/>
   </g>
   <g id="patch_12">
    <path d="M 881.1425 456.777406 
L 903.390985 456.777406 
L 903.390985 257.644192 
L 881.1425 257.644192 
z
" clip-path="url(#pec7ca61ca5)" style="fill: #c41e3a; stroke: #ffffff; stroke-linejoin: miter"/>
   </g>
   <g id="patch_13">
    <path d="M 102.44553 456.777406 
L 124.694015 456.777406 
L 124.694015 191.266454 
L 102.44553 191.266454 
z
" clip-path="url(#pec7ca61ca5)" style="fill: #e67e22; stroke: #ffffff; stroke-linejoin: miter"/>
   </g>
   <g id="patch_14">
    <path d="M 191.43947 456.777406 
L 213.687955 456.777406 
L 213.687955 257.644192 
L 191.43947 257.644192 
z
" clip-path="url(#pec7ca61ca5)" style="fill: #e67e22; stroke: #ffffff; stroke-linejoin: miter"/>
   </g>
   <g id="patch_15">
    <path d="M 280.433409 456.777406 
L 302.681894 456.777406 
L 302.681894 257.644192 
L 280.433409 257.644192 
z
" clip-path="url(#pec7ca61ca5)" style="fill: #e67e22; stroke: #ffffff; stroke-linejoin: miter"/>
   </g>
   <g id="patch_16">
    <path d="M 369.427348 456.777406 
L 391.675833 456.777406 
L 391.675833 257.644192 
L 369.427348 257.644192 
z
" clip-path="url(#pec7ca61ca5)" style="fill: #e67e22; stroke: #ffffff; stroke-linejoin: miter"/>
   </g>
   <g id="patch_17">
    <path d="M 458.421288 456.777406 
L 480.669773 456.777406 
L 480.669773 124.888716 
L 458.421288 124.888716 
z
" clip-path="url(#pec7ca61ca5)" style="fill: #e67e22; stroke: #ffffff; stroke-linejoin: miter"/>
   </g>
   <g id="patch_18">
    <path d="M 547.415227 456.777406 
L 569.663712 456.777406 
L 569.663712 124.888716 
L 547.415227 124.888716 
z
" clip-path="url(#pec7ca61ca5)" style="fill: #e67e22; stroke: #ffffff; stroke-linejoin: miter"/>
   </g>
   <g id="patch_19">
    <path d="M 636.409167 456.777406 
L 658.657652 456.777406 
L 658.657652 191.266454 
L 636.409167 191.266454 
z
" clip-path="url(#pec7ca61ca5)" style="fill: #e67e22; stroke: #ffffff; stroke-linejoin: miter"/>
   </g>
   <g id="patch_20">
    <path d="M 725.403106 456.777406 
L 747.651591 456.777406 
L 747.651591 257.644192 
L 725.403106 257.644192 
z
" clip-path="url(#pec7ca61ca5)" style="fill: #e67e22; stroke: #ffffff; stroke-linejoin: miter"/>
   </g>
   <g id="patch_21">
    <path d="M 814.397045 456.777406 
L 836.64553 456.777406 
L 836.64553 124.888716 
L 814.397045 124.888716 
z
" clip-path="url(#pec7ca61ca5)" style="fill: #e67e22; stroke: #ffffff; stroke-linejoin: miter"/>
   </g>
   <g id="patch_22">
    <path d="M 903.390985 456.777406 
L 925.63947 456.777406 
L 925.63947 191.266454 
L 903.390985 191.266454 
z
" clip-path="url(#pec7ca61ca5)" style="fill: #e67e22; stroke: #ffffff; stroke-linejoin: miter"/>
   </g>
   <g id="patch_23">
    <path d="M 124.694015 456.777406 
L 146.9425 456.777406 
L 146.9425 257.644192 
L 124.694015 257.644192 
z
" clip-path="url(#pec7ca61ca5)" style="fill: #c8963e; stroke: #ffffff; stroke-linejoin: miter"/>
   </g>
   <g id="patch_24">
    <path d="M 213.687955 456.777406 
L 235.936439 456.777406 
L 235.936439 257.644192 
L 213.687955 257.644192 
z
" clip-path="url(#pec7ca61ca5)" style="fill: #c8963e; stroke: #ffffff; stroke-linejoin: miter"/>
   </g>
   <g id="patch_25">
    <path d="M 302.681894 456.777406 
L 324.930379 456.777406 
L 324.930379 390.399668 
L 302.681894 390.399668 
z
" clip-path="url(#pec7ca61ca5)" style="fill: #c8963e; stroke: #ffffff; stroke-linejoin: miter"/>
   </g>
   <g id="patch_26">
    <path d="M 391.675833 456.777406 
L 413.924318 456.777406 
L 413.924318 324.02193 
L 391.675833 324.02193 
z
" clip-path="url(#pec7ca61ca5)" style="fill: #c8963e; stroke: #ffffff; stroke-linejoin: miter"/>
   </g>
   <g id="patch_27">
    <path d="M 480.669773 456.777406 
L 502.918258 456.777406 
L 502.918258 324.02193 
L 480.669773 324.02193 
z
" clip-path="url(#pec7ca61ca5)" style="fill: #c8963e; stroke: #ffffff; stroke-linejoin: miter"/>
   </g>
   <g id="patch_28">
    <path d="M 569.663712 456.777406 
L 591.912197 456.777406 
L 591.912197 257.644192 
L 569.663712 257.644192 
z
" clip-path="url(#pec7ca61ca5)" style="fill: #c8963e; stroke: #ffffff; stroke-linejoin: miter"/>
   </g>
   <g id="patch_29">
    <path d="M 658.657652 456.777406 
L 680.906136 456.777406 
L 680.906136 257.644192 
L 658.657652 257.644192 
z
" clip-path="url(#pec7ca61ca5)" style="fill: #c8963e; stroke: #ffffff; stroke-linejoin: miter"/>
   </g>
   <g id="patch_30">
    <path d="M 747.651591 456.777406 
L 769.900076 456.777406 
L 769.900076 191.266454 
L 747.651591 191.266454 
z
" clip-path="url(#pec7ca61ca5)" style="fill: #c8963e; stroke: #ffffff; stroke-linejoin: miter"/>
   </g>
   <g id="patch_31">
    <path d="M 836.64553 456.777406 
L 858.894015 456.777406 
L 858.894015 257.644192 
L 836.64553 257.644192 
z
" clip-path="url(#pec7ca61ca5)" style="fill: #c8963e; stroke: #ffffff; stroke-linejoin: miter"/>
   </g>
   <g id="patch_32">
    <path d="M 925.63947 456.777406 
L 947.887955 456.777406 
L 947.887955 257.644192 
L 925.63947 257.644192 
z
" clip-path="url(#pec7ca61ca5)" style="fill: #c8963e; stroke: #ffffff; stroke-linejoin: miter"/>
   </g>
   <g id="matplotlib.axis_1">
    <g id="xtick_1">
     <g id="line2d_1">
      <defs>
       <path id="m8ac70d8f17" d="M 0 0 
L 0 3.5 
" style="stroke: #000000; stroke-width: 0.8"/>
      </defs>
      <g>
       <use xlink:href="#m8ac70d8f17" x="113.569773" y="456.777406" style="stroke: #000000; stroke-width: 0.8"/>
      </g>
     </g>
     <g id="text_1">
      <!-- Energy -->
      <g transform="translate(93.499929 471.979281) scale(0.11 -0.11)">
       <defs>
        <path id="DejaVuSerif-45" d="M 353 0 
L 353 331 
L 947 331 
L 947 4331 
L 353 4331 
L 353 4666 
L 4109 4666 
L 4109 3628 
L 3725 3628 
L 3725 4281 
L 1581 4281 
L 1581 2719 
L 3109 2719 
L 3109 3303 
L 3494 3303 
L 3494 1753 
L 3109 1753 
L 3109 2338 
L 1581 2338 
L 1581 384 
L 3775 384 
L 3775 1038 
L 4159 1038 
L 4159 0 
L 353 0 
z
" transform="scale(0.015625)"/>
        <path id="DejaVuSerif-6e" d="M 263 0 
L 263 331 
L 781 331 
L 781 2988 
L 231 2988 
L 231 3322 
L 1356 3322 
L 1356 2731 
Q 1516 3069 1770 3241 
Q 2025 3413 2363 3413 
Q 2913 3413 3172 3097 
Q 3431 2781 3431 2113 
L 3431 331 
L 3944 331 
L 3944 0 
L 2356 0 
L 2356 331 
L 2853 331 
L 2853 1931 
Q 2853 2541 2703 2767 
Q 2553 2994 2175 2994 
Q 1775 2994 1565 2701 
Q 1356 2409 1356 1850 
L 1356 331 
L 1856 331 
L 1856 0 
L 263 0 
z
" transform="scale(0.015625)"/>
        <path id="DejaVuSerif-65" d="M 3469 1600 
L 991 1600 
L 991 1575 
Q 991 903 1244 561 
Q 1497 219 1991 219 
Q 2369 219 2611 417 
Q 2853 616 2950 1006 
L 3413 1006 
Q 3275 459 2904 184 
Q 2534 -91 1931 -91 
Q 1203 -91 761 389 
Q 319 869 319 1663 
Q 319 2450 753 2931 
Q 1188 3413 1894 3413 
Q 2647 3413 3050 2948 
Q 3453 2484 3469 1600 
z
M 2791 1931 
Q 2772 2513 2545 2808 
Q 2319 3103 1894 3103 
Q 1497 3103 1269 2806 
Q 1041 2509 991 1931 
L 2791 1931 
z
" transform="scale(0.015625)"/>
        <path id="DejaVuSerif-72" d="M 3059 3328 
L 3059 2497 
L 2728 2497 
Q 2713 2744 2591 2866 
Q 2469 2988 2234 2988 
Q 1809 2988 1582 2694 
Q 1356 2400 1356 1850 
L 1356 331 
L 2022 331 
L 2022 0 
L 263 0 
L 263 331 
L 781 331 
L 781 2994 
L 231 2994 
L 231 3322 
L 1356 3322 
L 1356 2731 
Q 1525 3078 1790 3245 
Q 2056 3413 2438 3413 
Q 2578 3413 2733 3391 
Q 2888 3369 3059 3328 
z
" transform="scale(0.015625)"/>
        <path id="DejaVuSerif-67" d="M 3359 2988 
L 3359 72 
Q 3359 -644 2965 -1033 
Q 2572 -1422 1844 -1422 
Q 1516 -1422 1216 -1362 
Q 916 -1303 641 -1184 
L 641 -488 
L 941 -488 
Q 997 -813 1206 -963 
Q 1416 -1113 1806 -1113 
Q 2313 -1113 2548 -827 
Q 2784 -541 2784 72 
L 2784 519 
Q 2616 206 2355 57 
Q 2094 -91 1709 -91 
Q 1097 -91 708 395 
Q 319 881 319 1663 
Q 319 2444 706 2928 
Q 1094 3413 1709 3413 
Q 2094 3413 2355 3264 
Q 2616 3116 2784 2803 
L 2784 3322 
L 3909 3322 
L 3909 2988 
L 3359 2988 
z
M 2784 1825 
Q 2784 2422 2554 2737 
Q 2325 3053 1888 3053 
Q 1444 3053 1217 2703 
Q 991 2353 991 1663 
Q 991 975 1217 622 
Q 1444 269 1888 269 
Q 2325 269 2554 583 
Q 2784 897 2784 1497 
L 2784 1825 
z
" transform="scale(0.015625)"/>
        <path id="DejaVuSerif-79" d="M 1381 -609 
L 1600 -56 
L 359 2988 
L -19 2988 
L -19 3322 
L 1509 3322 
L 1509 2988 
L 978 2988 
L 1913 703 
L 2847 2988 
L 2350 2988 
L 2350 3322 
L 3597 3322 
L 3597 2988 
L 3225 2988 
L 1703 -750 
Q 1547 -1138 1356 -1280 
Q 1166 -1422 819 -1422 
Q 672 -1422 517 -1397 
Q 363 -1372 206 -1325 
L 206 -691 
L 500 -691 
Q 519 -903 608 -995 
Q 697 -1088 884 -1088 
Q 1056 -1088 1161 -992 
Q 1266 -897 1381 -609 
z
" transform="scale(0.015625)"/>
       </defs>
       <use xlink:href="#DejaVuSerif-45"/>
       <use xlink:href="#DejaVuSerif-6e" transform="translate(72.998047 0)"/>
       <use xlink:href="#DejaVuSerif-65" transform="translate(137.402344 0)"/>
       <use xlink:href="#DejaVuSerif-72" transform="translate(196.582031 0)"/>
       <use xlink:href="#DejaVuSerif-67" transform="translate(244.384766 0)"/>
       <use xlink:href="#DejaVuSerif-79" transform="translate(308.398438 0)"/>
      </g>
     </g>
    </g>
    <g id="xtick_2">
     <g id="line2d_2">
      <g>
       <use xlink:href="#m8ac70d8f17" x="202.563712" y="456.777406" style="stroke: #000000; stroke-width: 0.8"/>
      </g>
     </g>
     <g id="text_2">
      <!-- Sovereign -->
      <g transform="translate(174.415743 471.979281) scale(0.11 -0.11)">
       <defs>
        <path id="DejaVuSerif-53" d="M 594 225 
L 594 1288 
L 953 1284 
Q 969 753 1261 498 
Q 1553 244 2150 244 
Q 2706 244 2998 464 
Q 3291 684 3291 1106 
Q 3291 1444 3114 1625 
Q 2938 1806 2369 1978 
L 1753 2163 
Q 1084 2366 811 2669 
Q 538 2972 538 3500 
Q 538 4094 959 4422 
Q 1381 4750 2144 4750 
Q 2469 4750 2856 4679 
Q 3244 4609 3681 4475 
L 3681 3481 
L 3328 3481 
Q 3275 3975 2998 4195 
Q 2722 4416 2156 4416 
Q 1663 4416 1405 4214 
Q 1147 4013 1147 3628 
Q 1147 3294 1340 3103 
Q 1534 2913 2163 2725 
L 2741 2553 
Q 3375 2363 3645 2067 
Q 3916 1772 3916 1275 
Q 3916 597 3481 253 
Q 3047 -91 2188 -91 
Q 1803 -91 1404 -12 
Q 1006 66 594 225 
z
" transform="scale(0.015625)"/>
        <path id="DejaVuSerif-6f" d="M 1925 219 
Q 2388 219 2623 584 
Q 2859 950 2859 1663 
Q 2859 2375 2623 2739 
Q 2388 3103 1925 3103 
Q 1463 3103 1227 2739 
Q 991 2375 991 1663 
Q 991 950 1228 584 
Q 1466 219 1925 219 
z
M 1925 -91 
Q 1200 -91 759 389 
Q 319 869 319 1663 
Q 319 2456 758 2934 
Q 1197 3413 1925 3413 
Q 2653 3413 3092 2934 
Q 3531 2456 3531 1663 
Q 3531 869 3092 389 
Q 2653 -91 1925 -91 
z
" transform="scale(0.015625)"/>
        <path id="DejaVuSerif-76" d="M 1581 0 
L 359 2988 
L -19 2988 
L -19 3322 
L 1509 3322 
L 1509 2988 
L 978 2988 
L 1913 703 
L 2847 2988 
L 2350 2988 
L 2350 3322 
L 3597 3322 
L 3597 2988 
L 3225 2988 
L 2003 0 
L 1581 0 
z
" transform="scale(0.015625)"/>
        <path id="DejaVuSerif-69" d="M 622 4353 
Q 622 4497 726 4603 
Q 831 4709 978 4709 
Q 1122 4709 1226 4603 
Q 1331 4497 1331 4353 
Q 1331 4206 1228 4103 
Q 1125 4000 978 4000 
Q 831 4000 726 4103 
Q 622 4206 622 4353 
z
M 1356 331 
L 1900 331 
L 1900 0 
L 231 0 
L 231 331 
L 781 331 
L 781 2988 
L 231 2988 
L 231 3322 
L 1356 3322 
L 1356 331 
z
" transform="scale(0.015625)"/>
       </defs>
       <use xlink:href="#DejaVuSerif-53"/>
       <use xlink:href="#DejaVuSerif-6f" transform="translate(68.505859 0)"/>
       <use xlink:href="#DejaVuSerif-76" transform="translate(128.710938 0)"/>
       <use xlink:href="#DejaVuSerif-65" transform="translate(185.205078 0)"/>
       <use xlink:href="#DejaVuSerif-72" transform="translate(244.384766 0)"/>
       <use xlink:href="#DejaVuSerif-65" transform="translate(292.1875 0)"/>
       <use xlink:href="#DejaVuSerif-69" transform="translate(351.367188 0)"/>
       <use xlink:href="#DejaVuSerif-67" transform="translate(383.349609 0)"/>
       <use xlink:href="#DejaVuSerif-6e" transform="translate(447.363281 0)"/>
      </g>
      <!-- Cloud -->
      <g transform="translate(186.221837 484.453281) scale(0.11 -0.11)">
       <defs>
        <path id="DejaVuSerif-43" d="M 4513 1234 
Q 4306 581 3820 245 
Q 3334 -91 2591 -91 
Q 2134 -91 1743 65 
Q 1353 222 1050 525 
Q 700 875 529 1320 
Q 359 1766 359 2328 
Q 359 3416 987 4083 
Q 1616 4750 2644 4750 
Q 3025 4750 3456 4650 
Q 3888 4550 4384 4347 
L 4384 3272 
L 4031 3272 
Q 3916 3859 3567 4137 
Q 3219 4416 2591 4416 
Q 1844 4416 1459 3886 
Q 1075 3356 1075 2328 
Q 1075 1303 1459 773 
Q 1844 244 2591 244 
Q 3113 244 3450 492 
Q 3788 741 3938 1234 
L 4513 1234 
z
" transform="scale(0.015625)"/>
        <path id="DejaVuSerif-6c" d="M 1313 331 
L 1856 331 
L 1856 0 
L 184 0 
L 184 331 
L 738 331 
L 738 4531 
L 184 4531 
L 184 4863 
L 1313 4863 
L 1313 331 
z
" transform="scale(0.015625)"/>
        <path id="DejaVuSerif-75" d="M 2266 3322 
L 3341 3322 
L 3341 331 
L 3884 331 
L 3884 0 
L 2766 0 
L 2766 588 
Q 2606 256 2353 82 
Q 2100 -91 1766 -91 
Q 1213 -91 952 223 
Q 691 538 691 1209 
L 691 2988 
L 172 2988 
L 172 3322 
L 1269 3322 
L 1269 1388 
Q 1269 781 1417 556 
Q 1566 331 1947 331 
Q 2347 331 2556 625 
Q 2766 919 2766 1478 
L 2766 2988 
L 2266 2988 
L 2266 3322 
z
" transform="scale(0.015625)"/>
        <path id="DejaVuSerif-64" d="M 3359 331 
L 3909 331 
L 3909 0 
L 2784 0 
L 2784 519 
Q 2616 206 2355 57 
Q 2094 -91 1709 -91 
Q 1097 -91 708 395 
Q 319 881 319 1663 
Q 319 2444 706 2928 
Q 1094 3413 1709 3413 
Q 2094 3413 2355 3264 
Q 2616 3116 2784 2803 
L 2784 4531 
L 2241 4531 
L 2241 4863 
L 3359 4863 
L 3359 331 
z
M 2784 1497 
L 2784 1825 
Q 2784 2422 2554 2737 
Q 2325 3053 1888 3053 
Q 1444 3053 1217 2703 
Q 991 2353 991 1663 
Q 991 975 1217 622 
Q 1444 269 1888 269 
Q 2325 269 2554 583 
Q 2784 897 2784 1497 
z
" transform="scale(0.015625)"/>
       </defs>
       <use xlink:href="#DejaVuSerif-43"/>
       <use xlink:href="#DejaVuSerif-6c" transform="translate(76.513672 0)"/>
       <use xlink:href="#DejaVuSerif-6f" transform="translate(108.496094 0)"/>
       <use xlink:href="#DejaVuSerif-75" transform="translate(168.701172 0)"/>
       <use xlink:href="#DejaVuSerif-64" transform="translate(233.105469 0)"/>
      </g>
     </g>
    </g>
    <g id="xtick_3">
     <g id="line2d_3">
      <g>
       <use xlink:href="#m8ac70d8f17" x="291.557652" y="456.777406" style="stroke: #000000; stroke-width: 0.8"/>
      </g>
     </g>
     <g id="text_3">
      <!-- Defense -->
      <g transform="translate(268.98187 472.135688) scale(0.11 -0.11)">
       <defs>
        <path id="DejaVuSerif-44" d="M 1581 331 
L 2163 331 
Q 3072 331 3558 850 
Q 4044 1369 4044 2338 
Q 4044 3306 3559 3818 
Q 3075 4331 2163 4331 
L 1581 4331 
L 1581 331 
z
M 353 0 
L 353 331 
L 947 331 
L 947 4331 
L 353 4331 
L 353 4666 
L 2209 4666 
Q 3416 4666 4089 4050 
Q 4763 3434 4763 2338 
Q 4763 1238 4088 619 
Q 3413 0 2209 0 
L 353 0 
z
" transform="scale(0.015625)"/>
        <path id="DejaVuSerif-66" d="M 2753 4078 
L 2450 4078 
Q 2447 4313 2317 4434 
Q 2188 4556 1941 4556 
Q 1619 4556 1487 4379 
Q 1356 4203 1356 3750 
L 1356 3322 
L 2284 3322 
L 2284 2988 
L 1356 2988 
L 1356 331 
L 2094 331 
L 2094 0 
L 231 0 
L 231 331 
L 781 331 
L 781 2988 
L 231 2988 
L 231 3322 
L 781 3322 
L 781 3738 
Q 781 4294 1070 4578 
Q 1359 4863 1919 4863 
Q 2128 4863 2337 4825 
Q 2547 4788 2753 4709 
L 2753 4078 
z
" transform="scale(0.015625)"/>
        <path id="DejaVuSerif-73" d="M 359 184 
L 359 959 
L 691 959 
Q 703 588 923 403 
Q 1144 219 1575 219 
Q 1963 219 2166 364 
Q 2369 509 2369 788 
Q 2369 1006 2220 1140 
Q 2072 1275 1594 1428 
L 1178 1569 
Q 750 1706 558 1912 
Q 366 2119 366 2438 
Q 366 2894 700 3153 
Q 1034 3413 1625 3413 
Q 1888 3413 2178 3344 
Q 2469 3275 2778 3144 
L 2778 2419 
L 2447 2419 
Q 2434 2741 2221 2922 
Q 2009 3103 1644 3103 
Q 1281 3103 1095 2975 
Q 909 2847 909 2591 
Q 909 2381 1050 2254 
Q 1191 2128 1613 1997 
L 2069 1856 
Q 2541 1709 2748 1489 
Q 2956 1269 2956 922 
Q 2956 450 2595 179 
Q 2234 -91 1600 -91 
Q 1278 -91 972 -22 
Q 666 47 359 184 
z
" transform="scale(0.015625)"/>
       </defs>
       <use xlink:href="#DejaVuSerif-44"/>
       <use xlink:href="#DejaVuSerif-65" transform="translate(80.175781 0)"/>
       <use xlink:href="#DejaVuSerif-66" transform="translate(139.355469 0)"/>
       <use xlink:href="#DejaVuSerif-65" transform="translate(176.367188 0)"/>
       <use xlink:href="#DejaVuSerif-6e" transform="translate(235.546875 0)"/>
       <use xlink:href="#DejaVuSerif-73" transform="translate(299.951172 0)"/>
       <use xlink:href="#DejaVuSerif-65" transform="translate(351.269531 0)"/>
      </g>
     </g>
    </g>
    <g id="xtick_4">
     <g id="line2d_4">
      <g>
       <use xlink:href="#m8ac70d8f17" x="380.551591" y="456.777406" style="stroke: #000000; stroke-width: 0.8"/>
      </g>
     </g>
     <g id="text_4">
      <!-- Finance -->
      <g transform="translate(358.276591 472.135688) scale(0.11 -0.11)">
       <defs>
        <path id="DejaVuSerif-46" d="M 353 0 
L 353 331 
L 947 331 
L 947 4331 
L 353 4331 
L 353 4666 
L 4172 4666 
L 4172 3628 
L 3788 3628 
L 3788 4281 
L 1581 4281 
L 1581 2719 
L 3175 2719 
L 3175 3303 
L 3559 3303 
L 3559 1753 
L 3175 1753 
L 3175 2338 
L 1581 2338 
L 1581 331 
L 2328 331 
L 2328 0 
L 353 0 
z
" transform="scale(0.015625)"/>
        <path id="DejaVuSerif-61" d="M 2547 1044 
L 2547 1747 
L 1806 1747 
Q 1378 1747 1168 1562 
Q 959 1378 959 997 
Q 959 650 1171 447 
Q 1384 244 1747 244 
Q 2106 244 2326 466 
Q 2547 688 2547 1044 
z
M 3122 2075 
L 3122 331 
L 3634 331 
L 3634 0 
L 2547 0 
L 2547 359 
Q 2356 128 2106 18 
Q 1856 -91 1522 -91 
Q 969 -91 644 203 
Q 319 497 319 997 
Q 319 1513 691 1797 
Q 1063 2081 1741 2081 
L 2547 2081 
L 2547 2309 
Q 2547 2688 2317 2895 
Q 2088 3103 1672 3103 
Q 1328 3103 1125 2947 
Q 922 2791 872 2484 
L 575 2484 
L 575 3156 
Q 875 3284 1158 3348 
Q 1441 3413 1709 3413 
Q 2400 3413 2761 3070 
Q 3122 2728 3122 2075 
z
" transform="scale(0.015625)"/>
        <path id="DejaVuSerif-63" d="M 3291 997 
Q 3169 466 2822 187 
Q 2475 -91 1925 -91 
Q 1200 -91 759 389 
Q 319 869 319 1663 
Q 319 2459 759 2936 
Q 1200 3413 1925 3413 
Q 2241 3413 2553 3339 
Q 2866 3266 3181 3116 
L 3181 2266 
L 2847 2266 
Q 2781 2703 2561 2903 
Q 2341 3103 1931 3103 
Q 1466 3103 1228 2742 
Q 991 2381 991 1663 
Q 991 944 1227 581 
Q 1463 219 1931 219 
Q 2303 219 2525 412 
Q 2747 606 2828 997 
L 3291 997 
z
" transform="scale(0.015625)"/>
       </defs>
       <use xlink:href="#DejaVuSerif-46"/>
       <use xlink:href="#DejaVuSerif-69" transform="translate(69.384766 0)"/>
       <use xlink:href="#DejaVuSerif-6e" transform="translate(101.367188 0)"/>
       <use xlink:href="#DejaVuSerif-61" transform="translate(165.771484 0)"/>
       <use xlink:href="#DejaVuSerif-6e" transform="translate(225.390625 0)"/>
       <use xlink:href="#DejaVuSerif-63" transform="translate(289.794922 0)"/>
       <use xlink:href="#DejaVuSerif-65" transform="translate(345.800781 0)"/>
      </g>
     </g>
    </g>
    <g id="xtick_5">
     <g id="line2d_5">
      <g>
       <use xlink:href="#m8ac70d8f17" x="469.54553" y="456.777406" style="stroke: #000000; stroke-width: 0.8"/>
      </g>
     </g>
     <g id="text_5">
      <!-- Telecom -->
      <g transform="translate(446.426624 472.135688) scale(0.11 -0.11)">
       <defs>
        <path id="DejaVuSerif-54" d="M 1222 0 
L 1222 331 
L 1819 331 
L 1819 4294 
L 447 4294 
L 447 3566 
L 63 3566 
L 63 4666 
L 4206 4666 
L 4206 3566 
L 3822 3566 
L 3822 4294 
L 2450 4294 
L 2450 331 
L 3047 331 
L 3047 0 
L 1222 0 
z
" transform="scale(0.015625)"/>
        <path id="DejaVuSerif-6d" d="M 3316 2675 
Q 3481 3041 3739 3227 
Q 3997 3413 4341 3413 
Q 4863 3413 5119 3089 
Q 5375 2766 5375 2113 
L 5375 331 
L 5894 331 
L 5894 0 
L 4300 0 
L 4300 331 
L 4800 331 
L 4800 2047 
Q 4800 2556 4650 2772 
Q 4500 2988 4153 2988 
Q 3769 2988 3567 2697 
Q 3366 2406 3366 1850 
L 3366 331 
L 3866 331 
L 3866 0 
L 2291 0 
L 2291 331 
L 2791 331 
L 2791 2069 
Q 2791 2566 2641 2777 
Q 2491 2988 2144 2988 
Q 1759 2988 1557 2697 
Q 1356 2406 1356 1850 
L 1356 331 
L 1856 331 
L 1856 0 
L 263 0 
L 263 331 
L 781 331 
L 781 2994 
L 231 2994 
L 231 3322 
L 1356 3322 
L 1356 2731 
Q 1516 3063 1762 3238 
Q 2009 3413 2322 3413 
Q 2709 3413 2968 3220 
Q 3228 3028 3316 2675 
z
" transform="scale(0.015625)"/>
       </defs>
       <use xlink:href="#DejaVuSerif-54"/>
       <use xlink:href="#DejaVuSerif-65" transform="translate(58.949219 0)"/>
       <use xlink:href="#DejaVuSerif-6c" transform="translate(118.128906 0)"/>
       <use xlink:href="#DejaVuSerif-65" transform="translate(150.111328 0)"/>
       <use xlink:href="#DejaVuSerif-63" transform="translate(209.291016 0)"/>
       <use xlink:href="#DejaVuSerif-6f" transform="translate(265.296875 0)"/>
       <use xlink:href="#DejaVuSerif-6d" transform="translate(325.501953 0)"/>
      </g>
     </g>
    </g>
    <g id="xtick_6">
     <g id="line2d_6">
      <g>
       <use xlink:href="#m8ac70d8f17" x="558.53947" y="456.777406" style="stroke: #000000; stroke-width: 0.8"/>
      </g>
     </g>
     <g id="text_6">
      <!-- Mega -->
      <g transform="translate(542.852438 471.979281) scale(0.11 -0.11)">
       <defs>
        <path id="DejaVuSerif-4d" d="M 353 0 
L 353 331 
L 947 331 
L 947 4331 
L 319 4331 
L 319 4666 
L 1678 4666 
L 3316 1344 
L 4953 4666 
L 6228 4666 
L 6228 4331 
L 5606 4331 
L 5606 331 
L 6203 331 
L 6203 0 
L 4378 0 
L 4378 331 
L 4972 331 
L 4972 3938 
L 3372 684 
L 2931 684 
L 1331 3938 
L 1331 331 
L 1925 331 
L 1925 0 
L 353 0 
z
" transform="scale(0.015625)"/>
       </defs>
       <use xlink:href="#DejaVuSerif-4d"/>
       <use xlink:href="#DejaVuSerif-65" transform="translate(102.392578 0)"/>
       <use xlink:href="#DejaVuSerif-67" transform="translate(161.572266 0)"/>
       <use xlink:href="#DejaVuSerif-61" transform="translate(225.585938 0)"/>
      </g>
      <!-- Projects -->
      <g transform="translate(535.826188 484.453281) scale(0.11 -0.11)">
       <defs>
        <path id="DejaVuSerif-50" d="M 1581 2375 
L 2406 2375 
Q 2872 2375 3115 2626 
Q 3359 2878 3359 3353 
Q 3359 3831 3115 4081 
Q 2872 4331 2406 4331 
L 1581 4331 
L 1581 2375 
z
M 353 0 
L 353 331 
L 947 331 
L 947 4331 
L 353 4331 
L 353 4666 
L 2559 4666 
Q 3259 4666 3668 4311 
Q 4078 3956 4078 3353 
Q 4078 2753 3668 2397 
Q 3259 2041 2559 2041 
L 1581 2041 
L 1581 331 
L 2303 331 
L 2303 0 
L 353 0 
z
" transform="scale(0.015625)"/>
        <path id="DejaVuSerif-6a" d="M 641 4353 
Q 641 4497 745 4603 
Q 850 4709 997 4709 
Q 1141 4709 1245 4603 
Q 1350 4497 1350 4353 
Q 1350 4206 1248 4103 
Q 1147 4000 997 4000 
Q 850 4000 745 4103 
Q 641 4206 641 4353 
z
M 781 2988 
L 238 2988 
L 238 3322 
L 1356 3322 
L 1356 -325 
Q 1356 -838 1051 -1130 
Q 747 -1422 213 -1422 
Q -13 -1422 -217 -1370 
Q -422 -1319 -616 -1216 
L -616 -531 
L -319 -531 
Q -297 -831 -164 -972 
Q -31 -1113 225 -1113 
Q 509 -1113 645 -920 
Q 781 -728 781 -325 
L 781 2988 
z
" transform="scale(0.015625)"/>
        <path id="DejaVuSerif-74" d="M 691 2988 
L 184 2988 
L 184 3322 
L 691 3322 
L 691 4353 
L 1269 4353 
L 1269 3322 
L 2350 3322 
L 2350 2988 
L 1269 2988 
L 1269 878 
Q 1269 456 1350 337 
Q 1431 219 1650 219 
Q 1875 219 1978 351 
Q 2081 484 2088 781 
L 2522 781 
Q 2497 328 2275 118 
Q 2053 -91 1600 -91 
Q 1103 -91 897 129 
Q 691 350 691 878 
L 691 2988 
z
" transform="scale(0.015625)"/>
       </defs>
       <use xlink:href="#DejaVuSerif-50"/>
       <use xlink:href="#DejaVuSerif-72" transform="translate(67.285156 0)"/>
       <use xlink:href="#DejaVuSerif-6f" transform="translate(115.087891 0)"/>
       <use xlink:href="#DejaVuSerif-6a" transform="translate(175.292969 0)"/>
       <use xlink:href="#DejaVuSerif-65" transform="translate(206.298828 0)"/>
       <use xlink:href="#DejaVuSerif-63" transform="translate(265.478516 0)"/>
       <use xlink:href="#DejaVuSerif-74" transform="translate(321.484375 0)"/>
       <use xlink:href="#DejaVuSerif-73" transform="translate(361.669922 0)"/>
      </g>
     </g>
    </g>
    <g id="xtick_7">
     <g id="line2d_7">
      <g>
       <use xlink:href="#m8ac70d8f17" x="647.533409" y="456.777406" style="stroke: #000000; stroke-width: 0.8"/>
      </g>
     </g>
     <g id="text_7">
      <!-- Healthcare -->
      <g transform="translate(616.447237 472.135688) scale(0.11 -0.11)">
       <defs>
        <path id="DejaVuSerif-48" d="M 353 0 
L 353 331 
L 947 331 
L 947 4331 
L 353 4331 
L 353 4666 
L 2175 4666 
L 2175 4331 
L 1581 4331 
L 1581 2719 
L 4000 2719 
L 4000 4331 
L 3406 4331 
L 3406 4666 
L 5228 4666 
L 5228 4331 
L 4634 4331 
L 4634 331 
L 5228 331 
L 5228 0 
L 3406 0 
L 3406 331 
L 4000 331 
L 4000 2338 
L 1581 2338 
L 1581 331 
L 2175 331 
L 2175 0 
L 353 0 
z
" transform="scale(0.015625)"/>
        <path id="DejaVuSerif-68" d="M 263 0 
L 263 331 
L 781 331 
L 781 4531 
L 231 4531 
L 231 4863 
L 1356 4863 
L 1356 2731 
Q 1516 3069 1770 3241 
Q 2025 3413 2363 3413 
Q 2913 3413 3172 3097 
Q 3431 2781 3431 2113 
L 3431 331 
L 3944 331 
L 3944 0 
L 2356 0 
L 2356 331 
L 2853 331 
L 2853 1931 
Q 2853 2541 2704 2764 
Q 2556 2988 2175 2988 
Q 1775 2988 1565 2697 
Q 1356 2406 1356 1850 
L 1356 331 
L 1856 331 
L 1856 0 
L 263 0 
z
" transform="scale(0.015625)"/>
       </defs>
       <use xlink:href="#DejaVuSerif-48"/>
       <use xlink:href="#DejaVuSerif-65" transform="translate(87.207031 0)"/>
       <use xlink:href="#DejaVuSerif-61" transform="translate(146.386719 0)"/>
       <use xlink:href="#DejaVuSerif-6c" transform="translate(206.005859 0)"/>
       <use xlink:href="#DejaVuSerif-74" transform="translate(237.988281 0)"/>
       <use xlink:href="#DejaVuSerif-68" transform="translate(278.173828 0)"/>
       <use xlink:href="#DejaVuSerif-63" transform="translate(342.578125 0)"/>
       <use xlink:href="#DejaVuSerif-61" transform="translate(398.583984 0)"/>
       <use xlink:href="#DejaVuSerif-72" transform="translate(458.203125 0)"/>
       <use xlink:href="#DejaVuSerif-65" transform="translate(506.005859 0)"/>
      </g>
     </g>
    </g>
    <g id="xtick_8">
     <g id="line2d_8">
      <g>
       <use xlink:href="#m8ac70d8f17" x="736.527348" y="456.777406" style="stroke: #000000; stroke-width: 0.8"/>
      </g>
     </g>
     <g id="text_8">
      <!-- Water -->
      <g transform="translate(719.981802 472.135688) scale(0.11 -0.11)">
       <defs>
        <path id="DejaVuSerif-57" d="M 4878 0 
L 4366 0 
L 3297 3794 
L 2228 0 
L 1716 0 
L 494 4331 
L 31 4331 
L 31 4666 
L 1734 4666 
L 1734 4331 
L 1153 4331 
L 2125 884 
L 3188 4666 
L 3694 4666 
L 4775 844 
L 5753 4331 
L 5216 4331 
L 5216 4666 
L 6559 4666 
L 6559 4331 
L 6100 4331 
L 4878 0 
z
" transform="scale(0.015625)"/>
       </defs>
       <use xlink:href="#DejaVuSerif-57"/>
       <use xlink:href="#DejaVuSerif-61" transform="translate(94.033203 0)"/>
       <use xlink:href="#DejaVuSerif-74" transform="translate(153.652344 0)"/>
       <use xlink:href="#DejaVuSerif-65" transform="translate(193.837891 0)"/>
       <use xlink:href="#DejaVuSerif-72" transform="translate(253.017578 0)"/>
      </g>
     </g>
    </g>
    <g id="xtick_9">
     <g id="line2d_9">
      <g>
       <use xlink:href="#m8ac70d8f17" x="825.521288" y="456.777406" style="stroke: #000000; stroke-width: 0.8"/>
      </g>
     </g>
     <g id="text_9">
      <!-- Maritime -->
      <g transform="translate(799.782147 472.135688) scale(0.11 -0.11)">
       <use xlink:href="#DejaVuSerif-4d"/>
       <use xlink:href="#DejaVuSerif-61" transform="translate(102.392578 0)"/>
       <use xlink:href="#DejaVuSerif-72" transform="translate(162.011719 0)"/>
       <use xlink:href="#DejaVuSerif-69" transform="translate(209.814453 0)"/>
       <use xlink:href="#DejaVuSerif-74" transform="translate(241.796875 0)"/>
       <use xlink:href="#DejaVuSerif-69" transform="translate(281.982422 0)"/>
       <use xlink:href="#DejaVuSerif-6d" transform="translate(313.964844 0)"/>
       <use xlink:href="#DejaVuSerif-65" transform="translate(408.789062 0)"/>
      </g>
     </g>
    </g>
    <g id="xtick_10">
     <g id="line2d_10">
      <g>
       <use xlink:href="#m8ac70d8f17" x="914.515227" y="456.777406" style="stroke: #000000; stroke-width: 0.8"/>
      </g>
     </g>
     <g id="text_10">
      <!-- Space -->
      <g transform="translate(897.61218 472.135688) scale(0.11 -0.11)">
       <defs>
        <path id="DejaVuSerif-70" d="M 1313 1825 
L 1313 1497 
Q 1313 897 1542 583 
Q 1772 269 2209 269 
Q 2650 269 2876 622 
Q 3103 975 3103 1663 
Q 3103 2353 2876 2703 
Q 2650 3053 2209 3053 
Q 1772 3053 1542 2737 
Q 1313 2422 1313 1825 
z
M 738 2988 
L 184 2988 
L 184 3322 
L 1313 3322 
L 1313 2803 
Q 1481 3116 1742 3264 
Q 2003 3413 2388 3413 
Q 3000 3413 3387 2928 
Q 3775 2444 3775 1663 
Q 3775 881 3387 395 
Q 3000 -91 2388 -91 
Q 2003 -91 1742 57 
Q 1481 206 1313 519 
L 1313 -997 
L 1856 -997 
L 1856 -1331 
L 184 -1331 
L 184 -997 
L 738 -997 
L 738 2988 
z
" transform="scale(0.015625)"/>
       </defs>
       <use xlink:href="#DejaVuSerif-53"/>
       <use xlink:href="#DejaVuSerif-70" transform="translate(68.505859 0)"/>
       <use xlink:href="#DejaVuSerif-61" transform="translate(132.519531 0)"/>
       <use xlink:href="#DejaVuSerif-63" transform="translate(192.138672 0)"/>
       <use xlink:href="#DejaVuSerif-65" transform="translate(248.144531 0)"/>
      </g>
     </g>
    </g>
   </g>
   <g id="matplotlib.axis_2">
    <g id="ytick_1">
     <g id="line2d_11">
      <path d="M 36.8125 456.777406 
L 991.2725 456.777406 
" clip-path="url(#pec7ca61ca5)" style="fill: none; stroke: #b0b0b0; stroke-opacity: 0.2; stroke-width: 0.8; stroke-linecap: square"/>
     </g>
     <g id="line2d_12">
      <defs>
       <path id="medb6febc9a" d="M 0 0 
L -3.5 0 
" style="stroke: #000000; stroke-width: 0.8"/>
      </defs>
      <g>
       <use xlink:href="#medb6febc9a" x="36.8125" y="456.777406" style="stroke: #000000; stroke-width: 0.8"/>
      </g>
     </g>
     <g id="text_11">
      <!-- 0 -->
      <g transform="translate(22.81375 460.956547) scale(0.11 -0.11)">
       <defs>
        <path id="DejaVuSerif-30" d="M 2034 219 
Q 2513 219 2750 744 
Q 2988 1269 2988 2328 
Q 2988 3391 2750 3916 
Q 2513 4441 2034 4441 
Q 1556 4441 1318 3916 
Q 1081 3391 1081 2328 
Q 1081 1269 1318 744 
Q 1556 219 2034 219 
z
M 2034 -91 
Q 1275 -91 848 546 
Q 422 1184 422 2328 
Q 422 3475 848 4112 
Q 1275 4750 2034 4750 
Q 2797 4750 3222 4112 
Q 3647 3475 3647 2328 
Q 3647 1184 3222 546 
Q 2797 -91 2034 -91 
z
" transform="scale(0.015625)"/>
       </defs>
       <use xlink:href="#DejaVuSerif-30"/>
      </g>
     </g>
    </g>
    <g id="ytick_2">
     <g id="line2d_13">
      <path d="M 36.8125 390.399668 
L 991.2725 390.399668 
" clip-path="url(#pec7ca61ca5)" style="fill: none; stroke: #b0b0b0; stroke-opacity: 0.2; stroke-width: 0.8; stroke-linecap: square"/>
     </g>
     <g id="line2d_14">
      <g>
       <use xlink:href="#medb6febc9a" x="36.8125" y="390.399668" style="stroke: #000000; stroke-width: 0.8"/>
      </g>
     </g>
     <g id="text_12">
      <!-- 1 -->
      <g transform="translate(22.81375 394.578809) scale(0.11 -0.11)">
       <defs>
        <path id="DejaVuSerif-31" d="M 909 0 
L 909 331 
L 1722 331 
L 1722 4213 
L 781 3603 
L 781 4013 
L 1919 4750 
L 2350 4750 
L 2350 331 
L 3163 331 
L 3163 0 
L 909 0 
z
" transform="scale(0.015625)"/>
       </defs>
       <use xlink:href="#DejaVuSerif-31"/>
      </g>
     </g>
    </g>
    <g id="ytick_3">
     <g id="line2d_15">
      <path d="M 36.8125 324.02193 
L 991.2725 324.02193 
" clip-path="url(#pec7ca61ca5)" style="fill: none; stroke: #b0b0b0; stroke-opacity: 0.2; stroke-width: 0.8; stroke-linecap: square"/>
     </g>
     <g id="line2d_16">
      <g>
       <use xlink:href="#medb6febc9a" x="36.8125" y="324.02193" style="stroke: #000000; stroke-width: 0.8"/>
      </g>
     </g>
     <g id="text_13">
      <!-- 2 -->
      <g transform="translate(22.81375 328.201071) scale(0.11 -0.11)">
       <defs>
        <path id="DejaVuSerif-32" d="M 819 3553 
L 469 3553 
L 469 4384 
Q 803 4563 1142 4656 
Q 1481 4750 1806 4750 
Q 2534 4750 2956 4397 
Q 3378 4044 3378 3438 
Q 3378 2753 2422 1800 
Q 2347 1728 2309 1691 
L 1131 513 
L 3078 513 
L 3078 1088 
L 3444 1088 
L 3444 0 
L 434 0 
L 434 341 
L 1850 1753 
Q 2319 2222 2519 2614 
Q 2719 3006 2719 3438 
Q 2719 3909 2473 4175 
Q 2228 4441 1797 4441 
Q 1350 4441 1106 4219 
Q 863 3997 819 3553 
z
" transform="scale(0.015625)"/>
       </defs>
       <use xlink:href="#DejaVuSerif-32"/>
      </g>
     </g>
    </g>
    <g id="ytick_4">
     <g id="line2d_17">
      <path d="M 36.8125 257.644192 
L 991.2725 257.644192 
" clip-path="url(#pec7ca61ca5)" style="fill: none; stroke: #b0b0b0; stroke-opacity: 0.2; stroke-width: 0.8; stroke-linecap: square"/>
     </g>
     <g id="line2d_18">
      <g>
       <use xlink:href="#medb6febc9a" x="36.8125" y="257.644192" style="stroke: #000000; stroke-width: 0.8"/>
      </g>
     </g>
     <g id="text_14">
      <!-- 3 -->
      <g transform="translate(22.81375 261.823333) scale(0.11 -0.11)">
       <defs>
        <path id="DejaVuSerif-33" d="M 622 4469 
Q 988 4606 1323 4678 
Q 1659 4750 1953 4750 
Q 2638 4750 3022 4454 
Q 3406 4159 3406 3634 
Q 3406 3213 3140 2930 
Q 2875 2647 2388 2547 
Q 2963 2466 3280 2130 
Q 3597 1794 3597 1259 
Q 3597 606 3158 257 
Q 2719 -91 1894 -91 
Q 1528 -91 1179 -12 
Q 831 66 488 225 
L 488 1131 
L 838 1131 
Q 869 681 1141 450 
Q 1413 219 1906 219 
Q 2384 219 2661 495 
Q 2938 772 2938 1253 
Q 2938 1803 2653 2086 
Q 2369 2369 1819 2369 
L 1522 2369 
L 1522 2688 
L 1678 2688 
Q 2225 2688 2498 2914 
Q 2772 3141 2772 3597 
Q 2772 4006 2547 4223 
Q 2322 4441 1900 4441 
Q 1478 4441 1245 4241 
Q 1013 4041 972 3647 
L 622 3647 
L 622 4469 
z
" transform="scale(0.015625)"/>
       </defs>
       <use xlink:href="#DejaVuSerif-33"/>
      </g>
     </g>
    </g>
    <g id="ytick_5">
     <g id="line2d_19">
      <path d="M 36.8125 191.266454 
L 991.2725 191.266454 
" clip-path="url(#pec7ca61ca5)" style="fill: none; stroke: #b0b0b0; stroke-opacity: 0.2; stroke-width: 0.8; stroke-linecap: square"/>
     </g>
     <g id="line2d_20">
      <g>
       <use xlink:href="#medb6febc9a" x="36.8125" y="191.266454" style="stroke: #000000; stroke-width: 0.8"/>
      </g>
     </g>
     <g id="text_15">
      <!-- 4 -->
      <g transform="translate(22.81375 195.445594) scale(0.11 -0.11)">
       <defs>
        <path id="DejaVuSerif-34" d="M 2234 1581 
L 2234 4063 
L 641 1581 
L 2234 1581 
z
M 3609 0 
L 1484 0 
L 1484 331 
L 2234 331 
L 2234 1247 
L 197 1247 
L 197 1588 
L 2241 4750 
L 2859 4750 
L 2859 1581 
L 3750 1581 
L 3750 1247 
L 2859 1247 
L 2859 331 
L 3609 331 
L 3609 0 
z
" transform="scale(0.015625)"/>
       </defs>
       <use xlink:href="#DejaVuSerif-34"/>
      </g>
     </g>
    </g>
    <g id="ytick_6">
     <g id="line2d_21">
      <path d="M 36.8125 124.888716 
L 991.2725 124.888716 
" clip-path="url(#pec7ca61ca5)" style="fill: none; stroke: #b0b0b0; stroke-opacity: 0.2; stroke-width: 0.8; stroke-linecap: square"/>
     </g>
     <g id="line2d_22">
      <g>
       <use xlink:href="#medb6febc9a" x="36.8125" y="124.888716" style="stroke: #000000; stroke-width: 0.8"/>
      </g>
     </g>
     <g id="text_16">
      <!-- 5 -->
      <g transform="translate(22.81375 129.067856) scale(0.11 -0.11)">
       <defs>
        <path id="DejaVuSerif-35" d="M 3219 4666 
L 3219 4153 
L 1081 4153 
L 1081 2816 
Q 1244 2928 1461 2984 
Q 1678 3041 1947 3041 
Q 2703 3041 3140 2622 
Q 3578 2203 3578 1478 
Q 3578 738 3136 323 
Q 2694 -91 1894 -91 
Q 1572 -91 1234 -12 
Q 897 66 544 225 
L 544 1131 
L 897 1131 
Q 925 688 1179 453 
Q 1434 219 1894 219 
Q 2388 219 2653 544 
Q 2919 869 2919 1478 
Q 2919 2084 2655 2407 
Q 2391 2731 1894 2731 
Q 1613 2731 1398 2631 
Q 1184 2531 1019 2322 
L 750 2322 
L 750 4666 
L 3219 4666 
z
" transform="scale(0.015625)"/>
       </defs>
       <use xlink:href="#DejaVuSerif-35"/>
      </g>
     </g>
    </g>
    <g id="ytick_7">
     <g id="line2d_23">
      <path d="M 36.8125 58.510978 
L 991.2725 58.510978 
" clip-path="url(#pec7ca61ca5)" style="fill: none; stroke: #b0b0b0; stroke-opacity: 0.2; stroke-width: 0.8; stroke-linecap: square"/>
     </g>
     <g id="line2d_24">
      <g>
       <use xlink:href="#medb6febc9a" x="36.8125" y="58.510978" style="stroke: #000000; stroke-width: 0.8"/>
      </g>
     </g>
     <g id="text_17">
      <!-- 6 -->
      <g transform="translate(22.81375 62.690118) scale(0.11 -0.11)">
       <defs>
        <path id="DejaVuSerif-36" d="M 2094 219 
Q 2534 219 2771 542 
Q 3009 866 3009 1472 
Q 3009 2078 2771 2401 
Q 2534 2725 2094 2725 
Q 1647 2725 1412 2412 
Q 1178 2100 1178 1509 
Q 1178 888 1415 553 
Q 1653 219 2094 219 
z
M 1075 2569 
Q 1288 2803 1556 2918 
Q 1825 3034 2163 3034 
Q 2859 3034 3264 2615 
Q 3669 2197 3669 1472 
Q 3669 763 3233 336 
Q 2797 -91 2069 -91 
Q 1278 -91 853 498 
Q 428 1088 428 2181 
Q 428 3406 931 4078 
Q 1434 4750 2350 4750 
Q 2597 4750 2869 4703 
Q 3141 4656 3425 4563 
L 3425 3794 
L 3072 3794 
Q 3034 4109 2831 4275 
Q 2628 4441 2284 4441 
Q 1678 4441 1381 3981 
Q 1084 3522 1075 2569 
z
" transform="scale(0.015625)"/>
       </defs>
       <use xlink:href="#DejaVuSerif-36"/>
      </g>
     </g>
    </g>
    <g id="text_18">
     <!-- Number of Cases -->
     <g transform="translate(16.318125 305.054094) rotate(-90) scale(0.12 -0.12)">
      <defs>
       <path id="DejaVuSerif-Bold-4e" d="M 281 0 
L 281 378 
L 878 378 
L 878 4288 
L 281 4288 
L 281 4666 
L 1741 4666 
L 4556 1363 
L 4556 4288 
L 3963 4288 
L 3963 4666 
L 5594 4666 
L 5594 4288 
L 4997 4288 
L 4997 0 
L 4178 0 
L 1319 3372 
L 1319 378 
L 1913 378 
L 1913 0 
L 281 0 
z
" transform="scale(0.015625)"/>
       <path id="DejaVuSerif-Bold-75" d="M 3963 3322 
L 3963 378 
L 4434 378 
L 4434 0 
L 2853 0 
L 2853 469 
Q 2656 172 2400 40 
Q 2144 -91 1753 -91 
Q 1194 -91 908 239 
Q 622 569 622 1209 
L 622 2944 
L 147 2944 
L 147 3322 
L 1728 3322 
L 1728 1381 
Q 1728 763 1831 595 
Q 1934 428 2209 428 
Q 2544 428 2698 675 
Q 2853 922 2853 1459 
L 2853 2944 
L 2450 2944 
L 2450 3322 
L 3963 3322 
z
" transform="scale(0.015625)"/>
       <path id="DejaVuSerif-Bold-6d" d="M 3884 2778 
Q 4116 3109 4384 3261 
Q 4653 3413 5013 3413 
Q 5584 3413 5867 3089 
Q 6150 2766 6150 2113 
L 6150 378 
L 6625 378 
L 6625 0 
L 4647 0 
L 4647 378 
L 5044 378 
L 5044 1947 
Q 5044 2569 4948 2731 
Q 4853 2894 4594 2894 
Q 4300 2894 4137 2667 
Q 3975 2441 3975 2022 
L 3975 378 
L 4372 378 
L 4372 0 
L 2472 0 
L 2472 378 
L 2869 378 
L 2869 1947 
Q 2869 2569 2772 2731 
Q 2675 2894 2419 2894 
Q 2122 2894 1959 2667 
Q 1797 2441 1797 2022 
L 1797 378 
L 2194 378 
L 2194 0 
L 219 0 
L 219 378 
L 691 378 
L 691 2944 
L 219 2944 
L 219 3322 
L 1797 3322 
L 1797 2853 
Q 1991 3144 2241 3278 
Q 2491 3413 2834 3413 
Q 3241 3413 3494 3258 
Q 3747 3103 3884 2778 
z
" transform="scale(0.015625)"/>
       <path id="DejaVuSerif-Bold-62" d="M 622 378 
L 622 4488 
L 147 4488 
L 147 4863 
L 1728 4863 
L 1728 2900 
Q 1869 3159 2106 3286 
Q 2344 3413 2694 3413 
Q 3403 3413 3811 2945 
Q 4219 2478 4219 1663 
Q 4219 847 3811 378 
Q 3403 -91 2694 -91 
Q 2344 -91 2106 36 
Q 1869 163 1728 422 
L 1728 0 
L 147 0 
L 147 378 
L 622 378 
z
M 1728 1497 
Q 1728 916 1876 656 
Q 2025 397 2356 397 
Q 2697 397 2836 672 
Q 2975 947 2975 1663 
Q 2975 2378 2836 2651 
Q 2697 2925 2356 2925 
Q 2025 2925 1876 2665 
Q 1728 2406 1728 1825 
L 1728 1497 
z
" transform="scale(0.015625)"/>
       <path id="DejaVuSerif-Bold-65" d="M 2566 1875 
Q 2566 2531 2444 2795 
Q 2322 3059 2028 3059 
Q 1744 3059 1620 2800 
Q 1497 2541 1497 1931 
L 1497 1875 
L 2566 1875 
z
M 3781 1503 
L 1497 1503 
L 1497 1478 
Q 1497 834 1690 548 
Q 1884 263 2316 263 
Q 2675 263 2897 453 
Q 3119 644 3181 1006 
L 3700 1006 
Q 3566 441 3166 175 
Q 2766 -91 2047 -91 
Q 1184 -91 723 364 
Q 263 819 263 1663 
Q 263 2488 734 2950 
Q 1206 3413 2047 3413 
Q 2872 3413 3312 2927 
Q 3753 2441 3781 1503 
z
" transform="scale(0.015625)"/>
       <path id="DejaVuSerif-Bold-72" d="M 3438 3359 
L 3438 2369 
L 3084 2369 
Q 3066 2634 2941 2764 
Q 2816 2894 2578 2894 
Q 2216 2894 2006 2575 
Q 1797 2256 1797 1691 
L 1797 378 
L 2400 378 
L 2400 0 
L 219 0 
L 219 378 
L 691 378 
L 691 2944 
L 184 2944 
L 184 3322 
L 1797 3322 
L 1797 2731 
Q 1959 3078 2226 3245 
Q 2494 3413 2881 3413 
Q 2978 3413 3117 3398 
Q 3256 3384 3438 3359 
z
" transform="scale(0.015625)"/>
       <path id="DejaVuSerif-Bold-20" transform="scale(0.015625)"/>
       <path id="DejaVuSerif-Bold-6f" d="M 2138 263 
Q 2488 263 2630 563 
Q 2772 863 2772 1663 
Q 2772 2463 2631 2761 
Q 2491 3059 2138 3059 
Q 1784 3059 1640 2757 
Q 1497 2456 1497 1663 
Q 1497 869 1640 566 
Q 1784 263 2138 263 
z
M 2138 -91 
Q 1259 -91 761 376 
Q 263 844 263 1663 
Q 263 2484 761 2948 
Q 1259 3413 2138 3413 
Q 3019 3413 3516 2948 
Q 4013 2484 4013 1663 
Q 4013 844 3514 376 
Q 3016 -91 2138 -91 
z
" transform="scale(0.015625)"/>
       <path id="DejaVuSerif-Bold-66" d="M 3097 4031 
L 2747 4031 
Q 2722 4275 2605 4394 
Q 2488 4513 2272 4513 
Q 2022 4513 1909 4333 
Q 1797 4153 1797 3750 
L 1797 3322 
L 2631 3322 
L 2631 2944 
L 1797 2944 
L 1797 378 
L 2438 378 
L 2438 0 
L 219 0 
L 219 378 
L 691 378 
L 691 2944 
L 197 2944 
L 197 3322 
L 691 3322 
L 691 3738 
Q 691 4291 1044 4577 
Q 1397 4863 2081 4863 
Q 2347 4863 2600 4833 
Q 2853 4803 3097 4744 
L 3097 4031 
z
" transform="scale(0.015625)"/>
       <path id="DejaVuSerif-Bold-43" d="M 4769 1331 
Q 4584 609 4106 259 
Q 3628 -91 2822 -91 
Q 1641 -91 955 561 
Q 269 1213 269 2328 
Q 269 3447 955 4098 
Q 1641 4750 2822 4750 
Q 3238 4750 3688 4650 
Q 4138 4550 4641 4347 
L 4641 3200 
L 4244 3200 
Q 4122 3788 3800 4080 
Q 3478 4372 2950 4372 
Q 2269 4372 1937 3870 
Q 1606 3369 1606 2328 
Q 1606 1288 1937 788 
Q 2269 288 2956 288 
Q 3422 288 3717 547 
Q 4013 806 4147 1331 
L 4769 1331 
z
" transform="scale(0.015625)"/>
       <path id="DejaVuSerif-Bold-61" d="M 3525 2041 
L 3525 378 
L 4000 378 
L 4000 0 
L 2419 0 
L 2419 422 
Q 2200 159 1931 34 
Q 1663 -91 1319 -91 
Q 809 -91 536 182 
Q 263 456 263 966 
Q 263 1525 655 1803 
Q 1047 2081 1838 2081 
L 2419 2081 
L 2419 2278 
Q 2419 2681 2228 2873 
Q 2038 3066 1638 3066 
Q 1306 3066 1126 2930 
Q 947 2794 872 2484 
L 519 2484 
L 519 3200 
Q 816 3306 1134 3359 
Q 1453 3413 1806 3413 
Q 2697 3413 3111 3081 
Q 3525 2750 3525 2041 
z
M 2419 1044 
L 2419 1709 
L 2003 1709 
Q 1694 1709 1528 1540 
Q 1363 1372 1363 1056 
Q 1363 741 1483 584 
Q 1603 428 1850 428 
Q 2106 428 2262 597 
Q 2419 766 2419 1044 
z
" transform="scale(0.015625)"/>
       <path id="DejaVuSerif-Bold-73" d="M 300 97 
L 300 1025 
L 653 1025 
Q 697 653 931 458 
Q 1166 263 1569 263 
Q 1906 263 2086 380 
Q 2266 497 2266 716 
Q 2266 916 2152 1025 
Q 2038 1134 1709 1216 
L 1253 1331 
Q 738 1459 506 1698 
Q 275 1938 275 2344 
Q 275 2884 650 3148 
Q 1025 3413 1806 3413 
Q 2100 3413 2433 3364 
Q 2766 3316 3169 3213 
L 3169 2375 
L 2816 2375 
Q 2788 2716 2573 2887 
Q 2359 3059 1959 3059 
Q 1622 3059 1448 2951 
Q 1275 2844 1275 2638 
Q 1275 2469 1375 2372 
Q 1475 2275 1734 2209 
L 2188 2094 
Q 2841 1928 3091 1684 
Q 3341 1441 3341 1006 
Q 3341 444 2939 176 
Q 2538 -91 1691 -91 
Q 1381 -91 1034 -44 
Q 688 3 300 97 
z
" transform="scale(0.015625)"/>
      </defs>
      <use xlink:href="#DejaVuSerif-Bold-4e"/>
      <use xlink:href="#DejaVuSerif-Bold-75" transform="translate(91.40625 0)"/>
      <use xlink:href="#DejaVuSerif-Bold-6d" transform="translate(164.111328 0)"/>
      <use xlink:href="#DejaVuSerif-Bold-62" transform="translate(269.921875 0)"/>
      <use xlink:href="#DejaVuSerif-Bold-65" transform="translate(339.84375 0)"/>
      <use xlink:href="#DejaVuSerif-Bold-72" transform="translate(403.466797 0)"/>
      <use xlink:href="#DejaVuSerif-Bold-20" transform="translate(456.152344 0)"/>
      <use xlink:href="#DejaVuSerif-Bold-6f" transform="translate(490.966797 0)"/>
      <use xlink:href="#DejaVuSerif-Bold-66" transform="translate(557.666016 0)"/>
      <use xlink:href="#DejaVuSerif-Bold-20" transform="translate(600.683594 0)"/>
      <use xlink:href="#DejaVuSerif-Bold-43" transform="translate(635.498047 0)"/>
      <use xlink:href="#DejaVuSerif-Bold-61" transform="translate(715.087891 0)"/>
      <use xlink:href="#DejaVuSerif-Bold-73" transform="translate(779.882812 0)"/>
      <use xlink:href="#DejaVuSerif-Bold-65" transform="translate(836.181641 0)"/>
      <use xlink:href="#DejaVuSerif-Bold-73" transform="translate(899.804688 0)"/>
     </g>
    </g>
   </g>
   <g id="patch_33">
    <path d="M 36.8125 456.777406 
L 36.8125 38.597656 
" style="fill: none; stroke: #000000; stroke-width: 0.8; stroke-linejoin: miter; stroke-linecap: square"/>
   </g>
   <g id="patch_34">
    <path d="M 36.8125 456.777406 
L 991.2725 456.777406 
" style="fill: none; stroke: #000000; stroke-width: 0.8; stroke-linejoin: miter; stroke-linecap: square"/>
   </g>
   <g id="text_19">
    <!-- 3 -->
    <g transform="translate(88.190272 244.368644) scale(0.09 -0.09)">
     <defs>
      <path id="DejaVuSerif-Bold-33" d="M 550 4531 
Q 963 4641 1350 4695 
Q 1738 4750 2106 4750 
Q 2950 4750 3401 4448 
Q 3853 4147 3853 3584 
Q 3853 3163 3593 2900 
Q 3334 2638 2834 2547 
Q 3444 2450 3744 2131 
Q 4044 1813 4044 1259 
Q 4044 606 3526 257 
Q 3009 -91 2028 -91 
Q 1659 -91 1267 -28 
Q 875 34 447 159 
L 447 1184 
L 825 1184 
Q 859 741 1103 508 
Q 1347 275 1778 275 
Q 2253 275 2512 539 
Q 2772 803 2772 1288 
Q 2772 1794 2501 2069 
Q 2231 2344 1734 2344 
L 1528 2344 
L 1528 2719 
L 1691 2719 
Q 2150 2719 2381 2931 
Q 2613 3144 2613 3566 
Q 2613 3963 2395 4173 
Q 2178 4384 1772 4384 
Q 1403 4384 1187 4182 
Q 972 3981 928 3597 
L 550 3597 
L 550 4531 
z
" transform="scale(0.015625)"/>
     </defs>
     <use xlink:href="#DejaVuSerif-Bold-33"/>
    </g>
   </g>
   <g id="text_20">
    <!-- 4 -->
    <g transform="translate(110.438757 177.990906) scale(0.09 -0.09)">
     <defs>
      <path id="DejaVuSerif-Bold-34" d="M 4084 0 
L 1516 0 
L 1516 378 
L 2209 378 
L 2209 1228 
L 263 1228 
L 263 1588 
L 2216 4750 
L 3391 4750 
L 3391 1631 
L 4191 1631 
L 4191 1228 
L 3391 1228 
L 3391 378 
L 4084 378 
L 4084 0 
z
M 2209 1631 
L 2209 3897 
L 819 1631 
L 2209 1631 
z
" transform="scale(0.015625)"/>
     </defs>
     <use xlink:href="#DejaVuSerif-Bold-34"/>
    </g>
   </g>
   <g id="text_21">
    <!-- 3 -->
    <g transform="translate(132.687242 244.368644) scale(0.09 -0.09)">
     <use xlink:href="#DejaVuSerif-Bold-33"/>
    </g>
   </g>
   <g id="text_22">
    <!-- 4 -->
    <g transform="translate(177.184212 177.990906) scale(0.09 -0.09)">
     <use xlink:href="#DejaVuSerif-Bold-34"/>
    </g>
   </g>
   <g id="text_23">
    <!-- 3 -->
    <g transform="translate(199.432696 244.368644) scale(0.09 -0.09)">
     <use xlink:href="#DejaVuSerif-Bold-33"/>
    </g>
   </g>
   <g id="text_24">
    <!-- 3 -->
    <g transform="translate(221.681181 244.368644) scale(0.09 -0.09)">
     <use xlink:href="#DejaVuSerif-Bold-33"/>
    </g>
   </g>
   <g id="text_25">
    <!-- 6 -->
    <g transform="translate(266.178151 45.23543) scale(0.09 -0.09)">
     <defs>
      <path id="DejaVuSerif-Bold-36" d="M 1575 2766 
Q 1778 2928 2029 3009 
Q 2281 3091 2578 3091 
Q 3294 3091 3701 2672 
Q 4109 2253 4109 1522 
Q 4109 750 3650 329 
Q 3191 -91 2344 -91 
Q 1388 -91 895 486 
Q 403 1063 403 2181 
Q 403 3453 950 4101 
Q 1497 4750 2572 4750 
Q 2853 4750 3175 4703 
Q 3497 4656 3866 4563 
L 3866 3738 
L 3488 3738 
Q 3409 4056 3192 4220 
Q 2975 4384 2631 4384 
Q 2075 4384 1826 4003 
Q 1578 3622 1575 2766 
z
M 2272 275 
Q 2594 275 2731 548 
Q 2869 822 2869 1497 
Q 2869 2172 2731 2445 
Q 2594 2719 2272 2719 
Q 1950 2719 1814 2445 
Q 1678 2172 1678 1497 
Q 1678 822 1814 548 
Q 1950 275 2272 275 
z
" transform="scale(0.015625)"/>
     </defs>
     <use xlink:href="#DejaVuSerif-Bold-36"/>
    </g>
   </g>
   <g id="text_26">
    <!-- 3 -->
    <g transform="translate(288.426636 244.368644) scale(0.09 -0.09)">
     <use xlink:href="#DejaVuSerif-Bold-33"/>
    </g>
   </g>
   <g id="text_27">
    <!-- 1 -->
    <g transform="translate(310.675121 377.124121) scale(0.09 -0.09)">
     <defs>
      <path id="DejaVuSerif-Bold-31" d="M 878 0 
L 878 378 
L 1753 378 
L 1753 4153 
L 781 3578 
L 781 4044 
L 1953 4750 
L 2938 4750 
L 2938 378 
L 3816 378 
L 3816 0 
L 878 0 
z
" transform="scale(0.015625)"/>
     </defs>
     <use xlink:href="#DejaVuSerif-Bold-31"/>
    </g>
   </g>
   <g id="text_28">
    <!-- 5 -->
    <g transform="translate(355.17209 111.613168) scale(0.09 -0.09)">
     <defs>
      <path id="DejaVuSerif-Bold-35" d="M 3609 4666 
L 3609 3847 
L 1113 3847 
L 1113 2822 
Q 1319 2981 1572 3062 
Q 1825 3144 2106 3144 
Q 2969 3144 3469 2708 
Q 3969 2272 3969 1522 
Q 3969 759 3469 334 
Q 2969 -91 2069 -91 
Q 1688 -91 1311 -28 
Q 934 34 525 166 
L 525 1184 
L 900 1184 
Q 919 725 1139 500 
Q 1359 275 1791 275 
Q 2250 275 2472 583 
Q 2694 891 2694 1522 
Q 2694 2144 2476 2451 
Q 2259 2759 1819 2759 
Q 1581 2759 1395 2661 
Q 1209 2563 1050 2356 
L 738 2356 
L 738 4666 
L 3609 4666 
z
" transform="scale(0.015625)"/>
     </defs>
     <use xlink:href="#DejaVuSerif-Bold-35"/>
    </g>
   </g>
   <g id="text_29">
    <!-- 3 -->
    <g transform="translate(377.420575 244.368644) scale(0.09 -0.09)">
     <use xlink:href="#DejaVuSerif-Bold-33"/>
    </g>
   </g>
   <g id="text_30">
    <!-- 2 -->
    <g transform="translate(399.66906 310.746382) scale(0.09 -0.09)">
     <defs>
      <path id="DejaVuSerif-Bold-32" d="M 844 3513 
L 469 3513 
L 469 4519 
Q 850 4634 1223 4692 
Q 1597 4750 1978 4750 
Q 2869 4750 3367 4386 
Q 3866 4022 3866 3372 
Q 3866 2909 3591 2542 
Q 3316 2175 2541 1672 
L 1241 819 
L 3450 819 
L 3450 1369 
L 3878 1369 
L 3878 0 
L 428 0 
L 428 763 
L 1119 1241 
Q 2003 1850 2297 2278 
Q 2591 2706 2591 3278 
Q 2591 3819 2367 4101 
Q 2144 4384 1716 4384 
Q 1347 4384 1125 4161 
Q 903 3938 844 3513 
z
" transform="scale(0.015625)"/>
     </defs>
     <use xlink:href="#DejaVuSerif-Bold-32"/>
    </g>
   </g>
   <g id="text_31">
    <!-- 3 -->
    <g transform="translate(444.16603 244.368644) scale(0.09 -0.09)">
     <use xlink:href="#DejaVuSerif-Bold-33"/>
    </g>
   </g>
   <g id="text_32">
    <!-- 5 -->
    <g transform="translate(466.414515 111.613168) scale(0.09 -0.09)">
     <use xlink:href="#DejaVuSerif-Bold-35"/>
    </g>
   </g>
   <g id="text_33">
    <!-- 2 -->
    <g transform="translate(488.663 310.746382) scale(0.09 -0.09)">
     <use xlink:href="#DejaVuSerif-Bold-32"/>
    </g>
   </g>
   <g id="text_34">
    <!-- 2 -->
    <g transform="translate(533.159969 310.746382) scale(0.09 -0.09)">
     <use xlink:href="#DejaVuSerif-Bold-32"/>
    </g>
   </g>
   <g id="text_35">
    <!-- 5 -->
    <g transform="translate(555.408454 111.613168) scale(0.09 -0.09)">
     <use xlink:href="#DejaVuSerif-Bold-35"/>
    </g>
   </g>
   <g id="text_36">
    <!-- 3 -->
    <g transform="translate(577.656939 244.368644) scale(0.09 -0.09)">
     <use xlink:href="#DejaVuSerif-Bold-33"/>
    </g>
   </g>
   <g id="text_37">
    <!-- 3 -->
    <g transform="translate(622.153909 244.368644) scale(0.09 -0.09)">
     <use xlink:href="#DejaVuSerif-Bold-33"/>
    </g>
   </g>
   <g id="text_38">
    <!-- 4 -->
    <g transform="translate(644.402393 177.990906) scale(0.09 -0.09)">
     <use xlink:href="#DejaVuSerif-Bold-34"/>
    </g>
   </g>
   <g id="text_39">
    <!-- 3 -->
    <g transform="translate(666.650878 244.368644) scale(0.09 -0.09)">
     <use xlink:href="#DejaVuSerif-Bold-33"/>
    </g>
   </g>
   <g id="text_40">
    <!-- 3 -->
    <g transform="translate(711.147848 244.368644) scale(0.09 -0.09)">
     <use xlink:href="#DejaVuSerif-Bold-33"/>
    </g>
   </g>
   <g id="text_41">
    <!-- 3 -->
    <g transform="translate(733.396333 244.368644) scale(0.09 -0.09)">
     <use xlink:href="#DejaVuSerif-Bold-33"/>
    </g>
   </g>
   <g id="text_42">
    <!-- 4 -->
    <g transform="translate(755.644818 177.990906) scale(0.09 -0.09)">
     <use xlink:href="#DejaVuSerif-Bold-34"/>
    </g>
   </g>
   <g id="text_43">
    <!-- 2 -->
    <g transform="translate(800.141787 310.746382) scale(0.09 -0.09)">
     <use xlink:href="#DejaVuSerif-Bold-32"/>
    </g>
   </g>
   <g id="text_44">
    <!-- 5 -->
    <g transform="translate(822.390272 111.613168) scale(0.09 -0.09)">
     <use xlink:href="#DejaVuSerif-Bold-35"/>
    </g>
   </g>
   <g id="text_45">
    <!-- 3 -->
    <g transform="translate(844.638757 244.368644) scale(0.09 -0.09)">
     <use xlink:href="#DejaVuSerif-Bold-33"/>
    </g>
   </g>
   <g id="text_46">
    <!-- 3 -->
    <g transform="translate(889.135727 244.368644) scale(0.09 -0.09)">
     <use xlink:href="#DejaVuSerif-Bold-33"/>
    </g>
   </g>
   <g id="text_47">
    <!-- 4 -->
    <g transform="translate(911.384212 177.990906) scale(0.09 -0.09)">
     <use xlink:href="#DejaVuSerif-Bold-34"/>
    </g>
   </g>
   <g id="text_48">
    <!-- 3 -->
    <g transform="translate(933.632696 244.368644) scale(0.09 -0.09)">
     <use xlink:href="#DejaVuSerif-Bold-33"/>
    </g>
   </g>
   <g id="text_49">
    <!-- Risk Level Distribution Across Gulf Infrastructure Domains -->
    <g transform="translate(263.706563 18.597656) scale(0.15 -0.15)">
     <defs>
      <path id="DejaVuSerif-Bold-52" d="M 3397 2278 
Q 3675 2238 3865 2094 
Q 4056 1950 4197 1678 
L 4878 378 
L 5356 378 
L 5356 0 
L 3822 0 
L 3078 1409 
Q 2863 1847 2711 1967 
Q 2559 2088 2291 2088 
L 2100 2088 
L 2100 378 
L 2700 378 
L 2700 0 
L 300 0 
L 300 378 
L 897 378 
L 897 4288 
L 300 4288 
L 300 4666 
L 2963 4666 
Q 3775 4666 4217 4339 
Q 4659 4013 4659 3413 
Q 4659 2925 4345 2642 
Q 4031 2359 3397 2278 
z
M 2100 2463 
L 2509 2463 
Q 2947 2463 3183 2700 
Q 3419 2938 3419 3378 
Q 3419 3819 3183 4053 
Q 2947 4288 2509 4288 
L 2100 4288 
L 2100 2463 
z
" transform="scale(0.015625)"/>
      <path id="DejaVuSerif-Bold-69" d="M 588 4263 
Q 588 4516 763 4689 
Q 938 4863 1191 4863 
Q 1438 4863 1611 4689 
Q 1784 4516 1784 4263 
Q 1784 4016 1611 3842 
Q 1438 3669 1191 3669 
Q 938 3669 763 3841 
Q 588 4013 588 4263 
z
M 1797 378 
L 2272 378 
L 2272 0 
L 219 0 
L 219 378 
L 691 378 
L 691 2944 
L 219 2944 
L 219 3322 
L 1797 3322 
L 1797 378 
z
" transform="scale(0.015625)"/>
      <path id="DejaVuSerif-Bold-6b" d="M 2216 0 
L 219 0 
L 219 378 
L 691 378 
L 691 4488 
L 219 4488 
L 219 4863 
L 1797 4863 
L 1797 1741 
L 3138 2944 
L 2741 2944 
L 2741 3322 
L 4256 3322 
L 4256 2944 
L 3641 2944 
L 2784 2175 
L 4184 378 
L 4544 378 
L 4544 0 
L 2638 0 
L 2638 378 
L 3028 378 
L 2106 1563 
L 1797 1288 
L 1797 378 
L 2216 378 
L 2216 0 
z
" transform="scale(0.015625)"/>
      <path id="DejaVuSerif-Bold-4c" d="M 300 0 
L 300 378 
L 897 378 
L 897 4288 
L 300 4288 
L 300 4666 
L 2700 4666 
L 2700 4288 
L 2100 4288 
L 2100 428 
L 3938 428 
L 3938 1166 
L 4359 1166 
L 4359 0 
L 300 0 
z
" transform="scale(0.015625)"/>
      <path id="DejaVuSerif-Bold-76" d="M 1428 0 
L 250 2944 
L -116 2944 
L -116 3322 
L 1791 3322 
L 1791 2944 
L 1388 2944 
L 2228 844 
L 3066 2944 
L 2631 2944 
L 2631 3322 
L 3878 3322 
L 3878 2944 
L 3494 2944 
L 2316 0 
L 1428 0 
z
" transform="scale(0.015625)"/>
      <path id="DejaVuSerif-Bold-6c" d="M 1797 378 
L 2272 378 
L 2272 0 
L 219 0 
L 219 378 
L 691 378 
L 691 4488 
L 219 4488 
L 219 4863 
L 1797 4863 
L 1797 378 
z
" transform="scale(0.015625)"/>
      <path id="DejaVuSerif-Bold-44" d="M 2100 378 
L 2534 378 
Q 3266 378 3605 847 
Q 3944 1316 3944 2338 
Q 3944 3353 3606 3820 
Q 3269 4288 2534 4288 
L 2100 4288 
L 2100 378 
z
M 300 0 
L 300 378 
L 897 378 
L 897 4288 
L 300 4288 
L 300 4666 
L 2694 4666 
Q 3950 4666 4615 4066 
Q 5281 3466 5281 2338 
Q 5281 1203 4614 601 
Q 3947 0 2694 0 
L 300 0 
z
" transform="scale(0.015625)"/>
      <path id="DejaVuSerif-Bold-74" d="M 634 2944 
L 153 2944 
L 153 3322 
L 634 3322 
L 634 4353 
L 1741 4353 
L 1741 3322 
L 2663 3322 
L 2663 2944 
L 1741 2944 
L 1741 909 
Q 1741 475 1809 369 
Q 1878 263 2059 263 
Q 2259 263 2356 397 
Q 2453 531 2459 813 
L 2925 813 
Q 2897 313 2651 111 
Q 2406 -91 1806 -91 
Q 1122 -91 878 123 
Q 634 338 634 909 
L 634 2944 
z
" transform="scale(0.015625)"/>
      <path id="DejaVuSerif-Bold-6e" d="M 219 0 
L 219 378 
L 691 378 
L 691 2944 
L 219 2944 
L 219 3322 
L 1797 3322 
L 1797 2853 
Q 1997 3150 2253 3281 
Q 2509 3413 2900 3413 
Q 3459 3413 3745 3083 
Q 4031 2753 4031 2113 
L 4031 378 
L 4506 378 
L 4506 0 
L 2522 0 
L 2522 378 
L 2925 378 
L 2925 2144 
Q 2925 2566 2817 2730 
Q 2709 2894 2444 2894 
Q 2109 2894 1953 2648 
Q 1797 2403 1797 1869 
L 1797 378 
L 2203 378 
L 2203 0 
L 219 0 
z
" transform="scale(0.015625)"/>
      <path id="DejaVuSerif-Bold-41" d="M -50 0 
L -50 378 
L 331 378 
L 2088 4666 
L 2834 4666 
L 4594 378 
L 5038 378 
L 5038 0 
L 2853 0 
L 2853 378 
L 3309 378 
L 2925 1331 
L 1172 1331 
L 781 378 
L 1338 378 
L 1338 0 
L -50 0 
z
M 1325 1709 
L 2772 1709 
L 2053 3494 
L 1325 1709 
z
" transform="scale(0.015625)"/>
      <path id="DejaVuSerif-Bold-63" d="M 3609 1038 
Q 3491 469 3123 189 
Q 2756 -91 2125 -91 
Q 1238 -91 750 368 
Q 263 828 263 1663 
Q 263 2488 744 2950 
Q 1225 3413 2081 3413 
Q 2428 3413 2781 3347 
Q 3134 3281 3500 3150 
L 3500 2228 
L 3150 2228 
Q 3100 2650 2903 2854 
Q 2706 3059 2350 3059 
Q 1888 3059 1692 2746 
Q 1497 2434 1497 1663 
Q 1497 909 1687 586 
Q 1878 263 2309 263 
Q 2644 263 2845 463 
Q 3047 663 3091 1038 
L 3609 1038 
z
" transform="scale(0.015625)"/>
      <path id="DejaVuSerif-Bold-47" d="M 4403 3200 
Q 4263 3819 3934 4095 
Q 3606 4372 3009 4372 
Q 2284 4372 1945 3880 
Q 1606 3388 1606 2328 
Q 1606 1278 1931 783 
Q 2256 288 2944 288 
Q 3206 288 3431 347 
Q 3656 406 3841 525 
L 3841 1806 
L 3278 1806 
L 3278 2181 
L 4959 2181 
L 4959 391 
Q 4434 147 3911 28 
Q 3388 -91 2841 -91 
Q 1641 -91 955 556 
Q 269 1203 269 2328 
Q 269 3456 955 4103 
Q 1641 4750 2841 4750 
Q 3341 4750 3825 4650 
Q 4309 4550 4800 4347 
L 4800 3200 
L 4403 3200 
z
" transform="scale(0.015625)"/>
      <path id="DejaVuSerif-Bold-49" d="M 300 0 
L 300 378 
L 897 378 
L 897 4288 
L 300 4288 
L 300 4666 
L 2700 4666 
L 2700 4288 
L 2100 4288 
L 2100 378 
L 2700 378 
L 2700 0 
L 300 0 
z
" transform="scale(0.015625)"/>
     </defs>
     <use xlink:href="#DejaVuSerif-Bold-52"/>
     <use xlink:href="#DejaVuSerif-Bold-69" transform="translate(83.105469 0)"/>
     <use xlink:href="#DejaVuSerif-Bold-73" transform="translate(121.09375 0)"/>
     <use xlink:href="#DejaVuSerif-Bold-6b" transform="translate(177.392578 0)"/>
     <use xlink:href="#DejaVuSerif-Bold-20" transform="translate(246.679688 0)"/>
     <use xlink:href="#DejaVuSerif-Bold-4c" transform="translate(281.494141 0)"/>
     <use xlink:href="#DejaVuSerif-Bold-65" transform="translate(351.806641 0)"/>
     <use xlink:href="#DejaVuSerif-Bold-76" transform="translate(415.429688 0)"/>
     <use xlink:href="#DejaVuSerif-Bold-65" transform="translate(473.535156 0)"/>
     <use xlink:href="#DejaVuSerif-Bold-6c" transform="translate(537.158203 0)"/>
     <use xlink:href="#DejaVuSerif-Bold-20" transform="translate(575.146484 0)"/>
     <use xlink:href="#DejaVuSerif-Bold-44" transform="translate(609.960938 0)"/>
     <use xlink:href="#DejaVuSerif-Bold-69" transform="translate(696.679688 0)"/>
     <use xlink:href="#DejaVuSerif-Bold-73" transform="translate(734.667969 0)"/>
     <use xlink:href="#DejaVuSerif-Bold-74" transform="translate(790.966797 0)"/>
     <use xlink:href="#DejaVuSerif-Bold-72" transform="translate(837.158203 0)"/>
     <use xlink:href="#DejaVuSerif-Bold-69" transform="translate(889.84375 0)"/>
     <use xlink:href="#DejaVuSerif-Bold-62" transform="translate(927.832031 0)"/>
     <use xlink:href="#DejaVuSerif-Bold-75" transform="translate(997.753906 0)"/>
     <use xlink:href="#DejaVuSerif-Bold-74" transform="translate(1070.458984 0)"/>
     <use xlink:href="#DejaVuSerif-Bold-69" transform="translate(1116.650391 0)"/>
     <use xlink:href="#DejaVuSerif-Bold-6f" transform="translate(1154.638672 0)"/>
     <use xlink:href="#DejaVuSerif-Bold-6e" transform="translate(1221.337891 0)"/>
     <use xlink:href="#DejaVuSerif-Bold-20" transform="translate(1294.042969 0)"/>
     <use xlink:href="#DejaVuSerif-Bold-41" transform="translate(1328.857422 0)"/>
     <use xlink:href="#DejaVuSerif-Bold-63" transform="translate(1406.445312 0)"/>
     <use xlink:href="#DejaVuSerif-Bold-72" transform="translate(1467.333984 0)"/>
     <use xlink:href="#DejaVuSerif-Bold-6f" transform="translate(1520.019531 0)"/>
     <use xlink:href="#DejaVuSerif-Bold-73" transform="translate(1586.71875 0)"/>
     <use xlink:href="#DejaVuSerif-Bold-73" transform="translate(1643.017578 0)"/>
     <use xlink:href="#DejaVuSerif-Bold-20" transform="translate(1699.316406 0)"/>
     <use xlink:href="#DejaVuSerif-Bold-47" transform="translate(1734.130859 0)"/>
     <use xlink:href="#DejaVuSerif-Bold-75" transform="translate(1819.53125 0)"/>
     <use xlink:href="#DejaVuSerif-Bold-6c" transform="translate(1892.236328 0)"/>
     <use xlink:href="#DejaVuSerif-Bold-66" transform="translate(1930.224609 0)"/>
     <use xlink:href="#DejaVuSerif-Bold-20" transform="translate(1973.242188 0)"/>
     <use xlink:href="#DejaVuSerif-Bold-49" transform="translate(2008.056641 0)"/>
     <use xlink:href="#DejaVuSerif-Bold-6e" transform="translate(2054.833984 0)"/>
     <use xlink:href="#DejaVuSerif-Bold-66" transform="translate(2127.539062 0)"/>
     <use xlink:href="#DejaVuSerif-Bold-72" transform="translate(2170.556641 0)"/>
     <use xlink:href="#DejaVuSerif-Bold-61" transform="translate(2223.242188 0)"/>
     <use xlink:href="#DejaVuSerif-Bold-73" transform="translate(2288.037109 0)"/>
     <use xlink:href="#DejaVuSerif-Bold-74" transform="translate(2344.335938 0)"/>
     <use xlink:href="#DejaVuSerif-Bold-72" transform="translate(2390.527344 0)"/>
     <use xlink:href="#DejaVuSerif-Bold-75" transform="translate(2443.212891 0)"/>
     <use xlink:href="#DejaVuSerif-Bold-63" transform="translate(2515.917969 0)"/>
     <use xlink:href="#DejaVuSerif-Bold-74" transform="translate(2576.806641 0)"/>
     <use xlink:href="#DejaVuSerif-Bold-75" transform="translate(2622.998047 0)"/>
     <use xlink:href="#DejaVuSerif-Bold-72" transform="translate(2695.703125 0)"/>
     <use xlink:href="#DejaVuSerif-Bold-65" transform="translate(2748.388672 0)"/>
     <use xlink:href="#DejaVuSerif-Bold-20" transform="translate(2812.011719 0)"/>
     <use xlink:href="#DejaVuSerif-Bold-44" transform="translate(2846.826172 0)"/>
     <use xlink:href="#DejaVuSerif-Bold-6f" transform="translate(2933.544922 0)"/>
     <use xlink:href="#DejaVuSerif-Bold-6d" transform="translate(3000.244141 0)"/>
     <use xlink:href="#DejaVuSerif-Bold-61" transform="translate(3106.054688 0)"/>
     <use xlink:href="#DejaVuSerif-Bold-69" transform="translate(3170.849609 0)"/>
     <use xlink:href="#DejaVuSerif-Bold-6e" transform="translate(3208.837891 0)"/>
     <use xlink:href="#DejaVuSerif-Bold-73" transform="translate(3281.542969 0)"/>
    </g>
   </g>
   <g id="legend_1">
    <g id="patch_35">
     <path d="M 902.523125 95.991875 
L 983.5725 95.991875 
Q 985.7725 95.991875 985.7725 93.791875 
L 985.7725 46.297656 
Q 985.7725 44.097656 983.5725 44.097656 
L 902.523125 44.097656 
Q 900.323125 44.097656 900.323125 46.297656 
L 900.323125 93.791875 
Q 900.323125 95.991875 902.523125 95.991875 
z
" style="fill: #ffffff; opacity: 0.8; stroke: #cccccc; stroke-linejoin: miter"/>
    </g>
    <g id="patch_36">
     <path d="M 904.723125 56.855937 
L 926.723125 56.855937 
L 926.723125 49.155937 
L 904.723125 49.155937 
z
" style="fill: #c41e3a; stroke: #ffffff; stroke-linejoin: miter"/>
    </g>
    <g id="text_50">
     <!-- Critical -->
     <g transform="translate(935.523125 56.855937) scale(0.11 -0.11)">
      <use xlink:href="#DejaVuSerif-43"/>
      <use xlink:href="#DejaVuSerif-72" transform="translate(76.513672 0)"/>
      <use xlink:href="#DejaVuSerif-69" transform="translate(124.316406 0)"/>
      <use xlink:href="#DejaVuSerif-74" transform="translate(156.298828 0)"/>
      <use xlink:href="#DejaVuSerif-69" transform="translate(196.484375 0)"/>
      <use xlink:href="#DejaVuSerif-63" transform="translate(228.466797 0)"/>
      <use xlink:href="#DejaVuSerif-61" transform="translate(284.472656 0)"/>
      <use xlink:href="#DejaVuSerif-6c" transform="translate(344.091797 0)"/>
     </g>
    </g>
    <g id="patch_37">
     <path d="M 904.723125 73.001875 
L 926.723125 73.001875 
L 926.723125 65.301875 
L 904.723125 65.301875 
z
" style="fill: #e67e22; stroke: #ffffff; stroke-linejoin: miter"/>
    </g>
    <g id="text_51">
     <!-- High -->
     <g transform="translate(935.523125 73.001875) scale(0.11 -0.11)">
      <use xlink:href="#DejaVuSerif-48"/>
      <use xlink:href="#DejaVuSerif-69" transform="translate(87.207031 0)"/>
      <use xlink:href="#DejaVuSerif-67" transform="translate(119.189453 0)"/>
      <use xlink:href="#DejaVuSerif-68" transform="translate(183.203125 0)"/>
     </g>
    </g>
    <g id="patch_38">
     <path d="M 904.723125 89.304219 
L 926.723125 89.304219 
L 926.723125 81.604219 
L 904.723125 81.604219 
z
" style="fill: #c8963e; stroke: #ffffff; stroke-linejoin: miter"/>
    </g>
    <g id="text_52">
     <!-- Medium -->
     <g transform="translate(935.523125 89.304219) scale(0.11 -0.11)">
      <use xlink:href="#DejaVuSerif-4d"/>
      <use xlink:href="#DejaVuSerif-65" transform="translate(102.392578 0)"/>
      <use xlink:href="#DejaVuSerif-64" transform="translate(161.572266 0)"/>
      <use xlink:href="#DejaVuSerif-69" transform="translate(225.585938 0)"/>
      <use xlink:href="#DejaVuSerif-75" transform="translate(257.568359 0)"/>
      <use xlink:href="#DejaVuSerif-6d" transform="translate(321.972656 0)"/>
     </g>
    </g>
   </g>
  </g>
 </g>
 <defs>
  <clipPath id="pec7ca61ca5">
   <rect x="36.8125" y="38.597656" width="954.46" height="418.17975"/>
  </clipPath>
 </defs>
</svg>
